<svg width="9" height="16" viewBox="0 0 9 16" fill="none" xmlns="http://www.w3.org/2000/svg">
<path d="M0.379683 1.15845C0.499009 1.04141 0.640975 0.948503 0.797392 0.885104C0.95381 0.821704 1.12158 0.789062 1.29103 0.789062C1.46048 0.789062 1.62825 0.821704 1.78467 0.885104C1.94109 0.948503 2.08305 1.04141 2.20238 1.15845L8.62032 7.40242C8.74063 7.51851 8.83612 7.65663 8.90128 7.80881C8.96645 7.96098 9 8.12421 9 8.28906C9 8.45392 8.96645 8.61714 8.90128 8.76932C8.83612 8.9215 8.74063 9.05961 8.62032 9.1757L2.20238 15.4197C2.08305 15.5367 1.94109 15.6296 1.78467 15.693C1.62825 15.7564 1.46048 15.7891 1.29103 15.7891C1.12158 15.7891 0.95381 15.7564 0.797392 15.693C0.640975 15.6296 0.499009 15.5367 0.379683 15.4197C0.259375 15.3036 0.163883 15.1655 0.0987167 15.0133C0.0335512 14.8611 0 14.6979 0 14.533C0 14.3682 0.0335512 14.2049 0.0987167 14.0528C0.163883 13.9006 0.259375 13.7625 0.379683 13.6464L5.89911 8.28906L0.379683 2.93174C0.259375 2.81565 0.163883 2.67753 0.0987167 2.52535C0.0335512 2.37318 0 2.20995 0 2.0451C0 1.88024 0.0335512 1.71702 0.0987167 1.56484C0.163883 1.41266 0.259375 1.27454 0.379683 1.15845Z" fill="white"/>
</svg>
