<svg width="301" height="119" viewBox="0 0 301 119" fill="none" xmlns="http://www.w3.org/2000/svg">
<path d="M31.2188 39.25V46H8.34375V39.25H31.2188ZM10.9375 0.5V46H2.34375V0.5H10.9375ZM55.5938 37.9688V12.1875H63.9062V46H56.0938L55.5938 37.9688ZM56.6562 30.9688L59.2188 30.9062C59.2188 33.1771 58.9688 35.2708 58.4688 37.1875C57.9688 39.1042 57.1875 40.7708 56.125 42.1875C55.0833 43.5833 53.7604 44.6771 52.1562 45.4688C50.5521 46.2396 48.6562 46.625 46.4688 46.625C44.8021 46.625 43.2812 46.3958 41.9062 45.9375C40.5312 45.4583 39.3438 44.7188 38.3438 43.7188C37.3646 42.6979 36.6042 41.3958 36.0625 39.8125C35.5208 38.2083 35.25 36.2812 35.25 34.0312V12.1875H43.5V34.0938C43.5 35.2188 43.625 36.1562 43.875 36.9062C44.1458 37.6562 44.5104 38.2708 44.9688 38.75C45.4479 39.2083 46 39.5417 46.625 39.75C47.2708 39.9375 47.9583 40.0312 48.6875 40.0312C50.6875 40.0312 52.2604 39.6354 53.4062 38.8438C54.5729 38.0312 55.4062 36.9479 55.9062 35.5938C56.4062 34.2188 56.6562 32.6771 56.6562 30.9688ZM77.6875 12.1875L83.7188 22.9375L89.8438 12.1875H98.8125L88.875 28.75L99.2188 46H90.25L83.7812 34.7188L77.2812 46H68.3125L78.625 28.75L68.75 12.1875H77.6875ZM123.719 37.9688V12.1875H132.031V46H124.219L123.719 37.9688ZM124.781 30.9688L127.344 30.9062C127.344 33.1771 127.094 35.2708 126.594 37.1875C126.094 39.1042 125.312 40.7708 124.25 42.1875C123.208 43.5833 121.885 44.6771 120.281 45.4688C118.677 46.2396 116.781 46.625 114.594 46.625C112.927 46.625 111.406 46.3958 110.031 45.9375C108.656 45.4583 107.469 44.7188 106.469 43.7188C105.49 42.6979 104.729 41.3958 104.188 39.8125C103.646 38.2083 103.375 36.2812 103.375 34.0312V12.1875H111.625V34.0938C111.625 35.2188 111.75 36.1562 112 36.9062C112.271 37.6562 112.635 38.2708 113.094 38.75C113.573 39.2083 114.125 39.5417 114.75 39.75C115.396 39.9375 116.083 40.0312 116.812 40.0312C118.812 40.0312 120.385 39.6354 121.531 38.8438C122.698 38.0312 123.531 36.9479 124.031 35.5938C124.531 34.2188 124.781 32.6771 124.781 30.9688ZM147.594 19.0938V46H139.344V12.1875H147.156L147.594 19.0938ZM157.875 11.9688L157.75 19.6562C157.292 19.5729 156.771 19.5104 156.188 19.4688C155.625 19.4271 155.094 19.4062 154.594 19.4062C153.323 19.4062 152.208 19.5833 151.25 19.9375C150.292 20.2708 149.49 20.7604 148.844 21.4062C148.219 22.0521 147.74 22.8438 147.406 23.7812C147.073 24.6979 146.885 25.7396 146.844 26.9062L145.062 26.6875C145.062 24.5417 145.281 22.5521 145.719 20.7188C146.156 18.8854 146.792 17.2812 147.625 15.9062C148.458 14.5312 149.5 13.4688 150.75 12.7188C152.021 11.9479 153.479 11.5625 155.125 11.5625C155.583 11.5625 156.073 11.6042 156.594 11.6875C157.135 11.75 157.562 11.8438 157.875 11.9688ZM172.875 42.25L181.938 12.1875H190.781L177.219 51.125C176.906 51.9583 176.5 52.8646 176 53.8438C175.521 54.8229 174.875 55.75 174.062 56.625C173.25 57.5208 172.229 58.25 171 58.8125C169.792 59.375 168.323 59.6562 166.594 59.6562C165.844 59.6562 165.177 59.6042 164.594 59.5C164.01 59.3958 163.396 59.2604 162.75 59.0938V52.9062C162.958 52.9271 163.198 52.9375 163.469 52.9375C163.76 52.9583 164.01 52.9688 164.219 52.9688C165.427 52.9688 166.427 52.8229 167.219 52.5312C168.01 52.2604 168.646 51.8125 169.125 51.1875C169.625 50.5833 170.042 49.7917 170.375 48.8125L172.875 42.25ZM168.406 12.1875L176.062 37.0938L177.406 45.8125L171.719 46.8438L159.5 12.1875H168.406ZM15.5938 112.125C16.7604 112.125 17.8021 111.896 18.7188 111.438C19.6354 110.979 20.3646 110.333 20.9062 109.5C21.4688 108.667 21.7708 107.698 21.8125 106.594H29.5938C29.5521 108.885 28.9062 110.938 27.6562 112.75C26.4062 114.562 24.7396 116 22.6562 117.062C20.5938 118.104 18.2812 118.625 15.7188 118.625C13.1146 118.625 10.8438 118.188 8.90625 117.312C6.96875 116.438 5.35417 115.219 4.0625 113.656C2.79167 112.094 1.83333 110.281 1.1875 108.219C0.5625 106.156 0.25 103.948 0.25 101.594V100.594C0.25 98.2396 0.5625 96.0312 1.1875 93.9688C1.83333 91.9062 2.79167 90.0938 4.0625 88.5312C5.35417 86.9688 6.96875 85.75 8.90625 84.875C10.8438 84 13.1042 83.5625 15.6875 83.5625C18.4167 83.5625 20.8125 84.0938 22.875 85.1562C24.9583 86.2188 26.5833 87.7188 27.75 89.6562C28.9375 91.5938 29.5521 93.875 29.5938 96.5H21.8125C21.7708 95.2917 21.5 94.2083 21 93.25C20.5 92.2917 19.7917 91.5208 18.875 90.9375C17.9583 90.3542 16.8438 90.0625 15.5312 90.0625C14.1354 90.0625 12.9688 90.3542 12.0312 90.9375C11.1146 91.5208 10.3958 92.3229 9.875 93.3438C9.375 94.3438 9.02083 95.4688 8.8125 96.7188C8.625 97.9479 8.53125 99.2396 8.53125 100.594V101.594C8.53125 102.969 8.625 104.281 8.8125 105.531C9.02083 106.781 9.375 107.906 9.875 108.906C10.3958 109.885 11.1146 110.667 12.0312 111.25C12.9688 111.833 14.1562 112.125 15.5938 112.125ZM53.7188 110.812V95.2188C53.7188 94.0729 53.5208 93.0833 53.125 92.25C52.7292 91.4167 52.125 90.7708 51.3125 90.3125C50.5 89.8542 49.4688 89.625 48.2188 89.625C47.1146 89.625 46.1458 89.8125 45.3125 90.1875C44.5 90.5625 43.875 91.0938 43.4375 91.7812C43 92.4479 42.7812 93.2188 42.7812 94.0938H34.5C34.5 92.6979 34.8333 91.375 35.5 90.125C36.1667 88.8542 37.1146 87.7292 38.3438 86.75C39.5938 85.75 41.0833 84.9688 42.8125 84.4062C44.5625 83.8438 46.5208 83.5625 48.6875 83.5625C51.25 83.5625 53.5312 84 55.5312 84.875C57.5521 85.7292 59.1354 87.0208 60.2812 88.75C61.4479 90.4792 62.0312 92.6562 62.0312 95.2812V110.031C62.0312 111.719 62.1354 113.167 62.3438 114.375C62.5729 115.562 62.9062 116.594 63.3438 117.469V118H54.9375C54.5417 117.146 54.2396 116.062 54.0312 114.75C53.8229 113.417 53.7188 112.104 53.7188 110.812ZM54.875 97.4062L54.9375 102.312H49.7188C48.4271 102.312 47.2917 102.448 46.3125 102.719C45.3333 102.969 44.5312 103.344 43.9062 103.844C43.2812 104.323 42.8125 104.906 42.5 105.594C42.1875 106.26 42.0312 107.021 42.0312 107.875C42.0312 108.708 42.2188 109.458 42.5938 110.125C42.9896 110.792 43.5521 111.323 44.2812 111.719C45.0312 112.094 45.9062 112.281 46.9062 112.281C48.3646 112.281 49.6354 111.99 50.7188 111.406C51.8021 110.802 52.6458 110.073 53.25 109.219C53.8542 108.365 54.1771 107.552 54.2188 106.781L56.5938 110.344C56.3021 111.198 55.8646 112.104 55.2812 113.062C54.6979 114.021 53.9479 114.917 53.0312 115.75C52.1146 116.583 51.0104 117.271 49.7188 117.812C48.4271 118.354 46.9271 118.625 45.2188 118.625C43.0312 118.625 41.0729 118.188 39.3438 117.312C37.6146 116.438 36.25 115.24 35.25 113.719C34.25 112.198 33.75 110.469 33.75 108.531C33.75 106.74 34.0833 105.156 34.75 103.781C35.4167 102.406 36.4062 101.25 37.7188 100.312C39.0312 99.3542 40.6562 98.6354 42.5938 98.1562C44.5521 97.6562 46.7917 97.4062 49.3125 97.4062H54.875ZM77.7188 91.0938V118H69.4688V84.1875H77.2812L77.7188 91.0938ZM88 83.9688L87.875 91.6562C87.4167 91.5729 86.8958 91.5104 86.3125 91.4688C85.75 91.4271 85.2188 91.4062 84.7188 91.4062C83.4479 91.4062 82.3333 91.5833 81.375 91.9375C80.4167 92.2708 79.6146 92.7604 78.9688 93.4062C78.3438 94.0521 77.8646 94.8438 77.5312 95.7812C77.1979 96.6979 77.0104 97.7396 76.9688 98.9062L75.1875 98.6875C75.1875 96.5417 75.4062 94.5521 75.8438 92.7188C76.2812 90.8854 76.9167 89.2812 77.75 87.9062C78.5833 86.5312 79.625 85.4688 80.875 84.7188C82.1458 83.9479 83.6042 83.5625 85.25 83.5625C85.7083 83.5625 86.1979 83.6042 86.7188 83.6875C87.2604 83.75 87.6875 83.8438 88 83.9688ZM116.719 91.0938V118H108.469V84.1875H116.281L116.719 91.0938ZM127 83.9688L126.875 91.6562C126.417 91.5729 125.896 91.5104 125.312 91.4688C124.75 91.4271 124.219 91.4062 123.719 91.4062C122.448 91.4062 121.333 91.5833 120.375 91.9375C119.417 92.2708 118.615 92.7604 117.969 93.4062C117.344 94.0521 116.865 94.8438 116.531 95.7812C116.198 96.6979 116.01 97.7396 115.969 98.9062L114.188 98.6875C114.188 96.5417 114.406 94.5521 114.844 92.7188C115.281 90.8854 115.917 89.2812 116.75 87.9062C117.583 86.5312 118.625 85.4688 119.875 84.7188C121.146 83.9479 122.604 83.5625 124.25 83.5625C124.708 83.5625 125.198 83.6042 125.719 83.6875C126.26 83.75 126.688 83.8438 127 83.9688ZM146.094 118.625C143.531 118.625 141.229 118.208 139.188 117.375C137.146 116.542 135.406 115.385 133.969 113.906C132.552 112.406 131.458 110.667 130.688 108.688C129.938 106.688 129.562 104.542 129.562 102.25V101C129.562 98.3958 129.938 96.0312 130.688 93.9062C131.438 91.7604 132.5 89.9167 133.875 88.375C135.25 86.8333 136.896 85.6458 138.812 84.8125C140.729 83.9792 142.844 83.5625 145.156 83.5625C147.552 83.5625 149.667 83.9688 151.5 84.7812C153.333 85.5729 154.865 86.6979 156.094 88.1562C157.323 89.6146 158.25 91.3646 158.875 93.4062C159.5 95.4271 159.812 97.6667 159.812 100.125V103.594H133.312V97.9062H151.688V97.2812C151.646 95.9688 151.396 94.7708 150.938 93.6875C150.479 92.5833 149.771 91.7083 148.812 91.0625C147.854 90.3958 146.615 90.0625 145.094 90.0625C143.865 90.0625 142.792 90.3333 141.875 90.875C140.979 91.3958 140.229 92.1458 139.625 93.125C139.042 94.0833 138.604 95.2292 138.312 96.5625C138.021 97.8958 137.875 99.375 137.875 101V102.25C137.875 103.667 138.062 104.979 138.438 106.188C138.833 107.396 139.406 108.448 140.156 109.344C140.927 110.219 141.844 110.906 142.906 111.406C143.99 111.885 145.219 112.125 146.594 112.125C148.323 112.125 149.885 111.792 151.281 111.125C152.698 110.438 153.927 109.427 154.969 108.094L159.125 112.406C158.417 113.448 157.458 114.448 156.25 115.406C155.062 116.365 153.625 117.146 151.938 117.75C150.25 118.333 148.302 118.625 146.094 118.625ZM173.438 91.4062V118H165.188V84.1875H172.938L173.438 91.4062ZM172.125 99.875H169.688C169.708 97.4167 170.042 95.1875 170.688 93.1875C171.333 91.1875 172.24 89.4688 173.406 88.0312C174.594 86.5938 176 85.4896 177.625 84.7188C179.25 83.9479 181.062 83.5625 183.062 83.5625C184.688 83.5625 186.156 83.7917 187.469 84.25C188.781 84.7083 189.906 85.4375 190.844 86.4375C191.802 87.4375 192.531 88.75 193.031 90.375C193.552 91.9792 193.812 93.9583 193.812 96.3125V118H185.5V96.25C185.5 94.7083 185.271 93.4896 184.812 92.5938C184.375 91.6979 183.729 91.0625 182.875 90.6875C182.042 90.3125 181.01 90.125 179.781 90.125C178.51 90.125 177.396 90.3854 176.438 90.9062C175.5 91.4062 174.708 92.1042 174.062 93C173.438 93.8958 172.958 94.9271 172.625 96.0938C172.292 97.2604 172.125 98.5208 172.125 99.875ZM217.094 84.1875V90.125H197.719V84.1875H217.094ZM202.906 75.875H211.188V108.25C211.188 109.25 211.323 110.021 211.594 110.562C211.865 111.104 212.271 111.469 212.812 111.656C213.354 111.844 214 111.938 214.75 111.938C215.292 111.938 215.792 111.906 216.25 111.844C216.708 111.781 217.094 111.719 217.406 111.656L217.438 117.844C216.75 118.073 215.969 118.26 215.094 118.406C214.24 118.552 213.271 118.625 212.188 118.625C210.333 118.625 208.708 118.312 207.312 117.688C205.917 117.042 204.833 116.01 204.062 114.594C203.292 113.156 202.906 111.26 202.906 108.906V75.875ZM241.219 110.812V95.2188C241.219 94.0729 241.021 93.0833 240.625 92.25C240.229 91.4167 239.625 90.7708 238.812 90.3125C238 89.8542 236.969 89.625 235.719 89.625C234.615 89.625 233.646 89.8125 232.812 90.1875C232 90.5625 231.375 91.0938 230.938 91.7812C230.5 92.4479 230.281 93.2188 230.281 94.0938H222C222 92.6979 222.333 91.375 223 90.125C223.667 88.8542 224.615 87.7292 225.844 86.75C227.094 85.75 228.583 84.9688 230.312 84.4062C232.062 83.8438 234.021 83.5625 236.188 83.5625C238.75 83.5625 241.031 84 243.031 84.875C245.052 85.7292 246.635 87.0208 247.781 88.75C248.948 90.4792 249.531 92.6562 249.531 95.2812V110.031C249.531 111.719 249.635 113.167 249.844 114.375C250.073 115.562 250.406 116.594 250.844 117.469V118H242.438C242.042 117.146 241.74 116.062 241.531 114.75C241.323 113.417 241.219 112.104 241.219 110.812ZM242.375 97.4062L242.438 102.312H237.219C235.927 102.312 234.792 102.448 233.812 102.719C232.833 102.969 232.031 103.344 231.406 103.844C230.781 104.323 230.312 104.906 230 105.594C229.688 106.26 229.531 107.021 229.531 107.875C229.531 108.708 229.719 109.458 230.094 110.125C230.49 110.792 231.052 111.323 231.781 111.719C232.531 112.094 233.406 112.281 234.406 112.281C235.865 112.281 237.135 111.99 238.219 111.406C239.302 110.802 240.146 110.073 240.75 109.219C241.354 108.365 241.677 107.552 241.719 106.781L244.094 110.344C243.802 111.198 243.365 112.104 242.781 113.062C242.198 114.021 241.448 114.917 240.531 115.75C239.615 116.583 238.51 117.271 237.219 117.812C235.927 118.354 234.427 118.625 232.719 118.625C230.531 118.625 228.573 118.188 226.844 117.312C225.115 116.438 223.75 115.24 222.75 113.719C221.75 112.198 221.25 110.469 221.25 108.531C221.25 106.74 221.583 105.156 222.25 103.781C222.917 102.406 223.906 101.25 225.219 100.312C226.531 99.3542 228.156 98.6354 230.094 98.1562C232.052 97.6562 234.292 97.4062 236.812 97.4062H242.375ZM265.719 70V118H257.438V70H265.719ZM292.188 108.75C292.188 108.042 292 107.406 291.625 106.844C291.25 106.281 290.542 105.771 289.5 105.312C288.479 104.833 286.979 104.385 285 103.969C283.25 103.594 281.635 103.125 280.156 102.562C278.677 102 277.406 101.323 276.344 100.531C275.281 99.7188 274.448 98.7708 273.844 97.6875C273.26 96.5833 272.969 95.3125 272.969 93.875C272.969 92.4792 273.271 91.1667 273.875 89.9375C274.479 88.6875 275.354 87.5938 276.5 86.6562C277.646 85.6979 279.042 84.9479 280.688 84.4062C282.333 83.8438 284.188 83.5625 286.25 83.5625C289.125 83.5625 291.594 84.0312 293.656 84.9688C295.74 85.9062 297.333 87.1979 298.438 88.8438C299.542 90.4688 300.094 92.3021 300.094 94.3438H291.844C291.844 93.4479 291.635 92.6354 291.219 91.9062C290.823 91.1771 290.208 90.5938 289.375 90.1562C288.542 89.6979 287.49 89.4688 286.219 89.4688C285.073 89.4688 284.104 89.6562 283.312 90.0312C282.542 90.4062 281.958 90.8958 281.562 91.5C281.167 92.1042 280.969 92.7708 280.969 93.5C280.969 94.0417 281.073 94.5312 281.281 94.9688C281.51 95.3854 281.875 95.7708 282.375 96.125C282.875 96.4792 283.552 96.8021 284.406 97.0938C285.281 97.3854 286.354 97.6667 287.625 97.9375C290.146 98.4375 292.344 99.1042 294.219 99.9375C296.115 100.75 297.594 101.833 298.656 103.188C299.719 104.542 300.25 106.271 300.25 108.375C300.25 109.875 299.927 111.25 299.281 112.5C298.635 113.729 297.698 114.802 296.469 115.719C295.24 116.635 293.771 117.354 292.062 117.875C290.354 118.375 288.427 118.625 286.281 118.625C283.177 118.625 280.552 118.073 278.406 116.969C276.26 115.844 274.635 114.427 273.531 112.719C272.427 110.99 271.875 109.198 271.875 107.344H279.781C279.844 108.656 280.198 109.708 280.844 110.5C281.49 111.292 282.302 111.865 283.281 112.219C284.281 112.552 285.333 112.719 286.438 112.719C287.688 112.719 288.74 112.552 289.594 112.219C290.448 111.865 291.094 111.396 291.531 110.812C291.969 110.208 292.188 109.521 292.188 108.75Z" fill="white"/>
</svg>
