<svg width="309" height="57" viewBox="0 0 309 57" fill="none" xmlns="http://www.w3.org/2000/svg">
<path d="M0.940585 12.0957C0.940585 8.6172 2.50823 5.7448 5.64351 3.4785C8.7788 1.1595 13.4295 0 19.5955 0C31.5096 0 37.4666 4.19001 37.4666 12.57C37.4666 15.9958 36.0558 18.8419 33.234 21.1082C30.4645 23.3218 26.467 24.8766 21.2416 25.7725V25.9307C27.7211 26.405 32.5024 27.9334 35.5855 30.5159C38.6685 33.0985 40.21 36.4452 40.21 40.5562C40.21 45.6158 38.1721 49.6214 34.0962 52.5728C30.0726 55.5243 24.4552 57 17.2441 57C14.4223 57 11.7834 56.6838 9.32747 56.0513C6.92375 55.4189 4.75518 54.1803 2.82176 52.3356C0.940585 50.4383 0 48.1983 0 45.6158C0 43.0333 0.600929 41.0305 1.80279 39.6075C3.0569 38.1845 4.75518 37.473 6.89762 37.473C9.04007 37.473 10.7383 38.0527 11.9925 39.2122C13.2466 40.319 13.8736 41.663 13.8736 43.2441C13.8736 44.7725 13.6646 46.0901 13.2466 47.1969H10.8167C10.5032 48.0402 10.3464 48.9098 10.3464 49.8058C10.3464 53.5479 12.5411 55.4189 16.9305 55.4189C20.0136 55.4189 22.1038 54.233 23.2011 51.8613C24.3507 49.4896 24.9255 46.0638 24.9255 41.5839C24.9255 37.104 24.3768 33.8627 23.2795 31.8599C22.2344 29.8044 20.6667 28.2497 18.5766 27.1956C16.6954 27.6172 14.4223 27.9598 11.7573 28.2233L11.5222 26.484C16.1206 26.0097 19.1252 24.9029 20.5361 23.1637C21.9992 21.4244 22.7308 18.3412 22.7308 13.914C22.7308 9.43412 22.2866 6.24549 21.3983 4.34813C20.5622 2.39806 19.1252 1.42302 17.0873 1.42302C15.0494 1.42302 13.5862 2.05548 12.6979 3.32039C11.8618 4.53259 11.4438 5.69209 11.4438 6.79889C11.4438 7.90569 11.6006 8.88072 11.9141 9.724H14.1872C14.6052 10.8308 14.8142 12.1748 14.8142 13.7559C14.8142 15.2843 14.161 16.6283 12.8547 17.7878C11.5483 18.8946 9.82389 19.448 7.68145 19.448C5.539 19.448 3.86685 18.7628 2.66499 17.3925C1.51539 15.9695 0.940585 14.2039 0.940585 12.0957Z" fill="white"/>
<path d="M45.2455 31.8599C45.2455 21.6879 47.4924 13.835 51.9863 8.30097C56.5325 2.76699 62.7508 0 70.6413 0C76.0235 0 80.1516 1.1068 83.0256 3.32039C85.8996 5.48128 87.3366 8.32732 87.3366 11.8585C87.3366 13.8613 86.6835 15.6006 85.3771 17.0763C84.123 18.4993 82.4508 19.2108 80.3606 19.2108C78.2704 19.2108 76.5983 18.6574 75.3442 17.5506C74.0901 16.3911 73.463 15.0472 73.463 13.5187C73.463 11.9376 73.672 10.5673 74.0901 9.40777H76.5983C76.9118 8.56449 77.0686 7.61581 77.0686 6.56172C77.0686 3.24133 75.2135 1.58114 71.5035 1.58114C67.7934 1.58114 65.0761 3.5312 63.3517 7.43134C61.6273 11.2788 60.739 17.9459 60.6867 27.4327C63.404 23.1637 67.3492 21.0291 72.5224 21.0291C77.6956 21.0291 81.7715 22.4521 84.75 25.2982C87.7286 28.0915 89.2178 32.3079 89.2178 37.9473C89.2178 43.5867 87.2583 48.172 83.3391 51.7032C79.42 55.2344 74.1684 57 67.5844 57C52.6918 57 45.2455 48.62 45.2455 31.8599ZM68.5249 23.638C66.7483 23.638 65.2329 24.3232 63.9788 25.6935C62.7769 27.0111 61.9408 28.5922 61.4706 30.4369C61.0525 32.2288 60.8435 34.6006 60.8435 37.552C60.8435 40.4508 60.8435 42.4799 60.8435 43.6394C60.8957 44.7462 60.9741 46.0901 61.0786 47.6713C61.2354 49.1997 61.4444 50.3329 61.7057 51.0707C61.967 51.7559 62.3327 52.4938 62.803 53.2843C63.6391 54.6546 64.9716 55.3398 66.8005 55.3398C68.6294 55.3398 69.9881 54.9972 70.8764 54.3121C71.817 53.5742 72.4963 52.362 72.9143 50.6754C73.5414 48.1983 73.8549 45.1151 73.8549 41.4258C73.8549 37.7365 73.8288 35.2857 73.7765 34.0735C73.7765 32.8613 73.7243 31.5964 73.6198 30.2788C73.5153 28.9085 73.3324 27.8807 73.0711 27.1956C72.8621 26.5104 72.5747 25.8516 72.2089 25.2191C71.5296 24.165 70.3016 23.638 68.5249 23.638Z" fill="white"/>
<path d="M116.433 57C108.856 57 103.082 54.4175 99.1105 49.2524C95.1914 44.0874 93.2318 36.8669 93.2318 27.5908C93.2318 18.3148 95.3481 11.4105 99.5808 6.87795C103.813 2.29265 109.588 0 116.903 0C124.271 0 130.045 2.2663 134.226 6.79889C138.458 11.3315 140.575 18.552 140.575 28.4605C140.575 38.3689 138.458 45.6158 134.226 50.2011C129.993 54.7337 124.062 57 116.433 57ZM109.3 25.5354V32.5714C109.3 37.6838 109.326 41.294 109.379 43.4022C109.483 45.5104 109.77 47.6976 110.241 49.9639C110.711 52.2302 111.469 53.706 112.514 54.3911C113.559 55.0236 114.787 55.3398 116.198 55.3398C117.609 55.3398 118.654 55.2607 119.333 55.1026C120.065 54.9445 120.692 54.6283 121.214 54.154C121.789 53.6269 122.259 53.1262 122.625 52.6519C122.991 52.1248 123.278 51.3343 123.487 50.2802C123.749 49.2261 123.958 48.251 124.114 47.3551C124.271 46.4591 124.376 45.1415 124.428 43.4022C124.532 40.0291 124.585 36.6297 124.585 33.2039V26.2469C124.585 15.9168 124.193 9.24965 123.409 6.24549C122.677 3.18862 120.535 1.66019 116.982 1.66019C113.428 1.66019 111.26 3.21498 110.476 6.32455C109.692 9.43412 109.3 15.8377 109.3 25.5354Z" fill="white"/>
<path d="M173.5 55.4189C176.06 55.4189 177.68 54.9445 178.36 53.9958C179.091 53.0472 179.457 51.4397 179.457 49.1734V33.8363H174.441V32.0971H197.015V33.8363H193.958V56.1304H192.782C191.841 54.8128 190.509 54.154 188.785 54.154C188.053 54.154 185.858 54.6283 182.2 55.577C178.595 56.5257 175.512 57 172.951 57C164.434 57 157.824 54.681 153.121 50.043C148.47 45.405 146.145 38.448 146.145 29.172C146.145 19.8433 148.574 12.6491 153.434 7.58946C158.346 2.52982 164.93 0 173.186 0C176.374 0 179.562 0.421636 182.749 1.26491C185.989 2.05548 187.87 2.45076 188.393 2.45076C188.915 2.45076 189.307 2.34535 189.568 2.13454C189.83 1.87101 190.117 1.44938 190.431 0.869624H191.293L191.92 18.025H190.509C187.948 12.9126 185.362 8.90707 182.749 6.00832C180.189 3.05686 177.315 1.58114 174.127 1.58114C166.132 1.58114 162.135 9.46047 162.135 25.2191V31.4646C162.135 39.3703 163.101 45.3523 165.035 49.4105C167.02 53.4161 169.842 55.4189 173.5 55.4189Z" fill="white"/>
<path d="M226.023 26.8793L237.153 2.13454H229.236V0.869624H244.678V2.13454H239.504L227.669 28.5395V54.7073H232.45V56.2094H207.603V54.7073H212.384V30.0416L199.059 2.13454H195.375V0.869624H220.458V2.13454H215.363L226.023 26.8793Z" fill="white"/>
<path d="M288.072 0.869624H309V2.3717H304.689V54.7073H309V56.2094H285.093V54.7073H289.404V5.29681H289.091L277.334 56.2094H267.536L253.741 5.05964H253.427V54.7073H257.738V56.2094H247.078V54.7073H251.389V2.3717H247.078V0.869624H268.241L278.666 41.5839L288.072 0.869624Z" fill="white"/>
</svg>
