<svg width="141" height="35" viewBox="0 0 141 35" fill="none" xmlns="http://www.w3.org/2000/svg">
<mask id="mask0_429_3380" style="mask-type:alpha" maskUnits="userSpaceOnUse" x="0" y="0" width="141" height="35">
<path fill-rule="evenodd" clip-rule="evenodd" d="M19.421 2.99456L19.4183 2.99319L19.4208 2.99473C16.9376 5.50192 8.24414 14.0627 2.99165 19.201L2.60938 18.5383C7.67043 13.5354 16.4289 4.82955 18.839 2.3956L18.8404 2.39823L18.8391 2.39549L18.839 2.3956C18.7093 2.1637 18.6353 1.89591 18.6353 1.61114C18.6353 0.72146 19.3567 0 20.2464 0C21.1361 0 21.8575 0.72146 21.8575 1.61114C21.8575 2.50082 21.1361 3.22228 20.2464 3.22228C19.9445 3.22228 19.6624 3.13943 19.4208 2.99473L19.421 2.99456ZM20.2464 0.596293C20.8072 0.596293 21.2612 1.05039 21.2612 1.61114C21.2612 2.17189 20.8065 2.62596 20.2464 2.62596C19.6857 2.62596 19.2316 2.17121 19.2316 1.61114C19.2316 1.05039 19.6857 0.596293 20.2464 0.596293ZM22.0478 5.48652L22.0482 5.48674V5.48608L22.0478 5.48652ZM22.0477 5.48667C22.2893 5.63153 22.5716 5.71447 22.8736 5.71447C23.7633 5.71447 24.4848 4.99301 24.4848 4.10333C24.4848 3.21365 23.7633 2.49219 22.8736 2.49219C21.9839 2.49219 21.2625 3.21365 21.2625 4.10333C21.2625 4.3881 21.3365 4.65593 21.4662 4.88783C19.6074 6.76438 14.8965 11.4486 10.0953 16.2101L10.2423 16.0645L10.6588 16.7339C15.5122 11.9667 20.1442 7.4093 22.0477 5.48667ZM21.4662 4.88783L21.4676 4.89045L21.4663 4.88771L21.4662 4.88783ZM22.0477 5.48667L22.0455 5.48537L22.0478 5.48652L22.0477 5.48667ZM4.86186 22.4338L4.48438 21.78L4.86528 22.4304L4.86186 22.4338ZM23.8885 4.10333C23.8885 3.54258 23.4337 3.08851 22.8736 3.08851C22.3136 3.08851 21.8588 3.54258 21.8588 4.10333C21.8588 4.6634 22.3129 5.11818 22.8736 5.11818C23.4337 5.11818 23.8885 4.66408 23.8885 4.10333ZM14.1016 15.1636V15.1571L20.1625 9.23569H20.1857L20.2794 9.14062V9.24219V10.3264V26.4747V34.6029L20.3215 34.6706H20.2794V34.6716H14.1016V34.6706H12.0422L4.48438 21.7754L9.32394 16.9844L14.1016 24.6677V15.1636ZM2.43927 21.1492L2.43653 21.1479L2.4367 21.1477L2.43927 21.1492ZM19.2509 4.54688C13.7707 9.94088 4.33066 19.2353 2.4367 21.1477C2.19518 21.003 1.91233 20.9201 1.61114 20.9201C0.72146 20.9201 0 21.6416 0 22.5313C0 23.421 0.72146 24.1424 1.61114 24.1424C2.50082 24.1424 3.22227 23.421 3.22227 22.5313C3.22227 22.2465 3.14829 21.9787 3.01859 21.7468C4.25526 20.4978 8.9379 15.856 13.5217 11.3122L13.5222 11.3117L13.5247 11.3092L13.5249 11.309L13.5258 11.3081C15.7726 9.08092 17.9954 6.87751 19.7768 5.10898L19.2509 4.54688ZM3.01859 21.7468L3.01848 21.7469L3.01711 21.7442L3.01859 21.7468ZM0.59631 22.5313C0.59631 23.0913 1.05039 23.5461 1.61114 23.5461C2.17121 23.5461 2.62596 23.0913 2.62596 22.5313C2.62596 21.9712 2.17121 21.5165 1.61114 21.5165C1.05107 21.5165 0.59631 21.9705 0.59631 22.5313ZM61.508 31.1938C61.5199 31.381 61.5718 31.5325 61.6634 31.6489C61.8367 31.8667 62.1433 31.9762 62.582 31.9762C62.7785 31.9762 62.9573 31.9524 63.1192 31.9044C63.4312 31.8118 63.5876 31.6459 63.5876 31.4072C63.5876 31.2275 63.5218 31.1002 63.3906 31.024C63.2569 30.9492 63.0479 30.8843 62.7632 30.8289L62.2393 30.7279C61.8972 30.662 61.655 30.5892 61.5129 30.5105C61.2678 30.3729 61.1445 30.1674 61.1445 29.894C61.1445 29.5979 61.2653 29.3558 61.505 29.1661C61.7451 28.9765 62.0853 28.8819 62.527 28.8819C62.932 28.8819 63.2762 28.9656 63.5604 29.132C63.8436 29.2979 63.9852 29.5638 63.9852 29.9302H63.493C63.4668 29.7534 63.4104 29.6187 63.3237 29.5247C63.1648 29.3523 62.8934 29.2672 62.5107 29.2672C62.2017 29.2672 61.9799 29.3221 61.8452 29.433C61.7095 29.543 61.6422 29.6717 61.6422 29.8178C61.6422 29.9792 61.7209 30.0975 61.8793 30.1718C61.9828 30.2198 62.217 30.2798 62.582 30.3516L63.1246 30.456C63.3861 30.5075 63.5876 30.5768 63.7302 30.665C63.9758 30.8185 64.0986 31.0418 64.0986 31.3349C64.0986 31.6999 63.9431 31.9593 63.6317 32.1163C63.3197 32.2733 62.9578 32.352 62.5453 32.352C62.065 32.352 61.6882 32.2475 61.4159 32.0386C61.1435 31.8311 61.0103 31.5493 61.0158 31.1938H61.508ZM67.6434 28.8755C68.3263 28.8755 68.8323 29.0622 69.1601 29.436C69.4161 29.7272 69.5443 30.0995 69.5443 30.5531C69.5443 31.0448 69.3978 31.4533 69.1041 31.7791C68.76 32.1614 68.2703 32.3525 67.633 32.3525C67.0379 32.3525 66.57 32.1851 66.2293 31.8509C65.9258 31.5281 65.7737 31.121 65.7737 30.6278C65.7737 30.1827 65.904 29.8019 66.1634 29.4855C66.4967 29.0795 66.9903 28.876 67.6424 28.876L67.6434 28.8755ZM67.6964 31.9529C68.1584 31.9529 68.4926 31.8123 68.6986 31.531C68.9041 31.2493 69.0076 30.926 69.0076 30.56C69.0076 30.1733 68.8893 29.8619 68.6511 29.6267C68.4129 29.3905 68.0881 29.2726 67.6761 29.2726C67.2765 29.2726 66.9488 29.3895 66.6967 29.6227C66.4442 29.8564 66.3174 30.2015 66.3174 30.6566C66.3174 31.0215 66.4258 31.3285 66.6427 31.5786C66.8591 31.8286 67.2102 31.9534 67.6964 31.9534V31.9529ZM71.9503 28.9646V30.9982C71.9503 31.2374 72.0033 31.4364 72.1083 31.5944C72.2638 31.8331 72.5272 31.9524 72.8986 31.9524C73.3422 31.9524 73.6442 31.8232 73.8037 31.5657C73.8898 31.4251 73.9329 31.2364 73.9329 30.9982V28.9646H74.4647V30.8125C74.4647 31.2171 74.4009 31.529 74.2726 31.7469C74.0369 32.1435 73.5933 32.3426 72.9397 32.3426C72.2875 32.3426 71.8444 32.1435 71.6112 31.7469C71.4824 31.529 71.4185 31.2171 71.4185 30.8125V28.9646H71.9503ZM78.2874 30.4724C78.5325 30.4724 78.7275 30.4303 78.8706 30.3466C79.0137 30.2634 79.0855 30.1119 79.0855 29.894C79.0855 29.6593 78.9855 29.4999 78.7855 29.4147C78.6785 29.3697 78.5344 29.3474 78.3557 29.3474H77.0762V30.4724H78.2874ZM76.5528 28.9646H78.3433C78.6379 28.9646 78.8805 29.0013 79.0722 29.0746C79.4361 29.2147 79.6173 29.4737 79.6173 29.8515C79.6173 30.0485 79.5698 30.21 79.4737 30.3352C79.3777 30.461 79.2435 30.5615 79.0722 30.6382C79.2232 30.6902 79.3361 30.7591 79.4128 30.8438C79.4891 30.9284 79.5322 31.0671 79.5411 31.2582L79.5594 31.6994C79.5649 31.8256 79.5772 31.9187 79.596 31.9801C79.6277 32.0846 79.6842 32.1515 79.7649 32.1812V32.2554H79.1222C79.1044 32.2272 79.09 32.1906 79.0801 32.1455C79.0692 32.1015 79.0603 32.0148 79.0539 31.8866L79.0217 31.3374C79.0098 31.1225 78.9157 30.9779 78.7404 30.9047C78.6404 30.8641 78.4834 30.8442 78.2695 30.8442H77.0767V32.2554H76.5528V28.9646ZM83.227 28.875C83.7167 28.875 84.096 28.9849 84.3669 29.2048C84.6372 29.4241 84.7873 29.6732 84.817 29.9525H84.3065C84.248 29.7405 84.1332 29.5727 83.9598 29.4489C83.7875 29.3251 83.5449 29.2632 83.232 29.2632C82.8522 29.2632 82.5442 29.3771 82.31 29.6049C82.0753 29.8321 81.9574 30.1812 81.9574 30.6516C81.9574 31.0368 82.0639 31.3498 82.2748 31.589C82.4858 31.8291 82.8022 31.9489 83.2221 31.9489C83.6073 31.9489 83.9014 31.8227 84.1035 31.5706C84.2104 31.4374 84.2906 31.2627 84.3436 31.0463H84.8536C84.8076 31.3929 84.6565 31.683 84.401 31.9177C84.0935 32.2 83.6796 32.3406 83.1582 32.3406C82.7091 32.3406 82.3313 32.2252 82.0268 31.9935C81.6252 31.6875 81.4237 31.2151 81.4237 30.5759C81.4237 30.0901 81.5747 29.693 81.8767 29.3815C82.203 29.0443 82.6531 28.8755 83.2275 28.8755L83.227 28.875ZM86.7555 28.9646H89.574V29.3682H87.2655V30.3669H89.4007V30.7477H87.2655V31.8633H89.6136V32.2554H86.7555V28.9646ZM93.0613 28.9646H94.8008C95.145 28.9646 95.4217 29.0473 95.6327 29.2122C95.8441 29.3771 95.9491 29.6088 95.9491 29.9079C95.9491 30.1649 95.8545 30.3882 95.6668 30.5783C95.4792 30.7685 95.191 30.8645 94.8008 30.8645H93.5852V32.2554H93.0613V28.9646ZM95.4203 29.9104C95.4203 29.6678 95.3153 29.5034 95.1039 29.4172C94.988 29.3707 94.83 29.3474 94.6275 29.3474H93.5852V30.4872H94.6275C94.8622 30.4872 95.0538 30.4442 95.1999 30.3595C95.3465 30.2748 95.4198 30.1248 95.4198 29.9099L95.4203 29.9104ZM97.8203 28.9646H98.3442V31.8633H100.303V32.2554H97.8198V28.9646H97.8203ZM102.601 28.9646V30.9982C102.601 31.2374 102.654 31.4364 102.758 31.5944C102.914 31.8331 103.177 31.9524 103.548 31.9524C103.992 31.9524 104.294 31.8232 104.453 31.5657C104.54 31.4251 104.583 31.2364 104.583 30.9982V28.9646H105.114V30.8125C105.114 31.2171 105.051 31.529 104.922 31.7469C104.687 32.1435 104.243 32.3426 103.59 32.3426C102.938 32.3426 102.495 32.1435 102.261 31.7469C102.133 31.529 102.068 31.2171 102.068 30.8125V28.9646H102.6H102.601ZM107.482 31.1933C107.494 31.3805 107.546 31.532 107.637 31.6484C107.811 31.8663 108.117 31.9757 108.556 31.9757C108.752 31.9757 108.931 31.9519 109.093 31.9039C109.405 31.8113 109.561 31.6454 109.561 31.4067C109.561 31.227 109.496 31.0997 109.364 31.0235C109.231 30.9487 109.022 30.8839 108.737 30.8284L108.213 30.7274C107.871 30.6615 107.629 30.5887 107.487 30.51C107.242 30.3724 107.118 30.1669 107.118 29.8936C107.118 29.5974 107.239 29.3553 107.479 29.1657C107.719 28.976 108.059 28.8814 108.501 28.8814C108.906 28.8814 109.25 28.9651 109.534 29.1315C109.817 29.2974 109.959 29.5633 109.959 29.9297H109.467C109.441 29.7529 109.384 29.6182 109.298 29.5241C109.139 29.3518 108.867 29.2667 108.484 29.2667C108.175 29.2667 107.954 29.3216 107.819 29.4326C107.683 29.5425 107.615 29.6712 107.615 29.8173C107.615 29.9787 107.695 30.0971 107.853 30.1713C107.957 30.2194 108.191 30.2793 108.556 30.3511L109.098 30.4555C109.36 30.507 109.561 30.5764 109.704 30.6645C109.95 30.818 110.072 31.0413 110.072 31.3344C110.072 31.6994 109.917 31.9588 109.606 32.1158C109.294 32.2728 108.932 32.3515 108.519 32.3515C108.039 32.3515 107.662 32.247 107.39 32.0381C107.117 31.8306 106.984 31.5489 106.99 31.1933H107.482ZM113.445 28.9646H113.969V31.8633H115.928V32.2554H113.445V28.9646H113.445ZM120.075 28.9646V29.3568H118.772V32.2554H118.24V29.3568H116.937V28.9646H120.075ZM123.252 31.8747C123.429 31.8747 123.576 31.8583 123.69 31.8271C123.894 31.7692 124.06 31.6573 124.189 31.4914C124.293 31.3582 124.367 31.1879 124.413 30.9809C124.439 30.8571 124.453 30.7423 124.453 30.6363C124.453 30.2288 124.358 29.9124 124.167 29.6866C123.977 29.4608 123.671 29.3479 123.248 29.3479H122.318V31.8751H123.252V31.8747ZM121.791 28.9646H123.358C123.889 28.9646 124.302 29.1251 124.595 29.4464C124.857 29.7361 124.988 30.1079 124.988 30.5595C124.988 30.9091 124.91 31.2245 124.755 31.5068C124.483 32.0059 124.016 32.2554 123.353 32.2554H121.791V28.9646ZM47.8408 21.1402C48.5954 19.7018 48.9702 18.1327 48.9702 16.4239H48.9697C48.9697 15.1657 48.7583 13.962 48.3404 12.8211C47.922 11.6803 47.3015 10.6835 46.4821 9.82245C45.6675 8.96583 44.6237 8.28498 43.3561 7.78438C42.0885 7.28427 40.6481 7.03176 39.0314 7.03176C36.8671 7.03176 35.0345 7.46898 33.5297 8.34392C32.025 9.22332 30.9123 10.3775 30.1879 11.807C29.4635 13.2361 29.1016 14.778 29.1016 16.4239C29.1016 18.0604 29.468 19.5978 30.1968 21.0318C30.9257 22.4702 32.0378 23.6289 33.5342 24.5083C35.035 25.3872 36.8671 25.8294 39.0319 25.8294C41.1705 25.8294 42.9857 25.4055 44.4777 24.5578C45.9651 23.7151 47.0861 22.5742 47.8408 21.1402ZM43.3002 14.5393C43.4943 15.1073 43.5889 15.7341 43.5889 16.4239H43.5893C43.5893 17.3389 43.4131 18.1505 43.059 18.8586C42.7055 19.5661 42.1881 20.1207 41.5067 20.5223C40.8254 20.9234 40.0019 21.1264 39.0319 21.1264C37.6262 21.1264 36.518 20.6936 35.703 19.8236C34.888 18.9581 34.4824 17.8262 34.4824 16.4239C34.4824 15.0216 34.8875 13.8897 35.6941 13.0286C36.5046 12.1675 37.6168 11.7348 39.0314 11.7348C39.7727 11.7348 40.4238 11.8516 40.9888 12.0818C41.5538 12.3161 42.0281 12.6409 42.4203 13.0603C42.813 13.4797 43.1061 13.9714 43.3002 14.5393ZM65.4941 21.3745C65.7397 20.5406 65.8605 19.6701 65.8605 18.7729C65.8605 17.2176 65.5713 15.9233 64.9895 14.8953C64.4072 13.8719 63.6699 13.1142 62.7687 12.632C61.8676 12.1497 60.9491 11.9061 60.0137 11.9061C59.0694 11.9061 58.3237 12.0457 57.7716 12.321C57.2195 12.5958 56.7155 12.9429 56.2624 13.3579V12.1447H51.7134V31.7044H56.2624V24.8104C56.7412 25.1213 57.224 25.3649 57.7073 25.5496C58.194 25.7348 58.858 25.8294 59.6988 25.8294C60.7426 25.8294 61.6561 25.6308 62.4454 25.2387C63.2342 24.846 63.8769 24.3142 64.377 23.6423C64.8776 22.9709 65.2485 22.2132 65.4941 21.3745ZM60.7079 16.9062C60.9535 17.4112 61.0743 18.0698 61.0743 18.8814C61.0743 19.9727 60.8332 20.8337 60.3544 21.4695C59.8756 22.1053 59.2764 22.4207 58.5604 22.4207C58.3232 22.4207 58.1034 22.3935 57.8964 22.3395C57.6894 22.2895 57.4953 22.2222 57.3146 22.141C57.1334 22.0642 56.9522 21.9696 56.7714 21.8567C56.5902 21.7488 56.4218 21.6493 56.2624 21.5591V16.4234C56.5639 16.1481 56.8878 15.9228 57.2324 15.7426C57.5775 15.5623 58.0217 15.4722 58.5604 15.4722C58.9744 15.4722 59.3754 15.5851 59.7592 15.8104C60.1474 16.0312 60.4618 16.3967 60.7079 16.9062ZM76.6455 25.4956C77.4734 25.2748 78.1246 25.049 78.5945 24.8104V24.8099V21.0991C77.417 21.7349 76.4643 22.0504 75.7399 22.0504C75.1833 22.0504 74.7694 21.9469 74.498 21.7394C74.2267 21.5324 74.0583 21.2749 73.9979 20.9684C73.942 20.6575 73.9118 20.2519 73.9118 19.7513V15.4455H78.2538V12.1447H73.9118V8.11366H73.3899L67.2886 14.6111V15.4455H69.3494V20.8065C69.3494 24.1568 70.9884 25.8294 74.2653 25.8294C75.0199 25.8294 75.8132 25.7165 76.6455 25.4956ZM84.671 10.4538C85.0503 10.0661 85.24 9.59271 85.24 9.03813L85.2405 9.03763C85.2405 8.49196 85.0508 8.01859 84.6715 7.62643C84.2962 7.22931 83.8436 7.03125 83.3217 7.03125C82.7914 7.03125 82.3383 7.22931 81.9719 7.62643C81.6011 8.01859 81.4154 8.49196 81.4154 9.03763C81.4154 9.40751 81.4976 9.7457 81.6654 10.0477C81.8338 10.3498 82.0665 10.5934 82.3557 10.7692C82.6444 10.945 82.9677 11.0306 83.3212 11.0306C83.8431 11.0306 84.2962 10.837 84.671 10.4538ZM81.049 25.5902H85.6064V12.1447H81.049V25.5902ZM107.335 25.5902H111.879V17.3884C111.879 16.2248 111.715 15.2375 111.383 14.4215C111.051 13.6054 110.534 12.983 109.839 12.5503C109.145 12.122 108.287 11.9056 107.256 11.9056C106.23 11.9056 105.325 12.1269 104.536 12.5641C103.746 13.0063 102.987 13.6599 102.255 14.521C102.069 14.0565 101.819 13.646 101.509 13.29C101.198 12.938 100.849 12.6632 100.466 12.4602C100.082 12.2576 99.6936 12.1175 99.297 12.0318C98.9048 11.9462 98.4864 11.9056 98.0467 11.9056C97.1198 11.9056 96.3052 12.0769 95.5976 12.4196C94.8906 12.7622 94.1964 13.3123 93.515 14.0699V12.1443H88.966V25.5897H93.515V17.69C93.5799 17.6043 93.7393 17.3879 93.9939 17.0408C94.2484 16.6982 94.4598 16.4412 94.6366 16.2654C94.8133 16.0897 95.046 15.9272 95.3263 15.7876C95.6066 15.648 95.917 15.5757 96.2532 15.5757C96.9603 15.5757 97.452 15.8233 97.7323 16.315C98.012 16.8062 98.1502 17.5098 98.1502 18.4159V25.5897H102.695V17.69C103.1 17.0815 103.505 16.5814 103.911 16.1798C104.312 15.7787 104.829 15.5757 105.463 15.5757C106.114 15.5757 106.589 15.8104 106.886 16.2837C107.184 16.7571 107.335 17.4652 107.335 18.4164V25.5902ZM126.307 25.5769C126.872 25.41 127.485 25.1887 128.153 24.9183L128.152 24.9188V22.4207C127.665 22.6777 127.276 22.804 126.988 22.804C126.75 22.804 126.591 22.6827 126.5 22.439C126.414 22.1999 126.371 21.8305 126.371 21.3388V16.1446C126.371 14.8235 125.901 13.7862 124.961 13.0336C124.022 12.2804 122.62 11.9061 120.762 11.9061C120.029 11.9061 119.304 11.9739 118.589 12.1046C117.873 12.2353 117.187 12.4384 116.527 12.7043C115.872 12.9702 115.264 13.3173 114.699 13.7411V17.3889C115.406 16.663 116.187 16.0723 117.036 15.6168C117.886 15.1617 118.805 14.9315 119.8 14.9315C120.641 14.9315 121.189 15.1167 121.443 15.4861C121.698 15.8559 121.823 16.3654 121.823 17.0191C121.646 17.1141 121.478 17.1948 121.319 17.2538C121.159 17.3172 120.913 17.4023 120.59 17.5108C120.382 17.583 120.11 17.6741 119.774 17.7863L119.774 17.7865C119.588 17.8487 119.383 17.9174 119.158 17.993C118.046 18.3629 117.153 18.7189 116.481 19.066C115.804 19.4087 115.269 19.8504 114.868 20.3916C114.467 20.9323 114.269 21.6176 114.269 22.4475C114.269 22.9931 114.385 23.521 114.618 24.0394C114.847 24.5534 115.252 24.9817 115.83 25.3199C116.403 25.6581 117.162 25.8294 118.098 25.8294C119.068 25.8294 119.848 25.6937 120.448 25.4234C121.047 25.1575 121.586 24.8148 122.073 24.3999C122.198 24.7965 122.409 25.1347 122.707 25.41C123.005 25.6897 123.526 25.8294 124.272 25.8294C125.065 25.8294 125.742 25.7437 126.307 25.5769ZM121.824 19.1557V22.339C121.505 22.5955 121.19 22.8119 120.884 22.9926C120.578 23.1729 120.267 23.263 119.952 23.263C119.625 23.263 119.335 23.1461 119.09 22.907C118.84 22.6678 118.715 22.3252 118.715 21.879C118.715 21.2521 118.965 20.756 119.461 20.3911C119.957 20.0257 120.746 19.6157 121.824 19.1557ZM130.034 25.5897H134.592V7.27883H130.034V25.5897ZM139.582 7.01198H139.142L138.779 6.40394C138.747 6.34798 138.715 6.30044 138.684 6.26083C138.653 6.22122 138.621 6.18903 138.589 6.16378C138.557 6.13853 138.522 6.1202 138.483 6.10832C138.446 6.09693 138.403 6.09101 138.355 6.09101H138.203V7.01249H137.828V4.74219H138.575C138.682 4.74219 138.78 4.75458 138.87 4.77983C138.96 4.80509 139.038 4.8437 139.105 4.8947C139.171 4.9457 139.223 5.00909 139.261 5.08633C139.298 5.16308 139.317 5.25219 139.317 5.35519C139.317 5.43491 139.305 5.50869 139.281 5.57554C139.258 5.64239 139.223 5.70229 139.18 5.75428C139.136 5.80677 139.083 5.85135 139.021 5.88799C138.96 5.92463 138.89 5.95333 138.813 5.97314V5.9796C138.855 6.00287 138.89 6.02811 138.921 6.05634C138.952 6.08456 138.98 6.11328 139.008 6.14299C139.036 6.1722 139.063 6.20537 139.09 6.24349C139.117 6.28113 139.147 6.32422 139.179 6.37374L139.583 7.01198H139.582ZM138.203 5.0467V5.78451H138.516C138.574 5.78451 138.628 5.77559 138.677 5.75777C138.726 5.73945 138.768 5.71368 138.804 5.68001C138.84 5.64634 138.868 5.60476 138.888 5.55673C138.908 5.5082 138.918 5.45372 138.918 5.39331C138.918 5.28487 138.884 5.19922 138.815 5.13831C138.747 5.07691 138.648 5.04622 138.519 5.04622H138.202L138.203 5.0467ZM140.602 5.87102C140.602 4.82475 139.753 3.97656 138.707 3.97656C137.661 3.97656 136.812 4.82475 136.812 5.87102C136.812 6.91778 137.661 7.76599 138.707 7.76599C139.754 7.76599 140.602 6.91729 140.602 5.87102ZM140.431 5.87102C140.431 4.91883 139.659 4.14689 138.707 4.14689C137.755 4.14689 136.983 4.91883 136.983 5.87102C136.983 6.82321 137.755 7.59517 138.707 7.59517C139.659 7.59517 140.431 6.82321 140.431 5.87102Z" fill="#1A1A1A"/>
</mask>
<g mask="url(#mask0_429_3380)">
<rect x="-2.57812" y="-2.07031" width="144.937" height="39.7157" fill="white"/>
</g>
</svg>
