<svg width="334" height="91" viewBox="0 0 334 91" fill="none" xmlns="http://www.w3.org/2000/svg">
<path d="M23.2129 77.2117C9.00431 77.2117 0.428711 70.0654 0.428711 57.4542H11.5265C11.6947 64.3483 16.3188 69.0565 23.4651 69.0565C30.2751 69.0565 34.8992 66.0298 34.8992 60.3127C34.8992 46.6086 2.69872 55.8568 2.69872 32.9045C2.69872 22.227 11.5265 15.6692 25.1466 15.6692C38.7667 15.6692 47.09 22.7314 47.1741 35.3426H36.4126C36.1604 28.4485 31.5363 23.8244 24.7262 23.8244C18.2525 23.8244 13.5443 26.9352 13.5443 32.4841C13.5443 46.3564 46.0811 36.7719 46.0811 59.8924C46.0811 70.6539 37.3374 77.2117 23.2129 77.2117Z" fill="white"/>
<path d="M55.8922 90.9999V33.8293H65.729L65.5608 43.1615H66.0652C67.0741 38.8737 71.8664 32.5682 80.6101 32.5682C91.4557 32.5682 99.3587 41.48 99.3587 54.5957C99.3587 67.7113 91.8761 77.1276 80.9464 77.1276C71.6982 77.1276 67.4104 70.6539 66.1493 66.7024H65.729V90.9999H55.8922ZM65.4767 54.7638C65.4767 64.0961 70.5212 68.8042 77.2472 68.8042C83.889 68.8042 89.1857 64.0961 89.1857 54.7638C89.1857 45.4315 83.9731 40.8075 77.2472 40.8075C70.5212 40.8075 65.4767 45.5156 65.4767 54.7638Z" fill="white"/>
<path d="M120.379 76.8754C111.888 76.8754 107.011 71.9991 107.011 64.6846C107.011 56.3612 113.065 52.746 121.725 52.1575L135.176 51.2327V49.5512C135.176 43.8341 132.318 40.2189 126.265 40.2189C120.547 40.2189 116.848 43.0775 116.848 47.6175H106.507C106.507 38.5374 114.074 32.4841 126.601 32.4841C138.035 32.4841 145.097 37.8648 145.097 48.3742V63.7598C145.097 66.6183 146.19 67.8794 149.049 67.8794H150.898V75.8665H145.686C139.212 75.8665 135.765 73.008 135.765 67.5431V66.8705H135.345C133.999 71.4106 129.375 76.8754 120.379 76.8754ZM117.184 63.9279C117.184 67.1228 119.286 69.8972 124.667 69.8972C130.468 69.8972 135.26 65.8616 135.345 57.1179L125.508 57.8746C119.791 58.2949 117.184 60.1446 117.184 63.9279Z" fill="white"/>
<path d="M157.701 75.8665V33.8293H167.538L167.286 46.0201H167.706C169.219 39.2941 172.162 33.0726 180.065 33.0726C181.41 33.0726 182.503 33.2407 183.512 33.4089V43.3297H180.149C172.75 43.3297 167.538 46.1882 167.538 58.4631V75.8665H157.701Z" fill="white"/>
<path d="M192.021 75.8665V17.0144H201.857V52.746L220.101 33.8293H232.292L215.057 50.8123L234.142 75.8665H221.867L208.415 57.4542L201.857 63.9279V75.8665H192.021Z" fill="white"/>
<path d="M252.062 75.8665C244.327 75.8665 240.292 71.9991 240.292 64.1802V17.0144H250.044V62.4987C250.044 65.7776 251.306 67.6272 254.669 67.6272H257.359V75.8665H252.062Z" fill="white"/>
<path d="M284.02 77.1276C272.417 77.1276 262.833 69.4768 262.833 54.8479C262.833 41.1438 271.661 32.5682 284.356 32.5682C296.547 32.5682 305.291 39.8826 305.291 53.6708C305.291 55.1842 305.207 56.2772 305.038 57.1179H272.333C272.67 65.2731 277.798 69.4768 284.524 69.4768C289.653 69.4768 293.688 67.1228 295.034 62.1624H304.702C303.105 72.0832 294.781 77.1276 284.02 77.1276ZM272.586 51.1486H295.286C295.286 44.4227 290.914 39.7986 284.104 39.7986C277.462 39.7986 273.006 44.5067 272.586 51.1486Z" fill="white"/>
<rect x="316.297" y="34.6138" width="6.30558" height="16.8149" transform="rotate(-52.2824 316.297 34.6138)" fill="white"/>
<rect x="319.137" y="17.2949" width="6.30559" height="16.8149" transform="rotate(-141.604 319.137 17.2949)" fill="white"/>
<rect x="284.769" y="9.39136" width="6.30558" height="16.8149" transform="rotate(-52.2824 284.769 9.39136)" fill="white"/>
</svg>
