<svg width="100" height="100" viewBox="0 0 100 100" fill="none" xmlns="http://www.w3.org/2000/svg">
<rect width="100" height="100" fill="black"/>
<path fill-rule="evenodd" clip-rule="evenodd" d="M50.5344 73.8897L39.0697 52.419L46.556 49.6905L51.0467 58.4392L61.3225 41.7872L5 61.108L17.6611 54.3472C17.4799 52.924 17.3842 51.4734 17.3842 50.0017C17.3842 31.2221 32.6063 16 51.3848 16C59.0011 16 66.0322 18.5041 71.6981 22.7319L66.7381 25.398C62.2849 22.6128 57.023 21.003 51.3848 21.003C35.3696 21.003 22.3887 33.9866 22.3887 50.0017C22.3887 50.6041 22.4067 51.202 22.4442 51.7944L85.1164 18.3299L78.3207 29.2495C82.7521 34.9901 85.3877 42.1874 85.3877 50.0017C85.3877 68.7814 70.1656 84.0035 51.3848 84.0035C36.1779 84.0035 22.8815 73.9409 18.6856 59.3404L23.4005 57.6266C26.7506 69.9414 38.008 79.0005 51.3844 79.0005C67.4008 79.0005 80.3844 66.0169 80.3844 50.0017C80.3844 44.0175 78.5723 38.455 75.4646 33.837L67.826 46.1104L50.5344 73.8894V73.8897Z" fill="white"/>
</svg>
