<svg width="12" height="7" viewBox="0 0 12 7" fill="none" xmlns="http://www.w3.org/2000/svg">
<path fill-rule="evenodd" clip-rule="evenodd" d="M10.1933 0.469947C10.3342 0.329117 10.5252 0.25 10.7243 0.25C10.9235 0.25 11.1145 0.329117 11.2553 0.469947C11.3962 0.610777 11.4753 0.801784 11.4753 1.00095C11.4753 1.20011 11.3962 1.39112 11.2553 1.53195L6.53034 6.25595C6.38971 6.3964 6.19909 6.47529 6.00034 6.47529C5.80159 6.47529 5.61096 6.3964 5.47034 6.25595L0.745338 1.53195C0.604508 1.39112 0.525391 1.20011 0.525391 1.00095C0.525391 0.801784 0.604508 0.610777 0.745338 0.469947C0.886168 0.329117 1.07717 0.25 1.27634 0.25C1.4755 0.25 1.66651 0.329117 1.80734 0.469947L6.00034 4.66295L10.1933 0.469947Z" fill="black"/>
</svg>
