<!-- <svg width="25" height="18" viewBox="0 0 25 18" fill="none" xmlns="http://www.w3.org/2000/svg">
<path d="M23.9277 9.78467L16.2902 17.4529C16.0448 17.6983 15.7381 17.821 15.4313 17.821C15.1246 17.821 14.8179 17.6983 14.5725 17.4529C14.0817 16.9621 14.0817 16.1953 14.5725 15.7045L20.1243 10.1527H2.21129C1.53649 10.1527 0.984375 9.60063 0.984375 8.92583C0.984375 8.25102 1.53649 7.69891 2.21129 7.69891H20.1243L14.5418 2.11643C14.051 1.62567 14.051 0.858842 14.5418 0.368075C15.0326 -0.122692 15.7994 -0.122692 16.2902 0.368075L23.9277 8.03631C24.4185 8.52708 24.4185 9.32457 23.9277 9.78467Z" fill="white"/>
</svg> 