<svg width="9" height="16" viewBox="0 0 9 16" fill="none" xmlns="http://www.w3.org/2000/svg">
<path d="M8.62032 1.15845C8.50099 1.04141 8.35903 0.948503 8.20261 0.885104C8.04619 0.821704 7.87842 0.789062 7.70897 0.789062C7.53952 0.789062 7.37175 0.821704 7.21533 0.885104C7.05891 0.948503 6.91695 1.04141 6.79762 1.15845L0.379683 7.40242C0.259374 7.51851 0.163883 7.65663 0.0987168 7.80881C0.0335507 7.96098 0 8.12421 0 8.28906C0 8.45392 0.0335507 8.61714 0.0987168 8.76932C0.163883 8.9215 0.259374 9.05961 0.379683 9.1757L6.79762 15.4197C6.91695 15.5367 7.05891 15.6296 7.21533 15.693C7.37175 15.7564 7.53952 15.7891 7.70897 15.7891C7.87842 15.7891 8.04619 15.7564 8.20261 15.693C8.35903 15.6296 8.50099 15.5367 8.62032 15.4197C8.74063 15.3036 8.83612 15.1655 8.90128 15.0133C8.96645 14.8611 9 14.6979 9 14.533C9 14.3682 8.96645 14.2049 8.90128 14.0528C8.83612 13.9006 8.74063 13.7625 8.62032 13.6464L3.10089 8.28906L8.62032 2.93174C8.74063 2.81565 8.83612 2.67753 8.90128 2.52535C8.96645 2.37318 9 2.20995 9 2.0451C9 1.88024 8.96645 1.71702 8.90128 1.56484C8.83612 1.41266 8.74063 1.27454 8.62032 1.15845Z" fill="white"/>
</svg>
