<svg width="14" height="12" viewBox="0 0 14 12" fill="none" xmlns="http://www.w3.org/2000/svg">
<path d="M0 6.00084C0 5.66491 0.121761 5.34274 0.338498 5.1052C0.555235 4.86766 0.849193 4.73422 1.1557 4.73422H10.0492L7.70846 2.16634C7.52763 1.96808 7.41178 1.70979 7.37899 1.43178C7.3462 1.15377 7.39833 0.871685 7.52722 0.629557C7.65611 0.387429 7.85453 0.198886 8.09149 0.0933581C8.32845 -0.0121694 8.59062 -0.0287423 8.83708 0.046226C9.03617 0.108437 9.21679 0.227041 9.36076 0.390094L13.6631 5.09045C13.8789 5.32946 14 5.65217 14 5.98847C14 6.32477 13.8789 6.64748 13.6631 6.88649L9.3427 11.6264C9.23532 11.7448 9.10765 11.8387 8.96703 11.9028C8.82641 11.9669 8.67562 12 8.52332 12C8.29232 12.0013 8.06628 11.9265 7.8745 11.7853C7.68272 11.6442 7.53404 11.4432 7.4477 11.2083C7.36136 10.9735 7.34134 10.7157 7.39025 10.4682C7.43916 10.2208 7.55473 9.99512 7.722 9.8205L10.0492 7.26746H1.1557C0.849193 7.26746 0.555235 7.13402 0.338498 6.89648C0.121761 6.65894 0 6.33677 0 6.00084Z" fill="white"/>
</svg>
