<svg width="299" height="48" viewBox="0 0 299 48" fill="none" xmlns="http://www.w3.org/2000/svg">
<path d="M28.8066 22.216C30.5116 23.4727 31.8353 25.0659 32.7776 26.9958C33.7647 28.9257 34.2583 30.9902 34.2583 33.1893C34.2583 35.7027 33.6525 38.014 32.441 40.1234C31.2295 42.2328 29.5918 43.9159 27.5278 45.1725C25.4637 46.4292 23.2203 47.0575 20.7973 47.0575H7.47085V47.1248H0V0H19.7877C22.0761 0 24.1849 0.583452 26.1144 1.75035C28.0438 2.91725 29.5694 4.51052 30.6911 6.53015C31.8577 8.50491 32.441 10.6367 32.441 12.9257C32.441 14.6311 32.1045 16.2917 31.4315 17.9074C30.8033 19.5231 29.9283 20.9593 28.8066 22.216ZM7.47085 7.13604V19.5231L19.7877 19.4558C21.3133 19.4558 22.6594 18.8499 23.826 17.6381C24.9926 16.3815 25.5759 14.9004 25.5759 13.195C25.5759 11.4895 24.9926 10.0533 23.826 8.8864C22.7042 7.71949 21.3581 7.13604 19.7877 7.13604H7.47085ZM20.7973 39.9215C22.5472 39.9215 24.0279 39.2482 25.2394 37.9018C26.4958 36.5554 27.1239 34.9622 27.1239 33.122C27.1239 31.2819 26.4958 29.6887 25.2394 28.3422C24.0279 26.9958 22.5472 26.3226 20.7973 26.3226H7.47085V39.9215H20.7973ZM80.2052 0H87.6761V31.1697C87.6761 34.446 86.9133 37.3633 85.3877 39.9215C83.8621 42.4797 81.7308 44.4769 78.9937 45.9131C76.3015 47.3044 73.2504 48 69.8402 48C66.4301 48 63.3789 47.3044 60.6867 45.9131C57.9945 44.4769 55.8856 42.4797 54.3601 39.9215C52.8793 37.3633 52.139 34.446 52.139 31.1697V0H59.6099V31.1697C59.6099 33.9972 60.5521 36.2637 62.4367 37.9692C64.3661 39.6746 66.8339 40.5274 69.8402 40.5274C73.026 40.5274 75.5387 39.6971 77.3784 38.0365C79.2629 36.331 80.2052 34.0421 80.2052 31.1697V0ZM139.588 0V7.06873H126.127V47.1248H118.656V7.06873H105.262V0H139.588ZM165.108 26.7938V40.0561H185.501V47.1248H157.637V0H185.165V7.06873H165.108V19.7251H183.482V26.7938H165.108ZM232.646 47.1248L223.088 30.2272H212.723V47.1248H205.252V0H223.963C226.7 0 229.213 0.673205 231.501 2.01963C233.835 3.36605 235.674 5.20617 237.02 7.53997C238.411 9.82889 239.107 12.3422 239.107 15.0799C239.107 17.9972 238.344 20.6676 236.819 23.0912C235.293 25.5147 233.274 27.3548 230.761 28.6115L241.193 47.1248H232.646ZM212.723 7.13604V23.0912H223.963C226.162 23.0912 228.046 22.3058 229.617 20.7349C231.187 19.1641 231.973 17.2791 231.973 15.0799C231.973 12.8808 231.187 11.0182 229.617 9.49229C228.046 7.92146 226.162 7.13604 223.963 7.13604H212.723ZM299 47.1248H290.991L287.154 36.9593H267.569L263.732 47.1248H255.656L273.289 0H281.366L299 47.1248ZM277.395 10.7041L270.193 29.8906H284.529L277.395 10.7041Z" fill="white"/>
</svg>
