<svg width="14" height="13" viewBox="0 0 14 13" fill="none" xmlns="http://www.w3.org/2000/svg">
<path d="M11.3672 1.8787C10.12 0.626233 8.62278 0 6.8756 0C5.11194 0 3.61201 0.626233 2.3758 1.8787C1.13959 3.11469 0.521484 4.60611 0.521484 6.35297C0.521484 8.11631 1.13959 9.61323 2.3758 10.8437C3.61201 12.0797 5.11194 12.6977 6.8756 12.6977C8.62278 12.6977 10.12 12.0797 11.3672 10.8437C12.6034 9.61323 13.2215 8.11631 13.2215 6.35297C13.2215 4.60611 12.6034 3.11469 11.3672 1.8787ZM6.8756 1.06295C8.33708 1.06295 9.57878 1.58206 10.6007 2.62029C11.6446 3.65852 12.1666 4.90275 12.1666 6.35297C12.1666 7.81418 11.6446 9.0639 10.6007 10.1021C9.57878 11.1294 8.33708 11.643 6.8756 11.643C5.40864 11.643 4.15594 11.1294 3.11753 10.1021C2.09559 9.0639 1.58463 7.81418 1.58463 6.35297C1.58463 4.88627 2.09559 3.64204 3.11753 2.62029C4.15594 1.58206 5.40864 1.06295 6.8756 1.06295ZM9.49637 3.60084C9.45791 3.45802 9.37824 3.34266 9.25737 3.25477C9.131 3.18335 8.99639 3.16687 8.85354 3.20533C8.71618 3.23829 8.60355 3.32618 8.51564 3.469L6.1586 7.64664L4.99657 6.48481C4.90866 6.39692 4.80152 6.36121 4.67515 6.37769C4.55428 6.37769 4.44989 6.42164 4.36198 6.50953C4.13122 6.74025 4.12298 6.95998 4.33725 7.16872L5.81246 8.65191C5.86741 8.77276 5.94707 8.86889 6.05146 8.9403C6.10641 8.97876 6.19432 8.99798 6.31519 8.99798C6.47452 8.99798 6.60639 8.95404 6.71078 8.86615L9.43868 3.99636C9.51011 3.87001 9.52934 3.73817 9.49637 3.60084Z" fill="white"/>
</svg>
