<svg width="13" height="13" viewBox="0 0 13 13" fill="none" xmlns="http://www.w3.org/2000/svg">
<path d="M10.8457 1.8787C9.59848 0.626233 8.1013 0 6.35412 0C4.59046 0 3.09053 0.626233 1.85432 1.8787C0.618105 3.11469 0 4.60611 0 6.35297C0 8.11631 0.618105 9.61323 1.85432 10.8437C3.09053 12.0797 4.59046 12.6977 6.35412 12.6977C8.1013 12.6977 9.59848 12.0797 10.8457 10.8437C12.0819 9.61323 12.7 8.11631 12.7 6.35297C12.7 4.60611 12.0819 3.11469 10.8457 1.8787ZM6.35412 1.06295C7.8156 1.06295 9.0573 1.58206 10.0792 2.62029C11.1231 3.65852 11.6451 4.90275 11.6451 6.35297C11.6451 7.81418 11.1231 9.0639 10.0792 10.1021C9.0573 11.1294 7.8156 11.643 6.35412 11.643C4.88715 11.643 3.63446 11.1294 2.59604 10.1021C1.57411 9.0639 1.06314 7.81418 1.06314 6.35297C1.06314 4.88627 1.57411 3.64204 2.59604 2.62029C3.63446 1.58206 4.88715 1.06295 6.35412 1.06295ZM8.97488 3.60084C8.93643 3.45802 8.85676 3.34266 8.73588 3.25477C8.60952 3.18335 8.47491 3.16687 8.33206 3.20533C8.1947 3.23829 8.08207 3.32618 7.99416 3.469L5.63712 7.64664L4.47508 6.48481C4.38717 6.39692 4.28003 6.36121 4.15367 6.37769C4.03279 6.37769 3.9284 6.42164 3.84049 6.50953C3.60973 6.74025 3.60149 6.95998 3.81577 7.16872L5.29098 8.65191C5.34592 8.77276 5.42559 8.86889 5.52998 8.9403C5.58492 8.97876 5.67283 8.99798 5.7937 8.99798C5.95304 8.99798 6.0849 8.95404 6.18929 8.86615L8.9172 3.99636C8.98862 3.87001 9.00785 3.73817 8.97488 3.60084Z" fill="black"/>
</svg>
