<svg width="214" height="149" viewBox="0 0 214 149" fill="none" xmlns="http://www.w3.org/2000/svg">
<path fill-rule="evenodd" clip-rule="evenodd" d="M73.9985 0.944824C85.8322 0.944824 97.0137 3.72629 106.933 8.66579C116.852 3.72629 128.034 0.944824 139.867 0.944824C180.736 0.944824 213.866 34.075 213.866 74.9433C213.866 115.812 180.736 148.942 139.867 148.942C128.034 148.942 116.852 146.16 106.933 141.221C97.0137 146.16 85.8322 148.942 73.9985 148.942C33.1301 148.942 0 115.812 0 74.9433C0 34.075 33.1301 0.944824 73.9985 0.944824ZM114.742 13.1679C134.778 26.4077 147.997 49.1313 147.997 74.9433C147.997 100.755 134.778 123.479 114.742 136.719C122.498 139.876 130.978 141.62 139.867 141.62C176.69 141.62 206.544 111.768 206.544 74.9433C206.544 38.1186 176.69 8.26682 139.867 8.26682C130.978 8.26682 122.496 10.0105 114.742 13.1679ZM95.2604 133.985C94.9765 133.772 94.6945 133.556 94.4144 133.337C94.6945 133.556 94.9765 133.77 95.2604 133.985ZM93.9752 132.993C93.6299 132.721 93.2884 132.445 92.9489 132.167C93.2884 132.447 93.6318 132.721 93.9752 132.993ZM91.3644 130.83C75.7441 117.264 65.8689 97.2564 65.8689 74.9433C65.8689 52.6302 75.7441 32.6229 91.3644 19.057C90.9769 19.3927 90.5952 19.7322 90.2154 20.0755C61.8348 22.2739 39.4891 45.9988 39.4891 74.9433C39.4891 103.888 61.8348 127.613 90.2154 129.811C90.5952 130.154 90.9769 130.494 91.3644 130.83ZM91.5351 18.9093C91.9073 18.587 92.2852 18.2685 92.6631 17.9559C92.2833 18.2685 91.9073 18.5889 91.5351 18.9093ZM92.9489 17.7199C93.2884 17.4418 93.6318 17.1656 93.9752 16.8932C93.6299 17.1656 93.2884 17.4418 92.9489 17.7199ZM94.4164 16.5479C94.6964 16.3292 94.9784 16.1144 95.2623 15.8995C94.9784 16.1144 94.6983 16.3292 94.4164 16.5479ZM95.9644 15.3739C96.1888 15.207 96.4152 15.044 96.6434 14.879C96.4152 15.0421 96.1888 15.207 95.9644 15.3739ZM106.931 132.926C86.7798 121.455 73.1909 99.7866 73.1909 74.9433C73.1909 50.0981 86.7817 28.4295 106.931 16.9603C127.084 28.4295 140.675 50.0981 140.675 74.9433C140.675 99.7885 127.082 121.457 106.931 132.926ZM94.5276 12.203C95.2661 12.203 96.0027 12.2203 96.7355 12.2453L97.1115 12.3834C89.9104 9.72277 82.1242 8.26682 73.9985 8.26682C37.1757 8.26682 7.32195 38.1186 7.32195 74.9433C7.32195 111.768 37.1757 141.62 73.9985 141.62C82.1242 141.62 89.9104 140.164 97.1115 137.503L96.7355 137.641C96.0008 137.666 95.2661 137.684 94.5276 137.684C59.8763 137.684 31.7873 109.595 31.7873 74.9433C31.7873 40.292 59.8763 12.203 94.5276 12.203Z" fill="white"/>
</svg>
