<svg width="151" height="151" viewBox="0 0 151 151" fill="none" xmlns="http://www.w3.org/2000/svg">
<path d="M75.3264 151L70.1241 150.868L70.1571 149.559L73.8355 149.652L73.8787 147.939L70.6589 147.858L70.6918 146.564L73.9117 146.645L73.9902 143.521L75.514 143.56L75.3264 151V151ZM66.0306 148.618C66.0054 148.615 65.9817 148.61 65.9632 148.606C65.9453 148.602 65.9065 148.596 65.8449 148.584L66.0311 147.119C66.1189 147.14 66.1955 147.157 66.2643 147.169C66.3327 147.182 66.3899 147.191 66.4321 147.196C66.9989 147.268 67.4037 147.13 67.6446 146.779C67.7794 146.583 67.8749 146.264 67.9302 145.826L68.2623 143.214L69.68 143.394L68.9857 148.86L67.6417 148.689L67.7625 147.738C67.4987 148.074 67.2786 148.298 67.0997 148.412C66.8083 148.603 66.4515 148.672 66.0301 148.618L66.0306 148.618ZM63.4542 143.518C63.046 143.445 62.7051 143.536 62.4331 143.793C62.1616 144.047 61.9779 144.448 61.8804 144.993C61.7835 145.537 61.8174 145.976 61.9842 146.309C62.1509 146.642 62.4394 146.844 62.8476 146.917C63.2559 146.99 63.5962 146.9 63.8697 146.645C64.1412 146.391 64.3269 145.991 64.4239 145.447C64.5213 144.902 64.4859 144.462 64.3186 144.129C64.1504 143.794 63.8624 143.591 63.4542 143.518ZM60.4147 144.732C60.5573 143.934 60.9049 143.294 61.4557 142.809C62.0084 142.324 62.7429 142.164 63.6617 142.328C64.58 142.492 65.2142 142.896 65.5633 143.542C65.9138 144.188 66.0185 144.909 65.8759 145.707C65.7363 146.49 65.3892 147.127 64.835 147.621C64.2823 148.115 63.5468 148.28 62.6285 148.116C61.7097 147.951 61.077 147.542 60.7279 146.887C60.3798 146.233 60.2756 145.515 60.4152 144.732H60.4147ZM52.8062 145.711C52.5754 145.645 52.3625 145.537 52.1642 145.382C51.9659 145.227 51.8084 145.012 51.6915 144.732C51.5965 144.507 51.5611 144.251 51.5873 143.966C51.6067 143.779 51.6644 143.514 51.7618 143.17L52.7203 139.831L54.1181 140.228L53.1601 143.603C53.1029 143.805 53.0884 143.98 53.1155 144.127C53.1664 144.409 53.3555 144.595 53.6808 144.687C54.0585 144.795 54.3634 144.709 54.5976 144.433C54.7198 144.285 54.8129 144.093 54.8803 143.855L55.7763 140.699L57.1508 141.09L56.2548 144.245C56.1651 144.561 56.1312 144.798 56.1549 144.958C56.1981 145.248 56.3862 145.439 56.7213 145.534C57.112 145.645 57.4097 145.592 57.6167 145.372C57.7316 145.249 57.8291 145.041 57.911 144.753L58.8167 141.562L60.2019 141.955L58.6994 147.247L57.3714 146.87L57.591 146.097C57.3442 146.325 57.1285 146.475 56.9467 146.549C56.6213 146.681 56.2481 146.688 55.8282 146.569C55.4277 146.455 55.131 146.274 54.9365 146.027C54.7858 145.804 54.6956 145.549 54.666 145.261C54.3998 145.521 54.1123 145.687 53.8059 145.758C53.4835 145.824 53.1504 145.808 52.8057 145.71L52.8062 145.711ZM46.351 140.132L44.6555 139.365L44.2822 142.414L46.351 140.132V140.132ZM44.3564 144.317L42.7768 143.603L43.4789 135.742L44.9935 136.427L44.7942 138.018L47.2562 139.132L48.351 137.945L49.8128 138.606L44.3564 144.316V144.317ZM39.0881 137.409C38.3856 138.504 37.5556 139.163 36.5975 139.385C35.7651 139.579 34.9583 139.427 34.1811 138.929C33.1411 138.262 32.6034 137.429 32.5656 136.429C32.5506 135.871 32.6582 135.388 32.89 134.985L34.1802 135.812C34.072 136.167 34.0337 136.463 34.0672 136.701C34.1273 137.123 34.3876 137.483 34.8482 137.778C35.3176 138.079 35.8111 138.125 36.3284 137.913C36.8472 137.702 37.3311 137.246 37.783 136.541C38.2339 135.838 38.4288 135.219 38.3658 134.685C38.3037 134.151 38.053 133.742 37.6109 133.459C37.159 133.169 36.7173 133.099 36.2873 133.248C36.0521 133.324 35.7878 133.497 35.4926 133.765L34.2136 132.946C34.7653 132.334 35.4082 131.961 36.1423 131.827C36.8758 131.693 37.6012 131.857 38.3197 132.317C39.2084 132.887 39.7228 133.624 39.8585 134.53C39.9943 135.436 39.7373 136.397 39.0886 137.41L39.0881 137.409ZM29.1732 132.843C29.1533 132.827 29.1354 132.811 29.1218 132.798C29.1083 132.786 29.0787 132.759 29.0312 132.718L29.9436 131.557C30.0081 131.62 30.0648 131.674 30.1182 131.72C30.1705 131.766 30.2151 131.803 30.2486 131.829C30.6975 132.182 31.1159 132.271 31.5028 132.095C31.7196 131.995 31.9649 131.771 32.2379 131.424L33.8645 129.353L34.9888 130.236L31.5843 134.569L30.5196 133.732L31.1121 132.978C30.7126 133.131 30.4086 133.21 30.1967 133.216C29.8486 133.23 29.5073 133.106 29.1732 132.843V132.843ZM27.5257 130.006C27.7735 130.22 28.0353 130.308 28.3083 130.268C28.5822 130.229 28.8537 130.09 29.1223 129.85L27.455 128.406C27.2232 128.71 27.1209 129.002 27.1461 129.284C27.1704 129.568 27.2974 129.808 27.5262 130.006H27.5257ZM26.7481 130.903C26.4067 130.607 26.1561 130.276 25.9946 129.91C25.8337 129.543 25.7852 129.142 25.8492 128.707C25.902 128.321 26.0465 127.944 26.2816 127.576C26.4208 127.361 26.6477 127.076 26.9633 126.722L29.7705 129.153C30.1177 128.724 30.2423 128.318 30.1448 127.939C30.0876 127.707 29.9543 127.5 29.7458 127.32C29.5247 127.128 29.2896 127.036 29.0418 127.045C28.9061 127.049 28.7567 127.086 28.5929 127.159L27.4981 126.21C27.7395 125.986 28.0847 125.844 28.5313 125.786C29.2323 125.685 29.8995 125.909 30.5312 126.457C31.0539 126.909 31.3657 127.479 31.4694 128.164C31.5732 128.852 31.2905 129.58 30.6253 130.348C30.0003 131.07 29.3414 131.467 28.6486 131.54C27.9548 131.612 27.3221 131.4 26.7475 130.902L26.7481 130.903ZM24.0291 124.043C24.1324 124.069 24.2283 124.102 24.3171 124.142C24.4067 124.183 24.5173 124.251 24.6473 124.346L24.9115 124.535C25.1568 124.715 25.3517 124.825 25.4971 124.864C25.7444 124.931 25.9675 124.87 26.1667 124.679C26.3452 124.509 26.428 124.338 26.414 124.166C26.3999 123.994 26.3262 123.836 26.1939 123.697C25.983 123.476 25.7221 123.335 25.4138 123.274C25.1054 123.213 24.7718 123.346 24.4174 123.672L24.0286 124.043L24.0291 124.043ZM24.1367 125.129C23.9311 124.963 23.7711 124.858 23.6562 124.809C23.4526 124.724 23.2848 124.745 23.1515 124.873C22.9881 125.028 22.928 125.191 22.9726 125.362C23.0167 125.534 23.1418 125.727 23.3479 125.944C23.5787 126.186 23.8041 126.3 24.0233 126.284C24.1823 126.271 24.3501 126.202 24.526 126.079L25.4715 127.07C25.102 127.38 24.7234 127.558 24.335 127.601C23.7251 127.664 23.106 127.367 22.4757 126.706C22.0655 126.276 21.7867 125.811 21.6422 125.312C21.4982 124.813 21.6655 124.334 22.1465 123.875L23.9753 122.132C24.1028 122.011 24.254 121.861 24.4305 121.684C24.5595 121.547 24.6317 121.437 24.6492 121.358C24.6662 121.278 24.6594 121.188 24.6259 121.091L24.7796 120.944L25.8443 122.061C25.7924 122.17 25.7386 122.263 25.679 122.343C25.6198 122.423 25.5491 122.509 25.4652 122.601C25.7566 122.594 26.0446 122.631 26.3321 122.712C26.6715 122.809 26.9749 122.996 27.2406 123.275C27.5795 123.63 27.756 124.024 27.7706 124.451C27.7861 124.88 27.6043 125.274 27.2256 125.635C26.7359 126.102 26.2046 126.254 25.6291 126.091C25.3144 126.002 24.9435 125.783 24.5144 125.435L24.1362 125.126L24.1367 125.129ZM21.3983 123.83L20.6226 124.502L20.1276 123.931L18.9654 124.937L18.0462 123.876L19.2083 122.869L18.6309 122.202L19.4071 121.53L19.9846 122.197L22.1852 120.291C22.3559 120.143 22.4427 120.03 22.449 119.95C22.4543 119.871 22.3613 119.722 22.1722 119.504C22.1445 119.472 22.1145 119.437 22.082 119.403C22.0485 119.366 22.0146 119.333 21.9816 119.3L22.7956 118.595L23.2558 119.087C23.7125 119.58 23.9229 120.002 23.8889 120.358C23.8671 120.586 23.7261 120.813 23.4672 121.038L20.9038 123.258L21.3988 123.83H21.3983ZM16.5878 120.769L17.4775 121.901L16.4317 122.723L15.542 121.591L16.5878 120.769ZM17.9948 121.494L17.1051 120.362L21.4376 116.958L22.3273 118.09L17.9953 121.494H17.9948ZM14.3197 116.482L13.4363 115.239L19.06 113.64L19.9288 114.862L16.5674 119.643L15.6433 118.343L18.2998 115.067L14.3197 116.482ZM12.8007 112.004C12.9641 112.289 13.1823 112.458 13.4533 112.51C13.7253 112.563 14.0273 112.521 14.3599 112.383L13.2603 110.47C12.9418 110.681 12.7484 110.924 12.6795 111.198C12.6092 111.474 12.6499 111.742 12.8007 112.004ZM11.7714 112.596C11.5459 112.205 11.4184 111.81 11.3864 111.411C11.3554 111.011 11.4412 110.616 11.6454 110.227C11.8223 109.88 12.0827 109.571 12.425 109.301C12.6272 109.144 12.9355 108.949 13.35 108.719L15.2011 111.938C15.6705 111.646 15.9216 111.304 15.9546 110.915C15.9769 110.676 15.9187 110.437 15.7815 110.198C15.636 109.945 15.4441 109.781 15.207 109.707C15.0775 109.666 14.9243 109.653 14.7459 109.667L14.0239 108.412C14.3255 108.279 14.6983 108.259 15.1395 108.351C15.8343 108.486 16.3909 108.917 16.8074 109.642C17.1521 110.242 17.2597 110.882 17.1317 111.563C17.0033 112.246 16.4976 112.842 15.6161 113.348C14.789 113.824 14.0361 113.982 13.3573 113.824C12.678 113.663 12.1505 113.255 11.7719 112.596H11.7714ZM7.44132 102.254C7.08012 102.396 6.85997 102.591 6.77997 102.84C6.70094 103.087 6.72715 103.378 6.85952 103.715L7.3836 105.045L9.42428 104.24L8.89972 102.91C8.76687 102.573 8.5807 102.346 8.34215 102.224C8.10264 102.102 7.80253 102.112 7.44132 102.254ZM6.875 100.846C7.69195 100.524 8.3523 100.5 8.85071 100.772C9.35058 101.047 9.74863 101.562 10.0468 102.319L10.6184 103.769L13.112 102.786L13.6705 104.203L6.73831 106.936L5.56645 103.964C5.29592 103.278 5.25857 102.66 5.4559 102.111C5.65371 101.563 6.12547 101.142 6.87552 100.846H6.875ZM9.57314 96.3466C9.4403 95.9539 9.19593 95.6993 8.84006 95.5844C8.48613 95.4695 8.04636 95.501 7.52176 95.6785C6.99862 95.8555 6.63015 96.0969 6.41876 96.4033C6.20737 96.7102 6.16911 97.0603 6.30195 97.453C6.4348 97.8457 6.67815 98.1012 7.03257 98.2176C7.3865 98.333 7.82673 98.3029 8.34987 98.126C8.87447 97.9485 9.24248 97.7051 9.45387 97.3987C9.66623 97.0899 9.70599 96.7393 9.57314 96.3466ZM7.04469 94.2686C7.81122 94.0092 8.54045 94.0048 9.23134 94.2536C9.92223 94.5042 10.4167 95.0705 10.7154 95.9549C11.0145 96.8382 10.9661 97.5888 10.5685 98.206C10.1714 98.8246 9.58912 99.2644 8.82259 99.5233C8.06915 99.7783 7.34337 99.7817 6.64375 99.5339C5.94462 99.2881 5.44569 98.7228 5.14606 97.8389C4.84691 96.9551 4.90028 96.2031 5.30609 95.5815C5.7119 94.9614 6.29078 94.5236 7.04422 94.2686H7.04469ZM3.25519 92.5794L3.57862 93.9821L2.28262 94.2812L1.95877 92.8785L3.25519 92.5794ZM4.21956 93.8342L3.89566 92.4315L9.26429 91.1923L9.58815 92.5949L4.21956 93.8342ZM2.84407 88.1538C2.74516 87.6016 2.81257 87.1235 3.04335 86.7197C3.27462 86.3163 3.72888 86.0535 4.41056 85.9318L8.06285 85.2797L8.31791 86.7104L5.01855 87.2995C4.73298 87.3504 4.52112 87.428 4.38149 87.5303C4.12743 87.717 4.03432 88.003 4.10365 88.388C4.18802 88.8617 4.45032 89.1516 4.8891 89.2544C5.12134 89.3077 5.40449 89.3038 5.73951 89.2442L8.67666 88.7201L8.92538 90.1116L3.50973 91.0788L3.26925 89.7319L4.06099 89.5904C3.75021 89.4609 3.51946 89.3261 3.36868 89.1875C3.09814 88.9388 2.92261 88.594 2.84407 88.1538ZM3.66152 85.3267L2.64284 85.4562L2.54782 84.7061L1.02252 84.9L0.845579 83.5076L2.37088 83.3137L2.25985 82.4385L3.27801 82.3091L3.38904 83.1842L6.27719 82.8172C6.50167 82.7886 6.63649 82.7425 6.68594 82.6795C6.73345 82.617 6.73877 82.4414 6.70289 82.1554C6.69756 82.1127 6.69176 82.0676 6.684 82.0206C6.67624 81.9721 6.66654 81.9251 6.65781 81.88L7.72588 81.7442L7.83644 82.409C7.9431 83.0717 7.88443 83.5401 7.65898 83.8169C7.5145 83.9949 7.27113 84.1059 6.93077 84.1495L3.56697 84.5767L3.66247 85.3272L3.66152 85.3267ZM6.18462 81.2453L6.07019 79.7404L7.57219 79.626L7.68663 81.1309L6.18462 81.2453ZM0.000473475 75.4181L0.131863 70.2158L1.44145 70.2487L1.34836 73.9272L3.06125 73.9704L3.14226 70.7505L4.43627 70.783L4.35483 74.0028L7.4791 74.0819L7.44033 75.6057L0 75.4181H0.000473475ZM2.32675 66.0849C2.33014 66.0592 2.33499 66.0364 2.33887 66.0175C2.34323 65.9996 2.34954 65.9608 2.36117 65.8992L3.82681 66.0854C3.805 66.1732 3.78804 66.2498 3.77591 66.3186C3.76331 66.3875 3.75459 66.4442 3.74926 66.4864C3.6775 67.0532 3.81519 67.4575 4.16573 67.699C4.36257 67.8337 4.68062 67.9293 5.1194 67.9845L7.73123 68.3167L7.55136 69.7343L2.08528 69.04L2.25597 67.6961L3.2077 67.8173C2.87074 67.5535 2.64625 67.3329 2.53328 67.154C2.34225 66.8621 2.27294 66.5058 2.32628 66.0845L2.32675 66.0849ZM7.45098 63.526C7.52371 63.1172 7.43209 62.7769 7.17561 62.5049C6.92107 62.2334 6.52059 62.0496 5.97563 61.9522C5.43213 61.8552 4.99337 61.8891 4.6598 62.0559C4.32671 62.2227 4.12453 62.5112 4.05181 62.9189C3.97908 63.3272 4.06875 63.6675 4.32377 63.941C4.57831 64.2125 4.9783 64.3982 5.52181 64.4951C6.06676 64.5926 6.50656 64.5572 6.83916 64.3899C7.17418 64.2222 7.37825 63.9337 7.45098 63.5255V63.526ZM6.23746 60.4865C7.03405 60.6291 7.67502 60.9762 8.16034 61.5275C8.64518 62.0802 8.80513 62.8147 8.64077 63.7335C8.4769 64.6517 8.07254 65.2859 7.42674 65.635C6.78045 65.9855 6.05952 66.0898 5.26196 65.9477C4.47895 65.8076 3.84136 65.461 3.3478 64.9068C2.85375 64.3541 2.68889 63.6186 2.85325 62.6998C3.01761 61.7815 3.42682 61.1483 4.08135 60.7992C4.73589 60.4516 5.45397 60.3469 6.23746 60.487V60.4865ZM5.29203 52.8416C5.35797 52.6108 5.46608 52.398 5.62171 52.2001C5.77686 52.0018 5.99162 51.8438 6.27089 51.7269C6.49683 51.6319 6.75236 51.5965 7.03745 51.6232C7.22362 51.6426 7.4888 51.7003 7.83255 51.7977L11.1716 52.7562L10.7746 54.154L7.39961 53.196C7.19888 53.1388 7.02387 53.1247 6.87599 53.1514C6.5943 53.2023 6.40761 53.3914 6.31549 53.7162C6.20834 54.0939 6.29416 54.3989 6.57003 54.6331C6.71839 54.7548 6.91042 54.8483 7.14848 54.9157L10.3038 55.8117L9.91348 57.1867L6.75767 56.2907C6.44253 56.201 6.20446 56.1671 6.04495 56.1908C5.75453 56.234 5.56353 56.4216 5.46802 56.7566C5.35748 57.1474 5.4108 57.4451 5.62995 57.6521C5.75358 57.767 5.96109 57.8645 6.25006 57.9464L9.44028 58.8526L9.04706 60.2373L3.75508 58.7343L4.1323 57.4068L4.9061 57.6264C4.67823 57.3797 4.52792 57.1639 4.45374 56.9826C4.32187 56.6568 4.31459 56.2839 4.43386 55.8641C4.54731 55.4636 4.72862 55.1669 4.97589 54.972C5.19843 54.8212 5.45346 54.7315 5.74145 54.7019C5.48158 54.4357 5.31576 54.1482 5.24449 53.8418C5.17855 53.5194 5.19409 53.1858 5.29203 52.8411V52.8416ZM10.8604 46.386L11.6269 44.69L8.57775 44.3172L10.8599 46.386H10.8604ZM6.67576 44.3913L7.3899 42.8117L15.2501 43.5138L14.5655 45.0284L12.9738 44.8291L11.8606 47.2911L13.0475 48.3854L12.3867 49.8472L6.67623 44.3909L6.67576 44.3913ZM13.5929 39.125C12.4977 38.423 11.8388 37.5924 11.6172 36.6349C11.4228 35.8019 11.5751 34.9952 12.0735 34.218C12.7406 33.178 13.5731 32.6398 14.5728 32.6025C15.1318 32.5875 15.6142 32.6951 16.0171 32.9268L15.19 34.2175C14.8351 34.1094 14.5398 34.0711 14.3013 34.104C13.879 34.1641 13.5197 34.4245 13.2244 34.8851C12.9234 35.3544 12.8773 35.848 13.0892 36.3648C13.2996 36.8836 13.7558 37.368 14.4603 37.8194C15.1633 38.2703 15.7829 38.4652 16.3172 38.4021C16.8505 38.3406 17.2593 38.0899 17.5429 37.6477C17.8328 37.1954 17.9031 36.7542 17.7548 36.3236C17.6777 36.0885 17.5051 35.8242 17.237 35.5295L18.0568 34.2504C18.6687 34.8022 19.0415 35.4456 19.1754 36.1791C19.3097 36.9132 19.1463 37.638 18.6857 38.3565C18.116 39.2452 17.3786 39.7592 16.4734 39.8954C15.5667 40.0312 14.6058 39.7742 13.5929 39.125ZM18.1616 29.2629C18.1775 29.2431 18.1936 29.2256 18.2067 29.2115C18.2193 29.198 18.2449 29.1684 18.2866 29.1209L19.4478 30.0333C19.3843 30.0978 19.3305 30.155 19.2844 30.2079C19.2389 30.2602 19.202 30.3048 19.1754 30.3383C18.8229 30.7872 18.7332 31.2057 18.9097 31.5926C19.0091 31.8093 19.2331 32.0546 19.5807 32.3276L21.651 33.9547L20.7676 35.0786L16.4355 31.674L17.2724 30.6088L18.0268 31.2013C17.8731 30.8018 17.7941 30.4978 17.7887 30.2864C17.7752 29.9378 17.8988 29.5965 18.1611 29.2624L18.1616 29.2629ZM21.0978 27.644C20.883 27.8923 20.7957 28.1536 20.8355 28.4266C20.8742 28.701 21.0134 28.9725 21.2534 29.2411L22.6977 27.5733C22.3942 27.342 22.1014 27.2392 21.8197 27.2644C21.536 27.2887 21.2956 27.4157 21.0978 27.644ZM20.2003 26.8668C20.4965 26.525 20.8277 26.2749 21.1937 26.1129C21.5612 25.9524 21.9617 25.9039 22.3966 25.9679C22.7826 26.0208 23.1593 26.1653 23.5268 26.4004C23.742 26.5396 24.0271 26.7665 24.3811 27.0821L21.9496 29.8888C22.3792 30.2365 22.785 30.3611 23.1636 30.2636C23.3959 30.2064 23.6029 30.0731 23.7828 29.8651C23.9743 29.644 24.0664 29.4089 24.0577 29.1611C24.0543 29.0254 24.017 28.876 23.9442 28.7121L24.8926 27.6179C25.117 27.8593 25.2586 28.2045 25.3168 28.6511C25.4172 29.3521 25.1936 30.0188 24.6463 30.6515C24.1934 31.1741 23.6242 31.4859 22.9387 31.5892C22.2512 31.6925 21.523 31.4103 20.7545 30.7451C20.033 30.1201 19.636 29.4612 19.5628 28.7684C19.4905 28.0741 19.7028 27.4419 20.2003 26.8678V26.8668ZM26.9027 24.0863C26.877 24.1896 26.844 24.2856 26.8038 24.3743C26.7621 24.4635 26.6937 24.5745 26.6002 24.7045L26.4101 24.9682C26.2307 25.2136 26.1212 25.4085 26.0814 25.5539C26.014 25.8012 26.0761 26.0237 26.2661 26.2235C26.4368 26.4019 26.6074 26.4848 26.7791 26.4707C26.9512 26.4567 27.1088 26.383 27.2479 26.2506C27.4695 26.0397 27.6106 25.7789 27.6712 25.4705C27.7318 25.1622 27.5994 24.8286 27.2731 24.4742L26.9032 24.0858L26.9027 24.0863ZM25.8172 24.1939C25.983 23.9884 26.0887 23.8284 26.1362 23.7134C26.2215 23.5103 26.2007 23.3426 26.0732 23.2087C25.9171 23.0449 25.7546 22.9852 25.583 23.0293C25.4114 23.0735 25.2179 23.1986 25.0021 23.4051C24.7597 23.6359 24.6458 23.8613 24.6613 24.08C24.6749 24.239 24.7432 24.4073 24.8664 24.5833L23.8754 25.5287C23.5651 25.1588 23.3872 24.7801 23.344 24.3922C23.2815 23.7823 23.5782 23.1632 24.239 22.5329C24.6696 22.1222 25.134 21.8439 25.6334 21.6995C26.1323 21.5555 26.6113 21.7227 27.07 22.2042L28.813 24.033C28.9342 24.1605 29.0835 24.3118 29.261 24.4882C29.3982 24.6172 29.5068 24.6894 29.5868 24.7069C29.6668 24.7239 29.7565 24.7171 29.8534 24.6836L29.9998 24.8373L28.8828 25.902C28.7747 25.8501 28.6811 25.7963 28.6011 25.7367C28.5206 25.6776 28.4348 25.6067 28.3427 25.5224C28.35 25.8138 28.3126 26.1018 28.2317 26.3888C28.1352 26.7287 27.9475 27.0317 27.6683 27.2979C27.3129 27.6368 26.9202 27.8133 26.4921 27.8278C26.063 27.8433 25.6688 27.661 25.3076 27.2828C24.8407 26.7931 24.6885 26.2613 24.8514 25.6863C24.9411 25.3716 25.1607 25.0007 25.5078 24.5716L25.8167 24.1935L25.8172 24.1939ZM27.2605 21.4003L26.588 20.6245L27.1597 20.1295L26.1531 18.9669L27.214 18.0481L28.221 19.2103L28.8877 18.6328L29.5596 19.4091L28.893 19.9865L30.7984 22.1867C30.9468 22.3574 31.0597 22.4442 31.1397 22.4505C31.2183 22.4553 31.3671 22.3627 31.5857 22.1736C31.6177 22.146 31.6527 22.1159 31.6871 22.0829C31.7235 22.0495 31.7569 22.0155 31.7894 21.9831L32.4943 22.7971L32.0027 23.2572C31.5101 23.7135 31.0878 23.9244 30.7325 23.8899C30.5046 23.8686 30.2767 23.7275 30.0517 23.4676L27.8317 20.9048L27.26 21.3998L27.2605 21.4003ZM30.2539 16.693L29.1218 17.5827L28.2995 16.5369L29.4316 15.6472L30.2539 16.693ZM29.5281 18.1L30.6602 17.2103L34.0647 21.5428L32.9326 22.432L29.5281 18.1ZM34.5263 14.3837L35.7689 13.5003L37.3674 19.1245L36.1457 19.9933L31.3656 16.6314L32.665 15.7073L35.9411 18.3642L34.5268 14.3837H34.5263ZM39.0382 12.8186C38.7536 12.982 38.5849 13.2007 38.533 13.4712C38.4792 13.7432 38.5219 14.0453 38.6596 14.3779L40.5723 13.2778C40.3613 12.9593 40.1189 12.7663 39.844 12.697C39.5681 12.6267 39.3 12.6674 39.0377 12.8182L39.0382 12.8186ZM38.4462 11.7893C38.838 11.5639 39.2331 11.4364 39.6326 11.4044C40.0326 11.3733 40.4268 11.4592 40.8161 11.6628C41.1628 11.8398 41.4716 12.1001 41.7412 12.4429C41.8987 12.6451 42.0937 12.953 42.324 13.368L39.1046 15.2191C39.396 15.6879 39.7383 15.9396 40.1281 15.972C40.3667 15.9943 40.6052 15.9362 40.8442 15.7994C41.0978 15.6535 41.2617 15.4615 41.3349 15.2244C41.3766 15.095 41.3901 14.9418 41.3756 14.7634L42.6309 14.0414C42.7637 14.3435 42.7836 14.7158 42.692 15.1565C42.5562 15.8518 42.1252 16.4079 41.4004 16.8249C40.8006 17.1696 40.1606 17.2772 39.4794 17.1492C38.7958 17.0208 38.2009 16.5146 37.6942 15.6336C37.2186 14.806 37.0601 14.0535 37.2191 13.3748C37.3791 12.6955 37.7873 12.168 38.4462 11.7893ZM48.7563 7.42144C48.6138 7.06023 48.4193 6.84012 48.1706 6.76061C47.9238 6.68109 47.6325 6.70728 47.296 6.84013L45.9661 7.36471L46.7704 9.40492L48.1003 8.8808C48.4373 8.74796 48.6652 8.56128 48.7864 8.32274C48.909 8.08323 48.8984 7.78314 48.7563 7.42193V7.42144ZM50.1643 6.85514C50.4867 7.67257 50.5114 8.33245 50.2385 8.83135C49.9641 9.33122 49.4487 9.72927 48.6914 10.0274L47.2412 10.5991L48.2245 13.0921L46.8077 13.6506L44.0747 6.71842L47.0473 5.54657C47.7333 5.27603 48.3505 5.2387 48.8998 5.43554C49.4472 5.63335 49.869 6.10509 50.1643 6.85514ZM54.683 9.61145C55.0762 9.4786 55.3302 9.23376 55.4451 8.87789C55.56 8.52396 55.528 8.08469 55.3511 7.56009C55.1741 7.03695 54.9326 6.66849 54.6257 6.45758C54.3193 6.24619 53.9693 6.20788 53.5761 6.34073C53.1834 6.47357 52.9283 6.71647 52.8115 7.07137C52.6966 7.4253 52.7267 7.86506 52.9036 8.3882C53.0816 8.9128 53.3245 9.2808 53.6309 9.4917C53.9397 9.70455 54.2903 9.74382 54.683 9.61097V9.61145ZM56.761 7.08302C57.0204 7.84955 57.0248 8.57875 56.776 9.26964C56.5259 9.96102 55.9591 10.4551 55.0752 10.7542C54.1914 11.0534 53.4413 11.0049 52.8241 10.6068C52.2055 10.2098 51.7662 9.62793 51.5068 8.86092C51.2518 8.10748 51.2484 7.38168 51.4961 6.68206C51.7419 5.98341 52.3073 5.48403 53.1911 5.18488C54.075 4.88574 54.827 4.93906 55.4486 5.34487C56.0687 5.75068 56.5065 6.32958 56.7615 7.08302H56.761ZM58.4124 3.3202L57.0097 3.64405L56.7106 2.34808L58.1132 2.02422L58.4124 3.32067V3.3202ZM57.1576 4.28452L58.5602 3.96067L59.7995 9.32928L58.3968 9.65314L57.1576 4.28452ZM62.9184 2.8819C63.4707 2.78348 63.9487 2.85039 64.3526 3.08166C64.7564 3.31293 65.0187 3.76722 65.1404 4.44842L65.7926 8.10071L64.3618 8.35619L63.7727 5.05738C63.7218 4.77181 63.6447 4.55992 63.5419 4.42029C63.3553 4.16624 63.0692 4.07314 62.6842 4.14198C62.2106 4.22634 61.9207 4.48865 61.8179 4.92743C61.7645 5.15967 61.7684 5.4428 61.8281 5.77734L62.3526 8.7145L60.9607 8.96321L59.9939 3.54758L61.3403 3.3071L61.4819 4.09885C61.6113 3.78807 61.7461 3.5568 61.8848 3.40601C62.1335 3.13547 62.4782 2.95995 62.9179 2.8814L62.9184 2.8819ZM65.7048 3.73908L65.5754 2.72044L66.3259 2.62492L66.1319 1.09962L67.5249 0.922661L67.7183 2.44796L68.5935 2.33646L68.7229 3.35509L67.8478 3.46662L68.2148 6.35432C68.2434 6.5788 68.2895 6.71405 68.352 6.76302C68.4146 6.81054 68.5901 6.81636 68.8761 6.78C68.9188 6.77466 68.9639 6.76884 69.0109 6.76108C69.0599 6.75332 69.1064 6.74364 69.1515 6.73442L69.2873 7.80251L68.623 7.91307C67.9598 8.01973 67.4919 7.96106 67.2146 7.73561C67.0367 7.59113 66.9256 7.34775 66.8825 7.00691L66.4549 3.64308L65.7043 3.73811L65.7048 3.73908ZM69.8099 6.1851L71.3149 6.07068L71.4293 7.57318L69.9243 7.68762L69.8099 6.1851ZM75.548 0.00437972L80.7503 0.135769L80.7173 1.44483L77.0389 1.35175L76.9957 3.06469L80.2156 3.14612L80.1825 4.44018L76.9627 4.35872L76.8837 7.48301L75.3599 7.44423L75.548 0.00390625V0.00437972ZM84.8385 2.48918C84.8637 2.49209 84.8874 2.49743 84.9058 2.50082C84.9238 2.5047 84.9626 2.51149 85.0242 2.52312L84.838 3.98829C84.7502 3.96696 84.6736 3.94999 84.6048 3.93787C84.5364 3.92575 84.4792 3.91702 84.437 3.91168C83.8702 3.83944 83.4659 3.97764 83.2244 4.32818C83.0897 4.52502 82.9946 4.84307 82.9389 5.28185L82.6067 7.89415L81.1891 7.71378L81.8834 2.24773L83.2273 2.41839L83.1066 3.37012C83.3704 3.03316 83.591 2.80867 83.7694 2.69571C84.0608 2.50468 84.4176 2.43536 84.8389 2.48918H84.8385ZM87.4741 7.4864C87.8828 7.55912 88.2236 7.4675 88.4951 7.21102C88.7666 6.95648 88.9504 6.55599 89.0478 6.01055C89.1448 5.46705 89.1108 5.02779 88.9441 4.69519C88.7773 4.36211 88.4888 4.15994 88.0806 4.08673C87.6723 4.014 87.332 4.10369 87.0585 4.35872C86.7865 4.61326 86.6013 5.01325 86.5039 5.55675C86.4069 6.10219 86.4423 6.54146 86.6091 6.87455C86.7773 7.20957 87.0653 7.41319 87.4735 7.4864H87.4741ZM90.5135 6.27236C90.3709 7.06943 90.0233 7.70991 89.4725 8.19524C88.9198 8.68007 88.1853 8.84007 87.2665 8.67619C86.3483 8.51183 85.7141 8.10796 85.365 7.46215C85.0145 6.81587 84.9097 6.09443 85.0523 5.29736C85.1924 4.51434 85.539 3.87678 86.0932 3.38322C86.6455 2.88916 87.3814 2.72432 88.2997 2.8882C89.2185 3.05256 89.8512 3.46175 90.2003 4.11677C90.5484 4.77082 90.6526 5.48935 90.513 6.27236H90.5135ZM98.2191 5.39676C98.4498 5.46222 98.6622 5.5708 98.8605 5.72595C99.0583 5.88109 99.2163 6.09637 99.3332 6.37515C99.4282 6.60109 99.4636 6.8566 99.4369 7.14168C99.418 7.32786 99.3599 7.59306 99.2624 7.93681L98.3039 11.2759L96.9061 10.8788L97.8641 7.50387C97.9213 7.30314 97.9359 7.12762 97.9087 6.98023C97.8578 6.69854 97.6687 6.51236 97.3434 6.41975C96.9657 6.3126 96.6603 6.39842 96.4266 6.67429C96.3049 6.82265 96.2113 7.01466 96.1439 7.25271L95.248 10.4085L93.8734 10.0182L94.7694 6.8629C94.8591 6.54727 94.8925 6.30921 94.8693 6.15018C94.8261 5.86025 94.6385 5.66874 94.3035 5.57323C93.9127 5.4622 93.615 5.51603 93.4075 5.73518C93.2931 5.85881 93.1951 6.06631 93.1132 6.35479L92.2075 9.54502L90.8228 9.15182L92.3253 3.85982L93.6528 4.23701L93.4332 5.01034C93.68 4.78295 93.8957 4.63216 94.0775 4.55798C94.4028 4.4261 94.7762 4.41932 95.1961 4.53859C95.5965 4.65204 95.8928 4.83338 96.0877 5.08065C96.2384 5.30319 96.3282 5.5582 96.3577 5.84668C96.6244 5.58632 96.9114 5.42051 97.2178 5.34972C97.5403 5.2833 97.8733 5.2993 98.2185 5.39724L98.2191 5.39676ZM104.553 10.872L106.248 11.6386L106.622 8.5894L104.553 10.8716V10.872ZM106.548 6.68738L108.128 7.40108L107.426 15.2618L105.911 14.5772L106.11 12.9855L103.648 11.8722L102.553 13.0591L101.092 12.3983L106.548 6.68788V6.68738ZM111.858 13.6986C112.561 12.6034 113.391 11.9445 114.349 11.7224C115.182 11.5285 115.988 11.6807 116.766 12.1787C117.806 12.8453 118.344 13.6783 118.381 14.678C118.396 15.237 118.288 15.7194 118.057 16.1223L116.767 15.2947C116.875 14.9398 116.913 14.6445 116.88 14.4065C116.819 13.9842 116.559 13.6249 116.098 13.3292C115.629 13.0286 115.135 12.9825 114.618 13.1944C114.099 13.4053 113.615 13.8611 113.164 14.566C112.713 15.269 112.518 15.8882 112.581 16.423C112.643 16.9563 112.894 17.365 113.336 17.6486C113.788 17.9385 114.229 18.0084 114.659 17.86C114.895 17.7834 115.159 17.6103 115.454 17.3422L116.733 18.162C116.181 18.7734 115.538 19.1468 114.804 19.2811C114.07 19.4149 113.346 19.2515 112.627 18.7909C111.738 18.2212 111.224 17.4838 111.088 16.5786C110.952 15.6719 111.209 14.711 111.858 13.6982L111.858 13.6986ZM121.796 18.1616C121.816 18.1771 121.834 18.1936 121.847 18.2062C121.861 18.2188 121.89 18.2445 121.938 18.2862L121.025 19.4478C120.96 19.3843 120.904 19.33 120.851 19.2845C120.798 19.2389 120.754 19.202 120.72 19.1759C120.271 18.8229 119.853 18.7332 119.466 18.9102C119.249 19.0096 119.004 19.2335 118.731 19.5812L117.104 21.6514L115.98 20.7681L119.385 16.436L120.449 17.2729L119.857 18.0273C120.256 17.8736 120.561 17.7946 120.772 17.7897C121.12 17.7756 121.462 17.8998 121.796 18.162V18.1616ZM123.4 21.1021C123.152 20.8873 122.891 20.8001 122.618 20.8398C122.343 20.8786 122.072 21.0178 121.804 21.2577L123.471 22.7021C123.702 22.3986 123.805 22.1057 123.78 21.824C123.755 21.5404 123.628 21.3004 123.4 21.1021ZM124.177 20.2047C124.519 20.5004 124.769 20.8316 124.931 21.1976C125.092 21.5651 125.141 21.9656 125.077 22.4005C125.024 22.7865 124.879 23.1632 124.644 23.5307C124.505 23.746 124.278 24.031 123.963 24.3855L121.156 21.954C120.808 22.3836 120.684 22.7893 120.781 23.168C120.838 23.4007 120.972 23.6073 121.18 23.7876C121.401 23.9787 121.636 24.0708 121.884 24.0621C122.02 24.0587 122.169 24.0213 122.333 23.9486L123.427 24.8969C123.186 25.1214 122.841 25.263 122.394 25.3217C121.693 25.4225 121.026 25.1985 120.394 24.6511C119.871 24.1983 119.56 23.6291 119.456 22.9435C119.353 22.2555 119.635 21.5278 120.3 20.7593C120.924 20.0379 121.584 19.6408 122.277 19.5676C122.97 19.4954 123.603 19.7077 124.177 20.2052V20.2047ZM126.894 26.9614C126.791 26.9357 126.695 26.9023 126.607 26.862C126.517 26.8208 126.407 26.7524 126.277 26.6584L126.012 26.4688C125.767 26.2889 125.572 26.1793 125.427 26.1396C125.179 26.0722 124.957 26.1343 124.757 26.3248C124.579 26.495 124.496 26.6656 124.51 26.8378C124.524 27.0099 124.598 27.1675 124.73 27.3066C124.941 27.5282 125.202 27.6693 125.51 27.7299C125.818 27.791 126.152 27.6581 126.506 27.3323L126.895 26.9619L126.894 26.9614ZM126.787 25.8758C126.992 26.0416 127.152 26.1469 127.267 26.1949C127.471 26.2807 127.638 26.2594 127.772 26.1318C127.936 25.9757 127.995 25.8133 127.951 25.6417C127.907 25.47 127.782 25.2771 127.576 25.0603C127.345 24.8179 127.12 24.704 126.901 24.7195C126.742 24.7331 126.574 24.8014 126.398 24.9246L125.453 23.9336C125.822 23.6233 126.201 23.4453 126.589 23.4022C127.199 23.3396 127.818 23.6364 128.449 24.2972C128.859 24.7282 129.138 25.1922 129.282 25.6916C129.426 26.1905 129.259 26.67 128.777 27.1282L126.949 28.8712C126.821 28.9929 126.67 29.1417 126.493 29.3192C126.364 29.4564 126.292 29.5655 126.275 29.645C126.258 29.7245 126.265 29.8147 126.298 29.9116L126.144 30.0581L125.08 28.941C125.131 28.8329 125.185 28.7393 125.245 28.6593C125.304 28.5793 125.375 28.493 125.459 28.4009C125.168 28.4081 124.879 28.3708 124.592 28.2898C124.252 28.1934 123.949 28.0057 123.683 27.7265C123.344 27.3711 123.168 26.9779 123.153 26.5502C123.138 26.1212 123.32 25.727 123.698 25.3658C124.187 24.8989 124.719 24.7467 125.295 24.9096C125.609 24.9997 125.981 25.2189 126.409 25.566L126.788 25.8749L126.787 25.8758ZM129.625 27.2775L130.401 26.605L130.896 27.1767L132.058 26.1701L132.978 27.231L131.815 28.2375L132.393 28.9041L131.617 29.5766L131.039 28.91L128.839 30.8159C128.668 30.9637 128.582 31.0777 128.575 31.1572C128.57 31.2357 128.663 31.3851 128.852 31.6032C128.88 31.6357 128.909 31.6701 128.942 31.705C128.976 31.7409 129.01 31.7749 129.042 31.8074L128.229 32.5123L127.768 32.0202C127.312 31.5276 127.101 31.1053 127.135 30.7494C127.157 30.5216 127.298 30.2937 127.558 30.0692L130.12 27.8491L129.625 27.2775H129.625ZM134.373 30.3388L133.483 29.2067L134.53 28.3849L135.419 29.5165L134.373 30.3388H134.373ZM132.966 29.6135L133.856 30.7455L129.524 34.1501L128.634 33.0185L132.966 29.6139V29.6135ZM136.571 34.6252L137.455 35.8674L131.83 37.4664L130.962 36.2446L134.323 31.4641L135.247 32.7634L132.59 36.0395L136.571 34.6252H136.571ZM138.19 39.1027C138.027 38.8181 137.808 38.6494 137.538 38.5975C137.266 38.5437 136.964 38.5859 136.631 38.7245L137.731 40.6367C138.049 40.4258 138.243 40.1834 138.312 39.9085C138.382 39.6326 138.341 39.3645 138.191 39.1022L138.19 39.1027ZM139.219 38.5107C139.445 38.9025 139.572 39.2976 139.604 39.6966C139.635 40.0966 139.55 40.4913 139.346 40.8806C139.169 41.2273 138.909 41.5361 138.566 41.8057C138.364 41.9628 138.055 42.1577 137.641 42.3885L135.79 39.1691C135.32 39.461 135.07 39.8028 135.037 40.1926C135.014 40.4307 135.072 40.6697 135.21 40.9087C135.355 41.1623 135.547 41.3262 135.784 41.3999C135.914 41.4411 136.067 41.4547 136.245 41.4401L136.967 42.6954C136.665 42.8277 136.293 42.8481 135.852 42.7564C135.157 42.6207 134.6 42.1902 134.183 41.4649C133.839 40.8656 133.732 40.2251 133.859 39.5439C133.988 38.8608 134.494 38.2654 135.375 37.7592C136.202 37.2836 136.955 37.1251 137.633 37.2836C138.313 37.4441 138.84 37.8518 139.219 38.5107H139.219Z" fill="white"/>
<path d="M143.499 48.7492C143.86 48.6072 144.08 48.4123 144.16 48.1635C144.239 47.9168 144.213 47.6259 144.081 47.2889L143.556 45.959L141.516 46.7633L142.04 48.0932C142.173 48.4302 142.36 48.6581 142.598 48.7793C142.838 48.9019 143.138 48.8918 143.499 48.7492ZM144.066 50.1572C143.248 50.4796 142.588 50.5038 142.089 50.2314C141.59 49.957 141.192 49.4416 140.893 48.6842L140.322 47.2341L137.829 48.2174L137.27 46.8007L144.202 44.0676L145.374 47.0397C145.644 47.7257 145.682 48.3434 145.485 48.8927C145.287 49.4401 144.815 49.8619 144.066 50.1572ZM141.382 54.7612C141.515 55.1544 141.76 55.4085 142.116 55.5229C142.469 55.6383 142.908 55.6063 143.433 55.4288C143.956 55.2519 144.325 55.0104 144.536 54.704C144.748 54.3971 144.786 54.0475 144.653 53.6543C144.52 53.2616 144.277 53.0066 143.922 52.8897C143.569 52.7748 143.128 52.8044 142.605 52.9819C142.081 53.1593 141.713 53.4022 141.502 53.7091C141.289 54.018 141.25 54.3685 141.382 54.7612H141.382ZM143.91 56.8388C143.143 57.0981 142.415 57.103 141.724 56.8538C141.032 56.6031 140.538 56.0368 140.239 55.153C139.94 54.2691 139.989 53.5191 140.387 52.9019C140.784 52.2832 141.365 51.844 142.132 51.5846C142.886 51.3295 143.612 51.3261 144.311 51.5739C145.01 51.8197 145.509 52.385 145.808 53.2689C146.107 54.1523 146.053 54.9047 145.648 55.5263C145.242 56.1464 144.663 56.5842 143.91 56.8392L143.91 56.8388ZM147.696 58.5279L147.372 57.1253L148.668 56.8261L148.992 58.2288L147.696 58.5279H147.696ZM146.731 57.2732L147.055 58.6758L141.685 59.915L141.362 58.5124L146.731 57.2732ZM148.037 62.9535C148.135 63.5058 148.068 63.9838 147.837 64.3877C147.606 64.7915 147.151 65.0538 146.47 65.1755L142.818 65.8277L142.562 64.3969L145.861 63.8078C146.146 63.7569 146.358 63.6793 146.498 63.5765C146.752 63.3894 146.845 63.1038 146.776 62.7189C146.692 62.2452 146.429 61.9557 145.99 61.8525C145.758 61.7991 145.475 61.803 145.14 61.8626L142.203 62.3872L141.955 60.9953L147.37 60.0285L147.611 61.3754L146.819 61.5165C147.13 61.6459 147.36 61.7807 147.511 61.9194C147.782 62.1681 147.957 62.5128 148.036 62.953L148.037 62.9535ZM147.316 65.7806L148.334 65.6512L148.43 66.4012L149.955 66.2073L150.132 67.5997L148.607 67.7937L148.718 68.6688L147.699 68.7983L147.588 67.9231L144.7 68.2902C144.476 68.3188 144.34 68.3653 144.291 68.4278C144.244 68.4904 144.238 68.6659 144.274 68.9524C144.28 68.9946 144.286 69.0402 144.293 69.0872C144.301 69.1362 144.31 69.1827 144.32 69.2278L143.251 69.3636L143.14 68.6994C143.034 68.0361 143.093 67.5677 143.318 67.2909C143.463 67.1129 143.706 67.0019 144.047 66.9583L147.41 66.5311L147.315 65.7806H147.316ZM144.832 69.8625L144.946 71.3674L143.444 71.4818L143.33 69.9769L144.832 69.863V69.8625ZM151 75.6897L150.868 80.8921L149.559 80.8591L149.652 77.1806L147.939 77.1375L147.858 80.3573L146.564 80.3248L146.645 77.105L143.521 77.026L143.56 75.5021L151 75.6902L151 75.6897ZM148.566 84.9191C148.562 84.9443 148.558 84.9681 148.554 84.9865C148.55 85.0045 148.543 85.0433 148.532 85.1048L147.067 84.9186C147.088 84.8309 147.105 84.7543 147.117 84.6854C147.13 84.6171 147.138 84.5599 147.144 84.5177C147.216 83.9509 147.077 83.5466 146.727 83.3051C146.53 83.1703 146.212 83.0753 145.774 83.0195L143.161 82.6874L143.342 81.2698L148.808 81.964L148.637 83.308L147.685 83.1873C148.022 83.451 148.246 83.6711 148.359 83.8501C148.55 84.1419 148.62 84.4983 148.566 84.9196V84.9191ZM143.501 87.5814C143.428 87.9901 143.52 88.3309 143.776 88.6024C144.031 88.8739 144.431 89.0577 144.977 89.1552C145.52 89.2521 145.959 89.2182 146.292 89.0519C146.625 88.8851 146.827 88.5966 146.9 88.1884C146.973 87.7802 146.883 87.4398 146.629 87.1663C146.374 86.8948 145.974 86.7092 145.431 86.6122C144.885 86.5147 144.446 86.5506 144.114 86.7174C143.779 86.8851 143.574 87.1736 143.502 87.5814H143.501ZM144.715 90.6208C143.918 90.4783 143.277 90.1311 142.791 89.5799C142.307 89.0276 142.147 88.2926 142.311 87.3743C142.475 86.4561 142.879 85.8219 143.525 85.4728C144.171 85.1218 144.893 85.018 145.69 85.1601C146.473 85.3002 147.11 85.6469 147.604 86.2015C148.098 86.7537 148.263 87.4897 148.098 88.408C147.935 89.3268 147.525 89.9595 146.87 90.3086C146.216 90.6562 145.498 90.7609 144.715 90.6213V90.6208ZM145.654 98.2653C145.589 98.4961 145.48 98.7089 145.326 98.9067C145.17 99.1045 144.955 99.2626 144.676 99.3794C144.45 99.4745 144.195 99.5094 143.91 99.4837C143.724 99.4643 143.458 99.4066 143.114 99.3091L139.776 98.3506L140.173 96.9528L143.548 97.9109C143.748 97.9676 143.923 97.9826 144.071 97.9555C144.353 97.9046 144.539 97.7155 144.632 97.3901C144.739 97.0124 144.653 96.7075 144.377 96.4733C144.229 96.3516 144.036 96.258 143.799 96.1907L140.643 95.2947L141.034 93.9202L144.19 94.8161C144.505 94.9058 144.743 94.9398 144.902 94.916C145.192 94.8729 145.384 94.6852 145.479 94.3502C145.59 93.9594 145.537 93.6613 145.317 93.4542C145.193 93.3398 144.986 93.2419 144.698 93.1599L141.507 92.2538L141.9 90.8686L147.193 92.3711L146.816 93.6986L146.042 93.4789C146.27 93.7257 146.42 93.9415 146.494 94.1233C146.626 94.4486 146.633 94.8219 146.514 95.2418C146.4 95.6423 146.219 95.939 145.972 96.1339C145.75 96.2847 145.494 96.3744 145.206 96.404C145.466 96.6706 145.632 96.9577 145.703 97.2641C145.77 97.5865 145.754 97.9196 145.656 98.2648L145.654 98.2653ZM140.067 104.721L139.301 106.417L142.35 106.79L140.068 104.721H140.067ZM144.252 106.716L143.538 108.295L135.678 107.593L136.363 106.078L137.955 106.278L139.068 103.816L137.881 102.721L138.542 101.259L144.252 106.716ZM137.275 111.982C138.37 112.684 139.03 113.515 139.251 114.472C139.445 115.305 139.293 116.112 138.795 116.889C138.128 117.929 137.295 118.467 136.296 118.504C135.736 118.519 135.254 118.412 134.852 118.18L135.679 116.89C136.034 116.998 136.329 117.036 136.567 117.003C136.99 116.943 137.349 116.683 137.644 116.222C137.945 115.752 137.991 115.259 137.779 114.742C137.569 114.223 137.112 113.738 136.407 113.287C135.704 112.837 135.085 112.642 134.551 112.705C134.017 112.767 133.609 113.017 133.325 113.46C133.035 113.912 132.965 114.353 133.114 114.784C133.191 115.019 133.364 115.283 133.632 115.578L132.812 116.857C132.201 116.306 131.827 115.663 131.693 114.929C131.559 114.195 131.723 113.47 132.183 112.751C132.752 111.863 133.49 111.349 134.395 111.212C135.302 111.077 136.263 111.334 137.275 111.983V111.982ZM132.83 121.844C132.814 121.865 132.798 121.882 132.785 121.896C132.773 121.909 132.746 121.939 132.705 121.986L131.544 121.074C131.607 121.009 131.661 120.952 131.707 120.899C131.753 120.847 131.789 120.802 131.816 120.769C132.169 120.32 132.258 119.901 132.082 119.514C131.982 119.298 131.758 119.053 131.411 118.779L129.34 117.152L130.224 116.028L134.556 119.432L133.719 120.498L132.965 119.905C133.118 120.304 133.197 120.609 133.202 120.82C133.216 121.168 133.093 121.509 132.83 121.843V121.844ZM129.852 123.463C130.066 123.216 130.154 122.954 130.113 122.681C130.075 122.406 129.935 122.135 129.695 121.867L128.251 123.534C128.555 123.766 128.847 123.868 129.13 123.843C129.413 123.819 129.653 123.692 129.852 123.463ZM130.748 124.241C130.453 124.583 130.122 124.833 129.755 124.994C129.388 125.155 128.987 125.204 128.552 125.14C128.166 125.087 127.789 124.943 127.422 124.707C127.207 124.568 126.922 124.341 126.567 124.026L128.999 121.219C128.569 120.871 128.163 120.747 127.784 120.844C127.552 120.901 127.345 121.035 127.165 121.243C126.974 121.464 126.881 121.699 126.89 121.947C126.894 122.083 126.931 122.232 127.003 122.396L126.055 123.49C125.831 123.249 125.689 122.904 125.631 122.457C125.53 121.756 125.754 121.089 126.302 120.457C126.754 119.935 127.324 119.623 128.009 119.519C128.697 119.415 129.425 119.698 130.193 120.363C130.915 120.988 131.312 121.647 131.386 122.34C131.457 123.034 131.245 123.666 130.748 124.241H130.748ZM123.942 127.022C123.968 126.918 124.001 126.822 124.041 126.734C124.082 126.644 124.151 126.533 124.245 126.403L124.434 126.14C124.614 125.894 124.724 125.699 124.764 125.554C124.831 125.307 124.769 125.084 124.579 124.884C124.409 124.706 124.238 124.623 124.065 124.637C123.893 124.651 123.736 124.725 123.597 124.857C123.376 125.069 123.234 125.329 123.173 125.637C123.113 125.946 123.245 126.279 123.572 126.634L123.942 127.022V127.022ZM125.028 126.914C124.862 127.119 124.756 127.279 124.709 127.394C124.623 127.598 124.645 127.766 124.772 127.899C124.928 128.062 125.09 128.122 125.262 128.078C125.434 128.034 125.627 127.909 125.843 127.703C126.086 127.472 126.2 127.246 126.184 127.027C126.17 126.868 126.102 126.7 125.979 126.524L126.97 125.579C127.279 125.949 127.458 126.327 127.501 126.715C127.564 127.325 127.267 127.944 126.607 128.574C126.176 128.985 125.711 129.263 125.213 129.408C124.714 129.552 124.234 129.385 123.776 128.904L122.033 127.075C121.911 126.948 121.762 126.797 121.585 126.62C121.447 126.491 121.339 126.418 121.259 126.401C121.179 126.384 121.089 126.391 120.992 126.425L120.846 126.271L121.962 125.206C122.07 125.258 122.164 125.312 122.244 125.372C122.324 125.431 122.411 125.502 122.502 125.585C122.495 125.295 122.532 125.006 122.614 124.719C122.71 124.379 122.898 124.076 123.177 123.81C123.532 123.471 123.925 123.294 124.353 123.28C124.782 123.265 125.176 123.447 125.537 123.825C126.004 124.315 126.157 124.846 125.994 125.422C125.904 125.736 125.685 126.108 125.337 126.536L125.029 126.914L125.028 126.914ZM123.684 129.708L124.356 130.484L123.785 130.979L124.791 132.141L123.73 133.06L122.723 131.898L122.056 132.475L121.384 131.699L122.05 131.122L120.145 128.921C119.997 128.75 119.883 128.664 119.804 128.657C119.725 128.653 119.576 128.745 119.358 128.934C119.326 128.962 119.291 128.992 119.256 129.025C119.22 129.058 119.187 129.092 119.154 129.125L118.449 128.311L118.941 127.85C119.433 127.394 119.856 127.183 120.211 127.217C120.439 127.239 120.667 127.38 120.892 127.639L123.112 130.202L123.683 129.707L123.684 129.708ZM120.627 134.415L121.759 133.526L122.581 134.571L121.449 135.461L120.627 134.415V134.415ZM121.353 133.008L120.221 133.897L116.817 129.565L117.949 128.676L121.353 133.008ZM116.388 136.724L115.145 137.607L113.546 131.983L114.768 131.115L119.549 134.476L118.249 135.4L114.973 132.743L116.388 136.724V136.724ZM111.873 138.289C112.158 138.125 112.327 137.907 112.378 137.637C112.432 137.365 112.39 137.063 112.251 136.73L110.339 137.83C110.55 138.149 110.792 138.342 111.067 138.411C111.343 138.481 111.611 138.44 111.873 138.29V138.289ZM112.465 139.318C112.073 139.544 111.678 139.671 111.279 139.703C110.879 139.734 110.485 139.649 110.095 139.445C109.749 139.268 109.44 139.008 109.17 138.665C109.013 138.463 108.818 138.155 108.587 137.74L111.806 135.889C111.515 135.42 111.173 135.169 110.783 135.136C110.545 135.113 110.306 135.172 110.067 135.309C109.813 135.454 109.649 135.646 109.576 135.883C109.534 136.013 109.521 136.166 109.535 136.344L108.28 137.066C108.147 136.764 108.127 136.392 108.219 135.951C108.355 135.257 108.786 134.7 109.511 134.283C110.11 133.938 110.75 133.831 111.432 133.959C112.115 134.087 112.71 134.593 113.216 135.474C113.692 136.301 113.85 137.054 113.691 137.733C113.531 138.412 113.123 138.94 112.464 139.318H112.465ZM102.207 143.583C102.35 143.943 102.544 144.164 102.793 144.243C103.04 144.322 103.331 144.296 103.668 144.164L104.997 143.639L104.193 141.599L102.863 142.123C102.526 142.256 102.298 142.443 102.177 142.681C102.054 142.921 102.064 143.221 102.207 143.583H102.207ZM100.8 144.149C100.477 143.332 100.452 142.672 100.725 142.173C101 141.673 101.516 141.275 102.272 140.977L103.723 140.405L102.74 137.912L104.157 137.353L106.89 144.286L103.917 145.457C103.231 145.728 102.614 145.765 102.065 145.569C101.518 145.37 101.096 144.899 100.8 144.149H100.8ZM96.1936 141.392C95.8004 141.525 95.5463 141.77 95.4314 142.126C95.3165 142.48 95.3485 142.919 95.5259 143.443C95.7029 143.967 95.9443 144.335 96.2508 144.546C96.5572 144.757 96.9072 144.796 97.3004 144.663C97.6932 144.53 97.9482 144.287 98.065 143.932C98.1799 143.578 98.1499 143.139 97.9729 142.615C97.7955 142.091 97.5526 141.723 97.2457 141.512C96.9373 141.299 96.5863 141.26 96.1936 141.393V141.392ZM94.116 143.921C93.8566 143.154 93.8518 142.425 94.101 141.734C94.3512 141.043 94.9179 140.549 95.8018 140.249C96.6857 139.95 97.4357 139.999 98.0529 140.397C98.6715 140.794 99.1113 141.376 99.3707 142.143C99.6257 142.896 99.6291 143.622 99.3814 144.322C99.1356 145.02 98.5702 145.52 97.6868 145.819C96.803 146.118 96.051 146.065 95.4289 145.659C94.8093 145.253 94.3715 144.674 94.1165 143.921H94.116ZM92.4593 147.787L93.862 147.463L94.1611 148.76L92.7584 149.084L92.4593 147.787ZM93.7141 146.823L92.3114 147.147L91.0722 141.778L92.4748 141.454L93.7141 146.823ZM87.9857 148.122C87.433 148.221 86.955 148.154 86.5516 147.922C86.1477 147.691 85.8854 147.237 85.7637 146.556L85.1116 142.903L86.5423 142.648L87.1314 145.947C87.1823 146.232 87.2599 146.444 87.3622 146.584C87.5494 146.838 87.8349 146.931 88.2204 146.862C88.6936 146.778 88.9835 146.515 89.0863 146.077C89.1397 145.844 89.1358 145.561 89.0761 145.227L88.5515 142.29L89.9435 142.041L90.9103 147.456L89.5639 147.697L89.4218 146.905C89.2924 147.216 89.1576 147.447 89.0189 147.598C88.7702 147.868 88.4255 148.044 87.9857 148.122ZM85.194 147.369L85.3235 148.387L84.5729 148.482L84.7669 150.008L83.3744 150.185L83.1805 148.659L82.3058 148.77L82.1764 147.752L83.0515 147.641L82.6845 144.753C82.6559 144.529 82.6098 144.394 82.5473 144.344C82.4848 144.297 82.3092 144.291 82.0227 144.327C81.9805 144.333 81.9349 144.338 81.8879 144.346C81.8389 144.354 81.7924 144.363 81.7473 144.373L81.6116 143.304L82.2758 143.194C82.939 143.087 83.4069 143.146 83.6843 143.371C83.8622 143.516 83.9732 143.759 84.0164 144.1L84.4435 147.463L85.194 147.368V147.369ZM81.1277 144.819L79.6227 144.933L79.5083 143.431L81.0132 143.316L81.1277 144.819Z" fill="white"/>
<path fillRule="evenodd" clipRule="evenodd" d="M73.5349 96.9498L63.2582 77.7041L70.0964 75.2586L73.994 83.1009L83.205 68.1746L32.7197 85.493L44.0684 79.4326C43.9059 78.157 43.8201 76.8566 43.8201 75.5374C43.8201 58.7043 57.4644 45.0599 74.2966 45.0599C81.1236 45.0599 87.426 47.3047 92.5047 51.0942L88.0587 53.484C84.067 50.9876 79.3505 49.5442 74.2966 49.5442C59.941 49.5442 48.3058 61.1823 48.3058 75.5374C48.3058 76.077 48.3218 76.6132 48.3553 77.1446L104.532 47.1482L98.4405 56.9361C102.413 62.0816 104.775 68.5329 104.775 75.5374C104.775 92.371 91.1306 106.015 74.2961 106.015C60.4418 106.015 48.7519 96.7704 45.0457 84.1151L49.2125 82.3717C52.2151 93.41 62.306 101.53 74.2961 101.53C88.6526 101.53 100.291 89.892 100.291 75.5369C100.291 70.1726 98.6665 65.187 95.8806 61.0475L89.0337 72.049L73.5344 96.9488L73.5349 96.9498Z" fill="white"/>
<path d="M111.509 52.3311V53.0074H110.373V56.1351H109.57V53.0074H108.429V52.3311H111.509Z" fill="white"/>
<path d="M114.495 52.3311H115.641V56.1351H114.896V53.5621C114.896 53.4879 114.896 53.3827 114.901 53.2503C114.901 53.1184 114.901 53.0176 114.901 52.9439L114.183 56.1351H113.412L112.698 52.9439C112.698 53.0181 112.698 53.1184 112.698 53.2503C112.704 53.3822 112.704 53.4879 112.704 53.5621V56.1351H111.964V52.3311H113.116L113.808 55.3215L114.495 52.3311H114.495Z" fill="white"/>
</svg>
