<svg width="258" height="217" viewBox="0 0 258 217" fill="none" xmlns="http://www.w3.org/2000/svg">
<path d="M69.1744 115.914L95.8639 123.647C94.0704 130.825 91.2463 136.819 87.3917 141.631C83.5926 146.406 78.6583 150.153 73.039 152.532C67.3251 154.978 60.0539 156.201 51.2254 156.201C40.5148 156.201 31.7643 154.709 24.974 151.724C18.1837 148.74 12.3245 143.489 7.39655 135.973C2.46552 128.459 0 118.842 0 107.12C0 91.4909 4.33625 79.479 13.0088 71.0848C21.6813 62.6906 33.9538 58.495 49.8264 58.498C62.2388 58.498 71.9969 60.9047 79.1007 65.718C86.2044 70.5313 91.4795 77.9217 94.9259 87.8893L68.0368 93.6231C67.0934 90.744 66.1072 88.6385 65.0782 87.3068C63.4309 85.1183 61.2883 83.3514 58.8261 82.151C56.3613 80.9476 53.6053 80.346 50.558 80.346C43.6485 80.3399 38.3589 82.9957 34.6893 88.3136C31.9095 92.2615 30.5197 98.4624 30.5197 106.916C30.5197 117.388 32.1779 124.566 35.4943 128.45C38.8107 132.334 43.4741 134.275 49.4847 134.275C55.3102 134.275 59.7137 132.707 62.6952 129.571C65.6768 126.435 67.8365 121.883 69.1744 115.914Z" fill="white"/>
<path d="M99.334 60.1038H126.693V94.9031C130.413 91.209 134.111 88.5661 137.787 86.9745C141.463 85.3828 145.81 84.5885 150.828 84.5915C158.265 84.5915 164.125 86.7612 168.407 91.1005C172.69 95.4398 174.831 102.1 174.829 111.081V154.596H147.332V116.946C147.332 112.651 146.503 109.611 144.844 107.825C143.185 106.039 140.855 105.147 137.853 105.15C134.537 105.15 131.848 106.354 129.787 108.76C127.726 111.167 126.695 115.485 126.693 121.714V154.596H99.334V60.1038Z" fill="white"/>
<path d="M173.445 86.1375H202.316L217.04 131.705L230.716 86.1375H257.679L229.354 159.273C226.126 167.617 222.834 173.25 219.476 176.174C214.725 180.302 207.491 182.366 197.773 182.366C193.828 182.366 187.735 181.85 179.493 180.818L177.344 162.513C181.285 163.715 185.673 164.317 190.509 164.318C193.734 164.318 196.342 163.609 198.334 162.19C200.327 160.771 202.017 158.232 203.405 154.573L173.445 86.1375Z" fill="white"/>
<path d="M171.451 162.268H13.9629V181.84H173.043L171.451 162.268Z" fill="white"/>
<path d="M257.776 58.4202H137.238V78.0159H257.776V58.4202Z" fill="white"/>
<path d="M52.853 53.3767C69.9282 29.8408 97.6543 14.5362 128.954 14.5362C160.253 14.5362 187.977 29.8408 205.055 53.3744H222.426C203.543 21.4282 168.758 0 128.954 0C88.5193 0 53.2521 22.1209 34.5898 54.918C39.4131 54.0441 45.4702 53.402 52.853 53.3767Z" fill="white"/>
<path d="M179.374 187.794C164.5 197.245 147.269 202.326 129.647 202.458C112.025 202.59 94.7209 197.767 79.7073 188.54H55.7012C75.7087 206.851 101.849 217.005 128.971 217C156.094 216.995 182.23 206.831 202.231 188.512C196.137 188.599 188.41 188.466 179.374 187.794Z" fill="white"/>
</svg>
