<svg width="327" height="145" viewBox="0 0 327 145" fill="none" xmlns="http://www.w3.org/2000/svg">
<path d="M99.5509 47.7495H87.6377V14.1431H99.6494C103.03 14.1431 105.94 14.8159 108.379 16.1614C110.819 17.496 112.695 19.4159 114.008 21.9211C115.331 24.4263 115.993 27.4237 115.993 30.9134C115.993 34.4141 115.331 37.4225 114.008 39.9386C112.695 42.4547 110.808 44.3855 108.346 45.7311C105.896 47.0767 102.964 47.7495 99.5509 47.7495ZM94.743 41.6616H99.2555C101.356 41.6616 103.123 41.2896 104.556 40.5457C106 39.7909 107.083 38.6259 107.805 37.0506C108.538 35.4643 108.904 33.4186 108.904 30.9134C108.904 28.4302 108.538 26.4009 107.805 24.8256C107.083 23.2503 106.005 22.0907 104.572 21.3468C103.139 20.6029 101.372 20.2309 99.2719 20.2309H94.743V41.6616Z" fill="white"/>
<path d="M130.763 48.2417C128.171 48.2417 125.939 47.7166 124.068 46.6664C122.209 45.6053 120.775 44.1066 119.769 42.1703C118.763 40.223 118.259 37.9202 118.259 35.2619C118.259 32.6692 118.763 30.3938 119.769 28.4356C120.775 26.4774 122.192 24.9514 124.019 23.8574C125.857 22.7635 128.012 22.2165 130.484 22.2165C132.147 22.2165 133.695 22.4845 135.128 23.0205C136.572 23.5456 137.83 24.3388 138.902 25.3999C139.985 26.461 140.828 27.7957 141.429 29.4038C142.031 31.001 142.332 32.8716 142.332 35.0158V36.9357H121.049V32.6036H135.752C135.752 31.5972 135.533 30.7056 135.095 29.9289C134.658 29.1522 134.051 28.545 133.274 28.1074C132.508 27.6589 131.617 27.4347 130.599 27.4347C129.538 27.4347 128.597 27.6808 127.777 28.1731C126.967 28.6544 126.333 29.3053 125.873 30.1258C125.414 30.9353 125.179 31.8378 125.168 32.8333V36.9521C125.168 38.1992 125.397 39.2768 125.857 40.1847C126.327 41.0927 126.989 41.7929 127.842 42.2851C128.696 42.7774 129.708 43.0236 130.878 43.0236C131.655 43.0236 132.366 42.9142 133.011 42.6954C133.657 42.4766 134.209 42.1484 134.669 41.7108C135.128 41.2732 135.478 40.7372 135.719 40.1027L142.184 40.5293C141.856 42.0828 141.183 43.4393 140.166 44.5989C139.159 45.7475 137.858 46.6446 136.26 47.29C134.674 47.9245 132.842 48.2417 130.763 48.2417Z" fill="white"/>
<path d="M152.036 33.1779V47.7495H145.045V22.5447H151.708V26.9916H152.003C152.561 25.5257 153.496 24.3661 154.809 23.5128C156.122 22.6486 157.713 22.2165 159.584 22.2165C161.334 22.2165 162.861 22.5994 164.162 23.3651C165.464 24.1309 166.476 25.2249 167.198 26.647C167.92 28.0582 168.281 29.7429 168.281 31.7011V47.7495H161.291V32.9482C161.302 31.4057 160.908 30.2024 160.109 29.3381C159.311 28.463 158.211 28.0254 156.811 28.0254C155.87 28.0254 155.039 28.2278 154.317 28.6325C153.606 29.0373 153.048 29.628 152.643 30.4048C152.249 31.1705 152.047 32.0949 152.036 33.1779Z" fill="white"/>
<path d="M185.349 22.5447V27.7957H170.17V22.5447H185.349ZM173.616 16.506H180.606V40.0042C180.606 40.6497 180.705 41.1529 180.902 41.5139C181.099 41.864 181.372 42.1101 181.722 42.2523C182.083 42.3945 182.499 42.4656 182.969 42.4656C183.297 42.4656 183.626 42.4383 183.954 42.3836C184.282 42.318 184.534 42.2687 184.709 42.2359L185.808 47.4377C185.458 47.5471 184.966 47.6729 184.331 47.8151C183.697 47.9683 182.926 48.0612 182.018 48.0941C180.333 48.1597 178.856 47.9354 177.587 47.4213C176.329 46.9071 175.35 46.1085 174.65 45.0255C173.95 43.9425 173.605 42.575 173.616 40.9232V16.506Z" fill="white"/>
<path d="M195.241 48.2253C193.633 48.2253 192.2 47.9464 190.942 47.3885C189.684 46.8196 188.688 45.9827 187.955 44.8778C187.233 43.762 186.872 42.3727 186.872 40.7098C186.872 39.3096 187.129 38.1336 187.644 37.1818C188.158 36.2301 188.858 35.4643 189.744 34.8845C190.63 34.3047 191.637 33.8671 192.763 33.5718C193.901 33.2764 195.093 33.0685 196.341 32.9482C197.807 32.7951 198.988 32.6528 199.885 32.5216C200.782 32.3793 201.433 32.1715 201.838 31.898C202.243 31.6245 202.445 31.2198 202.445 30.6837V30.5853C202.445 29.546 202.117 28.7419 201.46 28.1731C200.815 27.6042 199.896 27.3198 198.704 27.3198C197.446 27.3198 196.445 27.5988 195.701 28.1567C194.957 28.7037 194.464 29.3928 194.224 30.2243L187.759 29.6992C188.087 28.1676 188.732 26.8439 189.695 25.7281C190.657 24.6013 191.899 23.7371 193.42 23.1354C194.951 22.5228 196.723 22.2165 198.736 22.2165C200.137 22.2165 201.477 22.3806 202.757 22.7088C204.048 23.0369 205.191 23.5456 206.186 24.2348C207.193 24.924 207.986 25.8101 208.566 26.8931C209.145 27.9652 209.435 29.2506 209.435 30.7494V47.7495H202.806V44.2543H202.609C202.204 45.0419 201.663 45.7366 200.984 46.3383C200.306 46.929 199.491 47.3939 198.539 47.7331C197.588 48.0612 196.488 48.2253 195.241 48.2253ZM197.243 43.401C198.271 43.401 199.179 43.1986 199.967 42.7938C200.755 42.3781 201.373 41.8202 201.821 41.1201C202.27 40.4199 202.494 39.6268 202.494 38.7407V36.066C202.275 36.2082 201.974 36.3395 201.592 36.4598C201.22 36.5692 200.798 36.6731 200.328 36.7716C199.858 36.8591 199.387 36.9412 198.917 37.0177C198.446 37.0834 198.02 37.1435 197.637 37.1982C196.816 37.3186 196.1 37.51 195.487 37.7726C194.875 38.0351 194.399 38.3906 194.06 38.8392C193.721 39.2768 193.551 39.8237 193.551 40.4801C193.551 41.4319 193.896 42.1593 194.585 42.6626C195.285 43.1548 196.171 43.401 197.243 43.401Z" fill="white"/>
<path d="M220.001 14.1431V47.7495H213.01V14.1431H220.001Z" fill="white"/>
<path d="M99.5509 86.2568H87.6377V52.6504H99.6494C103.03 52.6504 105.94 53.3232 108.379 54.6687C110.819 56.0034 112.695 57.9233 114.008 60.4284C115.331 62.9336 115.993 65.931 115.993 69.4208C115.993 72.9214 115.331 75.9298 114.008 78.4459C112.695 80.962 110.808 82.8929 108.346 84.2384C105.896 85.584 102.964 86.2568 99.5509 86.2568ZM94.743 80.1689H99.2555C101.356 80.1689 103.123 79.797 104.556 79.0531C106 78.2982 107.083 77.1332 107.805 75.5579C108.538 73.9716 108.904 71.9259 108.904 69.4208C108.904 66.9375 108.538 64.9082 107.805 63.3329C107.083 61.7576 106.005 60.598 104.572 59.8541C103.139 59.1102 101.372 58.7383 99.2719 58.7383H94.743V80.1689Z" fill="white"/>
<path d="M119.277 86.2568V61.052H126.267V86.2568H119.277ZM122.788 57.8029C121.749 57.8029 120.858 57.4583 120.114 56.7691C119.381 56.069 119.014 55.2321 119.014 54.2585C119.014 53.2958 119.381 52.4699 120.114 51.7807C120.858 51.0806 121.749 50.7305 122.788 50.7305C123.828 50.7305 124.714 51.0806 125.447 51.7807C126.191 52.4699 126.563 53.2958 126.563 54.2585C126.563 55.2321 126.191 56.069 125.447 56.7691C124.714 57.4583 123.828 57.8029 122.788 57.8029Z" fill="white"/>
<path d="M130.019 86.2568V61.052H136.796V65.4497H137.058C137.518 63.8853 138.289 62.7039 139.372 61.9053C140.455 61.0958 141.702 60.691 143.113 60.691C143.463 60.691 143.841 60.7129 144.245 60.7566C144.65 60.8004 145.006 60.8605 145.312 60.9371V67.1399C144.984 67.0414 144.53 66.9539 143.95 66.8773C143.37 66.8007 142.84 66.7625 142.358 66.7625C141.33 66.7625 140.411 66.9867 139.602 67.4352C138.803 67.8728 138.169 68.4854 137.698 69.2731C137.239 70.0607 137.009 70.9687 137.009 71.997V86.2568H130.019Z" fill="white"/>
<path d="M157.391 86.7491C154.798 86.7491 152.567 86.224 150.696 85.1738C148.836 84.1126 147.403 82.6139 146.397 80.6776C145.39 78.7304 144.887 76.4276 144.887 73.7693C144.887 71.1766 145.39 68.9011 146.397 66.943C147.403 64.9848 148.82 63.4587 150.647 62.3647C152.485 61.2708 154.64 60.7238 157.112 60.7238C158.775 60.7238 160.323 60.9918 161.756 61.5279C163.2 62.053 164.458 62.8461 165.53 63.9072C166.613 64.9684 167.456 66.303 168.057 67.9111C168.659 69.5083 168.96 71.379 168.96 73.5231V75.443H147.677V71.1109H162.38C162.38 70.1045 162.161 69.2129 161.723 68.4362C161.286 67.6595 160.679 67.0524 159.902 66.6148C159.136 66.1662 158.244 65.942 157.227 65.942C156.166 65.942 155.225 66.1881 154.405 66.6804C153.595 67.1618 152.961 67.8127 152.501 68.6331C152.042 69.4426 151.806 70.3452 151.796 71.3407V75.4594C151.796 76.7065 152.025 77.7841 152.485 78.6921C152.955 79.6001 153.617 80.3002 154.47 80.7925C155.324 81.2847 156.335 81.5309 157.506 81.5309C158.283 81.5309 158.994 81.4215 159.639 81.2027C160.285 80.9839 160.837 80.6557 161.297 80.2181C161.756 79.7806 162.106 79.2445 162.347 78.61L168.812 79.0367C168.484 80.5901 167.811 81.9466 166.794 83.1062C165.787 84.2548 164.485 85.1519 162.888 85.7973C161.302 86.4318 159.47 86.7491 157.391 86.7491Z" fill="white"/>
<path d="M183.061 86.7491C180.48 86.7491 178.259 86.2021 176.399 85.1081C174.55 84.0032 173.128 82.4717 172.133 80.5135C171.148 78.5553 170.656 76.3018 170.656 73.7528C170.656 71.1711 171.154 68.9066 172.149 66.9594C173.156 65.0012 174.583 63.4751 176.432 62.3811C178.281 61.2763 180.48 60.7238 183.029 60.7238C185.227 60.7238 187.153 61.1231 188.805 61.9217C190.456 62.7203 191.764 63.8416 192.726 65.2856C193.689 66.7296 194.22 68.4253 194.318 70.3725H187.722C187.536 69.1145 187.043 68.1026 186.245 67.3368C185.457 66.5601 184.423 66.1717 183.143 66.1717C182.06 66.1717 181.114 66.4671 180.305 67.0578C179.506 67.6376 178.882 68.4854 178.434 69.6013C177.985 70.7171 177.761 72.0682 177.761 73.6544C177.761 75.2625 177.98 76.63 178.417 77.7567C178.866 78.8835 179.495 79.7423 180.305 80.333C181.114 80.9237 182.06 81.2191 183.143 81.2191C183.942 81.2191 184.659 81.055 185.293 80.7268C185.938 80.3986 186.469 79.9228 186.885 79.2992C187.311 78.6647 187.59 77.9044 187.722 77.0183H194.318C194.209 78.9437 193.684 80.6393 192.743 82.1052C191.813 83.5602 190.528 84.6979 188.887 85.5184C187.246 86.3388 185.304 86.7491 183.061 86.7491Z" fill="white"/>
<path d="M210.352 61.052V66.303H195.173V61.052H210.352ZM198.619 55.0133H205.61V78.5116C205.61 79.157 205.708 79.6602 205.905 80.0212C206.102 80.3713 206.375 80.6174 206.725 80.7597C207.086 80.9019 207.502 80.973 207.973 80.973C208.301 80.973 208.629 80.9456 208.957 80.8909C209.285 80.8253 209.537 80.7761 209.712 80.7432L210.811 85.945C210.461 86.0544 209.969 86.1802 209.335 86.3224C208.7 86.4756 207.929 86.5686 207.021 86.6014C205.336 86.667 203.859 86.4428 202.59 85.9286C201.332 85.4144 200.353 84.6159 199.653 83.5328C198.953 82.4498 198.608 81.0824 198.619 79.4305V55.0133Z" fill="white"/>
<path d="M47.626 20.7266C45.796 23.8509 42.9277 26.2341 39.5209 27.4608C36.0764 28.685 32.4127 29.1696 28.7684 28.8831C25.2042 28.7117 21.7342 28.2234 18.41 28.1548C15.0857 28.0863 11.8728 28.3861 9.69655 29.9112C8.60233 30.6835 7.71873 31.7173 7.12622 32.9185C6.44479 34.1858 5.97043 35.5539 5.72111 36.971C5.50145 38.3483 5.53922 39.7544 5.83249 41.1178C6.16774 42.5781 6.68288 43.9912 7.36612 45.3246C10.1763 50.9879 15.0771 56.257 18.2643 63.1884C19.083 64.9671 19.7092 66.8284 20.1321 68.7403L20.4062 70.2225C20.4748 70.7194 20.5176 71.2249 20.5776 71.7219C20.6547 72.6557 20.7061 73.5211 20.749 74.4207C20.9032 77.9935 20.8775 81.5576 20.8603 84.9847C20.8302 86.609 20.8902 88.2337 21.0403 89.8512C21.0991 90.4743 21.2255 91.089 21.4172 91.6847C21.4769 91.8386 21.5485 91.9875 21.6314 92.1302C21.7 92.2073 21.7085 92.2588 21.7771 92.293C21.8901 92.3679 22.0193 92.4149 22.1541 92.4301C22.2483 92.4987 22.8909 92.4301 22.3254 92.5329C22.1112 92.61 22.2483 92.61 22.4197 92.4558C22.6411 92.2638 22.85 92.0577 23.0451 91.8389C24.0617 90.6187 24.9731 89.3146 25.7697 87.9406C27.5261 85.0533 29.1454 81.9432 30.9103 78.9359C32.6608 75.8491 34.5741 72.8576 36.6421 69.974C37.7222 68.5207 38.9047 67.1464 40.1806 65.8615C41.4811 64.5007 43.0431 63.4166 44.7729 62.6743C45.6833 62.3051 46.6615 62.1328 47.6432 62.1688C48.605 62.2242 49.5408 62.5029 50.3763 62.9827C51.8954 63.946 53.1617 65.2593 54.069 66.8125C52.9458 65.5229 51.5459 64.5036 49.9736 63.8309C49.2481 63.5457 48.4662 63.4335 47.6898 63.5034C46.9134 63.5733 46.164 63.8233 45.5012 64.2336C44.1332 65.0907 42.9339 66.1913 41.9627 67.4808C40.931 68.8027 40.0002 70.2003 39.1782 71.6619C37.4647 74.5835 35.9567 77.6593 34.5088 80.8122C33.0608 83.9652 31.6043 87.1095 29.9764 90.3139C29.1373 92.0132 28.1511 93.6358 27.0291 95.1632C26.6809 95.6264 26.2877 96.054 25.8553 96.4398C25.2484 97.0114 24.5186 97.4364 23.722 97.6822C23.4436 97.7677 23.1559 97.8195 22.8652 97.8364H22.6339H22.274C21.9529 97.8376 21.6321 97.8147 21.3144 97.7678C20.5841 97.6707 19.8749 97.4535 19.2153 97.1253C18.5008 96.7559 17.8661 96.2494 17.3476 95.6345C16.8965 95.0943 16.527 94.491 16.2509 93.8438C15.8249 92.8123 15.5368 91.7292 15.3941 90.6223C15.1454 88.7788 15.008 86.9219 14.9829 85.0618C14.88 81.5319 14.8629 78.1305 14.6316 74.7805C14.5716 73.9238 14.5202 73.067 14.4517 72.2702L14.3146 71.1821L14.1089 70.094C13.7591 68.619 13.2596 67.1836 12.6182 65.8101C11.1754 62.825 9.4965 59.96 7.59745 57.2423C5.51477 54.266 3.66163 51.1354 2.05411 47.8778C1.2156 46.0729 0.60543 44.1704 0.237747 42.2145C-0.117829 40.1491 -0.0742023 38.0347 0.366265 35.9857C0.81067 33.9859 1.58679 32.0746 2.66242 30.331C3.78461 28.4919 5.34089 26.9563 7.19477 25.8587C9.00491 24.842 11.0121 24.2255 13.0808 24.0509C14.9616 23.8833 16.855 23.9236 18.727 24.1708C22.3511 24.6078 25.744 25.4046 29.1025 25.8844C32.3816 26.5537 35.7621 26.5537 39.0411 25.8844C40.6831 25.5138 42.26 24.8986 43.7191 24.0594C45.2197 23.2045 46.5453 22.0737 47.626 20.7266Z" fill="white"/>
<path d="M47.1559 14.1197C43.8177 16.6202 40.2113 18.7409 36.4034 20.4427C34.4554 21.3316 32.4113 21.9929 30.3117 22.4133C28.0163 22.9446 25.6144 22.7775 23.4147 21.9335C22.833 21.6708 22.2862 21.337 21.7868 20.9396C21.2408 20.522 20.7663 20.0185 20.3817 19.4488C19.9557 18.8044 19.6804 18.0723 19.5763 17.3069C19.486 16.5553 19.5561 15.7932 19.7819 15.0707C20.1837 13.8368 20.8405 12.7013 21.7097 11.7378C22.4711 10.8681 23.3115 10.0707 24.22 9.356C25.9571 7.99763 27.8323 6.82594 29.8148 5.86034C31.7583 4.89149 33.7615 4.04731 35.8122 3.33287C39.8737 1.88548 44.0834 0.894093 48.364 0.376983C49.4349 0.248467 50.5145 0.154216 51.6026 0.0771067C52.1424 0.0771067 52.6821 0.0171355 53.2305 0H54.0444H54.9012C57.3248 0.0625889 59.7169 0.564821 61.961 1.48223C64.1866 2.42911 66.2195 3.77661 67.9584 5.45768C69.6445 7.08756 71.0872 8.95158 72.2423 10.9924C74.4482 14.9398 75.9009 19.2628 76.5262 23.7413C77.7291 32.4592 76.7064 41.3397 73.5532 49.5559C73.1762 50.584 72.7478 51.5865 72.2937 52.5803C71.8396 53.5742 71.4369 54.4224 71.0257 55.3477C70.246 57.1555 69.5263 58.9976 68.8923 60.8825C67.6718 64.666 66.7071 68.5274 66.005 72.4404C65.2425 76.3987 64.7884 80.4427 64.2143 84.5552C63.923 86.6115 63.6403 88.6848 63.1262 90.8439C62.8667 92.008 62.4517 93.1319 61.8925 94.1854C61.5384 94.8463 61.0547 95.4291 60.4702 95.8989C59.802 96.3959 58.9979 96.6769 58.1655 96.7043C56.8096 96.7136 55.4871 96.2837 54.3957 95.4791C53.4606 94.7749 52.6423 93.9277 51.971 92.9687C50.7604 91.212 49.7244 89.341 48.878 87.3826C48.0213 85.4977 47.1645 83.6042 46.3077 81.7878C45.8579 80.8759 45.3395 79.9995 44.7569 79.1661C44.1897 78.3133 43.4551 77.5846 42.5979 77.0241C43.5795 77.438 44.4573 78.0642 45.1682 78.8576C45.8882 79.6216 46.5471 80.4409 47.1388 81.308C48.3297 83.0216 49.375 84.8294 50.4631 86.5686C51.4711 88.2894 52.6173 89.9255 53.8902 91.4608C54.4803 92.1342 55.171 92.7122 55.9379 93.1743C56.5551 93.5553 57.2813 93.721 58.0027 93.6456C58.208 93.614 58.399 93.5214 58.551 93.38C58.7456 93.1605 58.9046 92.9118 59.0223 92.6431C59.3485 91.8344 59.573 90.9883 59.6906 90.1242C59.9904 88.2308 60.1104 86.1916 60.2303 84.1268C60.4531 80.0314 60.753 75.8504 61.2842 71.6607C61.7994 67.4338 62.659 63.2559 63.8545 59.1689C64.4542 57.1127 65.1396 55.0735 65.945 53.0773C66.3391 52.1005 66.8018 51.0296 67.1702 50.1814C67.5386 49.3331 67.8899 48.3821 68.2069 47.4654C69.5011 43.7938 70.3637 39.9841 70.7772 36.1131C71.205 32.2764 71.1388 28.4007 70.5802 24.5809C70.0986 20.8594 68.9369 17.2582 67.1531 13.9569C65.539 10.8404 62.9561 8.33272 59.7934 6.81138C58.2312 6.10825 56.552 5.70153 54.8412 5.6119H54.1815H53.4532H51.9881C51.0114 5.6119 50.0261 5.68042 49.0494 5.75753C45.1173 6.07953 41.2261 6.78547 37.4315 7.86522C33.6732 8.89145 30.0874 10.4678 26.7904 12.5432C26.0287 13.0448 25.3171 13.6187 24.6656 14.2568C24.0946 14.7851 23.632 15.4195 23.3033 16.1245C23.1799 16.3659 23.1156 16.6331 23.1156 16.9042C23.1156 17.1753 23.1799 17.4425 23.3033 17.6839C23.6989 18.312 24.2433 18.8328 24.8883 19.2003C26.5107 19.9956 28.3319 20.2936 30.1232 20.0571C32.1026 19.8444 34.0567 19.4398 35.9579 18.8491C37.9081 18.2511 39.8244 17.5475 41.6983 16.7414C43.4889 15.9189 45.3481 15.0279 47.1559 14.1197Z" fill="white"/>
</svg>
