<svg width="327" height="145" viewBox="0 0 327 145" fill="none" xmlns="http://www.w3.org/2000/svg">
<path d="M147.541 70.7677H129.885V20.9602H147.687C152.697 20.9602 157.01 21.9573 160.625 23.9516C164.241 25.9296 167.022 28.7751 168.967 32.4879C170.929 36.2008 171.91 40.6432 171.91 45.8153C171.91 51.0036 170.929 55.4623 168.967 59.1914C167.022 62.9204 164.225 65.7821 160.577 67.7763C156.945 69.7706 152.6 70.7677 147.541 70.7677ZM140.415 61.745H147.103C150.216 61.745 152.835 61.1937 154.959 60.0912C157.099 58.9725 158.704 57.2458 159.774 54.911C160.86 52.5601 161.404 49.5282 161.404 45.8153C161.404 42.1349 160.86 39.1273 159.774 36.7926C158.704 34.4578 157.107 32.7392 154.983 31.6367C152.859 30.5342 150.241 29.983 147.128 29.983H140.415V61.745Z" fill="white"/>
<path d="M193.801 71.4973C189.958 71.4973 186.65 70.7191 183.878 69.1626C181.122 67.5899 178.998 65.3687 177.506 62.4989C176.015 59.6129 175.269 56.2 175.269 52.2601C175.269 48.4176 176.015 45.0452 177.506 42.143C178.998 39.2408 181.097 36.979 183.805 35.3577C186.529 33.7363 189.723 32.9257 193.387 32.9257C195.852 32.9257 198.146 33.3229 200.27 34.1174C202.41 34.8956 204.274 36.0711 205.863 37.6438C207.468 39.2165 208.717 41.1945 209.609 43.5779C210.5 45.945 210.946 48.7175 210.946 51.8953V54.7408H179.403V48.3203H201.194C201.194 46.8287 200.87 45.5073 200.221 44.3561C199.573 43.205 198.673 42.3051 197.522 41.6566C196.387 40.9918 195.065 40.6595 193.557 40.6595C191.985 40.6595 190.59 41.0243 189.374 41.7539C188.175 42.4673 187.234 43.4319 186.553 44.648C185.872 45.8477 185.524 47.1853 185.507 48.6608V54.7651C185.507 56.6134 185.848 58.2104 186.529 59.5562C187.226 60.9019 188.207 61.9395 189.472 62.6691C190.736 63.3987 192.236 63.7635 193.971 63.7635C195.122 63.7635 196.176 63.6014 197.132 63.2771C198.089 62.9529 198.908 62.4665 199.589 61.8179C200.27 61.1694 200.789 60.3749 201.145 59.4346L210.727 60.0669C210.241 62.3692 209.244 64.3796 207.736 66.0983C206.244 67.8007 204.315 69.1302 201.948 70.0868C199.597 71.0271 196.881 71.4973 193.801 71.4973Z" fill="white"/>
<path d="M225.328 49.1715V70.7677H214.968V33.4121H224.842V40.0028H225.28C226.106 37.8302 227.493 36.1116 229.438 34.847C231.384 33.5661 233.743 32.9257 236.515 32.9257C239.11 32.9257 241.371 33.4931 243.301 34.6281C245.23 35.763 246.73 37.3844 247.8 39.4921C248.87 41.5836 249.405 44.0805 249.405 46.9827V70.7677H239.045V48.831C239.061 46.5449 238.477 44.7614 237.294 43.4806C236.11 42.1835 234.481 41.535 232.405 41.535C231.011 41.535 229.779 41.8349 228.709 42.4348C227.655 43.0347 226.828 43.9102 226.228 45.0614C225.644 46.1963 225.344 47.5664 225.328 49.1715Z" fill="white"/>
<path d="M274.701 33.4121V41.1945H252.205V33.4121H274.701ZM257.312 24.4623H267.672V59.2886C267.672 60.2452 267.818 60.991 268.11 61.5261C268.402 62.0449 268.807 62.4097 269.326 62.6205C269.861 62.8313 270.477 62.9366 271.174 62.9366C271.661 62.9366 272.147 62.8961 272.633 62.815C273.12 62.7178 273.493 62.6448 273.752 62.5962L275.382 70.3056C274.863 70.4678 274.133 70.6542 273.193 70.865C272.252 71.092 271.109 71.2298 269.764 71.2784C267.267 71.3757 265.078 71.0433 263.197 70.2813C261.333 69.5193 259.882 68.3357 258.844 66.7306C257.806 65.1255 257.296 63.0988 257.312 60.6506V24.4623Z" fill="white"/>
<path d="M289.362 71.473C286.979 71.473 284.855 71.0595 282.99 70.2327C281.126 69.3896 279.65 68.1493 278.564 66.5117C277.494 64.8579 276.959 62.7988 276.959 60.3344C276.959 58.2591 277.34 56.5161 278.102 55.1056C278.864 53.695 279.902 52.5601 281.215 51.7008C282.528 50.8415 284.02 50.1929 285.69 49.7552C287.376 49.3174 289.143 49.0094 290.992 48.831C293.164 48.604 294.915 48.3932 296.245 48.1987C297.574 47.9879 298.539 47.6799 299.139 47.2745C299.739 46.8692 300.039 46.2693 300.039 45.4748V45.3289C300.039 43.7886 299.552 42.597 298.579 41.7539C297.623 40.9108 296.261 40.4892 294.494 40.4892C292.629 40.4892 291.146 40.9027 290.043 41.7295C288.941 42.5402 288.211 43.5617 287.854 44.7939L278.272 44.0156C278.759 41.7458 279.715 39.7839 281.142 38.1302C282.569 36.4602 284.409 35.1793 286.663 34.2876C288.933 33.3797 291.559 32.9257 294.542 32.9257C296.618 32.9257 298.604 33.1689 300.501 33.6553C302.414 34.1417 304.108 34.8956 305.584 35.917C307.075 36.9385 308.251 38.2518 309.11 39.8569C309.969 41.4458 310.399 43.3509 310.399 45.5721V70.7677H300.574V65.5875H300.282C299.682 66.7549 298.879 67.7844 297.874 68.6762C296.869 69.5517 295.661 70.2408 294.251 70.7434C292.84 71.2298 291.21 71.473 289.362 71.473ZM292.329 64.3229C293.853 64.3229 295.199 64.0229 296.366 63.423C297.534 62.8069 298.45 61.9801 299.115 60.9424C299.779 59.9047 300.112 58.7293 300.112 57.416V53.4518C299.787 53.6626 299.342 53.8572 298.774 54.0355C298.223 54.1976 297.599 54.3517 296.901 54.4976C296.204 54.6273 295.507 54.7489 294.81 54.8624C294.113 54.9597 293.48 55.0488 292.913 55.1299C291.697 55.3083 290.635 55.592 289.727 55.9811C288.819 56.3702 288.114 56.8972 287.611 57.5619C287.109 58.2104 286.857 59.0211 286.857 59.9939C286.857 61.4045 287.368 62.4827 288.389 63.2285C289.427 63.9581 290.74 64.3229 292.329 64.3229Z" fill="white"/>
<path d="M326.058 20.9602V70.7677H315.697V20.9602H326.058Z" fill="white"/>
<path d="M147.541 127.839H129.885V78.0313H147.687C152.697 78.0313 157.01 79.0284 160.625 81.0227C164.241 83.0007 167.022 85.8462 168.967 89.559C170.929 93.2719 171.91 97.7143 171.91 102.886C171.91 108.075 170.929 112.533 168.967 116.262C167.022 119.992 164.225 122.853 160.577 124.847C156.945 126.842 152.6 127.839 147.541 127.839ZM140.415 118.816H147.103C150.216 118.816 152.835 118.265 154.959 117.162C157.099 116.044 158.704 114.317 159.774 111.982C160.86 109.631 161.404 106.599 161.404 102.886C161.404 99.206 160.86 96.1984 159.774 93.8637C158.704 91.5289 157.107 89.8103 154.983 88.7078C152.859 87.6053 150.241 87.054 147.128 87.054H140.415V118.816Z" fill="white"/>
<path d="M176.777 127.839V90.4832H187.137V127.839H176.777ZM181.981 85.6678C180.441 85.6678 179.119 85.1571 178.017 84.1356C176.931 83.098 176.387 81.8577 176.387 80.4147C176.387 78.9879 176.931 77.7638 178.017 76.7423C179.119 75.7047 180.441 75.1859 181.981 75.1859C183.521 75.1859 184.835 75.7047 185.921 76.7423C187.023 77.7638 187.575 78.9879 187.575 80.4147C187.575 81.8577 187.023 83.098 185.921 84.1356C184.835 85.1571 183.521 85.6678 181.981 85.6678Z" fill="white"/>
<path d="M192.697 127.839V90.4832H202.741V97.001H203.13C203.811 94.6824 204.954 92.9314 206.559 91.7478C208.164 90.548 210.013 89.9481 212.104 89.9481C212.623 89.9481 213.182 89.9806 213.782 90.0454C214.382 90.1103 214.909 90.1994 215.363 90.3129V99.5059C214.877 99.36 214.204 99.2303 213.344 99.1168C212.485 99.0033 211.699 98.9466 210.985 98.9466C209.461 98.9466 208.099 99.2789 206.9 99.9437C205.716 100.592 204.776 101.5 204.078 102.668C203.398 103.835 203.057 105.181 203.057 106.705V127.839H192.697Z" fill="white"/>
<path d="M233.265 128.568C229.423 128.568 226.115 127.79 223.343 126.234C220.586 124.661 218.462 122.44 216.971 119.57C215.479 116.684 214.733 113.271 214.733 109.331C214.733 105.489 215.479 102.116 216.971 99.2141C218.462 96.3119 220.562 94.0501 223.27 92.4288C225.994 90.8074 229.188 89.9968 232.852 89.9968C235.316 89.9968 237.61 90.394 239.734 91.1885C241.875 91.9667 243.739 93.1422 245.328 94.7149C246.933 96.2876 248.182 98.2656 249.073 100.649C249.965 103.016 250.411 105.789 250.411 108.966V111.812H218.868V105.391H240.659C240.659 103.9 240.334 102.578 239.686 101.427C239.037 100.276 238.137 99.3762 236.986 98.7277C235.851 98.0629 234.53 97.7306 233.022 97.7306C231.449 97.7306 230.055 98.0954 228.839 98.825C227.639 99.5384 226.699 100.503 226.018 101.719C225.337 102.919 224.988 104.256 224.972 105.732V111.836C224.972 113.685 225.313 115.282 225.994 116.627C226.691 117.973 227.672 119.011 228.936 119.74C230.201 120.47 231.701 120.835 233.435 120.835C234.587 120.835 235.641 120.672 236.597 120.348C237.554 120.024 238.372 119.538 239.053 118.889C239.734 118.24 240.253 117.446 240.61 116.506L250.192 117.138C249.706 119.44 248.709 121.451 247.201 123.169C245.709 124.872 243.78 126.201 241.412 127.158C239.062 128.098 236.346 128.568 233.265 128.568Z" fill="white"/>
<path d="M271.311 128.568C267.484 128.568 264.193 127.758 261.437 126.136C258.697 124.499 256.589 122.229 255.113 119.327C253.654 116.425 252.925 113.085 252.925 109.307C252.925 105.481 253.662 102.124 255.138 99.2384C256.629 96.3362 258.745 94.0744 261.485 92.4531C264.225 90.8156 267.484 89.9968 271.262 89.9968C274.521 89.9968 277.374 90.5886 279.823 91.7721C282.271 92.9557 284.208 94.6176 285.635 96.7578C287.062 98.8979 287.848 101.411 287.994 104.297H278.217C277.942 102.432 277.212 100.933 276.029 99.7978C274.861 98.6466 273.329 98.071 271.432 98.071C269.827 98.071 268.425 98.5088 267.225 99.3843C266.041 100.244 265.117 101.5 264.452 103.154C263.788 104.808 263.455 106.81 263.455 109.161C263.455 111.544 263.779 113.571 264.428 115.241C265.093 116.911 266.025 118.184 267.225 119.059C268.425 119.935 269.827 120.373 271.432 120.373C272.616 120.373 273.678 120.129 274.618 119.643C275.575 119.157 276.361 118.451 276.977 117.527C277.61 116.587 278.023 115.46 278.217 114.147H287.994C287.832 117 287.054 119.513 285.659 121.686C284.281 123.842 282.376 125.528 279.944 126.744C277.512 127.96 274.634 128.568 271.311 128.568Z" fill="white"/>
<path d="M311.758 90.4832V98.2656H289.261V90.4832H311.758ZM294.369 81.5334H304.729V116.36C304.729 117.316 304.875 118.062 305.167 118.597C305.459 119.116 305.864 119.481 306.383 119.692C306.918 119.902 307.534 120.008 308.231 120.008C308.718 120.008 309.204 119.967 309.69 119.886C310.177 119.789 310.55 119.716 310.809 119.667L312.439 127.377C311.92 127.539 311.19 127.725 310.25 127.936C309.309 128.163 308.166 128.301 306.821 128.35C304.324 128.447 302.135 128.114 300.254 127.352C298.39 126.59 296.939 125.407 295.901 123.802C294.863 122.197 294.352 120.17 294.369 117.722V81.5334Z" fill="white"/>
<path d="M70.5858 30.7168C67.8735 35.3474 63.6224 38.8795 58.5733 40.6976C53.4683 42.5118 48.0383 43.23 42.6371 42.8054C37.3547 42.5515 32.212 41.8277 27.2851 41.7261C22.3582 41.6245 17.5964 42.0689 14.3711 44.3292C12.7494 45.4739 11.4398 47.0061 10.5617 48.7863C9.55172 50.6645 8.84867 52.6922 8.47917 54.7925C8.15362 56.8337 8.20959 58.9176 8.64424 60.9384C9.1411 63.1027 9.90459 65.1969 10.9172 67.1732C15.0822 75.5666 22.3455 83.376 27.0692 93.6487C28.2826 96.285 29.2106 99.0435 29.8374 101.877L30.2438 104.074C30.3454 104.81 30.4089 105.56 30.4977 106.296C30.612 107.68 30.6882 108.963 30.7517 110.296C30.9803 115.591 30.9422 120.874 30.9168 125.953C30.872 128.36 30.9611 130.768 31.1834 133.165C31.2706 134.089 31.4579 135 31.7422 135.883C31.8306 136.111 31.9367 136.332 32.0596 136.543C32.1612 136.657 32.1739 136.734 32.2755 136.784C32.443 136.895 32.6345 136.965 32.8342 136.987C32.9739 137.089 33.9262 136.987 33.0882 137.14C32.7707 137.254 32.9739 137.254 33.2278 137.026C33.5561 136.741 33.8657 136.436 34.1548 136.111C35.6615 134.303 37.0123 132.37 38.1928 130.334C40.7959 126.054 43.1959 121.445 45.8117 116.988C48.406 112.413 51.2417 107.979 54.3067 103.706C55.9075 101.552 57.6601 99.5149 59.5511 97.6106C61.4785 95.5937 63.7935 93.987 66.3573 92.8869C67.7064 92.3396 69.1562 92.0843 70.6112 92.1377C72.0368 92.2197 73.4236 92.6328 74.6618 93.344C76.9134 94.7716 78.7901 96.718 80.1348 99.0201C78.4702 97.1087 76.3953 95.5981 74.065 94.6011C72.9899 94.1783 71.8309 94.0121 70.6803 94.1157C69.5296 94.2193 68.419 94.5898 67.4366 95.1979C65.4092 96.4682 63.6317 98.0994 62.1923 100.011C60.6631 101.97 59.2836 104.041 58.0654 106.207C55.5258 110.537 53.2909 115.096 51.1449 119.769C48.9989 124.442 46.8402 129.102 44.4276 133.851C43.1839 136.37 41.7223 138.774 40.0594 141.038C39.5433 141.725 38.9606 142.358 38.3198 142.93C37.4203 143.777 36.3387 144.407 35.158 144.771C34.7454 144.898 34.319 144.975 33.8881 145H33.5453H33.012C32.536 145.002 32.0606 144.968 31.5898 144.898C30.5074 144.754 29.4562 144.433 28.4787 143.946C27.4197 143.399 26.479 142.648 25.7105 141.737C25.0421 140.936 24.4945 140.042 24.0852 139.083C23.4538 137.554 23.0268 135.949 22.8154 134.308C22.4467 131.576 22.2432 128.824 22.2059 126.067C22.0535 120.835 22.0281 115.794 21.6852 110.829C21.5963 109.56 21.5202 108.29 21.4186 107.109L21.2154 105.496L20.9106 103.883C20.3921 101.697 19.6518 99.57 18.7012 97.5344C16.5629 93.1103 14.0746 88.8641 11.2601 84.8362C8.17335 80.425 5.42685 75.7853 3.04437 70.9572C1.80161 68.2821 0.897299 65.4626 0.352361 62.5637C-0.174633 59.5027 -0.109974 56.3689 0.542835 53.3322C1.20148 50.3682 2.35175 47.5355 3.94594 44.9514C5.60911 42.2257 7.91564 39.9497 10.6633 38.323C13.346 36.8163 16.3208 35.9026 19.3869 35.6437C22.1743 35.3954 24.9806 35.455 27.7549 35.8215C33.1263 36.4691 38.1547 37.65 43.1324 38.3611C47.9922 39.3531 53.0024 39.3531 57.8622 38.3611C60.2957 37.8119 62.6329 36.9002 64.7954 35.6564C67.0195 34.3893 68.984 32.7134 70.5858 30.7168Z" fill="white"/>
<path d="M69.887 20.9265C64.9396 24.6325 59.5945 27.7757 53.9509 30.2978C51.0637 31.6153 48.0343 32.5953 44.9225 33.2183C41.5205 34.0058 37.9607 33.7582 34.7005 32.5072C33.8384 32.118 33.028 31.6232 32.2878 31.0342C31.4787 30.4153 30.7753 29.6692 30.2054 28.8248C29.574 27.8697 29.166 26.7847 29.0117 25.6502C28.8779 24.5364 28.9818 23.4068 29.3165 22.336C29.912 20.5074 30.8854 18.8244 32.1736 17.3965C33.3021 16.1074 34.5476 14.9256 35.8941 13.8664C38.4686 11.8532 41.2478 10.1166 44.186 8.68552C47.0664 7.2496 50.0353 5.99845 53.0747 4.93959C59.0941 2.79445 65.3334 1.32512 71.6775 0.558721C73.2647 0.368249 74.8647 0.228562 76.4774 0.114279C77.2773 0.114279 78.0773 0.0253963 78.89 0H80.0963H81.3661C84.9581 0.092762 88.5034 0.837113 91.8294 2.19679C95.128 3.60014 98.1408 5.59725 100.718 8.08874C103.217 10.5044 105.355 13.267 107.067 16.2917C110.337 22.142 112.489 28.5492 113.416 35.1866C115.199 48.1072 113.683 61.2689 109.01 73.446C108.451 74.9698 107.816 76.4555 107.143 77.9285C106.47 79.4015 105.874 80.6586 105.264 82.03C104.109 84.7093 103.042 87.4393 102.102 90.2329C100.293 95.8404 98.8636 101.563 97.8229 107.363C96.6928 113.229 96.0198 119.223 95.169 125.318C94.7373 128.365 94.3182 131.438 93.5564 134.638C93.1717 136.364 92.5567 138.029 91.7278 139.591C91.203 140.57 90.4861 141.434 89.6199 142.13C88.6295 142.867 87.4378 143.283 86.2041 143.324C84.1946 143.338 82.2345 142.701 80.617 141.508C79.231 140.464 78.0183 139.209 77.0234 137.787C75.2291 135.184 73.6938 132.411 72.4394 129.508C71.1695 126.715 69.8997 123.908 68.6299 121.216C67.9633 119.865 67.1949 118.566 66.3315 117.331C65.4908 116.067 64.4021 114.987 63.1316 114.156C64.5865 114.77 65.8875 115.698 66.9411 116.874C68.0081 118.006 68.9846 119.22 69.8616 120.505C71.6267 123.045 73.1758 125.724 74.7885 128.302C76.2826 130.852 77.9812 133.277 79.8678 135.553C80.7423 136.551 81.7661 137.407 82.9026 138.092C83.8175 138.657 84.8936 138.902 85.9629 138.791C86.2671 138.744 86.5502 138.607 86.7756 138.397C87.0639 138.072 87.2996 137.703 87.474 137.305C87.9574 136.106 88.2901 134.852 88.4644 133.572C88.9088 130.765 89.0866 127.743 89.2644 124.683C89.5945 118.613 90.039 112.417 90.8263 106.207C91.5899 99.9425 92.8639 93.7506 94.6357 87.6933C95.5246 84.6458 96.5404 81.6236 97.734 78.665C98.3181 77.2174 99.0039 75.6301 99.5499 74.373C100.096 73.1159 100.617 71.7064 101.086 70.3477C103.005 64.9061 104.283 59.2598 104.896 53.5227C105.53 47.8364 105.432 42.0922 104.604 36.431C103.89 30.9154 102.168 25.5782 99.5245 20.6853C97.1323 16.0664 93.3043 12.3498 88.6168 10.095C86.3015 9.05294 83.8128 8.45014 81.2773 8.3173H80.2995H79.2202H77.0488C75.6012 8.3173 74.1409 8.41887 72.6933 8.53315C66.8656 9.01037 61.0986 10.0566 55.4746 11.6569C49.9046 13.1779 44.5901 15.5142 39.7036 18.5901C38.5747 19.3335 37.5201 20.184 36.5544 21.1297C35.7083 21.9128 35.0225 22.853 34.5354 23.8979C34.3526 24.2557 34.2573 24.6517 34.2573 25.0534C34.2573 25.4552 34.3526 25.8512 34.5354 26.209C35.1218 27.1399 35.9287 27.9118 36.8846 28.4565C39.2891 29.6351 41.9883 30.0769 44.6431 29.7263C47.5768 29.411 50.4729 28.8114 53.2906 27.9359C56.181 27.0497 59.0211 26.0069 61.7983 24.8122C64.4522 23.5931 67.2077 22.2725 69.887 20.9265Z" fill="#1E8FA9"/>
</svg>
