<svg width="12" height="22" viewBox="0 0 12 22" fill="none" xmlns="http://www.w3.org/2000/svg">
<path d="M3.89583 10.9564C3.89583 10.6616 3.94792 10.3886 4.05208 10.1375C4.15625 9.88632 4.29948 9.6652 4.48177 9.4741C4.66406 9.28301 4.875 9.13287 5.11458 9.02367C5.35417 8.91448 5.61458 8.85988 5.89583 8.85988C6.17708 8.85988 6.4375 8.91448 6.67708 9.02367C6.91667 9.13287 7.1276 9.28301 7.3099 9.4741C7.49219 9.6652 7.63542 9.88632 7.73958 10.1375C7.84375 10.3886 7.89583 10.6616 7.89583 10.9564C7.89583 11.2513 7.84375 11.5242 7.73958 11.7754C7.63542 12.0265 7.49219 12.2477 7.3099 12.4388C7.1276 12.6298 6.91667 12.78 6.67708 12.8892C6.4375 12.9984 6.17708 13.053 5.89583 13.053C5.61458 13.053 5.35417 12.9984 5.11458 12.8892C4.875 12.78 4.66406 12.6298 4.48177 12.4388C4.29948 12.2477 4.15625 12.0265 4.05208 11.7754C3.94792 11.5242 3.89583 11.2513 3.89583 10.9564ZM1.70313 7.02671C1.50521 7.23418 1.27083 7.33791 1 7.33791C0.729167 7.33791 0.494792 7.23418 0.296875 7.02671C0.0989583 6.81924 0 6.57355 0 6.28964C0 6.00573 0.0989583 5.76004 0.296875 5.55257L5.29688 0.311206C5.49479 0.103735 5.72917 0 6 0C6.27083 0 6.50521 0.103735 6.70312 0.311206L11.7031 5.55257C11.901 5.76004 12 6.00573 12 6.28964C12 6.57355 11.901 6.81924 11.7031 7.02671C11.5052 7.23418 11.2708 7.33791 11 7.33791C10.7292 7.33791 10.4948 7.23418 10.2969 7.02671L6 2.52241L1.70313 7.02671ZM10.2969 14.9733C10.4948 14.7658 10.7292 14.6621 11 14.6621C11.2708 14.6621 11.5052 14.7658 11.7031 14.9733C11.901 15.1808 12 15.4265 12 15.7104C12 15.9943 11.901 16.24 11.7031 16.4474L6.70312 21.6888C6.50521 21.8963 6.27083 22 6 22C5.72917 22 5.49479 21.8963 5.29688 21.6888L0.296875 16.4474C0.0989583 16.24 0 15.9943 0 15.7104C0 15.4265 0.0989583 15.1808 0.296875 14.9733C0.494792 14.7658 0.729167 14.6621 1 14.6621C1.27083 14.6621 1.50521 14.7658 1.70313 14.9733L6 19.4776L10.2969 14.9733Z" fill="white"/>
</svg>
