<svg width="310" height="46" viewBox="0 0 310 46" fill="none" xmlns="http://www.w3.org/2000/svg">
<path d="M0 45.0548V0.945205H7.823V19.8493H29.6889V0.945205H37.5119V45.0548H29.6889V26.1507H7.823V45.0548H0Z" fill="white"/>
<path d="M61.5656 46C52.7166 46 45.4066 40.2658 45.4066 29.3014C45.4066 19.0301 52.1395 12.6027 61.8221 12.6027C71.1199 12.6027 77.7887 18.0849 77.7887 28.4192C77.7887 29.5534 77.7246 30.3726 77.5963 31.0027H52.6525C52.909 37.1151 56.8205 40.2658 61.9503 40.2658C65.8618 40.2658 68.9397 38.5014 69.9657 34.7836H77.3398C76.1215 42.2192 69.7733 46 61.5656 46ZM52.8448 26.5288H70.158C70.158 21.4877 66.8237 18.0219 61.6297 18.0219C56.564 18.0219 53.1655 21.5507 52.8448 26.5288Z" fill="white"/>
<path d="M93.7468 45.811C87.2704 45.811 83.5512 42.1562 83.5512 36.674C83.5512 30.4356 88.1681 27.726 94.7728 27.2849L105.032 26.5918V25.3315C105.032 21.0466 102.852 18.337 98.2354 18.337C93.875 18.337 91.0536 20.4795 91.0536 23.8822H83.1665C83.1665 17.0767 88.9376 12.5397 98.4919 12.5397C107.213 12.5397 112.599 16.5726 112.599 24.4493V35.9808C112.599 38.1233 113.433 39.0685 115.613 39.0685H117.023V45.0548H113.048C108.11 45.0548 105.481 42.9123 105.481 38.8164V38.3123H105.161C104.135 41.7151 100.608 45.811 93.7468 45.811ZM91.3101 36.1068C91.3101 38.5014 92.9132 40.5808 97.0171 40.5808C101.442 40.5808 105.097 37.5562 105.161 31.0027L97.6583 31.5699C93.2979 31.8849 91.3101 33.2712 91.3101 36.1068Z" fill="white"/>
<path d="M130.871 45.0548C124.972 45.0548 121.894 42.1562 121.894 36.2959V0.945205H129.333V35.0356C129.333 37.4932 130.294 38.8795 132.859 38.8795H134.911V45.0548H130.871Z" fill="white"/>
<path d="M152.894 45.0548C146.994 45.0548 143.532 42.1562 143.532 36.2959V19.1562H136.735V13.5479H143.532V4.72603H151.034V13.5479H160.14V19.1562H151.034V35.0356C151.034 37.4932 152.381 38.8795 154.817 38.8795H160.14V45.0548H152.894Z" fill="white"/>
<path d="M165.983 45.0548V0.945205H173.486V21.5507H173.806C174.704 16.6986 178.872 12.6027 184.451 12.6027C192.21 12.6027 195.544 17.3288 195.544 25.9616V45.0548H188.042V26.9068C188.042 21.5507 185.541 18.7151 181.18 18.7151C176.371 18.7151 173.486 23.5671 173.486 28.5452V45.0548H165.983Z" fill="white"/>
<path d="M210.408 45.0548V13.2329H210.023C209.574 14.9342 206.561 18.0219 201.623 18.0219H199.571V11.2164H200.341C207.074 11.2164 210.216 6.49041 211.434 0.945205H217.975V45.0548H210.408Z" fill="white"/>
<path d="M246.501 46C236.947 46 227.649 39.3836 227.649 23C227.649 6.61644 236.947 0 246.501 0C256.056 0 265.289 6.61644 265.289 23C265.289 39.3836 256.056 46 246.501 46ZM235.472 23C235.472 35.7288 241.371 39.5096 246.501 39.5096C251.631 39.5096 257.466 35.7288 257.466 23C257.466 10.2712 251.631 6.49041 246.501 6.49041C241.371 6.49041 235.472 10.2712 235.472 23Z" fill="white"/>
<path d="M291.212 46C281.658 46 272.36 39.3836 272.36 23C272.36 6.61644 281.658 0 291.212 0C300.766 0 310 6.61644 310 23C310 39.3836 300.766 46 291.212 46ZM280.183 23C280.183 35.7288 286.082 39.5096 291.212 39.5096C296.342 39.5096 302.177 35.7288 302.177 23C302.177 10.2712 296.342 6.49041 291.212 6.49041C286.082 6.49041 280.183 10.2712 280.183 23Z" fill="white"/>
</svg>
