<svg width="84" height="80" viewBox="0 0 84 80" fill="none" xmlns="http://www.w3.org/2000/svg">
<path fill-rule="evenodd" clip-rule="evenodd" d="M44.1735 0C58.8275 0 71.6343 7.90432 78.5696 19.6795C79.1768 20.6806 77.9805 21.9665 76.7085 20.0908C70.0219 9.12765 57.9535 1.80694 44.1735 1.80694C24.9149 1.80694 8.99788 16.1025 6.44628 34.6587C12.8494 34.1252 19.3497 31.3901 23.9202 27.6429L24.6677 27.0296C25.1408 26.603 25.7702 26.0611 26.5559 25.4074C27.0547 24.9899 27.5702 24.5773 28.1002 24.1694L28.1072 24.1639L28.1316 24.1444L28.1462 24.1333L28.1823 24.1055L28.1851 24.1034L28.224 24.0736L28.2323 24.068C28.4907 23.8707 28.7534 23.6727 29.018 23.4775C29.8718 22.846 30.7083 22.2853 31.5245 21.7964C31.6642 21.7123 31.801 21.6345 31.933 21.5622C32.1178 21.4594 32.3137 21.3468 32.511 21.2725C32.9077 21.0911 33.2626 20.9724 33.5732 20.9175C33.9053 20.8585 34.1775 20.8731 34.3873 20.9606C34.5964 21.0495 34.7604 21.1974 34.8778 21.4045C34.9945 21.6129 35.0835 21.888 35.1446 22.2319C35.2057 22.5751 35.2738 22.9571 35.3488 23.3788L35.5148 24.3091C35.7044 25.372 35.8768 26.5981 36.0331 27.9883C36.1887 29.377 36.304 30.8254 36.384 32.3308C36.4576 33.8376 36.4944 35.3563 36.4923 36.8888C36.4916 38.4206 36.4312 39.8482 36.3013 41.1737C37.08 40.8688 37.7914 40.5978 38.4347 40.361C38.4972 39.8399 38.5716 39.3481 38.6591 38.8854C39.3844 35.9468 40.4813 33.6633 41.9444 32.035C43.4129 30.4073 45.0309 29.4348 46.7955 29.1207C47.8313 28.9366 48.6281 29.043 49.1894 29.4396C49.7451 29.8377 50.0911 30.4233 50.2287 31.1937C50.3517 31.8932 50.2975 32.6977 50.0627 33.6106C49.8209 34.5227 49.4131 35.4412 48.8254 36.3665C48.2439 37.2897 47.4965 38.181 46.5913 39.039C45.6812 39.897 44.6267 40.6069 43.429 41.1682C43.3901 41.6476 43.3762 42.0977 43.3888 42.5174C43.4019 42.9383 43.445 43.3531 43.5187 43.7623C43.6375 44.4368 43.8257 44.9315 44.0807 45.2469C44.3356 45.5623 44.7045 45.6769 45.186 45.5914C45.9328 45.458 46.7033 44.9982 47.4938 44.2104C48.2865 43.4233 49.0151 42.4917 49.6806 41.4155C50.1572 40.6458 50.5886 39.8566 50.9749 39.046C51.0986 38.4492 51.2388 37.8393 51.3937 37.2148C51.5924 36.4159 51.8015 35.6433 52.0211 34.8993C52.3128 33.7655 52.565 32.7394 52.7776 31.8197C52.9895 30.9013 53.0618 30.2469 52.9923 29.8593C52.9847 29.8149 52.9492 29.7502 52.8873 29.6662C52.8338 29.63 52.7929 29.596 52.7643 29.5662C52.7352 29.5356 52.7102 29.4633 52.6907 29.3494C52.6456 29.0986 52.7991 28.8416 53.152 28.5797C53.505 28.3171 53.9433 28.1385 54.4671 28.0447C54.7415 27.9967 55.0388 27.985 55.3611 28.0092C55.6821 28.0349 55.9913 28.1156 56.2851 28.251C56.5797 28.3865 56.8534 28.6018 57.1056 28.8971C57.3584 29.1937 57.5383 29.5785 57.6461 30.0537C58.1809 29.2298 58.7638 28.508 59.3947 27.8904C60.0254 27.2735 60.6819 26.9039 61.3656 26.7817C62.2318 26.6274 62.971 26.8193 63.5838 27.3562C64.1965 27.8933 64.6008 28.7089 64.796 29.8023C64.828 29.985 64.855 30.1392 64.8773 30.2636C64.9003 30.39 64.9155 30.545 64.9259 30.7319C65.2489 30.0399 65.6019 29.382 65.9853 28.7617C66.3681 28.1413 66.7585 27.5904 67.1545 27.1076C67.5505 26.6261 67.9611 26.2295 68.3876 25.919C68.8142 25.6078 69.256 25.4112 69.7117 25.3299C70.5773 25.1757 71.3178 25.3729 71.9333 25.9225C72.5475 26.4714 72.9504 27.2806 73.1408 28.3519C73.1741 28.5332 73.1964 28.6937 73.2089 28.8326C73.2213 28.9715 73.2311 29.123 73.2367 29.2863C73.2853 29.8184 73.2804 30.3839 73.2214 30.982C73.1638 31.5802 73.0666 32.1852 72.9283 32.7972C72.79 33.41 72.6358 34.024 72.4642 34.643C72.2919 35.2612 72.1252 35.8435 71.9633 36.3902C71.725 37.1606 71.525 37.8546 71.3645 38.4708C71.204 39.087 71.1519 39.5553 71.2089 39.8735C71.2491 40.1013 71.4062 40.191 71.6806 40.143C71.8849 40.1061 72.1294 39.8978 72.4149 39.5177C72.7003 39.1384 73.0033 38.6611 73.3235 38.0866C73.6445 37.5121 73.9724 36.8779 74.3065 36.1838C74.6413 35.4891 74.947 34.7937 75.2228 34.099C75.9925 32.165 76.3572 30.2337 77.0999 28.2948C77.5021 27.3437 77.9967 26.2663 78.6414 25.4569C80.9069 22.8497 81.721 26.1405 82.3401 27.9905C89.8491 53.5853 70.9651 79.7896 44.1738 79.7896C23.874 79.7896 7.12259 64.6256 4.61193 45.0086C4.54593 43.9291 6.2042 43.9832 6.35907 44.7009C6.40699 44.9211 6.49176 45.4297 6.49176 45.4297C9.2122 64.1164 25.2967 77.9827 44.1738 77.9827C60.9244 77.9827 75.1499 67.169 80.2497 52.1419L80.2601 52.1107C81.0396 49.8084 81.6029 47.4069 81.9301 44.9309C82.9013 40.5217 82.3205 30.7715 80.0342 27.0382C79.482 25.9774 77.1582 33.9518 76.658 35.1301C76.2946 35.9881 75.9028 36.8315 75.4881 37.6658C75.0629 38.5175 74.6086 39.2977 74.1244 40.0077C73.6395 40.717 73.1345 41.3116 72.6086 41.793C72.0827 42.2751 71.5471 42.5642 71.0003 42.6621C70.5439 42.7434 70.1278 42.717 69.7526 42.5836C69.3761 42.4516 69.0426 42.2349 68.7544 41.9334C68.4654 41.6319 68.2188 41.2651 68.0117 40.8317C67.806 40.3982 67.6574 39.9307 67.5685 39.429C67.4421 38.7225 67.4017 38.0014 67.4476 37.2643C67.492 36.528 67.5858 35.7999 67.7282 35.0809C67.8699 34.3626 68.0458 33.6671 68.2555 32.9947C68.4646 32.3229 68.6577 31.6894 68.8343 31.0933L68.8398 31.1273C69.0412 30.4097 69.2185 29.7908 69.3726 29.2705C69.5269 28.7488 69.5797 28.3514 69.5311 28.0777C69.4949 27.8734 69.3276 27.797 69.0315 27.8498C68.7127 27.906 68.3125 28.3299 67.8297 29.1212C67.3475 29.9125 66.8446 30.8781 66.3131 32.0188C65.7865 33.158 65.269 34.3731 64.7695 35.6611C64.2637 36.9497 63.8456 38.1293 63.5128 39.1999C63.335 39.9133 63.1877 40.574 63.0668 41.1825C62.9521 41.7918 62.923 42.2552 62.98 42.574C62.9883 42.6199 63.0057 42.6525 63.0328 42.6706C63.0592 42.6886 63.0877 42.7192 63.119 42.7608C63.1725 42.7991 63.2141 42.8324 63.2433 42.8623C63.2718 42.8922 63.2961 42.9644 63.317 43.0783C63.3614 43.3285 63.2079 43.591 62.8627 43.864C62.5125 44.1384 62.0915 44.3191 61.5907 44.408C61.2996 44.4601 60.9786 44.4705 60.6376 44.4372C60.2909 44.4052 59.9616 44.3045 59.6553 44.1356C59.3433 43.9682 59.0641 43.7188 58.8223 43.3854C58.5757 43.0527 58.4027 42.6136 58.3055 42.0662C58.2159 41.5654 58.2124 40.9845 58.2943 40.3232C58.3714 39.6625 58.4944 38.9713 58.6598 38.2481C58.8188 37.5263 59.0175 36.792 59.2482 36.0452C59.4746 35.2997 59.706 34.5891 59.9324 33.9132C60.2381 32.9899 60.5112 32.1118 60.762 31.2796C61.0079 30.4487 61.1037 29.861 61.0426 29.5185C61.01 29.3372 60.9024 29.2622 60.721 29.2948C60.5154 29.331 60.2716 29.5165 59.9791 29.8499C59.6859 30.1841 59.3754 30.6217 59.0544 31.1601C58.7272 31.7005 58.3937 32.3008 58.0526 32.9607C57.7178 33.6207 57.3968 34.2946 57.0967 34.983L57.1244 34.9428C56.8306 36.0293 56.4944 37.1123 56.122 38.1891C55.7295 39.3875 55.3779 40.5136 55.0716 41.5674C54.7714 42.6199 54.6651 43.4083 54.759 43.9329C54.7909 44.115 54.8215 44.2157 54.8472 44.2345C54.8827 44.2991 54.916 44.3519 54.9459 44.3935C54.9778 44.4352 54.9966 44.4776 55.0049 44.5241C55.0542 44.7971 54.9368 45.0646 54.6547 45.3265C54.372 45.5891 54.0135 45.7586 53.5815 45.835C53.3765 45.8719 53.1237 45.8698 52.8221 45.8295C52.5213 45.7892 52.226 45.6829 51.9371 45.5106C51.6474 45.3391 51.3799 45.0868 51.1326 44.7548C50.8853 44.4234 50.7123 43.9837 50.6151 43.4369V43.4362C49.7794 44.6179 48.8506 45.6398 47.828 46.5012C46.779 47.3835 45.6529 47.9323 44.4482 48.147C43.5083 48.3144 42.685 48.2991 41.9793 48.1018C41.2721 47.9039 40.676 47.594 40.1911 47.171C39.7049 46.7472 39.3172 46.2463 39.0268 45.6635C38.7364 45.082 38.537 44.4762 38.4245 43.8503C38.3501 43.4321 38.3071 42.9951 38.296 42.5394C37.5965 42.8089 36.8496 43.1112 36.0556 43.4467C35.6903 45.8893 35.1199 48.1589 34.3418 50.2493C33.5631 52.3431 33.4561 52.9127 32.3202 54.6113C31.1831 56.3105 29.8805 57.7944 28.4049 59.063C26.928 60.3315 25.301 61.3416 23.5163 62.0939C23.2398 62.21 22.9432 62.3176 22.6292 62.4066C22.3144 62.4962 22.013 62.5691 21.7239 62.6198C20.9723 62.7532 20.2463 62.7685 19.5544 62.663C18.8673 62.5587 18.2456 62.3406 17.6967 62.0168C17.1479 61.6924 16.6769 61.2659 16.2844 60.7309C15.8926 60.196 15.6042 59.577 15.4736 58.8698C14.9853 56.2208 15.9884 53.5532 18.4386 50.8786C20.886 48.2082 23.9587 46.8812 29.3649 44.256C29.5719 42.8472 29.7247 41.3688 29.8269 39.8245C29.929 38.2753 29.9832 36.7178 29.9887 35.1513C29.9957 33.584 29.9436 32.0383 29.8325 30.5154C29.7206 28.9934 29.5518 27.5317 29.326 26.1312C27.4684 27.472 26.0838 28.7051 24.6812 29.959C3.07318 49.2856 -4.36006 34.2224 2.43406 34.6927C3.15446 34.7442 3.88184 34.7629 4.61263 34.7511C7.13647 15.1493 23.8844 0.000699082 44.1738 0.000699082L44.1735 0ZM47.6935 31.1977C47.0995 31.354 46.4528 32.0897 45.7435 33.4096C45.0412 34.7282 44.3978 36.4948 43.8295 38.7102C44.6701 38.1628 45.3829 37.5571 45.9616 36.8943C46.5326 36.2329 46.9883 35.5806 47.3211 34.9366C47.6476 34.294 47.8741 33.682 47.995 33.1019C48.1159 32.5212 48.1429 32.0501 48.079 31.6888C48.0318 31.4234 47.9033 31.2595 47.6934 31.1977H47.6935ZM18.3632 59.8917C18.6133 60.0778 18.994 60.1217 19.481 60.0355C19.9679 59.95 20.514 59.7298 21.1239 59.3825C21.7311 59.0365 22.3411 58.61 22.944 58.116C23.5519 57.6193 24.1174 57.0941 24.6474 56.5439C25.1775 55.9923 25.6415 55.47 25.9834 54.9336C26.9046 53.4858 27.6465 51.9019 28.2697 50.2249C28.8928 48.5493 28.5253 48.238 28.8762 46.6451C24.41 48.9029 22.0035 49.7879 19.9541 51.945C17.9013 54.1069 17.0503 56.1604 17.3969 58.1104C17.4595 58.4627 17.5693 58.7996 17.7276 59.1136C17.8853 59.4269 18.0958 59.6936 18.3632 59.8917H18.3632Z" fill="white"/>
<path fill-rule="evenodd" clip-rule="evenodd" d="M39.9101 51.3399C55.1752 47.7073 63.3731 46.1518 78.9089 45.1406C63.4293 48.1959 53.3763 51.9548 38.416 56.4179C37.0137 56.0052 36.2112 54.5343 36.624 53.1319C37.0368 51.7296 38.5077 50.9271 39.9101 51.3399Z" fill="white"/>
<path d="M51.7724 57.4483C52.5591 57.4989 53.2378 56.9022 53.2884 56.1155C53.339 55.3288 52.7423 54.6501 51.9557 54.5994C51.169 54.5488 50.4902 55.1455 50.4396 55.9322C50.389 56.7189 50.9857 57.3976 51.7724 57.4483Z" fill="white"/>
<path d="M55.7411 56.5654C56.5278 56.6161 57.2066 56.0194 57.2572 55.2327C57.3078 54.446 56.7111 53.7672 55.9244 53.7166C55.1377 53.666 54.459 54.2627 54.4084 55.0494C54.3578 55.8361 54.9545 56.5148 55.7411 56.5654Z" fill="white"/>
<path d="M59.5693 55.2529C60.3559 55.3036 61.0347 54.7069 61.0853 53.9202C61.1359 53.1335 60.5392 52.4547 59.7525 52.4041C58.9659 52.3535 58.2871 52.9502 58.2365 53.7369C58.1859 54.5236 58.7826 55.2023 59.5693 55.2529Z" fill="white"/>
</svg>
