<svg width="1440" height="809" viewBox="0 0 1440 809" fill="none" xmlns="http://www.w3.org/2000/svg">
<g opacity="0.5">
<path d="M-1 139.993C231.818 233.906 357.315 357.766 429.693 459.092C490.028 543.568 488.957 578.124 553.024 641.15C692.055 777.914 958.383 872.226 1087.46 754.696C1151.04 696.8 1127.52 623.431 1157.94 484.539C1185.3 359.596 1256.04 187.755 1453.54 1" stroke="#303032" strokeWidth="0.903173" strokeMiterlimit="10"/>
<path d="M-0.53418 170.292C225.92 251.003 350.162 367.525 422.502 462.354C483.37 542.166 488.319 574.082 556.369 636.024C699.124 765.967 949.24 856.433 1078.5 746.77C1145.08 690.289 1129.93 618.175 1165.57 479.69C1196.94 357.77 1269.13 188.868 1463.23 3.78711" stroke="#303032" strokeWidth="0.903173" strokeMiterlimit="10"/>
<path d="M-0.0703125 200.586C220.015 268.099 343.099 377.313 415.322 465.613C476.849 540.838 487.57 570.042 559.726 630.897C705.888 754.169 940.494 840.849 1069.56 738.847C1139.28 683.739 1132.25 612.989 1173.22 474.844C1208.48 355.976 1282.23 189.991 1472.94 6.59375" stroke="#303032" strokeWidth="0.903173" strokeMiterlimit="10"/>
<path d="M0.397461 230.889C214.115 285.204 336.162 387.135 408.145 468.903C470.411 539.594 486.703 566.036 563.102 625.77C712.384 742.545 932.13 825.505 1060.62 730.925C1133.63 677.193 1134.45 607.867 1180.88 469.999C1219.86 354.211 1295.35 191.119 1482.64 9.39258" stroke="#303032" strokeWidth="0.903173" strokeMiterlimit="10"/>
<path d="M0.865234 261.184C208.236 302.293 329.367 396.953 400.969 472.144C464.083 538.414 485.764 562.065 566.437 620.645C718.578 731.088 924.068 810.41 1051.66 722.999C1128.1 670.632 1136.51 602.775 1188.5 465.15C1231.09 352.452 1308.44 192.24 1492.31 12.209" stroke="#303032" strokeWidth="0.903173" strokeMiterlimit="10"/>
<path d="M1.33008 291.478C202.316 319.389 322.725 406.775 393.79 475.404C457.886 537.305 484.672 558.151 569.794 615.514C724.563 719.82 916.334 795.569 1042.7 715.077C1122.72 664.107 1138.41 597.707 1196.15 460.301C1242.18 350.688 1321.54 193.363 1502.01 14.9824" stroke="#303032" strokeWidth="0.903173" strokeMiterlimit="10"/>
<path d="M1.7959 321.772C196.414 336.465 316.269 416.554 386.611 478.665C451.832 536.254 483.509 554.305 573.148 610.387C730.356 708.737 908.879 780.998 1033.75 707.15C1117.47 657.642 1140.24 592.639 1203.79 455.455C1253.15 348.907 1334.66 194.487 1511.7 17.7812" stroke="#303032" strokeWidth="0.903173" strokeMiterlimit="10"/>
<path d="M2.27734 352.071C190.527 353.578 310.03 426.288 379.449 481.926C445.963 535.238 482.294 550.543 576.518 605.261C735.992 697.843 901.691 766.691 1024.82 699.224C1112.37 651.256 1141.91 587.563 1211.45 450.606C1263.99 347.105 1347.74 195.624 1521.39 20.5762" stroke="#303032" strokeWidth="0.903173" strokeMiterlimit="10"/>
<path d="M2.72656 382.37C184.608 370.679 303.977 435.934 372.254 485.195C440.258 534.242 480.943 546.902 579.86 600.134C741.474 687.138 894.694 752.657 1015.85 691.306C1107.37 644.979 1143.41 582.449 1219.08 445.761C1274.71 345.27 1360.84 196.735 1531.11 23.375" stroke="#303032" strokeWidth="0.903173" strokeMiterlimit="10"/>
<path d="M3.19336 412.651C178.711 387.762 298.164 445.436 365.076 488.442C434.73 533.207 479.558 543.299 583.214 594.994C746.836 676.591 887.873 738.861 1006.91 683.366C1102.47 638.815 1144.8 577.267 1226.72 440.898C1285.32 343.371 1373.95 197.846 1540.78 26.1562" stroke="#303032" strokeWidth="0.903173" strokeMiterlimit="10"/>
<path d="M3.66016 442.965C172.831 404.874 292.577 454.807 357.903 491.718C429.425 532.134 478.123 539.854 586.573 589.879C752.126 666.245 881.212 725.35 997.956 675.459C1097.68 632.839 1146.05 572.042 1234.37 436.063C1295.82 341.45 1387.05 198.985 1550.48 28.9746" stroke="#303032" strokeWidth="0.903173" strokeMiterlimit="10"/>
<path d="M4.12598 473.261C166.908 421.969 287.204 463.963 350.725 494.981C424.32 530.922 476.658 536.514 589.927 584.755C757.352 656.05 874.672 712.065 989.007 667.535C1092.99 627.039 1147.17 566.721 1242.01 431.221C1306.24 339.457 1400.15 200.107 1560.17 31.7676" stroke="#303032" strokeWidth="0.903173" strokeMiterlimit="10"/>
<path d="M4.5918 503.558C161.006 439.064 282.015 472.881 343.546 498.244C419.409 529.513 475.122 533.283 593.285 579.626C762.536 646.006 868.215 699.012 980.061 659.607C1088.36 621.449 1148.17 561.299 1249.66 426.369C1316.58 337.397 1413.25 201.229 1569.87 34.5605" stroke="#303032" strokeWidth="0.903173" strokeMiterlimit="10"/>
<path d="M5.05664 533.854C155.107 456.161 276.981 481.541 336.367 501.506C414.668 527.83 473.576 530.177 596.63 574.497C767.681 636.104 861.808 686.158 971.102 651.686C1083.83 616.11 1149.04 555.762 1257.29 421.521C1326.85 335.269 1426.35 202.342 1579.56 37.3691" stroke="#303032" strokeWidth="0.903173" strokeMiterlimit="10"/>
<path d="M5.52441 564.151C149.206 473.256 272.05 489.921 329.174 504.769C410.04 525.783 471.999 527.189 599.981 569.373C772.825 626.341 855.429 673.553 962.146 643.762C1079.33 611.048 1149.81 550.105 1264.93 416.661C1337.05 333.058 1439.44 203.464 1589.24 40.1406" stroke="#303032" strokeWidth="0.903173" strokeMiterlimit="10"/>
<path d="M5.98828 594.45C143.323 490.353 267.158 498.014 322.01 508.03C405.504 523.277 470.44 524.322 603.35 564.243C777.978 616.715 849.072 661.124 953.211 635.84C1074.88 606.292 1150.51 544.329 1272.59 411.83C1347.25 330.795 1452.56 204.602 1598.95 42.9531" stroke="#303032" strokeWidth="0.903173" strokeMiterlimit="10"/>
<path d="M6.47559 624.747C137.421 507.453 262.834 521.012 314.853 511.298C399.938 495.405 468.887 521.578 606.73 559.119C783.163 607.18 842.675 648.881 944.261 627.917C1070.44 601.891 1151.11 538.382 1280.23 406.983C1357.39 328.459 1465.66 205.728 1608.65 45.7676" stroke="#303032" strokeWidth="0.903173" strokeMiterlimit="10"/>
<path d="M6.92188 655.042C131.504 524.55 258.411 525.922 307.656 514.559C393.966 494.644 467.293 518.945 610.064 553.993C788.365 597.776 836.203 636.815 935.313 619.99C1065.99 597.834 1151.64 532.307 1287.88 402.125C1367.52 326.032 1478.76 206.84 1618.34 48.5371" stroke="#303032" strokeWidth="0.903173" strokeMiterlimit="10"/>
<path d="M7.38672 685.339C125.601 541.64 253.406 530.348 300.476 517.818C388.34 494.432 465.726 516.428 613.421 548.881C793.594 588.45 829.649 624.886 926.362 612.087C1061.5 594.2 1152.11 526.1 1295.52 397.303C1377.62 323.569 1491.87 207.983 1628.04 51.3594" stroke="#303032" strokeWidth="0.903173" strokeMiterlimit="10"/>
<path d="M7.85254 715.635C119.698 558.738 246.308 527.994 293.302 521.08C385.868 507.492 464.186 514.019 616.779 543.748C798.879 579.207 822.983 613.083 917.417 604.154C1056.94 590.948 1152.53 519.695 1303.17 392.434C1387.74 320.988 1504.98 209.096 1637.74 54.1348" stroke="#303032" strokeWidth="0.903173" strokeMiterlimit="10"/>
<path d="M8.31934 745.93C113.797 575.836 240.457 535.122 286.12 524.346C380.004 502.194 462.654 511.719 620.13 538.618C804.199 570.047 816.167 601.409 908.464 596.229C1052.28 588.161 1152.91 513.197 1310.81 387.599C1397.85 318.365 1518.07 210.23 1647.43 56.9434" stroke="#303032" strokeWidth="0.903173" strokeMiterlimit="10"/>
<path d="M8.78418 776.23C107.898 592.933 234.205 542.258 278.941 527.607C373.601 496.594 461.15 509.519 623.487 533.484C809.579 560.955 809.189 589.827 899.517 588.299C1047.49 585.78 1153.27 506.522 1318.46 382.746C1407.97 315.682 1531.17 211.342 1657.13 59.7305" stroke="#303032" strokeWidth="0.903173" strokeMiterlimit="10"/>
</g>
</svg>
