<svg width="375" height="1612" viewBox="0 0 375 1612" fill="none" xmlns="http://www.w3.org/2000/svg">
<g opacity="0.5">
<path d="M474.222 2.37315C386.546 228.357 268.577 351.113 171.681 422.294C90.8986 481.631 57.5222 481.042 -2.50289 543.707C-132.756 679.694 -220.385 938.037 -105.255 1061.15C-48.5414 1121.79 21.9911 1098.14 156.477 1125.71C277.457 1150.52 444.272 1216.61 627.117 1404.89" stroke="#303032" stroke-width="0.903173" stroke-miterlimit="10"/>
<path d="M444.972 3.2191C369.96 222.89 259.06 344.339 168.437 415.4C92.1641 475.192 61.4142 480.381 2.48604 546.877C-121.133 686.372 -205.259 929.013 -97.7214 1052.4C-42.3348 1115.95 27.0937 1100.4 161.254 1133.03C279.367 1161.75 443.364 1229.27 624.548 1414.28" stroke="#303032" stroke-width="0.903173" stroke-miterlimit="10"/>
<path d="M415.731 4.0491C353.38 217.402 249.521 337.638 165.198 408.502C93.3632 468.872 65.3057 479.598 7.48 550.044C-109.655 692.744 -190.325 920.362 -90.1864 1043.65C-36.0846 1110.26 32.1309 1102.56 166.032 1140.34C281.248 1172.85 442.449 1241.93 621.964 1423.69" stroke="#303032" stroke-width="0.903173" stroke-miterlimit="10"/>
<path d="M386.482 4.89494C336.791 211.93 239.95 331.072 161.931 401.621C94.4821 462.645 69.1629 478.714 12.4739 553.243C-98.3476 698.87 -175.618 912.093 -82.6516 1034.93C-29.8369 1104.73 37.1057 1104.63 170.809 1147.68C283.099 1183.83 441.529 1254.61 619.387 1433.09" stroke="#303032" stroke-width="0.903173" stroke-miterlimit="10"/>
<path d="M357.241 5.73265C320.219 206.47 230.385 324.635 158.712 394.73C95.542 456.516 72.9873 477.753 17.4677 556.393C-87.2054 704.699 -161.145 904.112 -75.1128 1026.17C-23.5711 1099.3 42.0506 1106.54 175.59 1154.98C284.944 1194.64 440.618 1267.26 616.795 1442.46" stroke="#303032" stroke-width="0.903173" stroke-miterlimit="10"/>
<path d="M327.999 6.57089C303.636 200.974 220.817 318.348 155.472 387.841C96.5333 450.519 76.7515 476.648 22.4644 559.568C-76.2496 710.332 -146.917 896.455 -67.5792 1017.43C-17.3412 1094.02 46.9679 1108.32 180.371 1162.29C286.79 1205.33 439.701 1279.92 614.241 1451.86" stroke="#303032" stroke-width="0.903173" stroke-miterlimit="10"/>
<path d="M298.758 7.40882C287.076 195.494 211.293 312.239 152.232 380.951C97.4705 444.66 80.4507 475.475 27.4579 562.739C-65.4739 715.781 -132.943 889.068 -60.0408 1008.68C-11.1655 1088.87 51.885 1110.01 185.148 1169.61C288.651 1215.9 438.785 1292.6 611.665 1461.25" stroke="#303032" stroke-width="0.903173" stroke-miterlimit="10"/>
<path d="M269.509 8.27028C270.474 190.038 201.812 306.348 148.989 374.085C98.3735 438.987 84.0642 474.261 32.4474 565.934C-54.8867 721.09 -119.226 881.952 -52.5062 999.961C-5.06906 1083.87 56.804 1111.57 189.925 1176.95C290.527 1226.34 437.853 1305.25 609.088 1470.66" stroke="#303032" stroke-width="0.903173" stroke-miterlimit="10"/>
<path d="M240.263 9.08482C253.889 184.535 192.423 300.619 145.741 367.171C99.2629 433.458 87.5628 472.9 37.441 569.085C-44.4793 726.237 -105.765 875.007 -44.9757 991.194C0.927737 1078.95 61.7618 1112.95 194.702 1184.24C292.438 1236.66 436.95 1317.91 606.512 1480.07" stroke="#303032" stroke-width="0.903173" stroke-miterlimit="10"/>
<path d="M211.034 9.93061C237.32 179.067 183.174 295.135 142.514 360.289C100.19 428.113 91.0235 471.523 42.446 572.264C-34.2285 731.283 -92.5343 868.25 -37.4257 982.458C6.81552 1074.15 66.782 1114.22 199.495 1191.57C294.407 1246.88 436.045 1330.58 603.951 1489.45" stroke="#303032" stroke-width="0.903173" stroke-miterlimit="10"/>
<path d="M181.769 10.7607C220.72 173.599 174.051 289.851 139.255 353.396C101.154 422.967 94.3271 470.083 47.4243 575.431C-24.1756 736.247 -79.5793 861.635 -29.9106 973.706C12.5199 1069.44 71.8386 1115.35 204.257 1198.87C296.393 1256.99 435.11 1343.23 601.35 1498.84" stroke="#303032" stroke-width="0.903173" stroke-miterlimit="10"/>
<path d="M152.528 11.6066C204.142 168.107 165.145 284.788 136.015 346.514C102.261 418.03 97.536 468.632 52.4176 578.609C-14.2625 741.168 -66.8346 855.156 -22.3723 964.97C18.0622 1064.84 76.9936 1116.37 209.034 1206.2C298.454 1267.03 434.198 1355.9 598.782 1508.24" stroke="#303032" stroke-width="0.903173" stroke-miterlimit="10"/>
<path d="M123.286 12.4524C187.565 162.635 156.471 279.9 132.775 339.632C103.562 413.276 100.639 467.114 57.4149 581.792C-4.49581 746.051 -54.3117 848.762 -14.8299 956.238C23.4027 1060.31 82.2443 1117.27 213.819 1213.52C300.578 1276.99 433.286 1368.57 596.213 1517.64" stroke="#303032" stroke-width="0.903173" stroke-miterlimit="10"/>
<path d="M94.0452 13.2824C170.984 157.151 148.048 275.142 129.536 332.734C105.128 408.67 103.62 465.573 62.4126 584.947C5.13303 750.883 -41.9823 842.402 -7.29534 947.478C28.5016 1055.85 87.6033 1118.03 218.6 1220.82C302.767 1286.87 432.383 1381.23 593.628 1527.02" stroke="#303032" stroke-width="0.903173" stroke-miterlimit="10"/>
<path d="M64.7991 14.1285C154.402 151.679 139.892 270.495 126.292 325.836C107.043 404.18 106.482 464.017 67.4012 588.122C14.623 755.728 -29.8968 836.087 0.238189 938.734C33.3285 1051.45 93.0734 1118.71 223.388 1228.14C305.031 1296.7 431.466 1393.88 591.075 1536.41" stroke="#303032" stroke-width="0.903173" stroke-miterlimit="10"/>
<path d="M35.5505 14.9585C137.818 146.212 132.014 265.868 123.049 318.955C109.403 399.761 109.229 462.467 72.3955 591.301C23.9809 760.572 -17.9796 829.781 7.76945 929.998C37.8617 1047.09 98.6575 1119.3 228.15 1235.46C307.345 1306.5 430.535 1406.55 588.483 1545.81" stroke="#303032" stroke-width="0.903173" stroke-miterlimit="10"/>
<path d="M6.30574 15.8275C121.233 140.743 109.755 261.998 119.802 312.096C136.24 394.038 111.857 460.942 77.3856 594.506C33.2536 765.464 -6.24175 823.457 15.3042 921.265C42.0541 1042.75 104.406 1119.82 232.927 1242.79C309.731 1316.28 429.615 1419.23 585.89 1555.22" stroke="#303032" stroke-width="0.903173" stroke-miterlimit="10"/>
<path d="M-22.9404 16.6424C104.647 135.244 104.954 257.786 116.558 305.183C136.894 388.257 114.375 459.364 82.3742 597.654C42.3961 770.36 5.32007 817.048 22.8381 912.518C45.9091 1038.4 110.275 1120.24 237.712 1250.1C312.201 1326.02 428.707 1431.89 583.337 1564.61" stroke="#303032" stroke-width="0.903173" stroke-miterlimit="10"/>
<path d="M-52.1847 17.4878C88.071 129.771 100.616 253.018 113.319 298.301C137.027 382.829 116.786 457.826 87.3524 600.837C51.4674 775.296 16.7527 810.574 30.3533 903.782C49.3599 1034.02 116.274 1120.62 242.466 1257.43C314.709 1335.75 427.772 1444.56 580.737 1574.01" stroke="#303032" stroke-width="0.903173" stroke-miterlimit="10"/>
<path d="M-81.4268 18.3183C71.489 124.284 102.8 246.125 110.079 291.407C124.388 380.601 119.093 456.298 92.3532 604.004C60.4606 780.271 28.0645 803.978 37.899 895.035C52.4432 1029.57 122.465 1120.94 247.267 1264.75C317.333 1345.47 426.868 1457.22 578.184 1583.4" stroke="#303032" stroke-width="0.903173" stroke-miterlimit="10"/>
<path d="M-110.668 19.1639C54.9084 118.812 95.8451 240.573 106.836 284.521C129.43 374.877 121.297 454.796 97.3511 607.178C69.3746 785.294 39.2499 797.252 45.4379 886.294C55.0767 1025.04 128.746 1121.23 252.036 1272.06C319.998 1355.2 425.944 1469.88 575.6 1592.8" stroke="#303032" stroke-width="0.903173" stroke-miterlimit="10"/>
<path d="M-139.917 19.9942C38.323 113.328 88.8726 234.621 103.592 277.624C134.751 368.616 123.399 453.307 102.348 610.346C78.2197 790.364 50.3395 790.358 52.9762 877.547C57.3105 1020.38 135.192 1121.48 256.817 1279.37C322.715 1364.93 425.036 1482.54 573.031 1602.19" stroke="#303032" stroke-width="0.903173" stroke-miterlimit="10"/>
</g>
</svg>
