<svg width="88" height="27" viewBox="0 0 88 27" fill="none" xmlns="http://www.w3.org/2000/svg">
<path d="M46.4779 3.59375H47.6858H49.7835V12.9707L53.9713 8.1343H59.4485L62.2432 17.5662L64.6766 8.87131L63.2633 8.07232H64.9002H66.0975H68.4756L64.0613 20.7302C63.2105 23.1686 62.5378 24.6845 62.0416 25.2736C61.5461 25.8579 60.55 26.1518 59.0626 26.1518C58.7646 26.1518 58.5266 26.1518 58.3454 26.1476C58.1643 26.1435 57.8899 26.1281 57.5308 26.1035V23.4108L57.9541 23.4351C58.2847 23.4513 58.5991 23.4392 58.8978 23.3986C59.2 23.3622 59.4501 23.2696 59.6555 23.129C59.853 22.9958 60.0341 22.7131 60.2034 22.2901C60.3731 21.8668 60.4414 21.6052 60.4095 21.5125L56.3855 10.0549L53.6451 13.0553L58.3211 20.9442H54.262L51.1782 15.4414L49.7835 16.8931V20.9442H46.4779V4.5138L44.8516 3.59439H46.4779V3.59375Z" fill="white"/>
<path fill-rule="evenodd" clip-rule="evenodd" d="M35.0706 16.3906C35.1888 16.7896 35.3492 17.1117 35.5495 17.3548C36.1424 18.0723 37.1539 18.431 38.5851 18.431C39.4438 18.431 40.1408 18.3378 40.6769 18.1483C41.6931 17.786 42.2007 17.1126 42.2007 16.129C42.2007 15.5523 41.9465 15.1092 41.443 14.7943C40.9392 14.4837 40.1488 14.2141 39.0725 13.9761L37.2302 13.565C35.4204 13.158 34.1669 12.7104 33.4736 12.2302C32.2999 11.4284 31.7118 10.1706 31.7118 8.46151C31.7118 6.90092 32.2804 5.60709 33.4129 4.57522C34.5461 3.54751 36.2105 3.03125 38.4071 3.03125C40.2415 3.03125 41.8101 3.51524 43.1039 4.48673C44.3974 5.45822 45.0788 6.87281 45.1395 8.72315H41.6442V8.72124H39.9003L41.4721 7.83248C41.2596 7.24084 40.8593 6.79263 40.2734 6.48978C39.7048 6.19971 39.0035 6.05435 38.1611 6.05435C37.2216 6.05435 36.4756 6.24379 35.9159 6.61885C35.3556 6.99741 35.0777 7.52548 35.0777 8.20307C35.0777 8.82378 35.3514 9.28733 35.9041 9.59785C36.2584 9.80359 37.0162 10.0416 38.1736 10.3154L41.1727 11.0374C42.4864 11.3517 43.4783 11.7708 44.1476 12.2989C45.1874 13.1171 45.7075 14.3023 45.7075 15.8546C45.7075 17.4468 45.0989 18.7646 43.8815 19.8172C42.6684 20.8692 40.9513 21.3931 38.7294 21.3931C36.4603 21.3931 34.6783 20.8772 33.3762 19.8408C32.0788 18.8048 31.4297 17.3819 31.4297 15.5718H33.6838H34.9004H36.5181L35.0706 16.39V16.3906Z" fill="white"/>
<path fill-rule="evenodd" clip-rule="evenodd" d="M72.2318 20.9451H68.8662V4.46136L67.2344 3.53906H68.8662H70.0687H72.2318V20.9451Z" fill="white"/>
<path fill-rule="evenodd" clip-rule="evenodd" d="M79.3719 10.508C78.5936 10.508 77.9892 10.7536 77.5621 11.2415C77.1308 11.729 76.8602 12.3903 76.7516 13.2244H81.9838C81.9276 12.3334 81.6579 11.6606 81.174 11.2009C80.6906 10.737 80.0897 10.508 79.3722 10.508H79.3719ZM80.2469 17.1666L81.4506 17.847C81.3864 17.9227 81.3193 17.9924 81.2503 18.0544C80.819 18.4492 80.2552 18.6473 79.5613 18.6473C78.9083 18.6473 78.3477 18.4856 77.8848 18.1633C77.1228 17.6432 76.7158 16.7363 76.6711 15.4459H85.4794C85.4957 14.3377 85.4593 13.4873 85.3746 12.8944C85.2251 11.8868 84.8986 10.9999 84.3948 10.238C83.8345 9.37132 83.1249 8.73845 82.2665 8.33529C81.4078 7.93628 80.4443 7.73438 79.3722 7.73438C77.5704 7.73438 76.1066 8.32731 74.9741 9.51636C73.8458 10.7057 73.2812 12.4149 73.2812 14.6438C73.2812 17.0183 73.9061 18.7355 75.1594 19.7916C76.4094 20.8436 77.8525 21.3717 79.4932 21.3717C81.4762 21.3717 83.0205 20.7468 84.121 19.4974C84.8302 18.7112 85.2292 17.933 85.3136 17.1669C83.6243 17.1669 81.9365 17.1663 80.2469 17.1663V17.1666Z" fill="white"/>
<path d="M69.4339 22.8862V24.6609H69.9588C70.2268 24.6609 70.4118 24.5289 70.5175 24.2644C70.5741 24.1171 70.6044 23.9472 70.6044 23.7472C70.6044 23.4715 70.5629 23.2565 70.476 23.1092C70.3891 22.962 70.2156 22.8866 69.9588 22.8866H69.4339V22.8862ZM70.053 22.4141C70.223 22.4179 70.3626 22.4367 70.476 22.4744C70.6648 22.5387 70.8197 22.6521 70.9367 22.8182C71.0312 22.9543 71.0951 23.1016 71.1293 23.2562C71.1631 23.4146 71.182 23.5657 71.182 23.7092C71.182 24.0679 71.1104 24.3737 70.9632 24.6267C70.7667 24.9628 70.4648 25.1327 70.0533 25.1327H68.8828V22.4141H70.0533H70.053Z" fill="white"/>
<path d="M73.6149 22.8974H72.1799V23.475H73.4977V23.9469H72.1799V24.6455H73.6827V25.1327H71.625V22.4141H73.6149V22.8974Z" fill="white"/>
<path d="M74.5402 24.2959C74.5591 24.4204 74.5929 24.5112 74.6421 24.5754C74.7367 24.685 74.8913 24.7415 75.1143 24.7415C75.2504 24.7415 75.3596 24.7265 75.4427 24.6962C75.6012 24.6393 75.6804 24.5377 75.6804 24.3828C75.6804 24.292 75.6427 24.2243 75.5635 24.1751C75.4842 24.1259 75.3593 24.0844 75.1897 24.0467L74.9028 23.9825C74.6194 23.9182 74.4271 23.8464 74.3176 23.7748C74.1326 23.6502 74.0419 23.4541 74.0419 23.1857C74.0419 22.9404 74.1326 22.7404 74.3099 22.5778C74.4875 22.4155 74.744 22.3359 75.0878 22.3359C75.3746 22.3359 75.6203 22.4116 75.8203 22.5663C76.0203 22.7174 76.126 22.9362 76.1375 23.2269H75.5938C75.5826 23.0646 75.5108 22.9477 75.3785 22.8758C75.2916 22.8305 75.182 22.8078 75.0501 22.8078C74.9028 22.8078 74.7856 22.8378 74.699 22.8985C74.6121 22.9551 74.5667 23.0381 74.5667 23.1439C74.5667 23.2419 74.6121 23.3138 74.699 23.3627C74.7555 23.3927 74.8728 23.4307 75.0501 23.4761L75.5181 23.5857C75.7258 23.6349 75.8807 23.7029 75.9826 23.786C76.1449 23.9106 76.228 24.0956 76.228 24.3409C76.228 24.5863 76.1337 24.7939 75.9411 24.9562C75.7523 25.1223 75.4842 25.2054 75.1367 25.2054C74.7856 25.2054 74.506 25.1223 74.3022 24.96C74.1019 24.7977 74 24.5786 74 24.2955H74.5399L74.5402 24.2959Z" fill="white"/>
<path d="M77.168 25.1327H76.6016V22.4141H77.168V25.1327Z" fill="white"/>
<path d="M79.5183 23.2612C79.4768 23.0763 79.371 22.944 79.2049 22.8721C79.1103 22.8306 79.0049 22.8118 78.8915 22.8118C78.6727 22.8118 78.4912 22.8948 78.3516 23.0571C78.212 23.2232 78.1401 23.4724 78.1401 23.805C78.1401 24.141 78.2158 24.3752 78.3704 24.5148C78.5215 24.6544 78.6953 24.7225 78.8915 24.7225C79.0803 24.7225 79.2352 24.6656 79.3598 24.5564C79.4806 24.4468 79.5563 24.3033 79.5825 24.1257H78.9557V23.6727H80.0847V25.1301H79.7109L79.6544 24.7902C79.5448 24.9186 79.4467 25.009 79.3598 25.0621C79.2087 25.1563 79.0238 25.2017 78.8049 25.2017C78.4462 25.2017 78.1516 25.0771 77.9213 24.8279C77.6836 24.5749 77.5625 24.2315 77.5625 23.7973C77.5625 23.3593 77.6833 23.0082 77.9251 22.7402C78.1666 22.4757 78.4877 22.3438 78.8841 22.3438C79.2279 22.3438 79.5071 22.4306 79.7186 22.6041C79.9262 22.7817 80.047 23.0006 80.0773 23.2612H79.5186H79.5183Z" fill="white"/>
<path d="M80.625 22.4141H81.2179L82.3016 24.3133V22.4141H82.8303V25.1327H82.2638L81.1537 23.2031V25.1327H80.625V22.4141Z" fill="white"/>
<path d="M83.7668 24.2959C83.7856 24.4204 83.8195 24.5112 83.8687 24.5754C83.9632 24.685 84.1179 24.7415 84.3409 24.7415C84.4769 24.7415 84.5862 24.7265 84.6693 24.6962C84.8277 24.6393 84.9069 24.5377 84.9069 24.3828C84.9069 24.292 84.8692 24.2243 84.79 24.1751C84.7108 24.1259 84.5859 24.0844 84.4162 24.0467L84.1294 23.9825C83.846 23.9182 83.6537 23.8464 83.5441 23.7748C83.3591 23.6502 83.2684 23.4541 83.2684 23.1857C83.2684 22.9404 83.3591 22.7404 83.5364 22.5778C83.7141 22.4155 83.9706 22.3359 84.3143 22.3359C84.6012 22.3359 84.8469 22.4116 85.0469 22.5663C85.2468 22.7174 85.3526 22.9362 85.3641 23.2269H84.8204C84.8092 23.0646 84.7373 22.9477 84.605 22.8758C84.5181 22.8305 84.4086 22.8078 84.2766 22.8078C84.1294 22.8078 84.0121 22.8378 83.9255 22.8985C83.8387 22.9551 83.7933 23.0381 83.7933 23.1439C83.7933 23.2419 83.8387 23.3138 83.9255 23.3627C83.9821 23.3927 84.0993 23.4307 84.2766 23.4761L84.7446 23.5857C84.9523 23.6349 85.1072 23.7029 85.2091 23.786C85.3714 23.9106 85.4545 24.0956 85.4545 24.3409C85.4545 24.5863 85.3603 24.7939 85.1676 24.9562C84.9788 25.1223 84.7108 25.2054 84.3632 25.2054C84.0121 25.2054 83.7326 25.1223 83.5288 24.96C83.3285 24.7977 83.2266 24.5786 83.2266 24.2955H83.7664L83.7668 24.2959Z" fill="white"/>
<path d="M86.2021 3.03125V3.32612H85.7069V4.6896H85.3568V3.32612H84.8594V3.03125H86.2021Z" fill="white"/>
<path d="M87.5016 3.03125H88.0012V4.6896H87.6766V3.56796C87.6766 3.53569 87.6766 3.48968 87.6789 3.43186C87.6789 3.37436 87.6789 3.3306 87.6789 3.29833L87.3658 4.68928H87.0294L86.7186 3.29833C86.7186 3.3306 86.7186 3.37436 86.7186 3.43186C86.7208 3.48936 86.7208 3.53537 86.7208 3.56796V4.6896H86.3984V3.03125H86.9007L87.2022 4.33467L87.5016 3.03125Z" fill="white"/>
<path fill-rule="evenodd" clip-rule="evenodd" d="M15.2785 19.5804L11.4316 12.3762L13.9436 11.4606L15.4504 14.3962L18.8983 8.80881L0 15.2917L4.24826 13.0231C4.18745 12.5456 4.15537 12.0589 4.15537 11.5651C4.15537 5.26382 9.26294 0.15625 15.5638 0.15625C18.1194 0.15625 20.4785 0.996454 22.3797 2.41506L20.7154 3.30963C19.2212 2.3751 17.4556 1.83493 15.5638 1.83493C10.1901 1.83493 5.83456 6.1914 5.83456 11.5651C5.83456 11.7672 5.84059 11.9678 5.85316 12.1666L26.882 0.938006L24.6018 4.60193C26.0887 6.52812 26.973 8.94308 26.973 11.5651C26.973 17.8663 21.8655 22.9739 15.5638 22.9739C10.4613 22.9739 5.9999 19.5975 4.59203 14.6985L6.17403 14.1235C7.29813 18.2556 11.0754 21.2952 15.5637 21.2952C20.9378 21.2952 25.2943 16.9388 25.2943 11.5651C25.2943 9.55714 24.6862 7.69074 23.6435 6.14123L21.0804 10.2594L15.2785 19.5803V19.5804Z" fill="white"/>
</svg>
