<svg width="215" height="199" viewBox="0 0 215 199" fill="none" xmlns="http://www.w3.org/2000/svg">
<path d="M118.967 108.06V120.743H125.348V122.569H117V108.06H118.967ZM139.863 115.305C139.863 119.719 136.974 122.81 132.86 122.81C128.766 122.81 125.916 119.719 125.916 115.305C125.916 110.91 128.786 107.799 132.88 107.799C136.994 107.799 139.863 110.89 139.863 115.305ZM137.796 115.305C137.796 111.933 135.83 109.706 132.88 109.706C129.93 109.706 127.983 111.933 127.983 115.305C127.983 118.676 129.93 120.924 132.88 120.924C135.83 120.924 137.796 118.656 137.796 115.305ZM118.967 126.06V134.288L125.429 126.06H127.777L122.92 132.221L127.857 140.569H125.569L121.616 133.887L118.967 137.238V140.569H117V126.06H118.967ZM131.862 126.06V140.569H129.895V126.06H131.862Z" fill="white"/>
<path d="M97.3877 170.448C78.4634 170.425 60.3231 162.886 46.9575 149.488C33.5919 136.091 26.0959 117.932 26.1186 99.0079C26.1412 80.0835 33.6805 61.9432 47.0781 48.5777C60.4757 35.2121 78.6339 27.7161 97.5583 27.7387L97.473 99.0932L97.3877 170.448Z" fill="white"/>
<path d="M116.496 27.7398C125.865 27.8946 135.112 29.8932 143.708 33.6216C152.305 37.35 160.083 42.7351 166.599 49.4695C173.114 56.2039 178.24 64.1557 181.682 72.8709C185.125 81.5861 186.817 90.894 186.662 100.263L115.317 99.0846L116.496 27.7398Z" fill="white"/>
</svg>
