<svg width="312" height="186" viewBox="0 0 312 186" fill="none" xmlns="http://www.w3.org/2000/svg">
<path d="M10.0233 176.524V161.757L9.64991 155.785H10.343L12.3686 161.757L17.7005 174.392H29.855L35.1868 161.757L37.2124 155.785H37.9055L37.5331 161.757V176.524H47.5554V140.805H33.9609L27.7228 155.626L24.3638 164.849H23.6707L20.1523 155.626L13.5955 140.805H0V176.524H10.0233Z" fill="white"/>
<path d="M59.4456 177.061C65.2575 177.061 68.5618 174.662 69.5756 170.877H70.1093V176.528H79.4924V161.227C79.4924 153.71 74.9611 149.125 65.5781 149.125C56.462 149.125 50.4898 153.71 50.4898 160.854V160.961H60.5132V160.748C60.5132 158.508 61.526 157.869 64.8313 157.869C68.4034 157.869 69.5765 158.295 69.5765 161.014V161.547L58.6469 162.614C52.5692 163.2 49.957 165.919 49.957 169.704C49.957 174.289 53.3689 177.062 59.4466 177.062L59.4456 177.061ZM60.0322 169.064C60.0322 168.478 60.4056 168.158 61.3119 168.051L69.5218 167.091C69.2549 169.49 67.2831 170.077 62.4313 170.077C60.8857 170.077 60.0322 169.917 60.0322 169.064Z" fill="white"/>
<path d="M92.4982 147.202V140.805H82.4748V147.202H92.4982ZM80.4493 185.588C88.1264 185.588 92.4982 183.295 92.4982 174.818V149.655H82.4748V176.311C82.4748 177.75 81.8345 178.23 80.502 178.23H79.4883V185.588H80.4483H80.4493Z" fill="white"/>
<path d="M110.679 177.061C119.742 177.061 125.446 172.849 125.446 166.878V166.238H115.423V166.824C115.423 168.424 114.356 169.117 110.305 169.117C106.04 169.117 104.6 168.211 104.441 164.958H125.499C125.606 163.998 125.659 163.306 125.659 162.4C125.659 153.763 119.742 149.125 110.466 149.125C101.509 149.125 95.1641 154.35 95.1641 163.093C95.1641 173.169 101.561 177.061 110.679 177.061ZM110.252 156.802C113.984 156.802 115.583 157.602 115.957 159.894H104.601C105.027 157.602 106.574 156.802 110.252 156.802Z" fill="white"/>
<path d="M142.775 177.062C151.678 177.062 156.69 173.437 156.69 168.425C156.69 163.894 154.185 161.281 146.347 160.428L141.016 159.841C137.87 159.522 137.444 159.148 137.444 158.401C137.444 157.389 137.87 156.962 141.123 156.962C145.174 156.962 145.708 157.602 145.708 158.988V159.308H155.731V159.095C155.731 152.484 150.773 149.125 141.443 149.125C131.367 149.125 127.582 153.23 127.582 157.975C127.582 162.506 130.568 165.12 136.112 165.705L143.895 166.559C146.401 166.825 146.827 167.039 146.827 167.892C146.827 168.798 146.293 169.172 142.829 169.172C139.204 169.172 138.244 169.011 138.244 167.519V166.986H128.22V167.199C128.22 173.383 133.285 177.062 142.775 177.062Z" fill="white"/>
<path d="M179.187 176.524V167.513H174.389C172.097 167.513 171.457 166.98 171.457 164.848V157.864H179.188V149.653H171.457V145.016H161.434V149.653H157.488V157.864H161.336L161.373 157.841L167.397 155.595L161.434 161.341V166.287C161.434 173.271 165.432 176.524 172.149 176.524H179.187Z" fill="white"/>
<path d="M191.609 147.202V140.805H181.586V147.202H191.609ZM191.609 176.524V149.655H181.586V176.524H191.609Z" fill="white"/>
<path d="M209.895 177.061C219.064 177.061 224.929 172.316 224.929 165.172V164.266H214.959V164.746C214.959 167.519 212.933 168.051 209.681 168.051C206.003 168.051 204.243 167.252 204.243 163.093C204.243 158.881 206.003 158.082 209.681 158.082C212.933 158.082 214.959 158.668 214.959 161.441V161.867H224.929V161.014C224.929 153.817 219.064 149.125 209.895 149.125C200.351 149.125 194.273 154.35 194.273 163.093C194.273 171.783 200.351 177.061 209.895 177.061Z" fill="white"/>
<path d="M245.086 176.525V164.103H266.198V155.146H245.086V149.814H266.997V140.805H235.062V176.524H245.086V176.525ZM280.592 176.525L288.802 164.903H289.495L298.079 176.525H311.193L297.758 159.198V158.505L311.193 140.806H298.079L289.922 152.375H289.229L280.592 140.806H267.477L280.965 158.292V158.985L267.477 176.525H280.592Z" fill="white"/>
<path d="M223.131 6.34877V1.74173H225.3V0.1875H219.223V1.74173H221.402V6.34877H223.131ZM227.443 6.34877V3.80189L227.379 2.77181H227.499L227.848 3.80189L228.768 5.98108H230.865L231.784 3.80189L232.134 2.77181H232.253L232.188 3.80189V6.34877H233.917V0.188461H231.572L230.497 2.74493L229.917 4.33565H229.798L229.191 2.74493L228.06 0.188461H225.715V6.34877H227.444H227.443Z" fill="white"/>
<path fill-rule="evenodd" clip-rule="evenodd" d="M150.095 78.3388L107.803 21.2889L77.2734 73.366L91.4603 92.2818L110.135 60.4262L151.526 118.977L196.233 43.3987L217.787 80.4335L231.972 61.5168C219.858 40.9353 207.773 20.496 195.691 0L150.096 78.3388H150.095Z" fill="white"/>
</svg>
