<svg width="319" height="74" viewBox="0 0 319 74" fill="none" xmlns="http://www.w3.org/2000/svg">
<path d="M0 69.9693V2.25708H24.2208L37.6319 61.2635H39.3687V2.25708H51.9127V69.9693H27.6945L14.2808 10.9629H12.544V69.9693H0Z" fill="white"/>
<path d="M80.2763 71.4741C76.8882 71.4741 73.852 70.8883 71.1678 69.7166C68.4835 68.48 66.3429 66.7225 64.7461 64.4443C63.2122 62.1012 62.4453 59.2697 62.4453 55.9501C62.4453 52.6307 63.2122 49.8643 64.7461 47.6512C66.3429 45.3732 68.5177 43.6808 71.2649 42.5744C74.0752 41.4027 77.2716 40.8169 80.8515 40.8169H93.8892V38.0831C93.8892 35.8051 93.1853 33.95 91.7801 32.5181C90.3723 31.0209 88.1373 30.2724 85.0696 30.2724C82.0649 30.2724 79.8271 30.9885 78.359 32.4204C76.8881 33.7873 75.9295 35.5772 75.483 37.7902L64.3626 33.9826C65.1295 31.5091 66.343 29.2637 68.0055 27.2457C69.7311 25.1629 72.0003 23.5031 74.8106 22.2665C77.6866 20.9646 81.1693 20.3137 85.2613 20.3137C91.5227 20.3137 96.4762 21.9085 100.119 25.0979C103.762 28.2873 105.582 32.9086 105.582 38.9618V57.0241C105.582 58.9768 106.478 59.9532 108.266 59.9532H112.101V70.1072H104.048C101.684 70.1072 99.7357 69.5214 98.2018 68.3497C96.668 67.1781 95.901 65.6159 95.901 63.6634V63.5658H94.0809C93.8235 64.3469 93.2483 65.3882 92.3553 66.6899C91.4597 67.9265 90.0546 69.0332 88.1373 70.0095C86.2199 70.9859 83.5988 71.4741 80.2763 71.4741ZM82.3853 61.5154C85.7708 61.5154 88.5207 60.5717 90.6298 58.6839C92.8018 56.7312 93.8892 54.1603 93.8892 50.9709V49.9945H81.713C79.4778 49.9945 77.7181 50.4827 76.4417 51.4591C75.1626 52.4355 74.5244 53.8024 74.5244 55.5596C74.5244 57.317 75.1941 58.7489 76.5362 59.8556C77.8783 60.9622 79.8272 61.5154 82.3853 61.5154Z" fill="white"/>
<path d="M121.297 69.9694V21.886H133V69.9694H121.297ZM127.147 16.2634C125.043 16.2634 123.246 15.5524 121.76 14.1306C120.338 12.7088 119.625 10.8345 119.625 8.50779C119.625 6.18137 120.338 4.307 121.76 2.88523C123.246 1.46345 125.043 0.752441 127.147 0.752441C129.315 0.752441 131.112 1.46345 132.535 2.88523C133.96 4.307 134.672 6.18137 134.672 8.50779C134.672 10.8345 133.96 12.7088 132.535 14.1306C131.112 15.5524 129.315 16.2634 127.147 16.2634Z" fill="white"/>
<path d="M146.71 69.9693V22.0117H158.606V27.4262H160.333C161.035 25.4926 162.186 24.0743 163.787 23.172C165.448 22.2695 167.367 21.8184 169.543 21.8184H175.3V32.6475H169.351C166.281 32.6475 163.755 33.4854 161.771 35.1615C159.789 36.7729 158.798 39.2869 158.798 42.7031V69.9693H146.71Z" fill="white"/>
<path d="M271.789 71.4741C267.474 71.4741 264.159 70.7309 261.841 69.2443C259.523 67.7577 257.82 66.1099 256.724 64.3004H254.986V70.1168H243.012V2.25708H255.179V27.559H256.917C257.626 26.3959 258.558 25.2971 259.716 24.2631C260.941 23.2291 262.518 22.3887 264.45 21.7425C266.444 21.0315 268.892 20.6761 271.789 20.6761C275.651 20.6761 279.223 21.6456 282.506 23.5845C285.79 25.4586 288.43 28.2376 290.425 31.9215C292.42 35.6054 293.42 40.0646 293.42 45.2997V46.8505C293.42 52.0855 292.42 56.5448 290.425 60.2287C288.43 63.9126 285.79 66.7237 282.506 68.6626C279.223 70.537 275.651 71.4741 271.789 71.4741ZM268.119 60.8104C271.852 60.8104 274.974 59.6146 277.485 57.2234C279.996 54.7676 281.252 51.2131 281.252 46.5597V45.5905C281.252 40.9371 279.996 37.415 277.485 35.0237C275.04 32.5677 271.916 31.3398 268.119 31.3398C264.383 31.3398 261.262 32.5677 258.751 35.0237C256.24 37.415 254.986 40.9371 254.986 45.5905V46.5597C254.986 51.2131 256.24 54.7676 258.751 57.2234C261.262 59.6146 264.383 60.8104 268.119 60.8104Z" fill="white"/>
<path d="M304.204 69.9694V21.886H316.492V69.9694H304.204ZM310.349 16.2634C308.137 16.2634 306.253 15.5524 304.693 14.1306C303.196 12.7088 302.448 10.8345 302.448 8.50779C302.448 6.18137 303.196 4.307 304.693 2.88523C306.253 1.46345 308.137 0.752441 310.349 0.752441C312.623 0.752441 314.51 1.46345 316.006 2.88523C317.5 4.307 318.248 6.18137 318.248 8.50779C318.248 10.8345 317.5 12.7088 316.006 14.1306C314.51 15.5524 312.623 16.2634 310.349 16.2634Z" fill="white"/>
<path d="M205.77 73.7313C220.521 73.7313 232.479 61.4365 232.479 46.2702C232.479 31.1038 220.521 18.8091 205.77 18.8091C191.019 18.8091 179.062 31.1038 179.062 46.2702C179.062 61.4365 191.019 73.7313 205.77 73.7313Z" fill="white"/>
<path d="M310.724 16.5519C315.295 16.5519 319 12.8466 319 8.27594C319 3.70527 315.295 0 310.724 0C306.154 0 302.448 3.70527 302.448 8.27594C302.448 12.8466 306.154 16.5519 310.724 16.5519Z" fill="white"/>
</svg>
