<svg width="174" height="46" viewBox="0 0 174 46" fill="none" xmlns="http://www.w3.org/2000/svg">
<path fill-rule="evenodd" clip-rule="evenodd" d="M22.2961 0.78125C34.6098 0.78125 44.5919 10.7634 44.5919 23.0771C44.5919 30.1777 41.2718 36.502 36.0999 40.5846V16.3514L26.1517 6.06712V45.038C25.3164 45.1835 24.4655 45.2841 23.601 45.334V16.1225L8.06584 25.1013V40.2411C3.13841 36.1515 0 29.981 0 23.0771C0 10.7634 9.98218 0.78125 22.2958 0.78125H22.2961Z" fill="white"/>
<path fill-rule="evenodd" clip-rule="evenodd" d="M20.5417 21.1328V45.3014C17.1738 45.04 14.0163 44.0303 11.2344 42.4383V26.9121L20.5417 21.1328Z" fill="white"/>
<path fill-rule="evenodd" clip-rule="evenodd" d="M28.9062 12.8594V44.3756C30.467 43.8921 31.9536 43.2405 33.3466 42.4443V17.4497L28.9062 12.8594Z" fill="white"/>
<path d="M51.0835 19.7637C51.0835 21.3986 51.0835 22.8025 50.9947 23.5486C50.9237 24.064 50.8349 24.4549 50.4793 24.5259C50.3195 24.5616 50.1062 24.5972 49.8398 24.5972C49.6265 24.5972 49.5555 24.6504 49.5555 24.7392C49.5555 24.8637 49.68 24.9168 49.9108 24.9168C50.6216 24.9168 51.7412 24.8633 52.1499 24.8633C52.6118 24.8633 53.7314 24.9168 54.9041 24.9168C55.0995 24.9168 55.2418 24.8633 55.2418 24.7392C55.2418 24.6504 55.153 24.5972 54.9576 24.5972C54.6911 24.5972 54.3002 24.5616 54.0513 24.5259C53.5181 24.4549 53.4117 24.064 53.3583 23.5665C53.2695 22.8025 53.2695 21.3986 53.2695 19.7637V12.6557C53.2695 12.4603 53.3229 12.3536 53.4118 12.318C53.5716 12.2645 53.8383 12.2467 54.1048 12.2467C54.5135 12.2467 55.2421 12.3533 55.8817 12.9397C56.8768 13.8281 56.9303 15.0187 56.9303 15.605C56.9303 17.4176 55.5442 18.5372 54.5491 18.5372C54.1761 18.5372 54.0516 18.5903 54.0516 18.7326C54.0516 18.8571 54.1761 18.8749 54.2649 18.8924C54.3537 18.9103 54.5491 18.9103 54.638 18.9103C57.1614 18.9103 59.0093 17.1333 59.0093 14.6099C59.0093 13.6683 58.5117 12.8687 58.1208 12.4953C57.8365 12.2288 57.0369 11.4824 54.8156 11.4824C53.9981 11.4824 52.9674 11.5355 52.239 11.5355C51.7415 11.5355 50.6219 11.4824 49.68 11.4824C49.4135 11.4824 49.2891 11.5177 49.2891 11.6422C49.2891 11.7666 49.3957 11.802 49.5912 11.802C49.8398 11.802 50.1422 11.8198 50.2842 11.8551C50.8705 11.9796 51.0128 12.2638 51.0482 12.868C51.0835 13.4366 51.0835 13.9341 51.0835 16.6352V19.7628V19.7637ZM62.7229 19.7637C62.7229 21.3986 62.7229 22.8025 62.6341 23.5486C62.5631 24.064 62.4743 24.4549 62.1187 24.5259C61.9589 24.5616 61.7456 24.5972 61.4792 24.5972C61.2659 24.5972 61.1949 24.6504 61.1949 24.7392C61.1949 24.8637 61.3194 24.9168 61.5505 24.9168C61.9061 24.9168 62.368 24.8812 62.7767 24.8812C63.2033 24.8634 63.5942 24.8633 63.7896 24.8633C64.3228 24.8633 64.8735 24.8812 65.6378 24.9168C66.4018 24.9346 67.3794 24.97 68.7119 24.97C69.3871 24.97 69.5473 24.97 69.6714 24.5081C69.7602 24.1525 69.9025 22.9441 69.9025 22.5357C69.9025 22.3581 69.9025 22.2158 69.7602 22.2158C69.6357 22.2158 69.6004 22.2868 69.5648 22.4822C69.4403 23.2109 69.227 23.584 68.7651 23.7973C68.3032 24.0105 67.5567 24.0105 67.0948 24.0105C65.2823 24.0105 64.998 23.7441 64.9623 22.5179C64.9445 22.0025 64.9623 20.3679 64.9623 19.7637V18.3599C64.9623 18.2532 64.9802 18.1822 65.069 18.1822C65.4955 18.1822 67.2546 18.2001 67.5924 18.2354C68.2497 18.3064 68.4987 18.5732 68.5875 18.9284C68.641 19.1595 68.641 19.3903 68.6585 19.5679C68.6585 19.6567 68.6941 19.728 68.8183 19.728C68.9784 19.728 68.9784 19.5326 68.9784 19.3903C68.9784 19.2658 69.0316 18.5553 69.0494 18.1997C69.1204 17.2935 69.1914 17.0092 69.1914 16.9026C69.1914 16.7959 69.1382 16.7606 69.0669 16.7606C68.9781 16.7606 68.9068 16.8494 68.7826 16.9917C68.6228 17.1693 68.3561 17.2228 67.9295 17.2581C67.5208 17.2935 65.4771 17.2935 65.0865 17.2935C64.9799 17.2935 64.962 17.2225 64.962 17.098V12.6022C64.962 12.4778 64.9977 12.4246 65.0865 12.4246C65.4421 12.4246 67.3078 12.4603 67.6099 12.4959C68.4984 12.6026 68.676 12.8158 68.8004 13.1354C68.8893 13.3487 68.9071 13.6508 68.9071 13.775C68.9071 13.9348 68.9427 14.0236 69.0672 14.0236C69.1917 14.0236 69.227 13.9169 69.2448 13.8281C69.2805 13.6148 69.3161 12.833 69.3336 12.6554C69.3871 11.8379 69.4759 11.6247 69.4759 11.5002C69.4759 11.4114 69.4581 11.3404 69.3693 11.3404C69.2805 11.3404 69.1738 11.3939 69.085 11.4114C68.9431 11.447 68.6585 11.4827 68.321 11.518C67.9833 11.5358 64.4473 11.5358 63.8784 11.5358C63.6298 11.5358 63.2211 11.518 62.7589 11.5002C62.3148 11.5002 61.7994 11.4824 61.3197 11.4824C61.0533 11.4824 60.9288 11.5177 60.9288 11.6422C60.9288 11.7666 61.0354 11.802 61.2309 11.802C61.4795 11.802 61.7816 11.8198 61.9239 11.8551C62.5106 11.9796 62.6525 12.2638 62.6879 12.868C62.7235 13.4366 62.7235 13.9341 62.7235 16.6352V19.7628L62.7229 19.7637ZM73.9536 19.7637C73.9536 21.3986 73.9536 22.8025 73.8648 23.5486C73.7938 24.064 73.7049 24.4549 73.3494 24.5259C73.1896 24.5616 72.9763 24.5972 72.7095 24.5972C72.4963 24.5972 72.4253 24.6504 72.4253 24.7392C72.4253 24.8637 72.5497 24.9168 72.7805 24.9168C73.4914 24.9168 74.6109 24.8633 74.9487 24.8633C75.2151 24.8633 76.5301 24.9168 77.5609 24.9168C77.792 24.9168 77.9165 24.8633 77.9165 24.7392C77.9165 24.6504 77.8455 24.5972 77.7032 24.5972C77.4899 24.5972 77.099 24.5616 76.8325 24.5259C76.2997 24.4549 76.193 24.064 76.1395 23.5486C76.0507 22.8025 76.0507 21.3986 76.0507 19.7459V19.4973C76.0507 19.3906 76.1042 19.3553 76.193 19.3553L77.7388 19.3906C77.8633 19.3906 77.9699 19.4084 78.0588 19.5151C78.2899 19.7815 79.107 20.9899 79.8178 21.9675C80.8129 23.3357 81.4881 24.171 82.2524 24.5797C82.7143 24.8283 83.1587 24.9175 84.1538 24.9175H85.8419C86.0552 24.9175 86.1797 24.8818 86.1797 24.7398C86.1797 24.651 86.1087 24.5979 85.9664 24.5979C85.8241 24.5979 85.6643 24.58 85.4688 24.5444C85.2024 24.4912 84.4737 24.3668 83.4786 23.336C82.4304 22.2343 81.2042 20.6528 79.6227 18.6626C81.4174 17.2056 81.9685 15.9972 81.9685 14.6822C81.9685 13.4917 81.2576 12.5854 80.7601 12.2476C79.8006 11.5903 78.6101 11.4836 77.4905 11.4836C76.9398 11.4836 75.5891 11.5368 74.985 11.5368C74.6119 11.5368 73.4923 11.4836 72.5504 11.4836C72.2839 11.4836 72.1595 11.519 72.1595 11.6434C72.1595 11.7679 72.2661 11.8032 72.4616 11.8032C72.7102 11.8032 73.0126 11.8211 73.1546 11.8564C73.7409 11.9809 73.8832 12.2651 73.9186 12.8693C73.9539 13.4378 73.9539 13.9354 73.9539 16.6364V19.764L73.9536 19.7637ZM76.0504 12.6379C76.0504 12.4959 76.0861 12.4246 76.2105 12.3893C76.3882 12.3358 76.7081 12.3183 77.1521 12.3183C78.2007 12.3183 79.871 13.047 79.871 15.57C79.871 17.0273 79.3556 17.8445 78.8227 18.2354C78.5028 18.4665 78.2717 18.5375 77.5609 18.5375C77.1168 18.5375 76.5836 18.484 76.2105 18.3599C76.0861 18.3064 76.0504 18.2354 76.0504 18.0399V12.6379ZM93.6426 25.1658C94.78 25.1658 96.1303 25.0413 96.8412 24.757C97.1432 24.6325 97.2142 24.5437 97.3034 24.2416C97.481 23.6375 97.6943 22.0913 97.6943 21.8784C97.6943 21.7364 97.6586 21.6119 97.5345 21.6119C97.3925 21.6119 97.3568 21.6829 97.3034 21.9675C97.2324 22.2874 97.0013 22.8028 96.6992 23.1402C95.9883 23.9577 95.0289 24.1353 93.4474 24.1353C91.0663 24.1353 87.8499 22.0385 87.8499 17.8092C87.8499 16.0854 88.1877 14.3973 89.4849 13.2067C90.2667 12.4959 91.2796 12.105 92.8254 12.105C94.46 12.105 95.8464 12.5847 96.4327 13.2067C96.8771 13.669 97.1079 14.2907 97.1257 14.8417C97.1257 15.0903 97.1611 15.2326 97.3034 15.2326C97.4632 15.2326 97.4988 15.0906 97.5167 14.8239C97.5523 14.4683 97.5345 13.491 97.5698 12.9047C97.6055 12.2826 97.6586 12.0694 97.6586 11.9274C97.6586 11.8207 97.5876 11.7319 97.3922 11.7141C96.859 11.6606 96.2905 11.5008 95.6153 11.412C94.7978 11.3054 94.1405 11.2344 93.0387 11.2344C90.3912 11.2344 88.703 11.9452 87.4234 13.1179C85.7174 14.6819 85.3444 16.7787 85.3444 17.9868C85.3444 19.7105 85.8063 21.7007 87.5478 23.229C89.165 24.6329 91.2083 25.1661 93.6429 25.1661L93.6426 25.1658ZM101.497 19.7637C101.497 21.3986 101.497 22.8025 101.408 23.5486C101.337 24.064 101.248 24.4549 100.893 24.5259C100.733 24.5616 100.52 24.5972 100.253 24.5972C100.04 24.5972 99.9691 24.6504 99.9691 24.7392C99.9691 24.8637 100.094 24.9168 100.325 24.9168C100.68 24.9168 101.142 24.8812 101.551 24.8812C101.977 24.8634 102.368 24.8633 102.564 24.8633C103.097 24.8633 103.648 24.8812 104.412 24.9168C105.176 24.9346 106.153 24.97 107.486 24.97C108.161 24.97 108.321 24.97 108.446 24.5081C108.534 24.1525 108.677 22.9441 108.677 22.5357C108.677 22.3581 108.677 22.2158 108.535 22.2158C108.41 22.2158 108.375 22.2868 108.339 22.4822C108.215 23.2109 108.001 23.584 107.54 23.7973C107.078 24.0105 106.331 24.0105 105.869 24.0105C104.057 24.0105 103.772 23.7441 103.737 22.5179C103.719 22.0025 103.737 20.3679 103.737 19.7637V18.3599C103.737 18.2532 103.755 18.1822 103.843 18.1822C104.27 18.1822 106.029 18.2001 106.367 18.2354C107.024 18.3064 107.273 18.5732 107.362 18.9284C107.415 19.1595 107.415 19.3903 107.433 19.5679C107.433 19.6567 107.469 19.728 107.593 19.728C107.753 19.728 107.753 19.5326 107.753 19.3903C107.753 19.2658 107.806 18.5553 107.824 18.1997C107.895 17.2935 107.966 17.0092 107.966 16.9026C107.966 16.7959 107.913 16.7606 107.841 16.7606C107.753 16.7606 107.682 16.8494 107.557 16.9917C107.397 17.1693 107.131 17.2228 106.704 17.2581C106.295 17.2935 104.252 17.2935 103.861 17.2935C103.754 17.2935 103.737 17.2225 103.737 17.098V12.6022C103.737 12.4778 103.772 12.4246 103.861 12.4246C104.217 12.4246 106.082 12.4603 106.384 12.4959C107.273 12.6026 107.45 12.8158 107.575 13.1354C107.664 13.3487 107.682 13.6508 107.682 13.775C107.682 13.9348 107.717 14.0236 107.841 14.0236C107.966 14.0236 108.001 13.9169 108.019 13.8281C108.055 13.6148 108.09 12.833 108.108 12.6554C108.161 11.8379 108.25 11.6247 108.25 11.5002C108.25 11.4114 108.232 11.3404 108.143 11.3404C108.055 11.3404 107.948 11.3939 107.859 11.4114C107.717 11.447 107.433 11.4827 107.095 11.518C106.757 11.5358 103.221 11.5358 102.653 11.5358C102.404 11.5358 101.995 11.518 101.533 11.5002C101.089 11.5002 100.574 11.4824 100.094 11.4824C99.8274 11.4824 99.7029 11.5177 99.7029 11.6422C99.7029 11.7666 99.8096 11.802 100.005 11.802C100.254 11.802 100.556 11.8198 100.698 11.8551C101.284 11.9796 101.427 12.2638 101.462 12.868C101.498 13.4366 101.498 13.9341 101.498 16.6352V19.7628L101.497 19.7637ZM112.728 19.7637C112.728 21.3986 112.728 22.8025 112.639 23.5486C112.568 24.064 112.479 24.4549 112.124 24.5259C111.964 24.5616 111.75 24.5972 111.484 24.5972C111.271 24.5972 111.2 24.6504 111.2 24.7392C111.2 24.8637 111.324 24.9168 111.555 24.9168C112.266 24.9168 113.385 24.8633 113.794 24.8633C114.256 24.8633 115.376 24.9168 116.548 24.9168C116.744 24.9168 116.886 24.8633 116.886 24.7392C116.886 24.6504 116.797 24.5972 116.602 24.5972C116.335 24.5972 115.944 24.5616 115.696 24.5259C115.162 24.4549 115.056 24.064 115.003 23.5665C114.914 22.8025 114.914 21.3986 114.914 19.7637V12.6557C114.914 12.4603 114.967 12.3536 115.056 12.318C115.216 12.2645 115.483 12.2467 115.749 12.2467C116.158 12.2467 116.886 12.3533 117.526 12.9397C118.521 13.8281 118.574 15.0187 118.574 15.605C118.574 17.4176 117.188 18.5372 116.193 18.5372C115.82 18.5372 115.696 18.5903 115.696 18.7326C115.696 18.8571 115.82 18.8749 115.909 18.8924C115.998 18.9103 116.193 18.9103 116.282 18.9103C118.806 18.9103 120.653 17.1333 120.653 14.6099C120.653 13.6683 120.156 12.8687 119.765 12.4953C119.481 12.2288 118.681 11.4824 116.46 11.4824C115.642 11.4824 114.612 11.5355 113.883 11.5355C113.386 11.5355 112.266 11.4824 111.324 11.4824C111.058 11.4824 110.933 11.5177 110.933 11.6422C110.933 11.7666 111.04 11.802 111.235 11.802C111.484 11.802 111.786 11.8198 111.928 11.8551C112.515 11.9796 112.657 12.2638 112.692 12.868C112.728 13.4366 112.728 13.9341 112.728 16.6352V19.7628V19.7637ZM126.73 19.7637C126.73 21.3986 126.73 22.8025 126.642 23.5486C126.588 24.064 126.482 24.4549 126.126 24.5259C125.966 24.5616 125.753 24.5972 125.487 24.5972C125.273 24.5972 125.202 24.6504 125.202 24.7392C125.202 24.8637 125.327 24.9168 125.558 24.9168C126.269 24.9168 127.388 24.8633 127.797 24.8633C128.294 24.8633 129.414 24.9168 130.587 24.9168C130.782 24.9168 130.924 24.8633 130.924 24.7392C130.924 24.6504 130.836 24.5972 130.64 24.5972C130.374 24.5972 129.983 24.5616 129.734 24.5259C129.201 24.4549 129.094 24.064 129.041 23.5665C128.952 22.8025 128.952 21.3986 128.952 19.7637V12.4781L131.191 12.5312C132.773 12.5669 133.252 13.0645 133.288 13.5263L133.306 13.7218C133.324 13.9883 133.359 14.0774 133.501 14.0774C133.608 14.0774 133.644 13.9707 133.661 13.7931C133.661 13.3312 133.715 12.105 133.715 11.7319C133.715 11.4655 133.697 11.3588 133.572 11.3588C133.501 11.3588 133.359 11.3945 133.093 11.4477C132.826 11.4833 132.435 11.5365 131.866 11.5365H124.829C124.243 11.5365 123.568 11.5008 123.052 11.4477C122.608 11.412 122.43 11.2344 122.288 11.2344C122.182 11.2344 122.129 11.341 122.075 11.5721C122.04 11.7141 121.702 13.3312 121.702 13.6155C121.702 13.8109 121.737 13.8997 121.862 13.8997C121.969 13.8997 122.022 13.8288 122.057 13.6865C122.093 13.5445 122.182 13.3312 122.359 13.0644C122.626 12.6735 123.052 12.5847 124.083 12.5491L126.731 12.4781V19.7637H126.73ZM136.983 19.7637C136.983 21.4875 136.983 22.8913 136.895 23.6375C136.842 24.1528 136.735 24.4549 136.379 24.5259C136.22 24.5616 136.006 24.5972 135.74 24.5972C135.526 24.5972 135.456 24.6504 135.456 24.7392C135.456 24.8637 135.58 24.9168 135.811 24.9168C136.522 24.9168 137.641 24.8633 138.05 24.8633C138.53 24.8633 139.649 24.9168 140.822 24.9168C141.017 24.9168 141.16 24.8633 141.16 24.7392C141.16 24.6504 141.071 24.5972 140.875 24.5972C140.609 24.5972 140.218 24.5616 139.969 24.5259C139.436 24.4549 139.312 24.135 139.258 23.6553C139.187 22.8913 139.187 21.4875 139.187 19.7637V16.6361C139.187 13.9351 139.187 13.4375 139.223 12.869C139.258 12.247 139.4 11.9449 139.88 11.8561C140.094 11.8207 140.236 11.8029 140.413 11.8029C140.591 11.8029 140.697 11.7673 140.697 11.6253C140.697 11.5186 140.555 11.4833 140.324 11.4833C139.649 11.4833 138.601 11.5365 138.157 11.5365C137.641 11.5365 136.522 11.4833 135.846 11.4833C135.562 11.4833 135.42 11.5186 135.42 11.6253C135.42 11.7673 135.527 11.8029 135.704 11.8029C135.917 11.8029 136.149 11.8207 136.344 11.8739C136.735 11.9627 136.912 12.2648 136.948 12.869C136.984 13.4375 136.984 13.9351 136.984 16.6361V19.7637H136.983ZM150.062 25.1658C154.576 25.1658 157.419 21.9494 157.419 17.8801C157.419 13.8109 154.665 11.2344 150.24 11.2344C144.909 11.2344 142.901 15.1616 142.901 18.2001C142.901 21.3452 144.962 25.1658 150.062 25.1658H150.062ZM150.809 24.2773C147.397 24.2773 145.353 21.3452 145.353 17.649C145.353 13.2242 147.681 12.0872 149.724 12.0872C152.639 12.0872 154.931 14.5571 154.931 18.5378C154.931 23.6734 152.052 24.2773 150.809 24.2773ZM161.938 15.0903H161.992C162.312 15.428 164.284 17.5959 166.218 19.5151C168.066 21.3455 170.341 23.6734 171.457 24.7395C171.652 24.935 171.866 25.1304 172.061 25.1304C172.221 25.1304 172.292 24.9706 172.292 24.5797L172.488 13.3669C172.506 12.3718 172.648 11.9987 173.145 11.8564C173.358 11.8032 173.501 11.8032 173.678 11.8032C173.892 11.8032 173.998 11.7498 173.998 11.6434C173.998 11.5011 173.821 11.4836 173.59 11.4836C172.719 11.4836 172.043 11.5368 171.848 11.5368C171.475 11.5368 170.622 11.4836 169.701 11.4836C169.434 11.4836 169.239 11.5015 169.239 11.6434C169.239 11.7501 169.31 11.8032 169.523 11.8032C169.772 11.8032 170.198 11.8032 170.462 11.9099C170.888 12.0875 171.048 12.4252 171.066 13.5092L171.244 21.4881H171.155C170.853 21.2038 168.457 18.6448 167.248 17.4364C164.657 14.8598 161.956 12.0165 161.743 11.7854C161.438 11.4655 161.277 11.2347 161.082 11.2347C160.904 11.2347 160.851 11.4833 160.851 11.8389L160.691 22.3056C160.673 23.8517 160.602 24.3667 160.14 24.509C159.891 24.58 159.572 24.5979 159.34 24.5979C159.163 24.5979 159.056 24.6332 159.056 24.7398C159.056 24.8996 159.216 24.9175 159.447 24.9175C160.371 24.9175 161.206 24.864 161.366 24.864C161.707 24.864 162.418 24.9175 163.573 24.9175C163.821 24.9175 163.981 24.8818 163.981 24.7398C163.981 24.6332 163.875 24.5979 163.679 24.5979C163.395 24.5979 163.057 24.58 162.755 24.4734C162.4 24.3489 162.169 23.887 162.133 22.501L161.938 15.0909L161.938 15.0903Z" fill="white"/>
<path d="M52.1986 32.1646C52.1986 32.9856 52.1986 33.691 52.1566 34.0698C52.1251 34.3311 52.0722 34.4995 51.8828 34.5416C51.8093 34.5626 51.6934 34.5731 51.5565 34.5731C51.4407 34.5731 51.4092 34.6256 51.4092 34.6679C51.4092 34.7309 51.4722 34.7628 51.5881 34.7628C51.9564 34.7628 52.5883 34.7313 52.7987 34.7313C53.0616 34.7313 53.6811 34.7628 54.2916 34.7628C54.397 34.7628 54.4705 34.7313 54.4705 34.6679C54.4705 34.6259 54.4285 34.5731 54.3232 34.5731C54.1863 34.5731 53.9759 34.5626 53.8495 34.5416C53.5776 34.4995 53.5248 34.3311 53.4933 34.0803C53.4512 33.6906 53.4407 32.9855 53.4407 32.1643V28.5449L54.6074 28.5659C55.4373 28.5764 55.6796 28.8501 55.7006 29.0816L55.7111 29.1764C55.7216 29.3133 55.7426 29.3553 55.818 29.3553C55.8705 29.3553 55.8916 29.3028 55.9024 29.2079C55.9024 28.9727 55.9234 28.3096 55.9234 28.1202C55.9234 27.9833 55.9129 27.9308 55.8499 27.9308C55.8183 27.9308 55.7429 27.9518 55.5955 27.9728C55.4586 27.9957 55.2587 28.0167 54.964 28.0167H51.2096C50.9043 28.0167 50.557 28.0062 50.2832 27.9747C50.0518 27.9413 49.9569 27.8678 49.8834 27.8678C49.8309 27.8678 49.799 27.9203 49.778 28.0362C49.757 28.1116 49.5781 28.9765 49.5781 29.1239C49.5781 29.2188 49.5991 29.2713 49.6625 29.2713C49.7255 29.2713 49.7468 29.2293 49.7679 29.1554C49.7889 29.0924 49.8309 28.9765 49.9257 28.8501C50.0626 28.6502 50.2835 28.5869 50.8206 28.5764L52.1996 28.5449V32.1643L52.1986 32.1646ZM61.2631 32.1627C61.2631 32.9836 61.2631 33.6891 61.221 34.0679C61.1895 34.3308 61.1367 34.4995 60.9473 34.5416C60.8629 34.5626 60.7579 34.5731 60.621 34.5731C60.5051 34.5731 60.4736 34.6256 60.4736 34.6679C60.4736 34.7309 60.5366 34.7628 60.6525 34.7628C60.8419 34.7628 61.0733 34.7523 61.2946 34.7418C61.5155 34.7418 61.7157 34.7313 61.8211 34.7313C62.0949 34.7313 62.4422 34.7418 62.8948 34.7523C63.3475 34.7733 63.9052 34.7838 64.6001 34.7838C64.9474 34.7838 65.0318 34.7838 65.0948 34.5521C65.1473 34.3732 65.2212 33.7626 65.2212 33.5627C65.2212 33.4678 65.2107 33.3523 65.1368 33.3523C65.0738 33.3523 65.0525 33.3943 65.0314 33.4892C64.9684 33.8575 64.8631 34.0472 64.6313 34.1522C64.3891 34.2573 63.9997 34.2678 63.7578 34.2678C62.8105 34.2678 62.5262 34.1309 62.5052 33.5203C62.4947 33.2571 62.5052 32.4995 62.5052 32.1939V31.4779C62.5052 31.4254 62.5157 31.3831 62.5577 31.3831C62.7894 31.3831 63.8418 31.4041 64.0102 31.4251C64.3575 31.4566 64.4734 31.5935 64.5259 31.7724C64.5469 31.8883 64.5469 32.0041 64.5575 32.0987C64.5575 32.1407 64.5785 32.1722 64.6418 32.1722C64.7262 32.1722 64.7367 32.0458 64.7367 31.9723C64.7367 31.9093 64.7577 31.5512 64.7787 31.3723C64.8312 30.9196 64.8522 30.7722 64.8522 30.7197C64.8522 30.6672 64.8207 30.6248 64.7787 30.6248C64.7367 30.6248 64.7052 30.6773 64.6313 30.7407C64.5364 30.8251 64.4104 30.8566 64.1891 30.8776C63.9787 30.8986 62.7786 30.8986 62.5679 30.8986C62.5154 30.8986 62.5049 30.8566 62.5049 30.8037V28.5932C62.5049 28.5407 62.5259 28.5089 62.5679 28.5089C62.7573 28.5089 63.8625 28.5299 64.0204 28.5509C64.4836 28.5929 64.5575 28.7193 64.631 28.8772C64.6835 28.9826 64.694 29.1405 64.694 29.2035C64.694 29.277 64.7045 29.3193 64.7676 29.3193C64.8411 29.3193 64.8624 29.214 64.8729 29.172C64.8939 29.0666 64.9149 28.6773 64.9254 28.5824C64.9465 28.1721 64.999 28.0667 64.999 28.0034C64.999 27.9614 64.9885 27.919 64.9359 27.919C64.8939 27.919 64.8411 27.9505 64.7886 27.961C64.715 27.9715 64.5676 28.003 64.3989 28.0136C64.22 28.0241 62.1674 28.0136 61.8727 28.0136C61.6094 28.0136 61.0199 27.9926 60.5357 27.9926C60.3988 27.9926 60.3253 28.0136 60.3253 28.0769C60.3253 28.1399 60.3883 28.1718 60.4831 28.1718C60.62 28.1718 60.7779 28.1823 60.8515 28.2033C61.1462 28.2876 61.2306 28.3822 61.2516 28.6875C61.2621 28.9717 61.2621 29.2245 61.2621 30.5822V32.1611L61.2631 32.1627ZM74.2856 34.8783C74.8857 34.8783 75.5908 34.8258 75.9591 34.6784C76.117 34.6154 76.159 34.5731 76.2013 34.4152C76.2962 34.1099 76.4012 33.3309 76.4012 33.2256C76.4012 33.152 76.3592 33.0677 76.2959 33.0677C76.2223 33.0677 76.201 33.1097 76.18 33.2466C76.1485 33.415 76.0221 33.6677 75.8642 33.8466C75.4959 34.257 75.0429 34.3203 74.2219 34.3203C72.9798 34.3203 71.3376 33.3099 71.3376 31.1835C71.3376 30.3097 71.506 29.4467 72.19 28.8571C72.6112 28.4993 73.1269 28.3519 73.9374 28.3519C74.7898 28.3519 75.4112 28.5729 75.727 28.8781C75.9584 29.1099 76.0743 29.4257 76.0848 29.7099C76.0848 29.8255 76.1058 29.8993 76.1797 29.8993C76.264 29.8993 76.2955 29.8048 76.306 29.6784C76.3166 29.4995 76.3166 29.0045 76.3376 28.7097C76.3586 28.394 76.3796 28.2889 76.3796 28.2151C76.3796 28.1625 76.3481 28.1202 76.2427 28.1097C75.9693 28.0782 75.6637 28.0148 75.3164 27.9623C74.8952 27.9098 74.5479 27.8674 73.9689 27.8674C72.5899 27.8674 71.7055 28.2253 71.032 28.8148C70.1476 29.6043 69.9477 30.657 69.9477 31.2675C69.9477 32.1308 70.1897 33.1412 71.1055 33.9097C71.9475 34.6148 73.0212 34.878 74.2847 34.878L74.2856 34.8783ZM83.3185 30.9097C83.287 30.9097 83.2555 30.8992 83.2555 30.8467V30.6573C83.2555 29.2993 83.2555 28.973 83.2765 28.6887C83.2975 28.373 83.3714 28.2466 83.6238 28.2046C83.7289 28.1835 83.8132 28.173 83.8867 28.173C84.0026 28.173 84.0551 28.1415 84.0551 28.0782C84.0551 28.0152 83.9921 27.9938 83.8657 27.9938C83.4974 27.9938 82.8554 28.0148 82.6341 28.0148C82.3814 28.0148 81.7711 27.9938 81.2761 27.9938C81.1498 27.9938 81.0762 28.0148 81.0762 28.0782C81.0762 28.1412 81.1393 28.173 81.2341 28.173C81.371 28.173 81.5289 28.1835 81.6024 28.2046C81.8972 28.2889 81.9815 28.3835 82.0026 28.6887C82.0131 28.973 82.0131 29.2258 82.0131 30.5834V32.1623C82.0131 32.9833 82.0131 33.6887 81.971 34.0676C81.9395 34.3305 81.8867 34.4992 81.6973 34.5412C81.6129 34.5622 81.5079 34.5727 81.371 34.5727C81.2551 34.5727 81.2236 34.6253 81.2236 34.6676C81.2236 34.7306 81.2866 34.7625 81.4025 34.7625C81.7708 34.7625 82.3814 34.7309 82.5921 34.7309C82.8554 34.7309 83.4974 34.7625 84.0975 34.7625C84.2134 34.7625 84.2869 34.731 84.2869 34.6676C84.2869 34.6256 84.2449 34.5727 84.1395 34.5727C84.0026 34.5727 83.7922 34.5622 83.6658 34.5412C83.3924 34.4992 83.3395 34.3308 83.308 34.0781C83.266 33.6884 83.2555 33.0043 83.2555 32.1834V31.499C83.2555 31.4569 83.287 31.4464 83.3185 31.4464H86.8132C86.8342 31.4464 86.8657 31.4674 86.8657 31.499V32.1834C86.8657 33.0043 86.8657 33.6887 86.8237 34.0676C86.7921 34.3305 86.7393 34.4992 86.5502 34.5412C86.4659 34.5622 86.3608 34.5727 86.2134 34.5727C86.1081 34.5727 86.066 34.6253 86.066 34.6676C86.066 34.7306 86.1396 34.7625 86.2659 34.7625C86.6237 34.7625 87.2763 34.7309 87.4871 34.7309C87.7398 34.7309 88.3501 34.7625 88.9501 34.7625C89.066 34.7625 89.1395 34.731 89.1395 34.6676C89.1395 34.6256 89.087 34.5727 88.9921 34.5727C88.8447 34.5727 88.6448 34.5622 88.5185 34.5412C88.2342 34.4992 88.1817 34.3308 88.1501 34.0781C88.1081 33.6884 88.1081 32.9833 88.1081 32.162V30.5831C88.1081 29.2251 88.1081 28.9727 88.1291 28.6884C88.1502 28.3726 88.224 28.2463 88.4659 28.2042C88.5818 28.1832 88.6658 28.1727 88.7397 28.1727C88.8451 28.1727 88.9081 28.1412 88.9081 28.0779C88.9081 28.0148 88.8451 27.9935 88.7082 27.9935C88.3504 27.9935 87.7398 28.0145 87.5186 28.0145C87.2763 28.0145 86.6238 27.9935 86.1291 27.9935C85.9922 27.9935 85.9291 28.0145 85.9291 28.0779C85.9291 28.1409 85.9817 28.1727 86.087 28.1727C86.2134 28.1727 86.3713 28.1832 86.4449 28.2042C86.7396 28.2886 86.8237 28.3831 86.8447 28.6884C86.8552 28.9727 86.8657 29.299 86.8657 30.657V30.8464C86.8657 30.8989 86.8342 30.9094 86.8132 30.9094H83.3185V30.9097ZM95.2463 29.8885H95.2779C95.4568 30.0464 96.434 31.1306 97.4444 32.099C98.4131 33.0359 99.569 34.1411 100.148 34.6781C100.243 34.773 100.371 34.8675 100.529 34.8675C100.602 34.8675 100.676 34.7832 100.676 34.5833L100.781 28.9412C100.792 28.436 100.866 28.2781 101.118 28.2042C101.234 28.1727 101.308 28.1727 101.403 28.1727C101.508 28.1727 101.56 28.1307 101.56 28.0779C101.56 28.0043 101.476 27.9935 101.35 27.9935C100.897 27.9935 100.55 28.0145 100.445 28.0145C100.243 28.0145 99.7482 27.9935 99.264 27.9935C99.1271 27.9935 99.0322 28.004 99.0322 28.0779C99.0322 28.1304 99.0638 28.1727 99.1796 28.1727C99.306 28.1727 99.5269 28.1727 99.6638 28.2253C99.8847 28.3093 99.9691 28.4672 99.9796 29.0147L100.074 32.9938H100.032C99.8956 32.8675 98.6639 31.6043 98.034 30.9833C96.6865 29.6676 95.2989 28.2463 95.183 28.1307C95.0251 27.9728 94.8987 27.8359 94.7829 27.8359C94.688 27.8359 94.625 27.9623 94.625 28.1412L94.5406 33.4465C94.5301 34.2255 94.4986 34.4674 94.2564 34.5307C94.1303 34.5622 93.9616 34.5727 93.8355 34.5727C93.7512 34.5727 93.6881 34.6148 93.6881 34.6676C93.6881 34.752 93.7725 34.7625 93.8985 34.7625C94.3722 34.7625 94.8144 34.7309 94.8984 34.7309C95.0668 34.7309 95.4985 34.7625 96.0966 34.7625C96.223 34.7625 96.307 34.7415 96.307 34.6676C96.307 34.6151 96.2545 34.5727 96.1491 34.5727C96.0018 34.5727 95.8228 34.5622 95.665 34.5097C95.4876 34.4467 95.3721 34.236 95.3508 33.5414L95.2454 29.8885H95.2463ZM109.932 34.878C112.321 34.878 113.816 33.2676 113.816 31.215C113.816 29.1624 112.364 27.8674 110.027 27.8674C107.216 27.8674 106.142 29.8465 106.142 31.3726C106.142 32.962 107.237 34.878 109.932 34.878ZM110.311 34.3938C108.564 34.3938 107.511 32.9413 107.511 31.0991C107.511 28.8886 108.722 28.3411 109.753 28.3411C111.248 28.3411 112.437 29.5622 112.437 31.541C112.437 34.0886 110.963 34.3935 110.311 34.3935L110.311 34.3938ZM120.418 30.5834C120.418 29.2254 120.418 28.973 120.439 28.6887C120.46 28.373 120.534 28.2466 120.786 28.2046C120.891 28.1835 121.039 28.173 121.144 28.173C121.26 28.173 121.312 28.1415 121.312 28.0782C121.312 28.0152 121.249 27.9938 121.112 27.9938C120.754 27.9938 119.996 28.0148 119.775 28.0148C119.522 28.0148 118.933 27.9938 118.502 27.9938C118.365 27.9938 118.302 28.0148 118.302 28.0782C118.302 28.1412 118.354 28.173 118.46 28.173C118.575 28.173 118.691 28.1835 118.765 28.2046C119.06 28.2889 119.144 28.3835 119.165 28.6887C119.176 28.973 119.176 29.2258 119.176 30.5834V32.1623C119.176 32.9833 119.176 33.6887 119.133 34.0676C119.102 34.3305 119.049 34.4992 118.86 34.5412C118.775 34.5622 118.67 34.5727 118.533 34.5727C118.418 34.5727 118.386 34.6253 118.386 34.6676C118.386 34.7306 118.449 34.7625 118.565 34.7625C118.754 34.7625 118.986 34.752 119.207 34.7415C119.428 34.7415 119.628 34.7309 119.734 34.7309C120.112 34.7309 120.502 34.7415 120.965 34.752C121.428 34.773 121.965 34.7835 122.628 34.7835C123.113 34.7835 123.155 34.7415 123.218 34.5412C123.292 34.278 123.355 33.6149 123.355 33.5095C123.355 33.4042 123.334 33.3096 123.271 33.3096C123.197 33.3096 123.176 33.3621 123.165 33.4465C123.144 33.6149 123.049 33.8676 122.933 33.9835C122.702 34.2254 122.344 34.236 121.849 34.236C121.134 34.236 120.775 34.1834 120.618 34.0465C120.418 33.8781 120.418 33.3096 120.418 32.1623V30.5834ZM131.187 34.8783C133.577 34.8783 135.072 33.2679 135.072 31.2153C135.072 29.1627 133.619 27.8678 131.282 27.8678C128.472 27.8678 127.398 29.8468 127.398 31.3729C127.398 32.9623 128.493 34.8783 131.187 34.8783ZM131.567 34.3942C129.819 34.3942 128.766 32.9416 128.766 31.0995C128.766 28.889 129.977 28.3414 131.008 28.3414C132.503 28.3414 133.693 29.5626 133.693 31.5413C133.693 34.0889 132.219 34.3938 131.566 34.3938L131.567 34.3942ZM146.399 33.173C146.399 32.7309 146.399 32.3731 146.41 32.0993C146.42 31.7835 146.515 31.6572 146.768 31.6151C146.873 31.5941 146.947 31.5836 147.02 31.5836C147.083 31.5836 147.136 31.5416 147.136 31.4888C147.136 31.4152 147.073 31.4044 146.947 31.4044C146.642 31.4044 146.157 31.4254 145.863 31.4254C145.589 31.4254 144.926 31.4044 144.442 31.4044C144.315 31.4044 144.242 31.4149 144.242 31.4888C144.242 31.5413 144.305 31.5836 144.389 31.5836C144.516 31.5836 144.673 31.5941 144.747 31.6151C145.042 31.6995 145.137 31.794 145.147 32.0993C145.158 32.3731 145.158 32.7099 145.158 33.152V33.9733C145.158 34.1312 145.116 34.2258 144.979 34.2891C144.758 34.384 144.568 34.384 144.326 34.384C142.347 34.384 141.105 32.984 141.105 31.0578C141.105 29.963 141.442 29.2999 141.957 28.8788C142.599 28.3631 143.242 28.3526 143.747 28.3526C144.789 28.3526 145.484 28.7524 145.758 29.0367C146 29.2894 146.052 29.5737 146.073 29.7736C146.084 29.8471 146.105 29.8892 146.168 29.8892C146.242 29.8892 146.295 29.8261 146.295 29.6892C146.295 28.5627 146.358 28.3208 146.358 28.2154C146.358 28.1524 146.337 28.1205 146.231 28.11C146.01 28.0995 145.684 28.047 145.494 28.0152C145.305 27.9731 144.494 27.8678 143.852 27.8678C143.073 27.8678 142.242 27.9308 141.357 28.4468C140.505 28.9415 139.736 29.9417 139.736 31.3732C139.736 33.8469 141.747 34.8787 144.021 34.8787C144.747 34.8787 145.663 34.7838 146.284 34.4785C146.399 34.4155 146.399 34.405 146.399 34.1627V33.1734V33.173ZM152.622 32.1627C152.622 33.0257 152.622 33.7416 152.58 34.1102C152.548 34.3731 152.495 34.4995 152.306 34.5419C152.222 34.5629 152.117 34.5734 151.98 34.5734C151.864 34.5734 151.832 34.6259 151.832 34.6682C151.832 34.7313 151.895 34.7631 152.011 34.7631C152.38 34.7631 153.011 34.7316 153.222 34.7316C153.475 34.7316 154.106 34.7631 154.717 34.7631C154.822 34.7631 154.896 34.7316 154.896 34.6682C154.896 34.6262 154.854 34.5734 154.748 34.5734C154.611 34.5734 154.401 34.5629 154.275 34.5419C154.001 34.4998 153.938 34.363 153.906 34.121C153.864 33.7419 153.864 33.0263 153.864 32.163V30.5841C153.864 29.2261 153.864 28.9736 153.885 28.6894C153.906 28.3736 153.98 28.2472 154.233 28.2052C154.338 28.1842 154.411 28.1737 154.506 28.1737C154.601 28.1737 154.654 28.1527 154.654 28.0683C154.654 28.0158 154.58 27.9948 154.464 27.9948C154.106 27.9948 153.506 28.0158 153.275 28.0158C153.011 28.0158 152.38 27.9948 152.033 27.9948C151.885 27.9948 151.812 28.0158 151.812 28.0683C151.812 28.1527 151.864 28.1737 151.959 28.1737C152.075 28.1737 152.19 28.1842 152.296 28.2157C152.496 28.2787 152.591 28.3841 152.612 28.6894C152.622 28.9736 152.622 29.2264 152.622 30.5841V32.163L152.622 32.1627ZM160.539 32.1627C160.539 32.9836 160.539 33.6891 160.497 34.0679C160.465 34.3308 160.413 34.4995 160.223 34.5416C160.139 34.5626 160.034 34.5731 159.897 34.5731C159.781 34.5731 159.75 34.6256 159.75 34.6679C159.75 34.7309 159.813 34.7628 159.928 34.7628C160.118 34.7628 160.349 34.7523 160.57 34.7418C160.791 34.7418 160.992 34.7313 161.097 34.7313C161.371 34.7313 161.718 34.7418 162.171 34.7523C162.623 34.7733 163.181 34.7838 163.876 34.7838C164.223 34.7838 164.308 34.7838 164.371 34.5521C164.423 34.3732 164.497 33.7626 164.497 33.5627C164.497 33.4678 164.487 33.3523 164.413 33.3523C164.35 33.3523 164.328 33.3943 164.307 33.4892C164.244 33.8575 164.139 34.0472 163.908 34.1522C163.665 34.2573 163.276 34.2678 163.034 34.2678C162.086 34.2678 161.802 34.1309 161.781 33.5203C161.771 33.2571 161.781 32.4995 161.781 32.1939V31.4779C161.781 31.4254 161.792 31.3831 161.834 31.3831C162.065 31.3831 163.118 31.4041 163.286 31.4251C163.633 31.4566 163.749 31.5935 163.802 31.7724C163.823 31.8883 163.823 32.0041 163.833 32.0987C163.833 32.1407 163.854 32.1722 163.918 32.1722C164.002 32.1722 164.013 32.0458 164.013 31.9723C164.013 31.9093 164.034 31.5512 164.055 31.3723C164.107 30.9196 164.128 30.7722 164.128 30.7197C164.128 30.6672 164.097 30.6248 164.055 30.6248C164.013 30.6248 163.981 30.6773 163.907 30.7407C163.812 30.8251 163.686 30.8566 163.465 30.8776C163.255 30.8986 162.055 30.8986 161.844 30.8986C161.791 30.8986 161.781 30.8566 161.781 30.8037V28.5932C161.781 28.5407 161.802 28.5089 161.844 28.5089C162.033 28.5089 163.138 28.5299 163.296 28.5509C163.76 28.5929 163.833 28.7193 163.907 28.8772C163.959 28.9826 163.97 29.1405 163.97 29.2035C163.97 29.277 163.98 29.3193 164.043 29.3193C164.117 29.3193 164.138 29.214 164.149 29.172C164.17 29.0666 164.191 28.6773 164.201 28.5824C164.222 28.1721 164.275 28.0667 164.275 28.0034C164.275 27.9614 164.264 27.919 164.212 27.919C164.17 27.919 164.117 27.9505 164.064 27.961C163.991 27.9715 163.843 28.003 163.675 28.0136C163.496 28.0241 161.443 28.0136 161.148 28.0136C160.885 28.0136 160.295 27.9926 159.811 27.9926C159.674 27.9926 159.601 28.0136 159.601 28.0769C159.601 28.1399 159.664 28.1718 159.759 28.1718C159.896 28.1718 160.054 28.1823 160.127 28.2033C160.422 28.2876 160.506 28.3822 160.527 28.6875C160.538 28.9717 160.538 29.2245 160.538 30.5822V32.1611L160.539 32.1627ZM171.235 34.8783C171.73 34.8783 172.34 34.8258 172.783 34.51C173.456 34.0364 173.709 33.4996 173.709 32.8362C173.709 32.0258 173.33 31.3414 172.109 30.6678L171.73 30.4574C170.898 29.9942 170.751 29.6784 170.751 29.2783C170.751 28.6677 171.351 28.3204 172.014 28.3204C172.614 28.3204 172.909 28.5732 173.046 28.7416C173.246 28.9733 173.288 29.2468 173.288 29.3311C173.288 29.4365 173.32 29.489 173.383 29.489C173.457 29.489 173.499 29.3942 173.499 29.2048C173.499 28.4993 173.531 28.2469 173.531 28.131C173.531 28.068 173.489 28.0362 173.405 28.0152C173.162 27.9521 172.689 27.8678 172.089 27.8678C170.804 27.8678 169.752 28.5729 169.752 29.6679C169.752 30.4574 170.11 31.0574 171.204 31.6995L171.741 32.0153C172.562 32.4995 172.657 32.8888 172.657 33.2784C172.657 33.91 172.173 34.4152 171.373 34.4152C170.794 34.4152 170.099 34.1943 169.899 33.5309C169.847 33.373 169.815 33.1835 169.815 33.0677C169.815 33.0046 169.804 32.9203 169.72 32.9203C169.646 32.9203 169.604 33.0152 169.604 33.152C169.594 33.2994 169.552 33.8575 169.552 34.3416C169.552 34.5415 169.583 34.5839 169.73 34.6469C170.131 34.8258 170.699 34.8787 171.236 34.8787L171.235 34.8783Z" fill="white"/>
</svg>
