<svg width="12" height="10" viewBox="0 0 12 10" fill="none" xmlns="http://www.w3.org/2000/svg">
<path d="M10.3597 0H1.43255C0.935405 0 0.53125 0.376667 0.53125 0.84V9.16042C0.53125 9.62333 0.935405 10 1.43255 10H10.3602C10.8569 10 11.261 9.62333 11.261 9.16V0.84C11.261 0.376667 10.8569 0 10.3597 0ZM10.8139 9.16C10.8139 9.39333 10.6101 9.58333 10.3597 9.58333H1.43255C1.18219 9.58333 0.978324 9.39333 0.978324 9.16V0.84C0.978324 0.606667 1.18219 0.416667 1.43255 0.416667H10.3602C10.6101 0.416667 10.8139 0.606667 10.8139 0.84V9.16Z" fill="white"/>
<path d="M6.32733 2.12346C5.76491 2.00388 5.19087 2.12346 4.75005 2.45138C4.30924 2.7793 4.05664 3.26805 4.05664 3.79305C4.05664 3.90805 4.15679 4.00138 4.28018 4.00138C4.40357 4.00138 4.50371 3.90805 4.50371 3.79305C4.50371 3.39555 4.69506 3.02555 5.02903 2.77721C5.36254 2.52888 5.80023 2.43846 6.22808 2.52971C6.72701 2.63596 7.13832 3.0193 7.25232 3.4843C7.38287 4.01763 7.1723 4.5418 6.70242 4.85263C6.05819 5.27846 5.67371 5.97263 5.67371 6.7093C5.67371 6.8243 5.77385 6.91763 5.89724 6.91763C6.02064 6.91763 6.12078 6.8243 6.12078 6.7093C6.12078 6.10763 6.43507 5.54055 6.96128 5.19263C7.57198 4.78846 7.85722 4.0818 7.68822 3.3918C7.53443 2.7643 7.00062 2.2668 6.32733 2.12346Z" fill="white"/>
<path d="M5.89826 7.42969C5.69334 7.42969 5.52734 7.58427 5.52734 7.7751C5.52734 7.96594 5.69334 8.12052 5.89826 8.12052C6.10318 8.12052 6.26917 7.96594 6.26917 7.7751C6.26917 7.58469 6.10318 7.42969 5.89826 7.42969Z" fill="white"/>
</svg>
