<svg width="11" height="10" viewBox="0 0 11 10" fill="none" xmlns="http://www.w3.org/2000/svg">
<path d="M9.82847 0H0.901301C0.404155 0 0 0.376667 0 0.84V9.16042C0 9.62333 0.404155 10 0.901301 10H9.82892C10.3256 10 10.7298 9.62333 10.7298 9.16V0.84C10.7298 0.376667 10.3256 0 9.82847 0ZM10.2827 9.16C10.2827 9.39333 10.0788 9.58333 9.82847 9.58333H0.901301C0.65094 9.58333 0.447074 9.39333 0.447074 9.16V0.84C0.447074 0.606667 0.65094 0.416667 0.901301 0.416667H9.82892C10.0788 0.416667 10.2827 0.606667 10.2827 0.84V9.16Z" fill="black"/>
<path d="M5.79608 2.12346C5.23366 2.00388 4.65962 2.12346 4.2188 2.45138C3.77799 2.7793 3.52539 3.26805 3.52539 3.79305C3.52539 3.90805 3.62554 4.00138 3.74893 4.00138C3.87232 4.00138 3.97246 3.90805 3.97246 3.79305C3.97246 3.39555 4.16381 3.02555 4.49778 2.77721C4.83129 2.52888 5.26898 2.43846 5.69683 2.52971C6.19576 2.63596 6.60707 3.0193 6.72107 3.4843C6.85162 4.01763 6.64105 4.5418 6.17117 4.85263C5.52694 5.27846 5.14246 5.97263 5.14246 6.7093C5.14246 6.8243 5.2426 6.91763 5.36599 6.91763C5.48939 6.91763 5.58953 6.8243 5.58953 6.7093C5.58953 6.10763 5.90382 5.54055 6.43003 5.19263C7.04073 4.78846 7.32597 4.0818 7.15697 3.3918C7.00318 2.7643 6.46937 2.2668 5.79608 2.12346Z" fill="black"/>
<path d="M5.36701 7.42969C5.16209 7.42969 4.99609 7.58427 4.99609 7.7751C4.99609 7.96594 5.16209 8.12052 5.36701 8.12052C5.57193 8.12052 5.73792 7.96594 5.73792 7.7751C5.73792 7.58469 5.57193 7.42969 5.36701 7.42969Z" fill="black"/>
</svg>
