<svg width="61" height="63" viewBox="0 0 61 63" fill="none" xmlns="http://www.w3.org/2000/svg">
<mask id="mask0_429_3279" style="mask-type:luminance" maskUnits="userSpaceOnUse" x="0" y="12" width="61" height="46">
<path d="M39.2165 47.9992C39.2849 47.9328 41.2691 46.5967 41.7574 46.2065C44.5351 43.9862 46.9679 41.6458 48.6024 38.4707C48.3981 38.6989 48.2015 39.0164 48.0139 39.2776C47.4474 40.0657 46.6642 40.9293 46.0112 41.6338C45.1588 42.5532 44.1465 43.4214 43.2296 44.1784C42.161 45.0611 39.1171 47.2854 37.7348 47.9891L37.5529 48.0512C39.524 45.9213 40.4371 44.707 41.9164 41.8241L41.6109 41.6896C37.877 48.3974 29.2784 52.0675 33.6548 50.9401C34.7743 50.6522 36.7008 49.4439 38.3358 48.9641C39.7255 48.5561 41.5659 48.1354 42.9837 48.0913C43.3617 48.0796 45.0888 48.0776 45.3249 48.2576C44.8391 47.9292 42.8728 47.7609 42.234 47.7427C40.9104 47.7046 39.5305 48.0022 39.2163 47.9995L39.2165 47.9992ZM53.6034 12.5784C57.738 17.7336 60.2129 24.2769 60.2129 31.3994C60.2129 42.8339 53.8382 52.7797 44.4488 57.8763L44.0322 57.0504C53.1201 52.1059 59.2883 42.4731 59.2883 31.3994C59.2883 24.5851 56.9523 18.3167 53.0381 13.3502C53.3965 13.1492 53.5452 12.8423 53.6032 12.5781L53.6034 12.5784ZM15.7834 57.8867C6.38369 52.793 0 42.8421 0 31.3996C0 24.3332 2.43572 17.836 6.51195 12.6999L7.16554 13.2638L7.2053 13.3126C3.27286 18.2851 0.924564 24.568 0.924564 31.3996C0.924564 42.4723 7.09147 52.1043 16.1777 57.049L16.0879 57.2402L15.7837 57.8867H15.7834ZM46.4145 30.2711C47.0697 30.5728 48.1716 29.416 48.5773 28.7439C49.0504 27.9598 49.3595 26.8929 49.1697 26.2717C49.0784 25.9735 48.8804 26.0691 48.6819 26.1617C47.6245 26.654 46.0855 29.0579 46.4142 30.2714L46.4145 30.2711ZM49.0781 29.9481C48.1707 29.4321 45.9515 31.0108 45.4298 32.3193C45.3557 32.5056 45.2274 32.7842 45.4426 32.9122C45.9763 33.2297 47.1087 32.6927 47.6953 32.2526C48.3878 31.7332 49.2527 30.5995 49.0781 29.9478V29.9481ZM41.9194 41.6572C42.5477 42.182 43.6043 41.7062 44.2595 41.2896C44.6462 41.0436 45.0117 40.7384 45.3448 40.325C45.7437 39.8299 45.7764 39.6079 45.8914 39.1357C45.3734 38.6482 44.2397 39.1703 43.6471 39.5431C43.2735 39.7781 42.8862 40.1003 42.5578 40.4704C42.122 40.9619 42.0594 41.1779 41.9194 41.6572ZM44.2375 35.8062C45.1185 36.3664 46.8137 35.294 47.5662 34.3389C47.954 33.8465 47.9907 33.6232 48.0765 33.1638C47.0825 32.4179 44.1422 34.4181 44.2375 35.8059V35.8062ZM46.7892 27.6153C48.21 27.0045 48.3617 23.4645 47.5049 22.8104C46.0746 23.525 45.9357 26.9789 46.7892 27.6153ZM41.6651 34.1635C41.0929 34.7398 41.2756 36.0578 41.3797 36.551C41.5264 37.2474 41.878 38.2449 42.8238 38.6646C43.7402 37.8288 43.0885 34.4579 41.6651 34.1635ZM43.1299 38.7348C43.9897 39.4293 46.6612 37.9557 46.9768 36.1662C46.1972 35.4731 43.4717 36.8277 43.1299 38.7348ZM42.7487 31.2352C41.9216 32.1112 42.4546 35.261 43.9249 35.7008C44.5041 35.0282 44.359 33.8471 44.2225 33.2866C44.0831 32.7153 43.6577 31.392 42.7489 31.2352H42.7487ZM40.5907 37.1164C39.8432 37.8955 40.2487 39.7223 40.6991 40.6139C40.8018 40.8173 41.3473 41.6724 41.658 41.511C41.9864 41.3405 42.1032 40.5227 42.1204 40.2898C42.1969 39.2547 41.6917 37.3767 40.5907 37.1161V37.1164ZM43.6863 28.4176C42.8976 29.1551 43.6487 32.4527 45.027 32.7452C45.8671 31.7654 45.2857 28.8278 43.6863 28.4176ZM45.2141 25.6023C45.0569 25.5514 45.0678 25.5217 44.9273 25.7265C44.7546 25.9781 44.6773 26.3436 44.6463 26.6257C44.5379 27.6102 44.8769 29.812 45.6688 30.0399C45.9826 30.13 46.2827 29.1891 46.3243 28.9871C46.5455 27.9106 46.2408 25.9353 45.2141 25.6023ZM47.4052 22.6173L47.6386 22.6478C47.7761 22.6922 47.5931 22.6486 47.7299 22.6826C47.7985 22.5293 47.8731 21.8782 47.9139 21.653C48.1021 20.6146 48.543 19.4994 48.3788 18.5122L48.2345 19.5231C48.1659 19.8676 48.0681 20.2009 47.9567 20.5563C47.8241 20.9779 47.4216 22.278 47.4055 22.6176L47.4052 22.6173ZM49.1427 29.6665L49.3143 30.038C49.9643 29.309 50.2195 28.7458 50.5019 27.9786C50.6942 27.4569 51.0071 26.4152 51.0005 25.9963L50.4177 27.8071C50.1402 28.5562 49.7731 29.0603 49.1424 29.6665H49.1427ZM44.8587 25.5367C44.9861 25.5002 44.9014 25.501 45.0166 25.4525C45.1476 25.3969 45.0803 25.4645 45.2056 25.3975C44.8693 24.477 44.9638 23.4555 45.1555 22.5222L45.2928 21.5124C44.9246 22.2243 44.6111 25.0225 44.859 25.5369L44.8587 25.5367ZM46.1098 39.1795C46.6449 38.661 46.9989 38.2395 47.3666 37.6014C47.5411 37.2986 48.128 36.2659 48.159 36.0385C47.3671 36.911 47.717 37.4538 45.9474 38.8154C45.9494 38.8261 45.9567 38.8386 45.9594 38.8451L45.9853 38.9031C45.9894 38.9116 45.9951 38.9225 45.9992 38.9312C46.027 38.9911 46.0122 38.9541 46.0365 39.0121C46.0817 39.1188 46.0204 39.0554 46.1098 39.1793V39.1795ZM47.1675 36.2207C47.9875 35.6036 48.393 34.7684 48.8565 33.9247C48.9368 33.7782 49.1767 33.3168 49.1857 33.1472C48.8377 33.5777 48.6054 34.1567 48.2816 34.6436C47.7467 35.4473 47.4935 35.4633 47.0033 35.8822L47.0931 36.0058C47.0986 36.0148 47.1048 36.0249 47.1097 36.0341L47.1677 36.2207H47.1675ZM48.1424 32.8593L48.2925 33.2223C49.1563 32.3476 49.4635 31.7912 49.9267 30.7019L50.2279 29.8596C50.2293 29.8514 50.2317 29.837 50.2325 29.8256C49.6721 30.6742 49.4842 31.9718 48.1424 32.8593ZM40.7808 33.6061C40.7814 33.5963 40.7822 33.5829 40.7824 33.5739C40.7849 33.4835 40.7969 33.5589 40.7751 33.4712C40.6248 33.7624 40.3938 35.0132 40.3516 35.2817C40.2702 35.8027 40.2185 36.5698 40.3495 37.0129L40.4393 36.9797C40.5826 36.9233 40.5349 36.9187 40.686 36.9366C40.6986 36.6782 40.4227 36.2237 40.524 35.2125C40.5804 34.6477 40.7185 34.1695 40.774 33.6665L40.7811 33.6061H40.7808ZM42.5191 31.1717C42.744 31.0908 42.5406 31.0511 42.8644 31.0478C42.7051 30.3313 42.5984 30.2283 42.6177 29.3885C42.6248 29.084 42.7941 27.8713 42.707 27.7126C42.4725 28.5004 42.3159 30.392 42.5191 31.1717ZM41.7982 33.92C41.4074 32.977 41.6828 31.9609 41.8105 31.0132C41.8211 30.9356 41.8328 30.8833 41.8407 30.8095L41.8298 30.5911C41.6155 31.2695 41.1512 33.4827 41.4521 34.0709L41.7985 33.9198L41.7982 33.92ZM49.3616 25.8662C49.6195 25.3558 50.165 22.8346 50.0939 22.4493C49.9052 22.7327 49.7944 23.8193 49.6764 24.2404C49.4695 24.9797 49.4188 24.9969 49.1062 25.5898C49.0204 25.7521 49.018 25.8022 49.323 25.8605C49.3331 25.8624 49.3486 25.8662 49.3616 25.8662ZM43.4178 28.3457C43.4284 28.3433 43.4502 28.3267 43.448 28.3329L43.5932 28.2654C43.6027 28.2613 43.6133 28.2564 43.6226 28.2526L43.7157 28.2177C43.7113 28.1486 43.7198 28.1976 43.701 28.1164C43.6242 27.7826 43.4355 27.6151 43.3453 26.7632C43.3075 26.4051 43.3432 25.5974 43.2182 25.3114C43.1065 25.5525 43.1607 27.7196 43.4178 28.3455V28.3457Z" fill="white"/>
</mask>
<g mask="url(#mask0_429_3279)">
<mask id="mask1_429_3279" style="mask-type:luminance" maskUnits="userSpaceOnUse" x="0" y="12" width="61" height="46">
<path d="M39.2165 47.9992C39.2849 47.9328 41.2691 46.5967 41.7574 46.2065C44.5351 43.9862 46.9679 41.6458 48.6024 38.4707C48.3981 38.6989 48.2015 39.0164 48.0139 39.2776C47.4474 40.0657 46.6642 40.9293 46.0112 41.6338C45.1588 42.5532 44.1465 43.4214 43.2296 44.1784C42.161 45.0611 39.1171 47.2854 37.7348 47.9891L37.5529 48.0512C39.524 45.9213 40.4371 44.707 41.9164 41.8241L41.6109 41.6896C37.877 48.3974 29.2784 52.0675 33.6548 50.9401C34.7743 50.6522 36.7008 49.4439 38.3358 48.9641C39.7255 48.5561 41.5659 48.1354 42.9837 48.0913C43.3617 48.0796 45.0888 48.0776 45.3249 48.2576C44.8391 47.9292 42.8728 47.7609 42.234 47.7427C40.9104 47.7046 39.5305 48.0022 39.2163 47.9995L39.2165 47.9992ZM53.6034 12.5784C57.738 17.7336 60.2129 24.2769 60.2129 31.3994C60.2129 42.8339 53.8382 52.7797 44.4488 57.8763L44.0322 57.0504C53.1201 52.1059 59.2883 42.4731 59.2883 31.3994C59.2883 24.5851 56.9523 18.3167 53.0381 13.3502C53.3965 13.1492 53.5452 12.8423 53.6032 12.5781L53.6034 12.5784ZM15.7834 57.8867C6.38369 52.793 0 42.8421 0 31.3996C0 24.3332 2.43572 17.836 6.51195 12.6999L7.16554 13.2638L7.2053 13.3126C3.27286 18.2851 0.924564 24.568 0.924564 31.3996C0.924564 42.4723 7.09147 52.1043 16.1777 57.049L16.0879 57.2402L15.7837 57.8867H15.7834ZM46.4145 30.2711C47.0697 30.5728 48.1716 29.416 48.5773 28.7439C49.0504 27.9598 49.3595 26.8929 49.1697 26.2717C49.0784 25.9735 48.8804 26.0691 48.6819 26.1617C47.6245 26.654 46.0855 29.0579 46.4142 30.2714L46.4145 30.2711ZM49.0781 29.9481C48.1707 29.4321 45.9515 31.0108 45.4298 32.3193C45.3557 32.5056 45.2274 32.7842 45.4426 32.9122C45.9763 33.2297 47.1087 32.6927 47.6953 32.2526C48.3878 31.7332 49.2527 30.5995 49.0781 29.9478V29.9481ZM41.9194 41.6572C42.5477 42.182 43.6043 41.7062 44.2595 41.2896C44.6462 41.0436 45.0117 40.7384 45.3448 40.325C45.7437 39.8299 45.7764 39.6079 45.8914 39.1357C45.3734 38.6482 44.2397 39.1703 43.6471 39.5431C43.2735 39.7781 42.8862 40.1003 42.5578 40.4704C42.122 40.9619 42.0594 41.1779 41.9194 41.6572ZM44.2375 35.8062C45.1185 36.3664 46.8137 35.294 47.5662 34.3389C47.954 33.8465 47.9907 33.6232 48.0765 33.1638C47.0825 32.4179 44.1422 34.4181 44.2375 35.8059V35.8062ZM46.7892 27.6153C48.21 27.0045 48.3617 23.4645 47.5049 22.8104C46.0746 23.525 45.9357 26.9789 46.7892 27.6153ZM41.6651 34.1635C41.0929 34.7398 41.2756 36.0578 41.3797 36.551C41.5264 37.2474 41.878 38.2449 42.8238 38.6646C43.7402 37.8288 43.0885 34.4579 41.6651 34.1635ZM43.1299 38.7348C43.9897 39.4293 46.6612 37.9557 46.9768 36.1662C46.1972 35.4731 43.4717 36.8277 43.1299 38.7348ZM42.7487 31.2352C41.9216 32.1112 42.4546 35.261 43.9249 35.7008C44.5041 35.0282 44.359 33.8471 44.2225 33.2866C44.0831 32.7153 43.6577 31.392 42.7489 31.2352H42.7487ZM40.5907 37.1164C39.8432 37.8955 40.2487 39.7223 40.6991 40.6139C40.8018 40.8173 41.3473 41.6724 41.658 41.511C41.9864 41.3405 42.1032 40.5227 42.1204 40.2898C42.1969 39.2547 41.6917 37.3767 40.5907 37.1161V37.1164ZM43.6863 28.4176C42.8976 29.1551 43.6487 32.4527 45.027 32.7452C45.8671 31.7654 45.2857 28.8278 43.6863 28.4176ZM45.2141 25.6023C45.0569 25.5514 45.0678 25.5217 44.9273 25.7265C44.7546 25.9781 44.6773 26.3436 44.6463 26.6257C44.5379 27.6102 44.8769 29.812 45.6688 30.0399C45.9826 30.13 46.2827 29.1891 46.3243 28.9871C46.5455 27.9106 46.2408 25.9353 45.2141 25.6023ZM47.4052 22.6173L47.6386 22.6478C47.7761 22.6922 47.5931 22.6486 47.7299 22.6826C47.7985 22.5293 47.8731 21.8782 47.9139 21.653C48.1021 20.6146 48.543 19.4994 48.3788 18.5122L48.2345 19.5231C48.1659 19.8676 48.0681 20.2009 47.9567 20.5563C47.8241 20.9779 47.4216 22.278 47.4055 22.6176L47.4052 22.6173ZM49.1427 29.6665L49.3143 30.038C49.9643 29.309 50.2195 28.7458 50.5019 27.9786C50.6942 27.4569 51.0071 26.4152 51.0005 25.9963L50.4177 27.8071C50.1402 28.5562 49.7731 29.0603 49.1424 29.6665H49.1427ZM44.8587 25.5367C44.9861 25.5002 44.9014 25.501 45.0166 25.4525C45.1476 25.3969 45.0803 25.4645 45.2056 25.3975C44.8693 24.477 44.9638 23.4555 45.1555 22.5222L45.2928 21.5124C44.9246 22.2243 44.6111 25.0225 44.859 25.5369L44.8587 25.5367ZM46.1098 39.1795C46.6449 38.661 46.9989 38.2395 47.3666 37.6014C47.5411 37.2986 48.128 36.2659 48.159 36.0385C47.3671 36.911 47.717 37.4538 45.9474 38.8154C45.9494 38.8261 45.9567 38.8386 45.9594 38.8451L45.9853 38.9031C45.9894 38.9116 45.9951 38.9225 45.9992 38.9312C46.027 38.9911 46.0122 38.9541 46.0365 39.0121C46.0817 39.1188 46.0204 39.0554 46.1098 39.1793V39.1795ZM47.1675 36.2207C47.9875 35.6036 48.393 34.7684 48.8565 33.9247C48.9368 33.7782 49.1767 33.3168 49.1857 33.1472C48.8377 33.5777 48.6054 34.1567 48.2816 34.6436C47.7467 35.4473 47.4935 35.4633 47.0033 35.8822L47.0931 36.0058C47.0986 36.0148 47.1048 36.0249 47.1097 36.0341L47.1677 36.2207H47.1675ZM48.1424 32.8593L48.2925 33.2223C49.1563 32.3476 49.4635 31.7912 49.9267 30.7019L50.2279 29.8596C50.2293 29.8514 50.2317 29.837 50.2325 29.8256C49.6721 30.6742 49.4842 31.9718 48.1424 32.8593ZM40.7808 33.6061C40.7814 33.5963 40.7822 33.5829 40.7824 33.5739C40.7849 33.4835 40.7969 33.5589 40.7751 33.4712C40.6248 33.7624 40.3938 35.0132 40.3516 35.2817C40.2702 35.8027 40.2185 36.5698 40.3495 37.0129L40.4393 36.9797C40.5826 36.9233 40.5349 36.9187 40.686 36.9366C40.6986 36.6782 40.4227 36.2237 40.524 35.2125C40.5804 34.6477 40.7185 34.1695 40.774 33.6665L40.7811 33.6061H40.7808ZM42.5191 31.1717C42.744 31.0908 42.5406 31.0511 42.8644 31.0478C42.7051 30.3313 42.5984 30.2283 42.6177 29.3885C42.6248 29.084 42.7941 27.8713 42.707 27.7126C42.4725 28.5004 42.3159 30.392 42.5191 31.1717ZM41.7982 33.92C41.4074 32.977 41.6828 31.9609 41.8105 31.0132C41.8211 30.9356 41.8328 30.8833 41.8407 30.8095L41.8298 30.5911C41.6155 31.2695 41.1512 33.4827 41.4521 34.0709L41.7985 33.9198L41.7982 33.92ZM49.3616 25.8662C49.6195 25.3558 50.165 22.8346 50.0939 22.4493C49.9052 22.7327 49.7944 23.8193 49.6764 24.2404C49.4695 24.9797 49.4188 24.9969 49.1062 25.5898C49.0204 25.7521 49.018 25.8022 49.323 25.8605C49.3331 25.8624 49.3486 25.8662 49.3616 25.8662ZM43.4178 28.3457C43.4284 28.3433 43.4502 28.3267 43.448 28.3329L43.5932 28.2654C43.6027 28.2613 43.6133 28.2564 43.6226 28.2526L43.7157 28.2177C43.7113 28.1486 43.7198 28.1976 43.701 28.1164C43.6242 27.7826 43.4355 27.6151 43.3453 26.7632C43.3075 26.4051 43.3432 25.5974 43.2182 25.3114C43.1065 25.5525 43.1607 27.7196 43.4178 28.3455V28.3457Z" fill="white"/>
</mask>
<g mask="url(#mask1_429_3279)">
<rect x="-3.3125" y="-12.9219" width="109.914" height="73.2757" fill="white"/>
</g>
</g>
<path fill-rule="evenodd" clip-rule="evenodd" d="M39.2165 48.0073C39.2849 47.9408 41.2691 46.6048 41.7574 46.2145C44.5351 43.9942 46.9679 41.6538 48.6024 38.4787C48.3981 38.7069 48.2015 39.0245 48.0139 39.2856C47.4474 40.0738 46.6642 40.9373 46.0112 41.6418C45.1588 42.5612 44.1465 43.4294 43.2296 44.1865C42.161 45.0691 39.1171 47.2935 37.7348 47.9972L37.5529 48.0593C39.524 45.9294 40.4371 44.7151 41.9164 41.8322L41.6109 41.6977C37.877 48.4054 29.2784 52.0756 33.6548 50.9482C34.7743 50.6603 36.7008 49.452 38.3358 48.9721C39.7255 48.5642 41.5659 48.1434 42.9837 48.0993C43.3617 48.0876 45.0888 48.0857 45.3249 48.2657C44.8391 47.9373 42.8728 47.769 42.234 47.7507C40.9104 47.7126 39.5305 48.0103 39.2163 48.0075L39.2165 48.0073ZM53.6034 12.5865C57.738 17.7417 60.2129 24.2849 60.2129 31.4074C60.2129 42.842 53.8382 52.7877 44.4488 57.8844L44.0322 57.0584C53.1201 52.114 59.2883 42.4812 59.2883 31.4074C59.2883 24.5932 56.9523 18.3247 53.0381 13.3582C53.3965 13.1573 53.5452 12.8503 53.6032 12.5862L53.6034 12.5865ZM15.7834 57.8947C6.38369 52.8011 0 42.8502 0 31.4077C0 24.3413 2.43572 17.844 6.51195 12.7079L7.16554 13.2719L7.2053 13.3207C3.27286 18.2931 0.924564 24.576 0.924564 31.4077C0.924564 42.4803 7.09147 52.1124 16.1777 57.0571L16.0879 57.2482L15.7837 57.8947H15.7834ZM46.4145 30.2792C47.0697 30.5809 48.1716 29.424 48.5773 28.7519C49.0504 27.9679 49.3595 26.9009 49.1697 26.2797C49.0784 25.9815 48.8804 26.0771 48.6819 26.1697C47.6245 26.6621 46.0855 29.0659 46.4142 30.2794L46.4145 30.2792ZM49.0781 29.9562C48.1707 29.4401 45.9515 31.0188 45.4298 32.3274C45.3557 32.5136 45.2274 32.7922 45.4426 32.9202C45.9763 33.2377 47.1087 32.7007 47.6953 32.2606C48.3878 31.7413 49.2527 30.6076 49.0781 29.9559V29.9562ZM41.9194 41.6653C42.5477 42.19 43.6043 41.7143 44.2595 41.2976C44.6462 41.0517 45.0117 40.7464 45.3448 40.333C45.7437 39.8379 45.7764 39.616 45.8914 39.1438C45.3734 38.6563 44.2397 39.1783 43.6471 39.5512C43.2735 39.7862 42.8862 40.1083 42.5578 40.4784C42.122 40.97 42.0594 41.186 41.9194 41.6653ZM44.2375 35.8143C45.1185 36.3744 46.8137 35.302 47.5662 34.3469C47.954 33.8546 47.9907 33.6313 48.0765 33.1718C47.0825 32.4259 44.1422 34.4262 44.2375 35.814V35.8143ZM46.7892 27.6234C48.21 27.0126 48.3617 23.4726 47.5049 22.8184C46.0746 23.533 45.9357 26.987 46.7892 27.6234ZM41.6651 34.1716C41.0929 34.7478 41.2756 36.0659 41.3797 36.5591C41.5264 37.2554 41.878 38.253 42.8238 38.6726C43.7402 37.8369 43.0885 34.466 41.6651 34.1716ZM43.1299 38.7429C43.9897 39.4373 46.6612 37.9638 46.9768 36.1743C46.1972 35.4812 43.4717 36.8358 43.1299 38.7429ZM42.7487 31.2432C41.9216 32.1193 42.4546 35.2691 43.9249 35.7089C44.5041 35.0362 44.359 33.8551 44.2225 33.2947C44.0831 32.7233 43.6577 31.4001 42.7489 31.2432H42.7487ZM40.5907 37.1244C39.8432 37.9036 40.2487 39.7304 40.6991 40.622C40.8018 40.8254 41.3473 41.6805 41.658 41.519C41.9864 41.3485 42.1032 40.5307 42.1204 40.2979C42.1969 39.2628 41.6917 37.3848 40.5907 37.1242V37.1244ZM43.6863 28.4257C42.8976 29.1632 43.6487 32.4608 45.027 32.7533C45.8671 31.7734 45.2857 28.8358 43.6863 28.4257ZM45.2141 25.6103C45.0569 25.5594 45.0678 25.5297 44.9273 25.7345C44.7546 25.9862 44.6773 26.3516 44.6463 26.6338C44.5379 27.6182 44.8769 29.82 45.6688 30.048C45.9826 30.1381 46.2827 29.1972 46.3243 28.9951C46.5455 27.9186 46.2408 25.9434 45.2141 25.6103ZM47.4052 22.6253L47.6386 22.6558C47.7761 22.7002 47.5931 22.6567 47.7299 22.6907C47.7985 22.5374 47.8731 21.8862 47.9139 21.661C48.1021 20.6226 48.543 19.5074 48.3788 18.5202L48.2345 19.5311C48.1659 19.8756 48.0681 20.209 47.9567 20.5643C47.8241 20.9859 47.4216 22.286 47.4055 22.6256L47.4052 22.6253ZM49.1427 29.6746L49.3143 30.046C49.9643 29.317 50.2195 28.7538 50.5019 27.9867C50.6942 27.4649 51.0071 26.4232 51.0005 26.0044L50.4177 27.8151C50.1402 28.5643 49.7731 29.0684 49.1424 29.6746H49.1427ZM44.8587 25.5447C44.9861 25.5082 44.9014 25.509 45.0166 25.4606C45.1476 25.405 45.0803 25.4725 45.2056 25.4056C44.8693 24.4851 44.9638 23.4636 45.1555 22.5303L45.2928 21.5205C44.9246 22.2324 44.6111 25.0306 44.859 25.545L44.8587 25.5447ZM46.1098 39.1876C46.6449 38.6691 46.9989 38.2475 47.3666 37.6095C47.5411 37.3066 48.128 36.2739 48.159 36.0466C47.3671 36.9191 47.717 37.4618 45.9474 38.8235C45.9494 38.8341 45.9567 38.8466 45.9594 38.8532L45.9853 38.9112C45.9894 38.9196 45.9951 38.9305 45.9992 38.9392C46.027 38.9991 46.0122 38.9621 46.0365 39.0201C46.0817 39.1269 46.0204 39.0634 46.1098 39.1873V39.1876ZM47.1675 36.2287C47.9875 35.6116 48.393 34.7764 48.8565 33.9327C48.9368 33.7862 49.1767 33.3249 49.1857 33.1552C48.8377 33.5858 48.6054 34.1648 48.2816 34.6517C47.7467 35.4553 47.4935 35.4714 47.0033 35.8902L47.0931 36.0139C47.0986 36.0229 47.1048 36.0329 47.1097 36.0422L47.1677 36.2287H47.1675ZM48.1424 32.8674L48.2925 33.2304C49.1563 32.3557 49.4635 31.7993 49.9267 30.71L50.2279 29.8677C50.2293 29.8595 50.2317 29.8451 50.2325 29.8336C49.6721 30.6822 49.4842 31.9799 48.1424 32.8674ZM40.7808 33.6141C40.7814 33.6043 40.7822 33.591 40.7824 33.582C40.7849 33.4916 40.7969 33.567 40.7751 33.4793C40.6248 33.7704 40.3938 35.0212 40.3516 35.2897C40.2702 35.8107 40.2185 36.5779 40.3495 37.021L40.4393 36.9877C40.5826 36.9314 40.5349 36.9267 40.686 36.9447C40.6986 36.6863 40.4227 36.2317 40.524 35.2206C40.5804 34.6558 40.7185 34.1776 40.774 33.6746L40.7811 33.6141H40.7808ZM42.5191 31.1798C42.744 31.0989 42.5406 31.0591 42.8644 31.0558C42.7051 30.3393 42.5984 30.2364 42.6177 29.3965C42.6248 29.0921 42.7941 27.8794 42.707 27.7206C42.4725 28.5085 42.3159 30.4001 42.5191 31.1798ZM41.7982 33.9281C41.4074 32.985 41.6828 31.969 41.8105 31.0213C41.8211 30.9436 41.8328 30.8914 41.8407 30.8176L41.8298 30.5991C41.6155 31.2775 41.1512 33.4907 41.4521 34.079L41.7985 33.9278L41.7982 33.9281ZM49.3616 25.8742C49.6195 25.3639 50.165 22.8427 50.0939 22.4573C49.9052 22.7408 49.7944 23.8274 49.6764 24.2484C49.4695 24.9878 49.4188 25.005 49.1062 25.5978C49.0204 25.7601 49.018 25.8102 49.323 25.8685C49.3331 25.8704 49.3486 25.8742 49.3616 25.8742ZM43.4178 28.3538C43.4284 28.3513 43.4502 28.3347 43.448 28.341L43.5932 28.2735C43.6027 28.2694 43.6133 28.2645 43.6226 28.2607L43.7157 28.2258C43.7113 28.1566 43.7198 28.2056 43.701 28.1245C43.6242 27.7906 43.4355 27.6231 43.3453 26.7713C43.3075 26.4132 43.3432 25.6054 43.2182 25.3195C43.1065 25.5605 43.1607 27.7277 43.4178 28.3535V28.3538Z" fill="white"/>
<path fill-rule="evenodd" clip-rule="evenodd" d="M24.4769 30.8419V34.4614C24.4769 35.9895 24.5662 37.1338 24.738 37.8721C24.9112 38.6161 25.2288 39.2332 25.6907 39.7158C26.0962 40.1392 26.5656 40.4481 27.104 40.6529C27.6332 40.8547 28.3331 40.9756 29.2089 41.0216V41.5284H14.8672V41.0216C15.7351 40.9756 16.4361 40.8571 16.972 40.6529C17.5036 40.4502 17.9685 40.1357 18.3778 39.7158C18.8514 39.2299 19.1806 38.6256 19.3456 37.8876C19.5104 37.1512 19.5916 36.0132 19.5916 34.4614V17.4188C19.5916 16.1282 19.5376 15.1293 19.4227 14.4305C19.3078 13.7317 19.1155 13.1631 18.8465 12.7328C18.4625 12.1261 17.963 11.6805 17.3639 11.3886C16.7648 11.0967 15.981 10.9199 15.0211 10.8586H14.8675V10.3516H28.418C30.784 10.3516 32.5278 10.4747 33.6492 10.7127C34.7709 10.9507 35.8001 11.4349 36.7295 12.1492C38.8572 13.7701 39.9174 15.9362 39.9174 18.6326C39.9174 20.6557 39.3314 22.2793 38.162 23.5043H32.4828C33.8112 22.1914 34.4785 20.4754 34.4785 18.3559C34.4785 17.1192 34.2633 15.9899 33.8333 14.9605C33.4106 13.9311 32.7963 13.086 31.9972 12.4409C31.083 11.6726 29.9924 11.2271 28.7326 11.0888C28.387 11.058 27.6035 11.0427 26.3666 11.0427H24.4769V23.504V30.8416V30.8419Z" fill="white"/>
<path d="M41.6092 25.2656V25.7831C40.8017 25.8299 40.1511 25.932 39.6571 26.081C39.171 26.2378 38.7165 26.4887 38.3009 26.8416C37.7209 27.3277 37.317 27.9622 37.0937 28.7465C36.8709 29.5289 36.7645 30.7307 36.7645 32.3527V44.3001C36.7645 46.3845 36.6141 47.9847 36.3097 49.0901C36.0033 50.2026 35.4507 51.199 34.6397 51.9942C33.8366 52.7818 32.7359 53.4103 31.3628 53.8916C29.5687 54.5198 28.0213 54.644 26.1575 54.644C24.5254 54.644 22.9227 54.4621 21.3811 54.12C19.8253 53.7747 18.5862 53.302 17.6529 52.7276C15.9372 51.6712 15.0625 50.287 15.0625 48.5351C15.0625 47.4872 15.4002 46.6255 16.0658 45.96C16.7313 45.2944 17.623 44.9567 18.7011 44.9567C19.749 44.9567 20.6532 45.3121 21.3811 46.0199C21.7294 46.3584 22.0347 46.802 22.2945 47.3074C22.5576 47.8186 22.9533 48.7609 23.4922 50.1372C23.9846 51.3946 24.5703 52.3082 25.2441 52.8474C26.4598 53.8202 28.6744 54.0928 29.9516 52.9724C30.49 52.5002 30.9203 51.8131 31.2059 50.9027C31.5937 49.6658 31.7784 47.6479 31.7784 44.1201V32.3372C31.7784 31.3729 31.7086 30.4941 31.5747 29.7109C31.4039 28.7152 31.0335 27.9391 30.4693 27.3669C29.5834 26.4339 28.3761 25.9089 26.8397 25.7833V25.2659H41.6092V25.2656Z" fill="white"/>
<path d="M8.37069 10.3101L8.36442 10.3047C7.91508 9.90898 7.32411 9.95256 6.86197 10.4776L6.07031 11.3768L8.27101 13.3145L8.6972 12.8303L8.03708 12.2491L8.36087 11.8812C8.79551 11.3877 8.87994 10.7589 8.37069 10.3107V10.3101ZM7.94203 10.8033L7.9483 10.8088C8.13702 10.9749 8.15717 11.2437 7.94393 11.4855L7.60625 11.8692L6.93332 11.2769L7.26257 10.9027C7.4758 10.6606 7.72499 10.6121 7.94177 10.8033H7.94203ZM11.5297 9.93403L12.015 9.4659L9.06077 8.21237L8.63266 8.62522L9.77781 11.6233L10.2511 11.1669L9.9875 10.5073L10.8802 9.64673L11.5297 9.93403ZM9.37857 8.98252L10.3192 9.39646L9.7582 9.9373L9.37857 8.98252ZM11.7225 6.80688L12.4248 6.25677L12.058 5.78864L10.1457 7.28699L10.5126 7.75513L11.2149 7.20502L12.6563 9.04488L13.1642 8.64701L11.7228 6.80715L11.7225 6.80688ZM15.8009 6.89021L16.4338 6.48035L15.2636 5.9907C15.5014 5.67208 15.5542 5.28346 15.2968 4.88613L15.2922 4.87905C14.9643 4.37279 14.4183 4.29218 13.838 4.66773L12.713 5.39621L14.3066 7.85725L14.848 7.50676L14.3382 6.71919L14.7636 6.44386L15.8009 6.88994V6.89021ZM14.762 5.2625L14.7666 5.26958C14.9009 5.47682 14.8407 5.71565 14.5771 5.8864L14.0286 6.24152L13.5711 5.53483L14.1089 5.18651C14.3728 5.01576 14.6117 5.03074 14.762 5.26277V5.2625ZM16.9158 6.27883L17.4858 5.97709L16.1136 3.38587L15.5436 3.68761L16.9158 6.27883ZM20.3134 4.20803L19.7772 3.97764C19.6421 4.25814 19.5021 4.4594 19.1917 4.58521C18.7257 4.77394 18.2464 4.51604 18.0577 4.05008L18.0547 4.04219C17.866 3.57623 18.0422 3.06234 18.5003 2.87689C18.772 2.76687 19.0326 2.79682 19.3194 2.90221L19.5223 2.30963C19.1694 2.16311 18.7935 2.11654 18.281 2.32379C17.4463 2.66175 17.1201 3.5302 17.4327 4.30308L17.4357 4.3107C17.7516 5.0912 18.5956 5.4681 19.3954 5.1443C19.9196 4.93216 20.1547 4.62007 20.3131 4.20776L20.3134 4.20803ZM22.8153 3.94823L23.5596 3.73282L21.8913 2.45859L22.692 0.931638L21.9436 1.14841L21.1574 2.71022L20.8009 1.47902L20.1813 1.65848L20.9967 4.47492L21.6162 4.29545L21.3671 3.43462L21.595 3.00243L22.8153 3.94851V3.94823ZM27.3166 3.10156L27.9849 3.01115L26.3433 0.253537L25.754 0.333331L24.9052 3.42835L25.5569 3.34012L25.7341 2.65249L26.9626 2.48609L27.3166 3.10183V3.10156ZM26.1443 1.06235L26.6579 1.95233L25.8858 2.0569L26.1443 1.06235ZM30.5228 2.94089L31.0713 2.93162L31.0225 0L30.3858 0.0106179L30.416 1.81562L29.0122 0.033496L28.4177 0.0432995L28.4667 2.97493L29.1031 2.96431L29.0721 1.10075L30.5231 2.94089H30.5228ZM34.5794 1.75026L34.5799 1.74182C34.6423 0.919111 34.0554 0.240192 33.1366 0.170475L31.9964 0.0838763L31.7744 3.00733L32.9147 3.09394C33.8335 3.16365 34.5168 2.57297 34.5794 1.74999V1.75026ZM33.907 1.69933L33.9065 1.70778C33.8673 2.22575 33.4852 2.55363 32.9591 2.51387L32.4621 2.47602L32.5957 0.713502L33.0927 0.751356C33.6189 0.791116 33.9465 1.18164 33.9073 1.69961L33.907 1.69933ZM38.1442 2.99399L38.5704 1.12336L37.925 0.976301L37.5053 2.81834C37.4301 3.14922 37.2504 3.25869 37.0135 3.20477C36.8133 3.15929 36.6782 3.01659 36.5557 2.79982L36.059 3.15085C36.202 3.42836 36.4514 3.69142 36.8967 3.79273C37.5012 3.93053 37.986 3.68843 38.1439 2.99426L38.1442 2.99399ZM41.3122 3.77939L41.8438 2.2124L41.233 2.00516L40.6935 3.59584C40.5442 4.03619 40.2414 4.18543 39.8683 4.05907C39.4955 3.93271 39.349 3.62171 39.5023 3.16964L40.0353 1.59885L39.4244 1.3916L38.8863 2.9782C38.6091 3.79546 38.9241 4.36653 39.6695 4.61953C40.4154 4.87252 41.0273 4.62007 41.3125 3.77911L41.3122 3.77939ZM43.5769 6.29789L44.1453 6.59446L45.5015 3.9948L44.8849 3.67318L43.6281 4.41609L43.5183 2.96022L42.9018 2.6386L41.5456 5.23826L42.1063 5.53074L42.9859 3.84475L43.1368 5.32159L43.1518 5.32922L44.4625 4.60046L43.5772 6.29762L43.5769 6.29789ZM46.6747 8.1786L47.2141 8.52473L48.7977 6.05715L48.2125 5.68161L46.8941 6.30878L46.9154 4.8491L46.3301 4.47355L44.7466 6.94114L45.279 7.28263L46.3059 5.68243L46.3236 7.16689L46.3378 7.17588L47.7087 6.5675L46.6749 8.1786H46.6747ZM49.6395 9.04651L51.6504 8.46754L51.1003 7.98307L49.7879 8.39619L50.0406 7.05061L49.4748 6.55252L49.1469 8.63012L48.383 9.49776L48.8672 9.92396L49.6395 9.04679V9.04651ZM51.109 9.47788L50.9671 9.70691C51.3348 10.0435 51.6882 10.0724 52.0684 9.67069L52.457 9.26002L51.9644 8.79352L51.5036 9.28017L51.6923 9.45882C51.5434 9.64646 51.3391 9.65517 51.109 9.47761V9.47788ZM52.8898 12.8107L52.896 12.8052C53.28 12.4681 53.2193 12.0751 52.9434 11.5261C52.7065 11.0596 52.6708 10.9237 52.8157 10.7965L52.822 10.7911C52.929 10.6971 53.0997 10.72 53.2628 10.9057C53.4257 11.0912 53.5126 11.3551 53.5488 11.669L54.1349 11.6001C54.118 11.2192 53.9783 10.857 53.6964 10.5359C53.301 10.0857 52.755 9.99694 52.3549 10.348L52.3486 10.3534C51.9113 10.7377 52.0398 11.1317 52.3162 11.675C52.5453 12.1263 52.5485 12.257 52.4257 12.3648L52.4194 12.3703C52.2904 12.4836 52.1068 12.4332 51.9325 12.2349C51.7114 11.983 51.6329 11.6843 51.6223 11.3423L51.0278 11.357C51.024 11.8286 51.2032 12.2676 51.4962 12.6012C51.9137 13.0764 52.4521 13.1944 52.8898 12.8104V12.8107Z" fill="white"/>
<path d="M18.8106 59.5223L18.8141 59.5147C18.9789 59.1572 18.871 58.8908 18.6175 58.6307C18.8569 58.6119 19.0935 58.5183 19.2322 58.2176L19.2357 58.21C19.4285 57.7917 19.2183 57.3671 18.6744 57.1166L17.438 56.5469L16.2109 59.2097L17.4775 59.7936C18.0786 60.0705 18.5865 60.0095 18.8109 59.5226L18.8106 59.5223ZM18.608 58.0406L18.6044 58.0482C18.5132 58.2459 18.3111 58.2544 18.0524 58.1351L17.5124 57.8862L17.7719 57.3233L18.3501 57.5899C18.5971 57.7037 18.6886 57.8658 18.608 58.0409V58.0406ZM18.2654 59.174L18.2618 59.1817C18.1706 59.3794 17.9726 59.399 17.7139 59.2797L17.0178 58.9589L17.2877 58.3731L17.965 58.6852C18.2654 58.8238 18.3479 58.9954 18.2654 59.174ZM21.3345 61.3009L21.9729 61.5177L21.7324 58.3176L21.1692 58.1264L19.0298 60.5185L19.6526 60.7299L20.1178 60.1934L21.2918 60.5921L21.3343 61.3009H21.3345ZM21.1937 58.9529L21.2569 59.9785L20.5192 59.728L21.1937 58.9529ZM24.5788 62.113L25.3345 62.284L24.49 60.3619L25.929 59.4123L25.1692 59.2402L23.7259 60.2274L24.0088 58.9774L23.3797 58.835L22.7321 61.6944L23.3612 61.8369L23.5592 60.9627L23.9677 60.6944L24.5785 62.1125L24.5788 62.113ZM26.027 62.3557L28.2531 62.5242L28.2964 61.9521L26.7092 61.8317L26.7558 61.2176L28.1341 61.3222L28.1774 60.75L26.7991 60.6457L26.844 60.0526L28.4102 60.1713L28.4535 59.5991L26.2482 59.4319L26.0268 62.3557H26.027ZM30.9273 62.552L31.6814 62.5419L30.9513 61.5044C31.3222 61.3611 31.5738 61.0605 31.5676 60.5872V60.5787C31.5594 59.9755 31.14 59.6166 30.4491 59.6258L29.109 59.6435L29.1479 62.5752L29.7928 62.5667L29.7803 61.6285L30.2871 61.6217L30.9279 62.5517L30.9273 62.552ZM30.9143 60.6209V60.6294C30.9176 60.8764 30.7397 61.0463 30.4257 61.0507L29.7724 61.0594L29.7612 60.2173L30.402 60.2089C30.7163 60.2048 30.9107 60.3445 30.9143 60.6209ZM33.676 61.1718L34.5493 59.2702L33.8233 59.3709L33.28 60.6348L32.4252 59.5651L31.6784 59.6689L33.039 61.2729L33.198 62.4178L33.8369 62.329L33.676 61.1716V61.1718ZM39.2369 60.6776L38.7266 60.3946C38.5643 60.6601 38.4044 60.8461 38.0831 60.9401C37.6005 61.0809 37.1495 60.7761 37.0088 60.2936L37.0063 60.2854C36.8655 59.8028 37.0923 59.3091 37.5667 59.1708C37.8483 59.0885 38.1046 59.1446 38.3791 59.2783L38.6405 58.7089C38.3042 58.5278 37.9349 58.4434 37.4042 58.5983C36.5398 58.8505 36.1278 59.6819 36.3611 60.482L36.3636 60.4902C36.5994 61.2985 37.4009 61.7582 38.2293 61.5166C38.7721 61.3584 39.0376 61.0714 39.2367 60.6773L39.2369 60.6776ZM42.2887 58.4518L42.2857 58.4439C41.97 57.6724 41.1141 57.2939 40.2767 57.6365C39.4393 57.9788 39.0891 58.8598 39.4044 59.6313L39.4074 59.6392C39.723 60.4107 40.579 60.789 41.4164 60.4466C42.2538 60.1043 42.604 59.2233 42.2887 58.4518ZM41.6645 58.707L41.6677 58.7146C41.8578 59.1798 41.6797 59.6961 41.1991 59.8927C40.7184 60.0893 40.2187 59.8412 40.0283 59.3758L40.0251 59.3679C39.835 58.9028 40.0131 58.3865 40.4935 58.1898C40.9744 57.9932 41.4741 58.2416 41.6642 58.7067L41.6645 58.707ZM43.3949 59.4834L43.9929 59.1626L43.6759 58.5719L43.0779 58.8927L43.3949 59.4834Z" fill="white"/>
<path d="M9.90284 35.3485H11.1556V35.0264H10.2623V34.6808H11.0379V34.3586H10.2623V34.0247H11.1438V33.7026H9.90284V35.348V35.3485ZM12.667 34.8619V34.8572C12.667 34.5705 12.4788 34.4506 12.1452 34.3635C11.8609 34.2905 11.7904 34.2554 11.7904 34.1473V34.1426C11.7904 34.0629 11.8631 33.9994 12.0019 33.9994C12.1406 33.9994 12.2841 34.0604 12.4298 34.1614L12.618 33.8888C12.451 33.7548 12.2465 33.6797 12.0068 33.6797C11.6705 33.6797 11.4309 33.8771 11.4309 34.1756V34.1802C11.4309 34.507 11.6446 34.5985 11.9763 34.6832C12.2514 34.7538 12.3078 34.8006 12.3078 34.8924V34.897C12.3078 34.9934 12.2185 35.0522 12.0703 35.0522C11.8824 35.0522 11.7272 34.9746 11.579 34.8523L11.3652 35.1086C11.5627 35.2848 11.8143 35.3719 12.0635 35.3719C12.4183 35.3719 12.6675 35.1887 12.6675 34.8619H12.667ZM13.6918 34.0367H14.1923V33.7028H12.829V34.0367H13.3298V35.3485H13.692V34.0367H13.6918ZM10.4314 36.6012C10.5605 36.6012 10.6523 36.6764 10.6523 36.8153C10.6523 36.9515 10.5725 37.0408 10.368 37.2102L9.82031 37.659V37.9457H11.0379V37.6331H10.3209L10.5888 37.4264C10.8802 37.2006 11.0213 37.062 11.0213 36.787C11.0213 36.479 10.8051 36.2769 10.4548 36.2769C10.161 36.2769 10.0036 36.3967 9.84128 36.6178L10.0951 36.8224C10.2174 36.672 10.3045 36.6015 10.4314 36.6015V36.6012ZM12.7585 37.1208C12.7585 36.6413 12.4693 36.2723 12.0297 36.2723C11.5902 36.2723 11.2963 36.6459 11.2963 37.1255C11.2963 37.605 11.5856 37.9741 12.0251 37.9741C12.4646 37.9741 12.7585 37.6004 12.7585 37.1208ZM12.387 37.1255C12.387 37.4264 12.2484 37.6473 12.0297 37.6473C11.811 37.6473 11.6678 37.4239 11.6678 37.1208C11.6678 36.8175 11.8064 36.5991 12.0251 36.5991C12.2438 36.5991 12.3873 36.8246 12.3873 37.1255H12.387ZM13.5883 36.6012C13.7173 36.6012 13.8091 36.6764 13.8091 36.8153C13.8091 36.9515 13.7293 37.0408 13.5248 37.2102L12.9772 37.659V37.9457H14.1947V37.6331H13.4777L13.7457 37.4264C14.0371 37.2006 14.1781 37.062 14.1781 36.787C14.1781 36.479 13.9619 36.2769 13.6117 36.2769C13.3178 36.2769 13.1604 36.3967 12.9981 36.6178L13.2519 36.8224C13.3742 36.672 13.4614 36.6015 13.5883 36.6015V36.6012ZM15.9153 37.1208C15.9153 36.6413 15.6261 36.2723 15.1866 36.2723C14.747 36.2723 14.4532 36.6459 14.4532 37.1255C14.4532 37.605 14.7424 37.9741 15.1819 37.9741C15.6215 37.9741 15.9153 37.6004 15.9153 37.1208ZM15.5439 37.1255C15.5439 37.4264 15.4053 37.6473 15.1866 37.6473C14.9679 37.6473 14.8246 37.4239 14.8246 37.1208C14.8246 36.8175 14.9633 36.5991 15.1819 36.5991C15.4006 36.5991 15.5441 36.8246 15.5441 37.1255H15.5439Z" fill="white"/>
<path d="M5.49911 37.7229C5.36948 37.2891 4.90407 37.0911 4.37384 37.2496C3.84634 37.4072 3.56584 37.8283 3.69547 38.2621C3.82673 38.7011 4.29132 38.8966 4.81883 38.7387C5.34905 38.5802 5.6301 38.1616 5.49884 37.7229H5.49911ZM5.26326 37.7934C5.34823 38.0775 5.13174 38.3607 4.74094 38.4772C4.35042 38.5941 4.01654 38.4756 3.93157 38.1913C3.84742 37.9097 4.0623 37.63 4.45282 37.5132C4.84361 37.3964 5.17911 37.5116 5.26326 37.7931V37.7934Z" fill="white"/>
<path d="M5.12881 36.0349C5.0708 35.6583 4.8306 35.387 4.51932 35.4352C4.29955 35.469 4.1653 35.6585 4.12255 35.8849C4.02369 35.7125 3.86656 35.5815 3.65223 35.6144C3.35376 35.6605 3.21678 35.987 3.26852 36.3219C3.31863 36.6463 3.54113 36.9254 3.84722 36.8783C4.0512 36.8467 4.16585 36.6871 4.21432 36.4788C4.32053 36.682 4.50599 36.8247 4.72848 36.7904C5.0373 36.7427 5.18736 36.4143 5.12881 36.0349ZM4.06917 36.1983C4.08333 36.3595 4.02097 36.5809 3.83524 36.6095C3.67566 36.6343 3.53322 36.4927 3.50136 36.286C3.4695 36.0793 3.56209 35.8987 3.72167 35.8742C3.90222 35.8465 4.03322 36.0352 4.06917 36.1983ZM4.89624 36.0706C4.93164 36.301 4.83931 36.5 4.66393 36.527C4.47276 36.5564 4.32162 36.3386 4.28921 36.1643C4.26688 35.9853 4.34612 35.7348 4.53702 35.7054C4.7124 35.6784 4.86083 35.8405 4.89624 36.0706Z" fill="white"/>
<path d="M4.87792 34.3065C4.81092 33.8587 4.37791 33.597 3.8308 33.679C3.28615 33.7607 2.94927 34.1379 3.01626 34.5856C3.08434 35.0387 3.51654 35.2977 4.06119 35.216C4.6083 35.1338 4.94573 34.7593 4.87792 34.3062V34.3065ZM4.63444 34.3429C4.67829 34.6362 4.42394 34.886 4.02062 34.9464C3.6173 35.0069 3.30357 34.8424 3.25972 34.5491C3.21615 34.2585 3.46834 34.0118 3.87139 33.9513C4.27471 33.8909 4.5906 34.0524 4.63444 34.3429Z" fill="white"/>
<path d="M4.71074 32.6141C4.70965 32.2328 4.51303 31.9289 4.19794 31.9297C3.97545 31.9302 3.8145 32.0974 3.73825 32.3148C3.66636 32.1296 3.53074 31.9763 3.31369 31.9768C3.01168 31.9776 2.82731 32.2799 2.82813 32.6187C2.82894 32.9471 3.00704 33.2562 3.31695 33.2554C3.52338 33.2548 3.6609 33.1141 3.73961 32.9155C3.81423 33.1323 3.97627 33.3014 4.20121 33.3009C4.51357 33.3001 4.71156 32.9978 4.71047 32.6141H4.71074ZM3.63857 32.6168C3.6285 32.7783 3.53373 32.9877 3.34555 32.9882C3.18406 32.9888 3.0645 32.8273 3.06396 32.6184C3.06341 32.4093 3.18215 32.2448 3.34364 32.2442C3.52637 32.2437 3.62741 32.4501 3.63857 32.6168ZM4.47518 32.6149C4.47572 32.848 4.35453 33.031 4.17697 33.0313C3.98362 33.0318 3.86652 32.7938 3.8608 32.6162C3.8657 32.4362 3.98144 32.2001 4.17479 32.1998C4.35235 32.1993 4.47436 32.3818 4.47518 32.6149Z" fill="white"/>
<path d="M4.68662 31.4364L4.68745 31.1293L3.07171 30.3599L2.87046 30.3594L2.86719 31.6303L3.1161 31.6309L3.11855 30.675L4.68662 31.4364Z" fill="white"/>
<path d="M4.75448 29.3859C4.78335 29.0057 4.61096 28.6874 4.2967 28.6637C4.07502 28.6468 3.90128 28.8009 3.80842 29.0117C3.75123 28.8216 3.62785 28.6582 3.41162 28.6419C3.11043 28.6193 2.90319 28.906 2.87759 29.244C2.85281 29.5713 3.0064 29.8935 3.31522 29.9169C3.5211 29.9324 3.66898 29.8028 3.76321 29.6108C3.82067 29.833 3.96882 30.0141 4.19322 30.031C4.50476 30.0547 4.72562 29.7688 4.75448 29.3859ZM3.68532 29.305C3.66245 29.4654 3.55161 29.6667 3.36425 29.6525C3.2033 29.6402 3.09655 29.4703 3.11234 29.2617C3.12814 29.0531 3.25913 28.8984 3.42035 28.9107C3.60254 28.9243 3.68723 29.1378 3.68532 29.305ZM4.51947 29.3682C4.50176 29.6005 4.36669 29.7734 4.18968 29.7601C3.99687 29.7454 3.89883 29.4989 3.907 29.3219C3.92579 29.1427 4.05978 28.9167 4.25259 28.9311C4.4296 28.9444 4.53717 29.1359 4.51947 29.3682Z" fill="white"/>
<path d="M4.94976 27.7828C5.00641 27.4059 4.85772 27.0756 4.54617 27.0287C4.32613 26.9958 4.14177 27.1368 4.03365 27.3403C3.99035 27.1464 3.87951 26.9745 3.66492 26.9424C3.36645 26.8974 3.1385 27.1687 3.08812 27.5037C3.03937 27.8283 3.16901 28.1608 3.47538 28.2068C3.67963 28.2373 3.83649 28.1191 3.9446 27.9345C3.98572 28.1602 4.12024 28.3517 4.34274 28.3849C4.65156 28.4312 4.89284 28.1622 4.94976 27.7825V27.7828ZM3.88931 27.6238C3.855 27.782 3.72946 27.9748 3.54373 27.9467C3.38387 27.9228 3.29019 27.7452 3.32124 27.5385C3.35228 27.3315 3.49444 27.1869 3.65403 27.2109C3.83458 27.2381 3.90347 27.4571 3.88931 27.6238ZM4.71692 27.7479C4.68234 27.9783 4.53474 28.1409 4.35936 28.1145C4.16818 28.0856 4.08839 27.8329 4.10964 27.6567C4.1415 27.4794 4.29154 27.2637 4.48272 27.2923C4.6581 27.3185 4.7515 27.5173 4.71719 27.7477L4.71692 27.7479Z" fill="white"/>
<path d="M5.19255 26.2254C5.25274 25.8357 5.073 25.5427 4.76935 25.4958C4.51826 25.4569 4.35187 25.6323 4.28079 25.8142C4.2522 25.6167 4.13782 25.4384 3.9156 25.404C3.62774 25.3597 3.387 25.5824 3.3309 25.9462C3.28569 26.2393 3.39027 26.4645 3.54931 26.6309L3.73695 26.4912C3.60977 26.343 3.53706 26.1897 3.56593 26.0013C3.59834 25.7918 3.74294 25.6535 3.91042 25.6794C4.09098 25.7071 4.16586 25.882 4.13073 26.1096L4.09778 26.3057L4.33335 26.3419L4.36357 26.1456C4.40251 25.8757 4.52317 25.7363 4.70917 25.7649C4.88972 25.7927 4.98967 25.961 4.95372 26.1938C4.92186 26.4005 4.79794 26.5609 4.63291 26.6587L4.78188 26.8558C4.97605 26.7439 5.14544 26.5315 5.19255 26.2254Z" fill="white"/>
<path d="M5.3206 25.3089L5.69123 24.0685L5.45268 23.9974L5.20322 24.8318L4.98018 24.3204C4.82632 23.9481 4.67435 23.7812 4.44096 23.7114C4.12397 23.6167 3.83612 23.8125 3.7389 24.1371C3.65611 24.4135 3.72175 24.657 3.88678 24.8721L4.09048 24.7452C3.96957 24.5764 3.90992 24.4067 3.96657 24.2163C4.01804 24.0439 4.1768 23.9198 4.36716 23.9767C4.52457 24.0238 4.64767 24.1572 4.77321 24.4489L5.10954 25.246L5.32032 25.3089H5.3206Z" fill="white"/>
<path d="M4.94952 22.6817C4.88253 22.8716 4.90622 23.0736 5.01161 23.2289C4.63498 23.0872 4.42257 22.7901 4.51543 22.5282C4.57099 22.371 4.67638 22.2874 4.81172 22.2144L4.66303 22.0156C4.49882 22.1063 4.36347 22.2354 4.28913 22.4451C4.14071 22.8645 4.42638 23.3111 4.94571 23.4946C5.43481 23.6678 5.87816 23.597 6.04701 23.1205C6.175 22.7585 6.01978 22.4116 5.69053 22.295C5.35121 22.1749 5.06117 22.3672 4.94979 22.6817H4.94952ZM5.8286 23.0548C5.74908 23.2795 5.54103 23.3435 5.28068 23.3018C5.12927 23.1978 5.07343 23.0066 5.14042 22.8171C5.21449 22.6074 5.40104 22.4851 5.61073 22.5595C5.78312 22.6205 5.91084 22.8231 5.8286 23.0551V23.0548Z" fill="white"/>
<path d="M6.45326 21.8993L6.54694 21.6461L4.84078 21.0156L4.76562 21.2191L4.90506 21.7817L5.12483 21.7444L5.04531 21.3789L6.45326 21.8993Z" fill="white"/>
<path fill-rule="evenodd" clip-rule="evenodd" d="M4.71658 41.0789C4.50416 40.6764 4.68308 40.2137 5.04501 40.0212C5.3315 39.8689 5.67137 39.9101 5.91292 40.1075C5.98863 40.1696 6.05807 40.2521 6.11008 40.3515C6.32141 40.7554 6.14603 41.2235 5.78329 41.4147C5.62125 41.4999 5.46685 41.5176 5.29828 41.4964C5.17846 41.4811 5.12534 41.4474 5.03384 41.4065C4.91646 41.3537 4.78384 41.2058 4.71712 41.0789H4.71658ZM5.80426 41.5182C6.23154 41.3109 6.43606 40.7831 6.21439 40.3273C5.93198 39.7472 5.14686 39.6571 4.73673 40.1394C4.66429 40.2246 4.60492 40.3308 4.57742 40.4141C4.50144 40.6429 4.49872 40.8711 4.61419 41.1083C4.71059 41.3063 4.91157 41.4901 5.11228 41.5549C5.34594 41.6304 5.56407 41.6347 5.80454 41.5182H5.80426Z" fill="white"/>
<path fill-rule="evenodd" clip-rule="evenodd" d="M5.62222 40.5178C5.63856 40.5532 5.64292 40.5704 5.62957 40.5971C5.59553 40.6649 5.46182 40.8207 5.40191 40.8751C5.38176 40.8934 5.36215 40.9078 5.339 40.9236C5.32729 40.9315 5.31259 40.9418 5.29788 40.9448C5.28127 40.9478 5.27718 40.9416 5.27255 40.9391C5.27173 40.9388 5.27091 40.9372 5.26928 40.9372C5.26737 40.9375 5.2671 40.9358 5.26601 40.9353L5.05469 41.173C5.28263 41.2654 5.52282 41.0576 5.66416 40.8849C5.7287 40.8059 5.77799 40.7368 5.82592 40.6496C5.8763 40.5581 5.93294 40.3637 5.8379 40.2891L5.62195 40.5178H5.62222Z" fill="white"/>
<path fill-rule="evenodd" clip-rule="evenodd" d="M5.59282 40.5007C5.61243 40.4846 5.80551 40.2659 5.81068 40.254C5.78699 40.2292 5.73933 40.1747 5.70339 40.1902C5.68459 40.1984 5.52446 40.3795 5.51793 40.3928C5.50268 40.4228 5.56723 40.486 5.5931 40.5007H5.59282Z" fill="white"/>
<path fill-rule="evenodd" clip-rule="evenodd" d="M5.01779 41.1491L5.2343 40.9062C5.22014 40.8885 5.20162 40.8746 5.18555 40.8602C5.12618 40.8068 5.11693 40.8449 5.02815 40.9416C5.01453 40.9563 4.9459 41.0298 4.93991 41.0407C4.9233 41.0715 4.99737 41.1388 5.01779 41.1489V41.1491Z" fill="white"/>
<path d="M55.6629 23.1143C55.6035 22.9111 55.4594 22.7766 55.2696 22.7216L55.4957 22.6554L55.4229 22.4062L53.6719 22.918L53.7446 23.1671L54.4104 22.9724C54.2775 23.1217 54.2285 23.3126 54.2879 23.5157C54.3889 23.8613 54.7492 24.0375 55.1534 23.9193C55.5548 23.8019 55.7636 23.4599 55.6626 23.114L55.6629 23.1143ZM54.4889 23.3913C54.4197 23.1549 54.5657 22.9275 54.8402 22.8471C55.1147 22.7671 55.3576 22.8809 55.4265 23.117C55.497 23.3586 55.3538 23.5852 55.0793 23.6655C54.8048 23.7456 54.5594 23.6325 54.4889 23.3913Z" fill="white"/>
<path d="M56.0974 24.5672C56.0541 24.4226 55.9667 24.269 55.8169 24.1094L55.659 24.2562C55.7513 24.3528 55.8401 24.4645 55.8788 24.5939C55.9569 24.855 55.8047 24.9836 55.6397 25.0328L55.5991 25.0448C55.6042 24.9051 55.5906 24.7572 55.552 24.6279C55.4656 24.3387 55.22 24.1549 54.9586 24.233C54.7023 24.3095 54.6015 24.5636 54.6849 24.8428C54.7325 25.0026 54.86 25.1606 55.0258 25.2161L54.8458 25.27L54.9193 25.5162L55.7135 25.279C56.0381 25.1821 56.2031 24.9201 56.0977 24.5674L56.0974 24.5672ZM54.8973 24.8319C54.848 24.6668 54.8962 24.5143 55.0384 24.4718C55.1805 24.4294 55.3232 24.547 55.3755 24.7221C55.4142 24.8517 55.4327 24.9787 55.4316 25.0949L55.2565 25.1472C55.0814 25.1527 54.9455 24.9942 54.897 24.8319H54.8973Z" fill="white"/>
<path d="M55.3223 26.4766C55.2891 26.4521 55.2599 26.4031 55.2512 26.3456C55.2395 26.2697 55.2978 26.1964 55.392 26.182L56.1693 26.0619L56.2186 26.381L56.4383 26.3473L56.389 26.0281L56.7605 25.9706L56.7213 25.7168L56.3498 25.7743L56.3182 25.5703L56.0985 25.6041L56.1301 25.8081L55.3346 25.9309C55.1173 25.9644 54.9882 26.1343 55.0206 26.3437C55.0356 26.4407 55.0876 26.5344 55.1589 26.5984L55.3223 26.4766Z" fill="white"/>
<path d="M56.2743 26.9709L56.5336 26.9309L56.4935 26.6719L55.1406 26.8808L55.1806 27.1397L55.95 27.021C56.1891 27.0082 56.374 27.1833 56.4173 27.4633L56.6422 27.4284C56.6063 27.1956 56.4655 27.0297 56.2743 26.9709Z" fill="white"/>
<path d="M56.903 27.7916C56.9155 27.8755 56.9997 27.9351 57.0833 27.9226C57.1644 27.9103 57.2271 27.8286 57.2145 27.745C57.2012 27.656 57.1176 27.5988 57.0364 27.611C56.9528 27.6236 56.8896 27.7028 56.9027 27.7916H56.903ZM55.3047 27.8972L55.3436 28.1565L56.6974 27.9536L56.6584 27.6944L55.3047 27.8972Z" fill="white"/>
<path d="M55.4163 29.1802C55.4316 29.3837 55.5293 29.5539 55.674 29.6759L55.8218 29.4869C55.7205 29.4098 55.653 29.2927 55.6434 29.1658C55.6244 28.915 55.8308 28.6922 56.0974 28.6721C56.3613 28.6522 56.5988 28.8412 56.6173 29.0895C56.6268 29.2162 56.5805 29.3393 56.4942 29.428L56.6712 29.5925C56.7908 29.4534 56.8591 29.2704 56.8444 29.0751C56.8147 28.6843 56.4651 28.379 56.0773 28.4082C55.6892 28.4376 55.3866 28.7922 55.416 29.1802H55.4163Z" fill="white"/>
<path d="M56.8957 31.2093L56.8946 30.8915L56.1939 30.2235L57.3747 30.2205L57.3742 29.9609L55.5234 29.9658L55.524 30.2254L55.8761 30.2243L56.0994 30.4435L55.5259 30.8741L55.5267 31.1864L56.2743 30.6203L56.8957 31.2093Z" fill="white"/>
<path d="M56.9017 32.122C56.9022 31.9369 56.8075 31.7696 56.6727 31.6874L56.8712 31.6879L56.872 31.4257L55.5033 31.4219L55.5024 31.6841L56.3894 31.6866C56.5509 31.7081 56.6748 31.8726 56.6743 32.0632C56.6737 32.2487 56.5305 32.378 56.3265 32.3775L55.5006 32.3753L55.5 32.6321L56.3709 32.6346C56.6808 32.6354 56.9009 32.4243 56.902 32.1223L56.9017 32.122Z" fill="white"/>
<path d="M57.0688 33.2604C57.0622 33.3449 57.1309 33.4219 57.2156 33.4282C57.2973 33.4345 57.3768 33.3686 57.383 33.2841C57.3899 33.1943 57.3212 33.1202 57.2392 33.1139C57.1548 33.1077 57.0756 33.1706 57.0688 33.2604ZM55.0247 32.8697C55.0086 33.0834 55.1529 33.2457 55.3722 33.2624L56.8321 33.3727L56.852 33.1112L55.4051 33.0017C55.3103 32.9947 55.2458 32.9312 55.2523 32.8468C55.2564 32.7939 55.2719 32.7289 55.2907 32.6905L55.09 32.6406C55.0595 32.694 55.0312 32.7877 55.0249 32.8694L55.0247 32.8697Z" fill="white"/>
<path d="M56.658 34.7768L55.7809 34.6453C55.6243 34.6003 55.5257 34.4195 55.5538 34.2311C55.5813 34.0478 55.7419 33.9408 55.9434 33.971L56.7604 34.0933L56.7986 33.8394L55.9372 33.7104C55.6308 33.6643 55.3822 33.8414 55.3375 34.1398C55.31 34.3231 55.3797 34.5023 55.5009 34.6033L55.3046 34.5739L55.2656 34.8332L56.6194 35.0361L56.6583 34.7768H56.658Z" fill="white"/>
<path d="M56.3885 36.9556C56.4201 36.7516 56.342 36.5626 56.1843 36.4741C56.3638 36.4215 56.4931 36.278 56.5236 36.0817C56.5503 35.909 56.4858 35.7543 56.3627 35.6656L56.5511 35.6947L56.5912 35.4354L55.2385 35.2266L55.1985 35.4858L56.0435 35.6163C56.2292 35.6449 56.3365 35.8009 56.3066 35.9943C56.2804 36.1645 56.1236 36.2609 55.9248 36.2301L55.1032 36.1032L55.0639 36.357L55.9092 36.4874C56.095 36.5163 56.2023 36.6721 56.1723 36.8657C56.1462 37.0356 55.9893 37.1321 55.7905 37.1013L54.9689 36.9744L54.9297 37.2282L55.7905 37.3611C56.0966 37.4085 56.3453 37.2377 56.3891 36.955L56.3885 36.9556Z" fill="white"/>
<path d="M55.7088 39.4477C55.7679 39.25 55.7165 39.052 55.5724 38.9428C55.7576 38.915 55.9052 38.7905 55.9621 38.6005C56.0119 38.4332 55.9695 38.2712 55.8597 38.1664L56.0424 38.2211L56.1176 37.97L54.8061 37.5781L54.7309 37.8292L55.5503 38.074C55.7303 38.128 55.8153 38.2968 55.7592 38.4844C55.7099 38.6495 55.5414 38.7235 55.3488 38.6658L54.5523 38.4278L54.4787 38.674L55.2982 38.9188C55.4782 38.9727 55.5631 39.1416 55.507 39.3295C55.4578 39.4942 55.2892 39.5683 55.0967 39.5106L54.3001 39.2726L54.2266 39.5187L55.0612 39.7682C55.3581 39.857 55.6277 39.7219 55.7097 39.4479L55.7088 39.4477Z" fill="white"/>
<path d="M53.5278 39.9105C53.4624 40.0952 53.5087 40.2676 53.7059 40.4449L54.8973 41.5287L54.9918 41.273L54.1228 40.5086L55.2884 40.4707L55.3856 40.2074L53.8905 40.2815L53.7778 40.1665C53.7187 40.0968 53.7143 40.0328 53.7435 39.9536C53.7617 39.904 53.7955 39.8514 53.841 39.812L53.6724 39.6875C53.6127 39.7417 53.5599 39.8237 53.5278 39.9108V39.9105Z" fill="white"/>
<path d="M53.2697 41.7712C53.1426 42.0419 53.1978 42.3107 53.4328 42.4207C53.6796 42.5367 53.8492 42.3499 54.0047 42.1743C54.1673 41.9962 54.2321 41.933 54.328 41.9779C54.4214 42.0217 54.4293 42.1424 54.3718 42.2647C54.3212 42.3725 54.2221 42.4782 54.0913 42.5631L54.2169 42.7508C54.3686 42.6582 54.5001 42.5209 54.5755 42.3605C54.6992 42.0969 54.6395 41.8377 54.4105 41.7333C54.2093 41.6388 54.0614 41.7421 53.8484 41.9902C53.7335 42.1233 53.6376 42.2336 53.5227 42.1794C53.4269 42.1345 53.4072 42.0084 53.4723 41.8692C53.541 41.723 53.6624 41.6075 53.8201 41.5207L53.703 41.3281C53.5134 41.4204 53.3552 41.589 53.2697 41.7715V41.7712Z" fill="white"/>
<path fill-rule="evenodd" clip-rule="evenodd" d="M54.9171 21.2314C54.8673 21.2592 54.7892 21.2897 54.7333 21.3148C54.6742 21.3415 54.1974 21.5599 54.1811 21.562C54.1326 21.5882 54.0509 21.595 53.9964 21.5887C53.9907 21.5882 53.9888 21.5876 53.982 21.5866C53.979 21.586 53.9743 21.5852 53.9697 21.5846L53.9656 21.5841C53.9648 21.5841 53.964 21.5838 53.9635 21.5838L53.9436 21.5792C53.9136 21.5713 53.9199 21.5708 53.8913 21.5607C53.8845 21.5585 53.8845 21.5593 53.8777 21.556C53.873 21.5539 53.8714 21.5522 53.8668 21.5501C53.8608 21.5471 53.8592 21.5465 53.8543 21.5438L53.8434 21.537C53.8123 21.5171 53.7799 21.497 53.7568 21.4645L53.757 21.4637C53.7519 21.4602 53.7595 21.4673 53.7505 21.4586L53.7263 21.4245L53.7268 21.4242L53.7159 21.4147C53.7148 21.4133 53.7094 21.4057 53.7086 21.4041C53.7031 21.3935 53.7037 21.3891 53.6999 21.3804L53.3663 20.6448C53.3692 20.6391 53.3559 20.6372 53.3736 20.6413C53.3616 20.6342 53.3695 20.6429 53.3646 20.6323C53.3559 20.6141 53.3616 20.6293 53.3643 20.6203L53.3638 20.6206C53.3572 20.6056 53.354 20.58 53.3523 20.5656C53.3474 20.5196 53.3507 20.4953 53.3584 20.4523C53.3635 20.4243 53.3692 20.4063 53.3804 20.3799L53.4278 20.299C53.4387 20.2851 53.4471 20.2723 53.4599 20.263L53.461 20.2628L53.4874 20.2363C53.4969 20.2282 53.5084 20.2192 53.5193 20.2121L53.5207 20.2135C53.5212 20.2129 53.522 20.2118 53.5225 20.2113C53.5231 20.2107 53.5236 20.2097 53.5245 20.2091L53.5525 20.193L54.3077 19.8524C54.3156 19.8485 54.3183 19.848 54.3259 19.8455C54.327 19.845 54.3344 19.8426 54.336 19.8423C54.3463 19.8404 54.3406 19.842 54.3442 19.842V19.8401C54.4005 19.8251 54.494 19.8246 54.5422 19.8415L54.5844 19.8553C54.5961 19.8583 54.5947 19.8605 54.6032 19.8643C54.6149 19.8695 54.6492 19.8859 54.6478 19.894L54.65 19.8921C54.6508 19.8924 54.6519 19.8929 54.6524 19.8932L54.6606 19.8981C54.6633 19.9 54.6658 19.9022 54.6696 19.9049L54.6691 19.9055C54.6702 19.906 54.671 19.9063 54.6715 19.9066L54.6761 19.9093C54.6767 19.9098 54.6772 19.9104 54.6781 19.9109C54.6876 19.9183 54.6936 19.9221 54.6925 19.9292L54.6949 19.9275L54.7004 19.933L54.7064 19.9381L54.7181 19.9504L54.7243 19.9569L54.7434 19.9863L54.7469 19.9874C54.7494 19.9828 54.7459 19.9844 54.7505 19.9896C54.751 19.9904 54.7559 19.997 54.7559 19.997C54.7606 20.004 54.7622 20.0073 54.7663 20.0147C54.7862 20.0367 54.9199 20.3483 54.9444 20.4025C54.97 20.4591 55.1127 20.7619 55.1143 20.793L55.1244 20.8445L55.1247 20.8534C55.1266 20.86 55.1271 20.8619 55.1271 20.8679L55.126 20.8785L55.1268 20.8929L55.1258 20.8997L55.1252 20.9065L55.126 20.9125L55.125 20.9185L55.1241 20.9251V20.9297L55.1236 20.936L55.1228 20.9419L55.1222 20.9466L55.12 20.9569L55.1192 20.9665C55.1217 20.9716 55.1228 20.97 55.1181 20.9719C55.1176 20.9801 55.1176 20.9752 55.1154 20.9749L55.1138 20.9776C55.1195 20.9793 55.1173 20.9771 55.1154 20.9812L55.1149 20.9852C55.1168 20.9899 55.1176 20.988 55.1132 20.9902C55.11 20.9923 55.1086 20.9888 55.1075 20.9983C55.114 20.9863 55.1048 20.9948 55.1124 20.9923C55.1135 20.9921 55.1141 20.9937 55.1149 20.994C55.1146 20.9945 55.1143 20.9956 55.1141 20.9959L55.0691 21.0947C55.0628 21.1048 55.0566 21.1141 55.0484 21.1244C55.0103 21.1715 54.979 21.1968 54.9169 21.2312L54.9171 21.2314ZM54.3039 19.7015L53.4419 20.0904C53.2644 20.1704 53.1606 20.3763 53.1936 20.5648C53.1987 20.5942 53.2045 20.6255 53.2189 20.6574L53.6029 21.5087C53.6141 21.5332 53.6372 21.5683 53.6525 21.5857C53.7088 21.6514 53.7611 21.6919 53.8431 21.723C53.8793 21.7366 53.8782 21.7358 53.9158 21.7442C53.9283 21.7472 53.9406 21.7489 53.9529 21.7499C54.0196 21.7562 54.0969 21.7519 54.1677 21.72L55.0454 21.324C55.1481 21.2777 55.2249 21.1816 55.2633 21.0806C55.3011 20.9812 55.3039 20.8556 55.2562 20.75L54.8817 19.9196C54.8564 19.8633 54.808 19.8047 54.7723 19.7753C54.6424 19.6683 54.4654 19.6282 54.3041 19.7009L54.3039 19.7015Z" fill="white"/>
<path fill-rule="evenodd" clip-rule="evenodd" d="M54.1315 20.3919C54.144 20.3843 54.1552 20.3818 54.1701 20.3788L54.1816 20.378L54.184 20.3772C54.1906 20.3747 54.1922 20.3747 54.1982 20.3739C54.202 20.3734 54.2015 20.3734 54.2053 20.3734C54.2096 20.3731 54.2102 20.3734 54.2123 20.3739L54.2211 20.3723L54.2292 20.3717L54.2363 20.3709L54.2576 20.3717L54.2644 20.3715L54.2826 20.3725L54.2878 20.3731L54.2984 20.3745L54.309 20.3758C54.3109 20.3764 54.3131 20.3766 54.3148 20.3772C54.315 20.3772 54.3158 20.3777 54.3169 20.3777C54.3177 20.3774 54.3183 20.3783 54.3191 20.3783L54.3229 20.3788L54.3322 20.3818L54.3363 20.3821C54.3414 20.3796 54.3395 20.3791 54.3417 20.3837L54.3447 20.3853L54.3482 20.3875L54.3537 20.3892L54.3578 20.39L54.3619 20.3913L54.366 20.3927L54.3698 20.3941L54.3739 20.396L54.3774 20.3976L54.3815 20.3998L54.3935 20.4036C54.3986 20.4011 54.3967 20.4006 54.3992 20.406L54.4111 20.4129L54.4144 20.4153L54.4231 20.4205L54.4324 20.4265L54.4416 20.433L54.4457 20.436C54.4506 20.4374 54.4466 20.4306 54.4509 20.4401L54.4754 20.4611C54.4801 20.4619 54.4765 20.4551 54.4809 20.4668L54.488 20.4722L54.4934 20.4779L54.5065 20.4932L54.5144 20.5016C54.5304 20.5147 54.5677 20.5869 54.5699 20.6106L54.5751 20.6291L54.5781 20.6419L54.58 20.6637L54.5814 20.665C54.5822 20.6713 54.5822 20.677 54.5819 20.6814L54.5822 20.6895C54.5882 20.701 54.5849 20.6931 54.5827 20.6972L54.583 20.704V20.7105L54.5827 20.7176V20.7241C54.5852 20.7296 54.5863 20.7279 54.5816 20.7301L54.5786 20.7307C54.5797 20.732 54.5803 20.7309 54.5816 20.7353C54.5819 20.7361 54.5814 20.7407 54.5814 20.741L54.5803 20.747L54.58 20.7524L54.5781 20.7628L54.5759 20.7729L54.5765 20.7764C54.5759 20.78 54.5759 20.78 54.5748 20.783C54.5746 20.7835 54.5732 20.7849 54.5737 20.7851C54.5746 20.7851 54.5732 20.7865 54.5727 20.7873C54.5669 20.8001 54.5721 20.8007 54.5648 20.8118L54.5639 20.8159L54.5628 20.8203L54.5612 20.8241C54.5629 20.8279 54.5634 20.8262 54.5593 20.8282L54.5574 20.8317C54.5549 20.8459 54.55 20.8423 54.5473 20.8559L54.5432 20.8636C54.5422 20.8652 54.5413 20.8663 54.5405 20.8682C54.5424 20.8725 54.5427 20.8706 54.5373 20.8731L54.5356 20.8766C54.5375 20.8813 54.5381 20.8794 54.5329 20.8815L54.5261 20.89L54.5231 20.8949L54.5168 20.9044L54.5133 20.9088L54.5103 20.9129C54.5089 20.9175 54.5168 20.915 54.5057 20.9178C54.5048 20.9235 54.5116 20.9183 54.5016 20.9243L54.4972 20.9289L54.4874 20.9406L54.482 20.9461L54.4419 20.9801L54.4297 20.9886C54.4256 20.9926 54.3883 21.015 54.379 21.0191C54.37 21.0231 54.3311 21.0351 54.3251 21.0359L54.3104 21.0398L54.2856 21.0438L54.2674 21.0463L54.2581 21.046L54.2502 21.0471L54.2423 21.0463L54.2352 21.0471L54.229 21.0466C54.2186 21.0509 54.2265 21.0485 54.2219 21.046L54.2213 21.043C54.2175 21.0463 54.2284 21.0441 54.2143 21.0468L54.1565 21.0376L54.1568 21.0343C54.1562 21.0349 54.1557 21.0357 54.1552 21.0359C54.1486 21.0392 54.1451 21.0357 54.1282 21.0319C54.098 21.0253 54.0988 21.0177 54.0757 21.0084C54.0729 21.0074 54.0713 21.0071 54.068 21.0054C54.0509 20.9965 54.0166 20.9698 54.0029 20.9578C53.9931 20.9493 53.9596 20.9186 53.9637 20.9066L53.9615 20.9088C53.9509 20.9009 53.9463 20.8881 53.9346 20.8682C53.9169 20.839 53.9052 20.793 53.8997 20.7579L53.8989 20.7386C53.9 20.7377 53.8992 20.7367 53.8995 20.7358L53.9022 20.735C53.9016 20.7345 53.9008 20.7339 53.9005 20.7334C53.894 20.7233 53.8989 20.723 53.8992 20.7214L53.9022 20.7211C53.8995 20.7187 53.8992 20.7195 53.8975 20.7132C53.8951 20.7026 53.9046 20.6506 53.9068 20.6378C53.9076 20.6337 53.9071 20.6334 53.9084 20.6294L53.9199 20.5923C53.9297 20.5703 53.967 20.5 53.9863 20.4886C53.991 20.4856 53.9904 20.4872 53.9929 20.4869L53.9904 20.4848L54.007 20.467H54.0081C54.0095 20.4651 54.0095 20.4643 54.0127 20.4608C54.0146 20.4589 54.016 20.4581 54.0182 20.4562C54.0228 20.4523 54.0242 20.4507 54.0302 20.4477L54.0321 20.4466C54.0378 20.4382 54.043 20.4371 54.0509 20.4314C54.0626 20.4232 54.0601 20.4237 54.0757 20.4183C54.0778 20.4115 54.1285 20.3881 54.1331 20.3924L54.1315 20.3919ZM54.2823 20.2508L54.2818 20.25C54.2747 20.2582 54.2728 20.2549 54.2611 20.2535C54.2232 20.2497 54.1691 20.2568 54.1317 20.2663C54.1233 20.2685 54.117 20.2715 54.1091 20.2707L54.1075 20.2682C54.1062 20.2696 54.1105 20.2715 54.092 20.2775C54.059 20.2881 54.0732 20.2851 54.0435 20.2977L53.9964 20.3233C53.9882 20.3287 53.9899 20.3279 53.9836 20.3273L53.9817 20.3282C53.982 20.3371 53.9806 20.3342 53.9719 20.3404L53.9365 20.3682C53.9305 20.3731 53.9286 20.3758 53.9253 20.3791L53.9095 20.3949C53.9024 20.4025 53.9005 20.4055 53.894 20.4058L53.8956 20.408L53.8237 20.5242C53.8208 20.5324 53.8177 20.5349 53.8142 20.5449L53.7881 20.6509C53.787 20.659 53.7862 20.6642 53.7856 20.674L53.784 20.7421L53.7812 20.7435C53.7851 20.7451 53.787 20.7339 53.7873 20.7579C53.7873 20.7587 53.7875 20.7617 53.7875 20.7625C53.7875 20.7696 53.7875 20.7669 53.787 20.7702L53.7843 20.7707C53.7889 20.7726 53.7867 20.7702 53.7891 20.7759C53.7913 20.7808 53.7946 20.8129 53.8031 20.8336V20.8404C53.8325 20.9115 53.8398 20.9401 53.8921 21.0033L53.9289 21.0436L53.9299 21.0441C53.9408 21.0506 53.9648 21.073 53.989 21.0885C54.0092 21.1016 54.0634 21.131 54.0841 21.1375L54.1274 21.1498C54.1282 21.1501 54.129 21.1503 54.1293 21.1503L54.1906 21.1634L54.1922 21.162C54.1974 21.1599 54.1955 21.1588 54.1976 21.1634L54.1982 21.1664C54.2036 21.1612 54.2064 21.1628 54.214 21.1631L54.2663 21.1634C54.2799 21.1623 54.2902 21.1615 54.3028 21.1593C54.3311 21.1547 54.3363 21.1495 54.3327 21.1574L54.3346 21.1585C54.3401 21.1501 54.3507 21.1495 54.3619 21.1468C54.3738 21.1443 54.3793 21.1394 54.3899 21.14L54.3935 21.1378L54.4594 21.1078L54.4632 21.1067L54.4762 21.0969C54.4831 21.0926 54.4825 21.0934 54.4893 21.0888C54.4999 21.0814 54.5027 21.0763 54.5141 21.0776L54.5147 21.0757C54.5089 21.0708 54.5114 21.0752 54.5171 21.0689L54.5441 21.0466C54.5841 21.0109 54.601 20.9877 54.6287 20.9434L54.6426 20.918C54.647 20.909 54.6497 20.9085 54.653 20.8998L54.6816 20.817C54.6843 20.8115 54.681 20.8143 54.6857 20.8134L54.6873 20.8115C54.687 20.811 54.6865 20.8102 54.6862 20.8099C54.6862 20.8096 54.6854 20.8085 54.6854 20.8083L54.6843 20.8047C54.684 20.8028 54.6998 20.7356 54.6925 20.6615C54.6903 20.6389 54.6835 20.6029 54.6753 20.5784C54.6715 20.5662 54.6652 20.5452 54.6601 20.5332C54.6541 20.5196 54.6407 20.4975 54.6424 20.4877L54.6399 20.4894L54.6287 20.4744C54.6257 20.4684 54.6255 20.4684 54.6214 20.4619C54.616 20.4537 54.6099 20.4447 54.604 20.4368C54.5672 20.3864 54.5427 20.3663 54.4945 20.3328C54.4915 20.3306 54.4877 20.3273 54.4885 20.3224L54.4863 20.3227C54.4822 20.3268 54.4833 20.3246 54.4757 20.3208L54.4506 20.3058C54.4471 20.3039 54.446 20.3036 54.443 20.3026C54.4425 20.3023 54.4359 20.305 54.4392 20.3012C54.4395 20.3009 54.4379 20.3007 54.4373 20.3007C54.4398 20.2952 54.4368 20.2966 54.4414 20.296C54.4343 20.2919 54.4398 20.2949 54.4354 20.2968C54.4264 20.2963 54.4319 20.2971 54.4242 20.2944C54.4201 20.2928 54.4212 20.2933 54.4166 20.2914C54.4101 20.2884 54.4068 20.2859 54.4 20.2832C54.3932 20.2808 54.3894 20.2802 54.3823 20.2781C54.3777 20.2767 54.3771 20.2767 54.3725 20.2748C54.3719 20.2745 54.3709 20.2742 54.3706 20.274L54.3638 20.2699C54.3627 20.2647 54.3689 20.2674 54.3608 20.2647C54.3635 20.2693 54.363 20.2644 54.3608 20.271L54.3148 20.2598C54.2927 20.2574 54.2802 20.2587 54.2818 20.2508H54.2823Z" fill="white"/>
<path fill-rule="evenodd" clip-rule="evenodd" d="M54.9726 20.8507L54.9666 20.8442L54.9506 20.8314L54.9462 20.8278L54.9424 20.8243L54.9378 20.8229C54.9331 20.8248 54.935 20.8254 54.9326 20.8199C54.9203 20.8139 54.9162 20.8129 54.904 20.8082C54.8988 20.8104 54.9004 20.8115 54.8983 20.8069L54.8887 20.8055C54.8828 20.8055 54.8746 20.8047 54.8708 20.8047H54.864L54.855 20.8058L54.8304 20.8101L54.8187 20.815L54.8076 20.8197C54.7803 20.8368 54.7488 20.866 54.7406 20.8973C54.739 20.903 54.7384 20.9087 54.7376 20.9139C54.7368 20.9196 54.7357 20.9245 54.7351 20.9302C54.7283 20.9863 54.7684 21.0476 54.8133 21.0639C54.8198 21.0664 54.8218 21.0664 54.8286 21.0694C54.8634 21.0844 54.9021 21.0757 54.9369 21.0582C54.9707 21.0416 54.9993 20.998 55.0042 20.964L55.0072 20.9466L55.0099 20.9458C55.0083 20.9441 55.0077 20.9458 55.0064 20.9409C55.0047 20.9357 55.0061 20.9362 55.0064 20.9332C55.0034 20.9188 55.002 20.9044 54.9966 20.8891C54.9914 20.8747 54.98 20.8635 54.9726 20.8502V20.8507Z" fill="white"/>
<path fill-rule="evenodd" clip-rule="evenodd" d="M54.7473 19.9896L54.7596 20.0095C54.7601 20.01 54.7607 20.0108 54.7612 20.0114L54.7667 20.0168C54.7849 20.0688 54.9086 20.3327 54.9418 20.4063L55.0951 20.7464C55.1033 20.7641 55.1076 20.7826 55.115 20.7954C55.1131 20.8003 55.1174 20.8145 55.1185 20.821C55.1201 20.8292 55.1202 20.8374 55.1251 20.8472C55.1229 20.8526 55.1196 20.8428 55.1253 20.8562C55.1231 20.8646 55.1237 20.8706 55.1267 20.8812C55.125 20.888 55.1245 20.8872 55.1275 20.8956L55.1264 20.9024L55.1259 20.9093L55.1267 20.9152L55.1256 20.9212L55.1248 20.9278V20.9324L55.1242 20.9387L55.1234 20.9447L55.1229 20.9493C55.1188 20.9556 55.1196 20.9512 55.1207 20.9596C55.1177 20.9656 55.1177 20.9621 55.1199 20.9692C55.1152 20.9716 55.1161 20.97 55.1188 20.9746C55.1144 20.9746 55.115 20.9735 55.1161 20.9776C55.1182 20.9779 55.118 20.9831 55.1188 20.9746C55.1234 20.9727 55.1223 20.9741 55.1199 20.9692L55.1207 20.9596L55.1229 20.9493L55.1234 20.9447L55.1242 20.9387L55.1248 20.9324V20.9278L55.1256 20.9212L55.1267 20.9152L55.1259 20.9093L55.1264 20.9024L55.1275 20.8956L55.1267 20.8812L55.1278 20.8706C55.1275 20.8646 55.1272 20.8627 55.1253 20.8562L55.1251 20.8472L55.115 20.7957C55.1131 20.7649 54.9704 20.4618 54.945 20.4052C54.9205 20.351 54.7868 20.0392 54.7669 20.0174C54.7628 20.01 54.7612 20.0068 54.7566 19.9997C54.7566 19.9997 54.7517 19.9931 54.7512 19.9923C54.7465 19.9871 54.7498 19.9855 54.7476 19.9901L54.7473 19.9896ZM55.1166 20.9841C55.1131 20.9858 55.1136 20.9847 55.1161 20.9882C55.1112 20.9896 55.1123 20.9882 55.1144 20.9931C55.1188 20.9912 55.118 20.9929 55.1161 20.9882L55.1166 20.9841C55.1188 20.9801 55.1207 20.9822 55.115 20.9806L55.1166 20.9841ZM54.7247 19.9591L54.7185 19.9526L54.7067 19.9403L54.7008 19.9351C54.707 19.9482 54.7018 19.9392 54.7067 19.9403C54.7117 19.9504 54.7103 19.9482 54.7185 19.9526C54.7237 19.9654 54.7196 19.9569 54.7247 19.9591C54.7302 19.9724 54.737 19.9746 54.7438 19.9885L54.7247 19.9591Z" fill="white"/>
<path fill-rule="evenodd" clip-rule="evenodd" d="M54.1797 21.5583L54.1816 21.561C54.1977 21.5588 54.6748 21.3404 54.7339 21.3137C54.7894 21.2887 54.8679 21.2581 54.9177 21.2304L54.9158 21.2266L54.18 21.5585L54.1797 21.5583Z" fill="white"/>
<path fill-rule="evenodd" clip-rule="evenodd" d="M53.3732 20.6382L53.3637 20.6172C53.3612 20.6262 53.3552 20.6109 53.364 20.6292C53.3691 20.6398 53.361 20.6311 53.3729 20.6382H53.3732ZM53.7261 21.4211C53.7237 21.4154 53.7231 21.414 53.7199 21.4091C53.6956 21.3691 53.5671 21.0758 53.5475 21.0322C53.5241 20.9805 53.3743 20.6638 53.3729 20.6384C53.3552 20.6343 53.3686 20.636 53.3656 20.642L53.6992 21.3775C53.703 21.386 53.7022 21.3906 53.7079 21.4012C53.7087 21.4029 53.7139 21.4105 53.7152 21.4118L53.7261 21.4214V21.4211Z" fill="white"/>
<path fill-rule="evenodd" clip-rule="evenodd" d="M53.3578 20.6154C53.3578 20.6146 53.3586 20.6132 53.358 20.6132L53.3578 20.6042C53.3488 20.5519 53.3496 20.5748 53.3483 20.5263L53.3507 20.4789C53.3507 20.4784 53.3507 20.4773 53.351 20.4768L53.4131 20.3104C53.4136 20.3098 53.4139 20.3093 53.4142 20.3087L53.4403 20.2747C53.4408 20.2742 53.4414 20.2736 53.4419 20.2731L53.4536 20.2578C53.4411 20.2671 53.4324 20.2799 53.4215 20.2938L53.3741 20.3746C53.363 20.4011 53.3572 20.419 53.3521 20.4471C53.3444 20.4898 53.3412 20.5143 53.3461 20.5604C53.3477 20.5748 53.351 20.6007 53.3575 20.6154H53.3578Z" fill="white"/>
<path fill-rule="evenodd" clip-rule="evenodd" d="M53.5547 20.1922L53.556 20.195L54.3112 19.8543L54.3098 19.8516L53.5547 20.1922Z" fill="white"/>
<path fill-rule="evenodd" clip-rule="evenodd" d="M54.8095 20.823L54.8084 20.8203C54.7975 20.8255 54.7831 20.8358 54.7758 20.8435C54.7682 20.8516 54.7621 20.8568 54.7564 20.8669L54.7483 20.881C54.7466 20.8838 54.7398 20.8938 54.7374 20.9077C54.7374 20.9083 54.7374 20.9094 54.7371 20.9099L54.7352 20.9246C54.7352 20.9252 54.7349 20.926 54.7346 20.9265C54.7346 20.9271 54.7344 20.9279 54.7344 20.9287L54.7357 20.975C54.7417 20.9992 54.7548 21.0237 54.7722 21.0412L54.8136 21.0706C54.8142 21.0709 54.815 21.0709 54.8155 21.0711C54.8161 21.0714 54.8169 21.0717 54.8174 21.0717L54.8215 21.0728C54.8422 21.0801 54.8251 21.0788 54.8572 21.0826L54.8969 21.0815C54.898 21.0809 54.9008 21.0804 54.9019 21.0801L54.9068 21.079C54.9272 21.0736 54.955 21.0597 54.9691 21.0434L54.9748 21.0365C54.992 21.0167 55.007 20.9875 55.0094 20.9625C55.0105 20.9521 55.0116 20.9622 55.0089 20.9502L55.0059 20.9676C55.001 21.0017 54.9724 21.045 54.9386 21.0619C54.9038 21.0793 54.8651 21.088 54.8302 21.073C54.8234 21.07 54.8212 21.07 54.815 21.0676C54.77 21.0513 54.73 20.99 54.7368 20.9339C54.7374 20.9282 54.7385 20.9233 54.7393 20.9175C54.7401 20.9124 54.7406 20.9066 54.7423 20.9009C54.7504 20.8693 54.782 20.8405 54.8093 20.8233L54.8095 20.823Z" fill="white"/>
<path fill-rule="evenodd" clip-rule="evenodd" d="M53.7578 21.469C53.781 21.5014 53.8134 21.5216 53.8444 21.5415L53.8553 21.5483C53.8602 21.5507 53.8621 21.5515 53.8678 21.5545C53.8725 21.5567 53.8741 21.5583 53.8787 21.5605C53.8855 21.5635 53.8855 21.5627 53.8923 21.5649C53.9209 21.575 53.9147 21.5755 53.9446 21.5834L53.9645 21.588C53.9651 21.588 53.9659 21.5883 53.9667 21.5883L53.9708 21.5888C53.9757 21.5897 53.98 21.5905 53.983 21.5908C53.9896 21.5918 53.9915 21.5924 53.9975 21.5929C54.0519 21.5992 54.1336 21.5921 54.1821 21.5662L54.1802 21.5635C54.1579 21.5736 54.1374 21.5793 54.1165 21.5842L54.0367 21.5927C54.0356 21.5927 54.0331 21.5927 54.0323 21.5927L54.0277 21.5924C54.0272 21.5924 54.0263 21.5924 54.0258 21.5924C54.0252 21.5924 54.0241 21.5924 54.0236 21.5924L54.0152 21.5918C54.0116 21.5918 54.0113 21.5918 54.0089 21.5916L53.9735 21.5869C53.9732 21.5869 53.9675 21.5859 53.9672 21.5859L53.8891 21.5613C53.8885 21.5611 53.8874 21.5608 53.8872 21.5608L53.8711 21.5524C53.87 21.5521 53.8654 21.5502 53.8654 21.5499C53.8648 21.5496 53.864 21.5494 53.8635 21.5491C53.8629 21.5488 53.8621 21.5485 53.8616 21.548L53.849 21.5409C53.8485 21.5406 53.8477 21.5401 53.8471 21.5398L53.8191 21.5213C53.8185 21.521 53.8177 21.5205 53.8174 21.5199L53.8074 21.5126C53.8068 21.512 53.8063 21.5118 53.8057 21.5112C53.7861 21.4957 53.7703 21.4766 53.7654 21.4728C53.7589 21.4677 53.7624 21.4704 53.7578 21.4688V21.469Z" fill="white"/>
<path fill-rule="evenodd" clip-rule="evenodd" d="M53.7846 20.7482L53.7862 20.6801C53.7868 20.6706 53.7879 20.6651 53.7887 20.657L53.8148 20.551C53.8187 20.541 53.8214 20.5388 53.8244 20.5303L53.8963 20.4141C53.8955 20.4146 53.8955 20.4152 53.8941 20.416L53.8453 20.4816C53.8429 20.4862 53.8451 20.4827 53.8426 20.487C53.8424 20.4876 53.8421 20.4884 53.8415 20.489L53.8356 20.5001C53.8268 20.5159 53.811 20.5497 53.8069 20.5677L53.7898 20.6292C53.7846 20.6499 53.7805 20.7049 53.7814 20.7242L53.7819 20.7308C53.7819 20.7313 53.7819 20.7324 53.7819 20.733C53.7824 20.7439 53.7795 20.7346 53.7844 20.7477L53.7846 20.7482Z" fill="white"/>
<path fill-rule="evenodd" clip-rule="evenodd" d="M54.6851 20.8154C54.6851 20.8146 54.6859 20.813 54.6851 20.813C54.6842 20.813 54.685 20.8111 54.6853 20.8105L54.6919 20.6553C54.6916 20.6545 54.6916 20.6537 54.6913 20.6529L54.6851 20.618C54.6851 20.6172 54.6848 20.6164 54.6845 20.6156L54.6804 20.5965C54.672 20.5597 54.6567 20.5287 54.6401 20.4922C54.6385 20.5017 54.6518 20.524 54.6578 20.5377C54.663 20.5496 54.6693 20.5706 54.6731 20.5829C54.6813 20.6071 54.6878 20.6431 54.6902 20.6659C54.6979 20.74 54.6818 20.807 54.682 20.8092L54.6831 20.8127C54.6831 20.813 54.684 20.8141 54.684 20.8144C54.6842 20.8146 54.6845 20.8154 54.6851 20.816V20.8154ZM54.5127 21.0799C54.5214 21.0736 54.5227 21.0717 54.5298 21.0657L54.5571 21.0412C54.5576 21.0407 54.5582 21.0401 54.5587 21.0396L54.6044 20.987C54.605 20.9865 54.6053 20.9857 54.6058 20.9851L54.6426 20.9249C54.6429 20.9244 54.6431 20.9236 54.6434 20.923L54.6565 20.8974C54.6747 20.8634 54.6755 20.8372 54.6837 20.8173C54.6791 20.8184 54.6823 20.8154 54.6796 20.8209L54.651 20.9037C54.6477 20.9124 54.645 20.9127 54.6407 20.9219L54.6268 20.9472C54.5987 20.9916 54.5821 21.0148 54.5421 21.0505L54.5151 21.0728C54.5094 21.0788 54.5069 21.0747 54.5127 21.0796V21.0799ZM54.4612 21.1112C54.498 21.0946 54.489 21.0921 54.5118 21.0821C54.5004 21.0807 54.4977 21.0859 54.4871 21.0932C54.4805 21.0981 54.4811 21.0973 54.474 21.1014L54.4609 21.1112H54.4612Z" fill="white"/>
<path fill-rule="evenodd" clip-rule="evenodd" d="M55.1147 20.9988C55.115 21.0078 55.1158 21.001 55.1139 21.0089L55.0861 21.0729C55.0831 21.0786 55.085 21.0753 55.0823 21.0802L55.027 21.1532C55.0264 21.1538 55.0259 21.1543 55.0254 21.1549L54.9219 21.2278L54.9238 21.2317C54.9859 21.1973 55.0172 21.172 55.0553 21.1249C55.0635 21.1148 55.07 21.1053 55.076 21.0952L55.1209 20.9964C55.1212 20.9961 55.1215 20.995 55.1218 20.9945C55.1207 20.9942 55.1204 20.9925 55.1193 20.9928C55.1117 20.9953 55.1209 20.9868 55.1144 20.9988H55.1147Z" fill="white"/>
<path fill-rule="evenodd" clip-rule="evenodd" d="M54.5782 20.7444C54.575 20.7483 54.5731 20.7434 54.5771 20.7504C54.5733 20.7534 54.5739 20.7515 54.5768 20.7559C54.5736 20.7589 54.5736 20.7559 54.5717 20.76L54.575 20.7662C54.5703 20.7665 54.5709 20.7651 54.5725 20.7692C54.57 20.7741 54.5711 20.7695 54.5728 20.7763C54.5673 20.7774 54.569 20.7763 54.5733 20.7799C54.5684 20.7837 54.5692 20.7798 54.5668 20.7845L54.5698 20.7905C54.5665 20.794 54.5687 20.7905 54.5662 20.7951C54.5651 20.7967 54.5643 20.7986 54.5638 20.8005C54.5602 20.809 54.5602 20.8071 54.5621 20.8153C54.5583 20.8172 54.5586 20.8158 54.5613 20.8193C54.5567 20.821 54.5573 20.8196 54.5603 20.8237C54.5551 20.8248 54.5553 20.8234 54.5586 20.8275C54.5534 20.8286 54.554 20.827 54.5567 20.8316C54.5521 20.8321 54.5526 20.8311 54.5548 20.8351C54.5477 20.8398 54.5504 20.8362 54.5466 20.8449C54.5466 20.8449 54.5447 20.8507 54.5447 20.8509C54.5436 20.8569 54.5436 20.8537 54.5447 20.8594C54.5314 20.8632 54.5412 20.8596 54.5387 20.864C54.5327 20.8741 54.5363 20.8645 54.5376 20.8719C54.5319 20.8733 54.5325 20.8714 54.5344 20.8768C54.5254 20.8784 54.5303 20.8768 54.5327 20.8803C54.5265 20.882 54.5267 20.8801 54.53 20.8852C54.5218 20.8891 54.5248 20.8852 54.5232 20.8937C54.5142 20.8967 54.5194 20.894 54.5202 20.8986C54.5118 20.9035 54.515 20.8986 54.514 20.9081C54.5055 20.9098 54.5101 20.9081 54.5104 20.9125C54.5003 20.9157 54.5058 20.913 54.5074 20.9166C54.4962 20.9212 54.502 20.9179 54.5028 20.9215C54.4922 20.9266 54.4979 20.9226 54.4987 20.928C54.4889 20.9302 54.4938 20.928 54.4944 20.9326C54.4884 20.9348 54.4919 20.9318 54.4878 20.9367C54.4824 20.9427 54.4854 20.9383 54.4845 20.9443C54.4736 20.9462 54.4794 20.9438 54.4791 20.9498C54.4679 20.9528 54.4655 20.958 54.4581 20.9645C54.4546 20.9678 54.4519 20.9691 54.447 20.9732C54.432 20.9857 54.4412 20.9754 54.4391 20.9838C54.4336 20.9849 54.435 20.983 54.4301 20.9868C54.4227 20.9923 54.4284 20.9849 54.4265 20.9923C54.4069 20.9983 54.3969 21.0078 54.3764 21.0168C54.356 21.0258 54.3386 21.0288 54.322 21.0397C54.3173 21.0342 54.3236 21.0358 54.3157 21.0383C54.3067 21.0413 54.3141 21.0386 54.3073 21.0435C54.3024 21.0402 54.3059 21.0402 54.2969 21.0413C54.2887 21.0424 54.2893 21.0432 54.2825 21.0476C54.2776 21.0456 54.2849 21.0435 54.2737 21.0454C54.2656 21.0465 54.2699 21.0456 54.2642 21.05C54.2591 21.0467 54.268 21.0424 54.255 21.0497C54.2512 21.0467 54.2569 21.0443 54.2471 21.0508C54.2435 21.047 54.2531 21.0437 54.2392 21.05C54.2356 21.0475 54.2419 21.0448 54.2321 21.0508C54.2296 21.047 54.2354 21.0451 54.2258 21.0503C54.2231 21.0467 54.2296 21.0451 54.2188 21.0497C54.2234 21.0522 54.2152 21.0544 54.2258 21.0503L54.2321 21.0508L54.2392 21.05L54.2471 21.0508L54.255 21.0497L54.2642 21.05L54.2825 21.0476L54.3073 21.0435L54.322 21.0397C54.328 21.0388 54.3669 21.0269 54.3759 21.0228C54.3851 21.0187 54.4222 20.9964 54.4265 20.9923L54.4388 20.9838L54.4788 20.9498L54.4843 20.9443L54.4941 20.9326L54.4984 20.928C54.5085 20.922 54.5017 20.9275 54.5025 20.9215C54.5137 20.919 54.5058 20.9212 54.5071 20.9166L54.5101 20.9125L54.5137 20.9081L54.5199 20.8986L54.5229 20.8937L54.5297 20.8852C54.5349 20.8831 54.5344 20.885 54.5325 20.8803L54.5341 20.8768C54.5396 20.8744 54.5396 20.8763 54.5374 20.8719C54.5385 20.87 54.5393 20.8689 54.5401 20.8673L54.5442 20.8596C54.5469 20.8463 54.5515 20.8496 54.5542 20.8354L54.5562 20.8319C54.5602 20.83 54.5597 20.8316 54.5581 20.8278L54.5597 20.824L54.5608 20.8196L54.5616 20.8155C54.5692 20.8044 54.5638 20.8038 54.5695 20.791C54.5698 20.7902 54.5711 20.7888 54.5706 20.7888C54.5701 20.7888 54.5714 20.7872 54.5717 20.7867C54.5725 20.7837 54.5728 20.7837 54.5733 20.7801L54.5728 20.7766L54.575 20.7665L54.5768 20.7562L54.5771 20.7507L54.5782 20.7447C54.5782 20.7442 54.5788 20.7395 54.5785 20.739C54.5771 20.7344 54.5769 20.7355 54.5755 20.7344C54.576 20.7409 54.5758 20.7398 54.5779 20.745L54.5782 20.7444Z" fill="white"/>
<path fill-rule="evenodd" clip-rule="evenodd" d="M53.9613 20.9062C53.9572 20.9182 53.9907 20.9487 54.0005 20.9574C54.0141 20.9694 54.0482 20.9964 54.0656 21.0051C54.0689 21.0067 54.0705 21.007 54.0732 21.0081C54.0964 21.0171 54.0955 21.0247 54.1258 21.0315C54.1427 21.0353 54.1462 21.0389 54.1527 21.0356C54.1533 21.0353 54.1538 21.0345 54.1544 21.034L54.0631 21.0002C54.0571 20.9972 54.0631 21.0005 54.0577 20.9967C54.0571 20.9961 54.0566 20.9958 54.056 20.9956L53.9828 20.9351L53.9613 20.9062Z" fill="white"/>
<path fill-rule="evenodd" clip-rule="evenodd" d="M54.5178 20.4982L54.5099 20.4897L54.4968 20.4745L54.4914 20.4688L54.4843 20.4633C54.48 20.4516 54.4835 20.4584 54.4789 20.4576L54.4544 20.4366C54.4497 20.4271 54.4538 20.4339 54.4492 20.4325L54.4451 20.4295L54.4358 20.423L54.4266 20.417L54.4179 20.4118L54.4146 20.4094L54.4026 20.4026C54.4002 20.3971 54.4021 20.398 54.3969 20.4001L54.3849 20.3963L54.3808 20.3941L54.3773 20.3925L54.3732 20.3906L54.3694 20.3892L54.3653 20.3879L54.3612 20.3865L54.3571 20.3857L54.3517 20.3841L54.3482 20.3819L54.3452 20.3803C54.343 20.3754 54.3446 20.3762 54.3397 20.3786L54.3356 20.3784L54.3264 20.3754L54.3226 20.3748C54.3218 20.3745 54.3212 20.374 54.3204 20.3743C54.3193 20.3743 54.3185 20.3737 54.3182 20.3737C54.3166 20.3732 54.3144 20.3729 54.3125 20.3724L54.3019 20.371L54.2912 20.3696L54.2861 20.3691L54.2678 20.368L54.261 20.3683L54.2398 20.3675L54.2327 20.3683L54.2245 20.3688L54.2158 20.3705C54.2136 20.3699 54.2131 20.3699 54.2087 20.3699C54.2052 20.3699 54.2057 20.3699 54.2016 20.3705C54.1957 20.3713 54.194 20.3715 54.1875 20.3737C54.1959 20.3756 54.2049 20.374 54.2158 20.3702C54.2188 20.3721 54.2104 20.3762 54.2245 20.3685C54.2278 20.371 54.2196 20.3759 54.2327 20.368C54.2365 20.3713 54.2305 20.374 54.2398 20.3672C54.2447 20.3705 54.2357 20.3705 54.2496 20.3707C54.2542 20.3707 54.255 20.3707 54.2613 20.368C54.2651 20.3707 54.2591 20.3734 54.2681 20.3677C54.2749 20.3745 54.276 20.3729 54.2864 20.3688C54.2877 20.3734 54.2828 20.3756 54.2915 20.3694C54.2948 20.3724 54.2926 20.3729 54.2961 20.3748L54.3021 20.3707C54.3054 20.3743 54.3024 20.3743 54.3065 20.3764L54.3128 20.3721C54.3158 20.3764 54.3122 20.3756 54.3169 20.3781L54.3228 20.3745C54.3234 20.38 54.3226 20.3792 54.3266 20.3751C54.3299 20.3794 54.3264 20.3789 54.331 20.3811L54.3362 20.3781C54.3381 20.3827 54.3367 20.3822 54.3403 20.3784C54.3419 20.3846 54.3403 20.3835 54.3457 20.38C54.3452 20.3857 54.3441 20.3849 54.3487 20.3816C54.3493 20.3868 54.3479 20.3865 54.3523 20.3838C54.3552 20.3873 54.3493 20.3887 54.3577 20.3854L54.3618 20.3862L54.3659 20.3876C54.3675 20.3914 54.3661 20.3909 54.3699 20.389C54.3716 20.3931 54.3702 20.3925 54.3738 20.3903C54.3751 20.3944 54.3738 20.3939 54.3778 20.3922L54.3814 20.3939L54.3855 20.396C54.3904 20.4012 54.3852 20.398 54.3901 20.3999C54.3964 20.402 54.3917 20.4023 54.3975 20.3999C54.3996 20.4064 54.3975 20.4059 54.4032 20.4023C54.4048 20.4151 54.4026 20.4056 54.4067 20.408C54.4163 20.4135 54.4073 20.4099 54.4152 20.4091C54.4157 20.4146 54.4141 20.4143 54.4184 20.4116L54.4206 20.4176C54.4244 20.4187 54.4236 20.417 54.4271 20.4165L54.4293 20.423C54.4315 20.4236 54.4353 20.4225 54.4364 20.4222C54.441 20.4306 54.4364 20.4271 54.4457 20.4287C54.4476 20.4372 54.4459 20.4325 54.4498 20.4317C54.4538 20.4423 54.4506 20.4369 54.4549 20.4358L54.4794 20.4568L54.4849 20.4625C54.4917 20.4748 54.4857 20.466 54.492 20.4679C54.4966 20.4821 54.4936 20.4734 54.4974 20.4737C54.5015 20.4818 54.498 20.4772 54.5031 20.4832C54.5113 20.4922 54.5056 20.4859 54.5102 20.4889C54.5173 20.5053 54.5129 20.4949 54.5181 20.4974C54.5211 20.5077 54.5257 20.5126 54.532 20.5221C54.5366 20.5295 54.5421 20.5398 54.548 20.5491C54.563 20.572 54.5598 20.5845 54.5737 20.606C54.5685 20.6115 54.5696 20.603 54.5734 20.615C54.575 20.6199 54.5764 20.621 54.5788 20.6245C54.5728 20.6286 54.5783 20.6322 54.5818 20.6373C54.5791 20.6425 54.5794 20.6382 54.5796 20.6458C54.5802 20.6534 54.5807 20.6518 54.5837 20.6594L54.5818 20.6376L54.5788 20.6248L54.5737 20.6063C54.5715 20.5826 54.5339 20.5107 54.5181 20.4974L54.5178 20.4982Z" fill="white"/>
<path fill-rule="evenodd" clip-rule="evenodd" d="M54.344 19.8393C54.3506 19.8417 54.3451 19.8415 54.3536 19.8409L54.4276 19.83C54.4393 19.8292 54.4546 19.8289 54.4666 19.8303L54.5063 19.8358C54.5088 19.8363 54.5129 19.8368 54.5145 19.8371L54.5409 19.8434C54.5415 19.8437 54.5423 19.8439 54.5428 19.8439C54.5725 19.8526 54.576 19.8529 54.6038 19.8668L54.6458 19.8913C54.646 19.8916 54.6471 19.8924 54.6477 19.8929C54.6493 19.8848 54.615 19.8684 54.603 19.8633C54.5946 19.8594 54.5959 19.8575 54.5842 19.8545L54.5417 19.8407C54.4935 19.824 54.4001 19.8243 54.3438 19.8393H54.344Z" fill="white"/>
<path fill-rule="evenodd" clip-rule="evenodd" d="M54.3616 20.2574C54.3515 20.258 54.3591 20.258 54.3512 20.2569C54.3482 20.2563 54.3441 20.2555 54.3411 20.255L54.315 20.2487C54.309 20.2479 54.3104 20.2482 54.3046 20.2476C54.2995 20.2471 54.2995 20.2474 54.2943 20.2463L54.2831 20.2433C54.2815 20.2512 54.294 20.2498 54.3161 20.2523L54.3621 20.2634C54.364 20.2569 54.3646 20.2618 54.3621 20.2572L54.3616 20.2574ZM54.1094 20.2634C54.1173 20.2642 54.1235 20.2613 54.132 20.2591C54.1693 20.2495 54.2238 20.2425 54.2613 20.2463C54.273 20.2474 54.2749 20.2506 54.282 20.2427L54.26 20.2433C54.2594 20.2433 54.2586 20.2433 54.2581 20.2433L54.2516 20.2427C54.2477 20.2425 54.2439 20.2422 54.2409 20.2422L54.1987 20.2444C54.1769 20.2449 54.1284 20.255 54.1094 20.2634Z" fill="white"/>
<path fill-rule="evenodd" clip-rule="evenodd" d="M53.8959 20.7267C53.8919 20.7112 53.8946 20.7049 53.8959 20.6916L53.9017 20.6524C53.9134 20.5993 53.9077 20.6216 53.9289 20.5728C53.9308 20.5682 53.9292 20.5717 53.9313 20.5674L53.964 20.5162C53.9741 20.5018 53.9752 20.5028 53.9863 20.4925C53.9839 20.4925 53.9845 20.4911 53.9798 20.4941C53.9608 20.5053 53.9232 20.5758 53.9134 20.5979L53.9019 20.6349C53.9006 20.6393 53.9011 20.6393 53.9003 20.6434C53.8981 20.6562 53.8886 20.7082 53.891 20.7188C53.8927 20.7253 53.8929 20.7243 53.8957 20.7267H53.8959Z" fill="white"/>
<path fill-rule="evenodd" clip-rule="evenodd" d="M53.801 20.847C53.7991 20.843 53.8004 20.8432 53.7969 20.8449C53.805 20.8628 53.8211 20.914 53.8364 20.938C53.8554 20.9671 53.8954 21.0341 53.9268 21.0502L53.89 21.0099C53.8377 20.9467 53.8304 20.9181 53.801 20.847Z" fill="white"/>
<path fill-rule="evenodd" clip-rule="evenodd" d="M54.4884 20.3236C54.4876 20.3287 54.4914 20.3317 54.4944 20.3339C54.5423 20.3674 54.5671 20.3876 54.6039 20.4379C54.6099 20.4461 54.6159 20.4551 54.6213 20.463C54.6254 20.4693 54.6257 20.4693 54.6287 20.4755L54.6399 20.4905C54.629 20.466 54.6243 20.4597 54.6094 20.4407L54.5859 20.411C54.5587 20.3797 54.5385 20.3606 54.5045 20.3369L54.4884 20.3236ZM54.4416 20.2971C54.4367 20.2977 54.44 20.2961 54.4375 20.3018C54.438 20.3018 54.44 20.3021 54.4394 20.3023C54.4361 20.3059 54.4427 20.3034 54.4432 20.3037C54.4459 20.3048 54.4473 20.3053 54.4509 20.307L54.4759 20.3219C54.4835 20.326 54.4824 20.3279 54.4865 20.3238C54.4857 20.3236 54.4854 20.3225 54.4846 20.3228C54.4751 20.3238 54.4928 20.3268 54.4751 20.3176C54.4745 20.317 54.4737 20.3168 54.4732 20.3165L54.4481 20.3023C54.4473 20.3018 54.4465 20.3012 54.4462 20.3007C54.4454 20.3001 54.4446 20.2993 54.444 20.2988C54.4435 20.2982 54.4427 20.2974 54.4419 20.2969L54.4416 20.2971Z" fill="white"/>
<path fill-rule="evenodd" clip-rule="evenodd" d="M54.9677 20.8476C54.9623 20.8329 54.9661 20.8419 54.9617 20.8411C54.9571 20.8294 54.9541 20.8294 54.9457 20.8283C54.944 20.8196 54.9457 20.8242 54.9413 20.8247L54.9375 20.8212C54.934 20.8136 54.937 20.8182 54.9329 20.8198C54.9312 20.8141 54.9331 20.8149 54.9277 20.8168C54.9233 20.8084 54.9244 20.8114 54.9146 20.8076C54.9062 20.8046 54.9075 20.8032 54.8991 20.8051C54.8961 20.801 54.898 20.8016 54.8934 20.8038C54.8915 20.8021 54.8925 20.8008 54.8893 20.7991L54.8839 20.8021C54.877 20.7956 54.8757 20.7975 54.8659 20.8013C54.8661 20.7929 54.8626 20.7986 54.8591 20.8013C54.8544 20.7975 54.8607 20.795 54.8501 20.8024C54.846 20.798 54.8553 20.7975 54.8411 20.7994C54.8343 20.8005 54.831 20.8035 54.8256 20.8068C54.8209 20.8051 54.8283 20.8013 54.8125 20.8084L54.8139 20.8114L54.8256 20.8065L54.8501 20.8021L54.8591 20.801H54.8659C54.8697 20.801 54.8776 20.8019 54.8839 20.8019L54.8934 20.8032C54.8956 20.8078 54.8939 20.8068 54.8991 20.8046C54.9111 20.8092 54.9152 20.81 54.9277 20.8163C54.9301 20.8215 54.928 20.8212 54.9329 20.8193L54.9375 20.8206L54.9413 20.8242L54.9457 20.8277L54.9617 20.8405L54.9677 20.8471C54.9753 20.8604 54.9865 20.8716 54.9917 20.886C54.9971 20.9013 54.9985 20.9157 55.0015 20.9301C55.0012 20.9331 54.9998 20.9328 55.0015 20.9377C55.0028 20.9429 55.0034 20.9413 55.005 20.9426C55.0045 20.9361 55.005 20.9367 55.0015 20.9301C55.0037 20.9244 55.0037 20.9315 55.0037 20.9211L54.9949 20.8849C54.9919 20.8762 54.9862 20.8686 54.9832 20.8642C54.9751 20.8517 54.9778 20.8517 54.9677 20.8471V20.8476Z" fill="white"/>
<path fill-rule="evenodd" clip-rule="evenodd" d="M53.9608 20.9073C53.954 20.8923 53.9447 20.879 53.9374 20.8678C53.9297 20.8561 53.9148 20.8128 53.9115 20.7997L53.899 20.7344C53.8987 20.7352 53.8995 20.7363 53.8984 20.7371L53.8993 20.7564C53.9047 20.7916 53.9164 20.8376 53.9341 20.8667C53.9458 20.8866 53.9504 20.8994 53.9611 20.9073H53.9608Z" fill="white"/>
<path fill-rule="evenodd" clip-rule="evenodd" d="M53.9297 21.0391C53.936 21.048 53.9313 21.0426 53.9368 21.0475C53.9373 21.048 53.9379 21.0486 53.9384 21.0491L54.0019 21.0949C54.0024 21.0952 54.0032 21.0957 54.0035 21.096L54.0343 21.1137C54.0419 21.1178 54.034 21.1139 54.0419 21.1169C54.0424 21.1172 54.0435 21.1175 54.0438 21.1178L54.0511 21.1213C54.059 21.1262 54.0571 21.1257 54.0659 21.1289L54.1304 21.1488C54.1309 21.1488 54.1318 21.1494 54.1323 21.1494L54.1906 21.1592L54.1293 21.1461C54.1288 21.1458 54.1279 21.1455 54.1274 21.1455L54.0841 21.1333C54.0634 21.1268 54.0092 21.0971 53.989 21.0843C53.9648 21.0687 53.9408 21.0464 53.93 21.0399L53.9297 21.0391Z" fill="white"/>
<path fill-rule="evenodd" clip-rule="evenodd" d="M54.332 21.1592C54.3456 21.1529 54.3445 21.1543 54.3579 21.1516C54.3674 21.1497 54.375 21.1461 54.3873 21.1407C54.3767 21.1401 54.3712 21.145 54.3592 21.1475C54.3478 21.1502 54.3375 21.1507 54.332 21.1592ZM54.1953 21.1668C54.1964 21.1668 54.1986 21.1663 54.1983 21.1665C54.1958 21.1693 54.2008 21.166 54.219 21.1665L54.256 21.1671C54.2686 21.1665 54.2473 21.1679 54.2604 21.1671L54.2716 21.1657C54.2724 21.1657 54.2751 21.1655 54.2762 21.1655L54.3301 21.1578C54.3337 21.1499 54.3282 21.1554 54.3001 21.1597C54.2876 21.1616 54.2773 21.1625 54.2637 21.1638L54.2114 21.1635C54.2038 21.1633 54.2008 21.1616 54.1956 21.1668H54.1953Z" fill="white"/>
<path fill-rule="evenodd" clip-rule="evenodd" d="M54.1323 20.3889C54.1279 20.3845 54.0773 20.408 54.0748 20.4148C54.0593 20.4202 54.0618 20.4199 54.0501 20.4278C54.0422 20.4336 54.037 20.4346 54.0312 20.4431C54.04 20.439 54.068 20.421 54.0748 20.4148L54.1323 20.3889C54.1421 20.3875 54.1734 20.3788 54.1821 20.375L54.1707 20.3758C54.1557 20.3791 54.1448 20.3815 54.132 20.3889H54.1323Z" fill="white"/>
<path fill-rule="evenodd" clip-rule="evenodd" d="M53.9844 20.3247C53.9909 20.325 53.989 20.3258 53.9972 20.3206L54.0443 20.295C54.074 20.2825 54.0598 20.2855 54.0928 20.2749C54.1116 20.2689 54.1072 20.267 54.1083 20.2656C54.0931 20.2724 54.0892 20.2713 54.0772 20.2762C54.0263 20.2967 54.0081 20.3138 53.9844 20.3247Z" fill="white"/>
<path fill-rule="evenodd" clip-rule="evenodd" d="M53.8906 20.4057C53.8972 20.4055 53.899 20.4027 53.9061 20.3948L53.9219 20.379C53.9255 20.3758 53.9274 20.3731 53.9331 20.3682L53.9685 20.3404C53.9772 20.3344 53.9786 20.3371 53.9783 20.3281C53.9734 20.3336 53.9631 20.3401 53.9557 20.3461C53.9522 20.3488 53.9478 20.3524 53.9445 20.3551C53.938 20.3608 53.9385 20.3603 53.932 20.3657L53.9034 20.394C53.8991 20.3987 53.8955 20.4014 53.8909 20.406L53.8906 20.4057Z" fill="white"/>
<path fill-rule="evenodd" clip-rule="evenodd" d="M54.3906 21.1393C54.3961 21.1426 54.3906 21.1412 54.3974 21.1399C54.3991 21.1396 54.4037 21.1374 54.4053 21.1369C54.4111 21.1342 54.4176 21.1309 54.4238 21.1282C54.4298 21.1254 54.4361 21.1227 54.4424 21.12C54.4609 21.1118 54.4549 21.114 54.4565 21.1094L54.3906 21.1393Z" fill="white"/>
<path fill-rule="evenodd" clip-rule="evenodd" d="M53.794 20.8331L53.8001 20.8363C53.7916 20.8156 53.7883 20.7835 53.7861 20.7786C53.7837 20.7732 53.7859 20.7753 53.7812 20.7734L53.7886 20.8058C53.7889 20.8069 53.7891 20.8097 53.7894 20.8105L53.7943 20.8331H53.794Z" fill="white"/>
<path fill-rule="evenodd" clip-rule="evenodd" d="M53.4609 20.2616C53.4803 20.2472 53.4822 20.2398 53.5064 20.2248C53.5189 20.2172 53.5173 20.2169 53.5195 20.2109C53.5086 20.218 53.4971 20.227 53.4876 20.2352L53.4612 20.2616H53.4609Z" fill="white"/>
<path fill-rule="evenodd" clip-rule="evenodd" d="M54.1565 21.0393L54.2143 21.0486C54.2284 21.0459 54.2178 21.048 54.2213 21.0448L54.1592 21.0393C54.1584 21.0393 54.1573 21.0393 54.1562 21.0391L54.1565 21.0393Z" fill="white"/>
<path fill-rule="evenodd" clip-rule="evenodd" d="M54.3125 19.8549L54.3136 19.8576C54.3278 19.8543 54.3326 19.8519 54.349 19.8445C54.3454 19.8445 54.3509 19.8426 54.3408 19.8448C54.3392 19.8453 54.3318 19.8478 54.3307 19.8481C54.3228 19.8505 54.3204 19.8511 54.3125 19.8549Z" fill="white"/>
<path fill-rule="evenodd" clip-rule="evenodd" d="M53.7269 21.4219L53.7511 21.4559C53.7601 21.4646 53.7525 21.4575 53.7576 21.4611L53.7465 21.4456C53.7391 21.4366 53.7361 21.4273 53.7266 21.4219H53.7269Z" fill="white"/>
<path fill-rule="evenodd" clip-rule="evenodd" d="M54.5823 20.6882C54.5798 20.6923 54.5763 20.6828 54.5825 20.6964L54.5831 20.704C54.5809 20.707 54.5765 20.6991 54.5833 20.7108C54.5812 20.7157 54.5787 20.7103 54.5833 20.7174C54.5809 20.7223 54.579 20.7163 54.5831 20.7244C54.5809 20.7285 54.5784 20.7231 54.5831 20.731C54.579 20.7337 54.5798 20.7318 54.582 20.737C54.5866 20.7351 54.5855 20.7367 54.5831 20.731V20.7244L54.5833 20.7174V20.7108L54.5831 20.704C54.5853 20.6997 54.5885 20.7076 54.5825 20.6964L54.5823 20.6882C54.5823 20.6839 54.5825 20.6781 54.5817 20.6719C54.5817 20.6724 54.5817 20.6735 54.5806 20.6738C54.5798 20.6743 54.5798 20.6754 54.5795 20.6757C54.5774 20.6809 54.5774 20.6779 54.582 20.6879L54.5823 20.6882Z" fill="white"/>
<path fill-rule="evenodd" clip-rule="evenodd" d="M53.5234 20.2079C53.5395 20.2006 53.545 20.1962 53.5564 20.1899L53.5553 20.1875L53.5273 20.2036C53.5265 20.2041 53.5259 20.2052 53.5254 20.2057C53.5248 20.2063 53.5243 20.2074 53.5234 20.2079Z" fill="white"/>
<path fill-rule="evenodd" clip-rule="evenodd" d="M53.787 20.7701C53.7875 20.7665 53.7875 20.7693 53.7875 20.7625C53.7875 20.7616 53.7873 20.7586 53.7873 20.7578C53.787 20.7339 53.7853 20.745 53.7812 20.7434C53.7856 20.7573 53.7824 20.7458 53.784 20.7567C53.7845 20.7616 53.784 20.7619 53.787 20.7701Z" fill="white"/>
<path fill-rule="evenodd" clip-rule="evenodd" d="M54.6719 19.9065C54.6792 19.9136 54.6871 19.9212 54.6953 19.9299C54.6964 19.9231 54.6904 19.9193 54.6808 19.9117C54.6803 19.9112 54.6798 19.9106 54.6789 19.9101L54.6743 19.9073C54.6738 19.9071 54.6727 19.9065 54.6719 19.9062V19.9065Z" fill="white"/>
<path fill-rule="evenodd" clip-rule="evenodd" d="M54.3675 20.2734L54.3743 20.2775C54.3748 20.2778 54.3759 20.2781 54.3762 20.2783C54.3808 20.2803 54.3814 20.2802 54.386 20.2816C54.3931 20.2838 54.3969 20.2841 54.4037 20.2868C54.4108 20.2895 54.4138 20.292 54.4203 20.295C54.4249 20.2971 54.4238 20.2966 54.4279 20.298C54.4355 20.3004 54.4298 20.2996 54.4391 20.3004C54.4385 20.2999 54.4383 20.2988 54.4372 20.299L54.3672 20.2737L54.3675 20.2734Z" fill="white"/>
<path fill-rule="evenodd" clip-rule="evenodd" d="M54.0078 20.4644C54.0157 20.4603 54.0163 20.4597 54.0214 20.4548L54.0261 20.4502C54.0301 20.4456 54.0282 20.4475 54.0299 20.4453C54.0239 20.4483 54.0225 20.4499 54.0179 20.4538C54.0157 20.4557 54.0143 20.4562 54.0124 20.4584C54.0092 20.4619 54.0089 20.4627 54.0078 20.4646V20.4644Z" fill="white"/>
<path fill-rule="evenodd" clip-rule="evenodd" d="M54.6487 19.8906C54.6533 19.895 54.6533 19.8961 54.6582 19.8996C54.6648 19.9042 54.6607 19.9023 54.668 19.9034C54.6642 19.9007 54.662 19.8988 54.659 19.8966L54.6509 19.8917C54.6503 19.8914 54.6493 19.8909 54.6484 19.8906H54.6487Z" fill="white"/>
<path fill-rule="evenodd" clip-rule="evenodd" d="M54.8047 20.8178L54.8058 20.8204L54.8173 20.8159L54.8159 20.8125L54.8047 20.8178Z" fill="white"/>
<path fill-rule="evenodd" clip-rule="evenodd" d="M53.7971 20.8359L53.7988 20.8438C53.8026 20.8422 53.801 20.8419 53.8029 20.846V20.8392L53.7969 20.8359H53.7971Z" fill="white"/>
<path fill-rule="evenodd" clip-rule="evenodd" d="M53.9922 20.4865C53.9974 20.4829 53.9995 20.4818 54.0034 20.478L54.0088 20.4688L53.9922 20.4865Z" fill="white"/>
<path fill-rule="evenodd" clip-rule="evenodd" d="M53.8958 20.7406L53.8927 20.7266C53.8924 20.7282 53.8874 20.7285 53.8941 20.7389C53.8944 20.7395 53.8953 20.7401 53.8958 20.7406Z" fill="white"/>
<path fill-rule="evenodd" clip-rule="evenodd" d="M54.2014 21.1677C54.199 21.1625 54.2011 21.1637 54.1953 21.1662C54.1975 21.1714 54.1959 21.1702 54.2014 21.1677Z" fill="white"/>
</svg>
