<svg width="150" height="45" viewBox="0 0 150 45" fill="none" xmlns="http://www.w3.org/2000/svg">
<path fill-rule="evenodd" clip-rule="evenodd" d="M35.78 24.1469C35.5632 24.5945 35.4415 25.0965 35.4415 25.627C35.4415 27.5061 36.9672 29.0294 38.8493 29.0294C40.7315 29.0294 42.2572 27.5061 42.2572 25.627C42.2572 23.748 40.7315 22.2246 38.8493 22.2246C38.2872 22.2246 37.7569 22.3606 37.2896 22.6012L32.2824 17.6082L37.9276 11.9716L25.9375 0L22.0468 3.88456L23.8605 5.69544L25.9375 3.62158L34.3003 11.9716L28.9547 17.3092C29.8898 18.2429 30.8265 19.1847 31.7664 20.1298L31.7668 20.1302C33.0963 21.4669 34.4323 22.8103 35.78 24.1469ZM38.8493 24.1828C39.6482 24.1828 40.2958 24.8294 40.2958 25.627C40.2958 26.4246 39.6482 27.0712 38.8493 27.0712C38.0505 27.0712 37.4029 26.4246 37.4029 25.627C37.4029 24.8294 38.0505 24.1828 38.8493 24.1828ZM104.6 6.61719H102.125V24.1872H104.6V16.2158L104.6 16.219C104.6 15.4518 104.823 14.8581 105.243 14.4372C105.689 14.0164 106.307 13.8185 107.124 13.8185C107.941 13.8185 108.584 14.0661 109.054 14.5363C109.525 15.0062 109.747 15.6991 109.747 16.5901V24.1872H112.197V16.5654C112.197 14.9568 111.826 13.6947 111.083 12.8039C110.341 11.9132 109.302 11.4677 107.941 11.4677C107.173 11.4677 106.481 11.6656 105.862 12.0614C105.376 12.3918 104.951 12.8138 104.6 13.3391V6.61719ZM56.1551 24.3615C55.4129 24.3615 54.7197 24.2874 54.0763 24.1636C53.4329 24.0151 52.8392 23.7925 52.2698 23.4955C51.7008 23.2231 51.1808 22.852 50.7109 22.4065L52.171 20.6C52.8392 21.1196 53.5073 21.5158 54.1754 21.7631C54.8435 22.0354 55.5117 22.1589 56.1551 22.1589C57.1203 22.1589 57.8628 22.0103 58.3574 21.7133C58.8276 21.3916 59.0753 20.9461 59.0753 20.3524C59.0753 19.9315 58.9515 19.6345 58.6795 19.4366C58.4072 19.2387 58.0854 19.1149 57.6896 19.0408C57.3533 18.9775 56.9096 18.9324 56.3436 18.8748L56.3435 18.8748L56.3435 18.8748L56.3402 18.8745L56.1794 18.8581L56.0317 18.8429H55.8338C55.7593 18.8429 55.6852 18.8429 55.6112 18.8182H55.512H55.438C54.6213 18.7441 53.9285 18.6203 53.3591 18.4471C52.7901 18.2739 52.3199 17.9522 51.9488 17.4819C51.5777 17.0117 51.3798 16.3189 51.3798 15.4281C51.3798 14.5621 51.553 13.8196 51.9241 13.2259C52.2952 12.6322 52.8399 12.1866 53.5574 11.9143C54.2749 11.6173 55.166 11.4688 56.2546 11.4688C56.898 11.4688 57.5168 11.5181 58.1105 11.6419C58.7045 11.7658 59.2735 11.939 59.8182 12.1863C60.3625 12.4089 60.8825 12.7059 61.3774 13.0773L59.8926 14.8838C59.2739 14.488 58.6555 14.191 58.0368 13.9681C57.418 13.7702 56.8243 13.671 56.255 13.671C55.4136 13.671 54.7949 13.8196 54.3744 14.1166C53.9535 14.3889 53.7309 14.8341 53.7309 15.4035C53.7309 15.7252 53.8548 15.9725 54.102 16.146C54.3246 16.3192 54.6217 16.443 54.9928 16.4924C55.3639 16.5418 55.8592 16.5916 56.5273 16.641H56.7005H56.7006C56.7499 16.641 56.7996 16.641 56.849 16.6656H56.9234H56.9975C57.8639 16.7401 58.6308 16.8389 59.2495 17.0121C59.8683 17.1853 60.3632 17.5564 60.7837 18.0763C61.2046 18.596 61.4272 19.3632 61.4272 20.3531C61.4272 21.2438 61.2293 21.9864 60.8335 22.5801C60.4624 23.1738 59.8683 23.6193 59.101 23.9163C58.3338 24.2133 57.3439 24.3618 56.1562 24.3618L56.1551 24.3615ZM72.8691 11.641L67.5237 27.1325C67.3505 27.7015 67.1029 28.1471 66.7815 28.4935C66.4598 28.8152 66.0883 29.0625 65.6184 29.211C65.1482 29.3348 64.5792 29.4089 63.9107 29.4089H63.4158V27.0578H63.9107C64.3809 27.0578 64.7521 26.9586 65.0244 26.7607C65.2967 26.5875 65.5193 26.2658 65.7172 25.8203L66.3209 23.9803L61.7582 11.641H64.2822L67.4403 20.5685L70.3694 11.6406H72.8688L72.8691 11.641ZM76.4199 11.6419H73.9453V24.1887H76.4199V16.2417L76.4203 16.2448C76.4203 15.4775 76.6429 14.8591 77.0637 14.4383C77.5089 14.0174 78.1277 13.8196 78.9443 13.8196C79.7609 13.8196 80.4044 14.0672 80.8746 14.5374C81.3448 15.0073 81.5674 15.7001 81.5674 16.5912V24.1883H84.0174V16.5665C84.0174 14.9579 83.6459 13.6957 82.9037 12.805C82.1615 11.9143 81.1219 11.4688 79.7609 11.4688C78.9937 11.4688 78.3009 11.6667 77.6821 12.0875C77.1963 12.4179 76.7716 12.8397 76.4199 13.3771V11.6419ZM91.7411 24.3615C90.578 24.3615 89.6128 24.1389 88.7962 23.7181C87.9796 23.2972 87.3608 22.6788 86.9403 21.8622C86.5195 21.0455 86.2969 20.0804 86.2969 18.9173V16.8635C86.2969 15.7252 86.5195 14.76 86.9403 13.9434C87.3612 13.1267 87.9796 12.508 88.7962 12.0875C89.6128 11.6667 90.578 11.4688 91.7411 11.4688C92.3845 11.4688 93.0032 11.5428 93.5722 11.6913C94.1416 11.8646 94.6612 12.0871 95.1315 12.3842C95.6017 12.6812 95.9728 13.0523 96.2698 13.4731L94.5127 15.0567C94.1416 14.6609 93.7208 14.3639 93.2505 14.1413C92.7803 13.9187 92.2854 13.8196 91.7657 13.8196C90.8253 13.8196 90.0831 14.0919 89.5635 14.6115C89.0438 15.1311 88.7715 15.8984 88.7715 16.8635V18.9173C88.7715 19.9072 89.0438 20.6744 89.5635 21.2188C90.0831 21.7631 90.8006 22.0354 91.7657 22.0354C92.2854 22.0354 92.805 21.9116 93.2752 21.6643C93.7455 21.4417 94.1663 21.0953 94.5124 20.6744L96.2695 22.4068C95.9477 22.8277 95.5766 23.1737 95.1064 23.4711C94.6609 23.7682 94.1413 23.9907 93.5719 24.1393C93.0029 24.2878 92.3841 24.3618 91.7407 24.3618L91.7411 24.3615ZM122.424 11.6406H124.874V24.1873H122.424V22.5272C122.158 22.9968 121.795 23.4016 121.335 23.7418C120.766 24.1626 120.048 24.3605 119.182 24.3605C117.796 24.3605 116.732 23.915 115.99 23.0243C115.223 22.1335 114.852 20.8714 114.852 19.2628V11.6406H117.326V19.2628H117.327C117.327 20.1288 117.549 20.8216 117.995 21.3165C118.44 21.7868 119.059 22.0341 119.875 22.0341C120.692 22.0341 121.311 21.8115 121.756 21.3906C122.201 20.9698 122.424 20.3514 122.424 19.5594L122.424 19.565V11.6406ZM131.088 23.8161C131.657 24.1872 132.35 24.3604 133.117 24.3604C134.033 24.3604 134.8 24.1625 135.468 23.7667C136.112 23.3706 136.607 22.8016 136.953 22.0343C137.275 21.2671 137.448 20.3763 137.448 19.312V16.5651C137.448 15.5008 137.275 14.5854 136.953 13.8181C136.631 13.0509 136.136 12.4568 135.518 12.061C134.899 11.6652 134.132 11.4673 133.241 11.4673C132.499 11.4673 131.831 11.6652 131.212 12.061C130.732 12.3681 130.312 12.779 129.975 13.2941V6.61719H127.5V24.1872H129.975V22.5854C130.247 23.1006 130.627 23.5153 131.088 23.8161ZM129.975 19.5844C129.975 20.1287 130.073 20.5989 130.247 20.97C130.445 21.3411 130.717 21.6381 131.088 21.8364C131.459 22.0343 131.905 22.1334 132.425 22.1334C133.241 22.1334 133.885 21.8858 134.33 21.3909C134.776 20.8959 134.998 20.2031 134.998 19.312V16.5898C134.998 15.674 134.776 14.9565 134.33 14.4369C133.885 13.9419 133.241 13.6943 132.425 13.6943C131.905 13.6943 131.459 13.7934 131.088 13.9666C130.717 14.1645 130.445 14.4616 130.247 14.833C130.074 15.2041 129.975 15.6497 129.975 16.1693V19.5844ZM144.296 24.3615C143.554 24.3615 142.86 24.2874 142.217 24.1636C141.573 24.0151 140.98 23.7925 140.41 23.4955C139.841 23.2231 139.321 22.852 138.852 22.4065L140.312 20.6C140.98 21.1196 141.648 21.5158 142.316 21.7631C142.984 22.0354 143.652 22.1589 144.296 22.1589C145.261 22.1589 146.003 22.0103 146.498 21.7133C146.968 21.3916 147.216 20.9461 147.216 20.3524C147.216 19.9315 147.092 19.6345 146.82 19.4366C146.548 19.2387 146.226 19.1149 145.83 19.0408C145.494 18.9775 145.05 18.9324 144.484 18.8748L144.483 18.8747C144.383 18.8645 144.28 18.854 144.172 18.8429H143.974C143.9 18.8429 143.826 18.8429 143.752 18.8182H143.653H143.579C142.762 18.7441 142.069 18.6203 141.5 18.4471C140.931 18.2739 140.461 17.9522 140.089 17.4819C139.718 17.0117 139.52 16.3189 139.52 15.4281C139.52 14.5621 139.694 13.8196 140.065 13.2259C140.436 12.6322 140.98 12.1866 141.698 11.9143C142.416 11.6173 143.307 11.4688 144.395 11.4688C145.039 11.4688 145.657 11.5181 146.251 11.6419C146.845 11.7658 147.414 11.939 147.959 12.1863C148.503 12.4089 149.023 12.7059 149.518 13.0773L148.033 14.8838C147.415 14.488 146.796 14.191 146.177 13.9681C145.559 13.7702 144.965 13.671 144.396 13.671C143.554 13.671 142.936 13.8196 142.515 14.1166C142.094 14.3889 141.872 14.8341 141.872 15.4035C141.872 15.7252 141.995 15.9725 142.243 16.146C142.465 16.3192 142.762 16.443 143.133 16.4924C143.504 16.5418 144 16.5916 144.668 16.641H144.841C144.891 16.641 144.94 16.6409 144.99 16.6656H145.064H145.138C146.005 16.7401 146.771 16.8389 147.39 17.0121C148.009 17.1853 148.504 17.5564 148.924 18.0763C149.345 18.596 149.568 19.3632 149.568 20.3531C149.568 21.2438 149.37 21.9864 148.974 22.5801C148.603 23.1738 148.009 23.6193 147.242 23.9163C146.474 24.2133 145.485 24.3618 144.297 24.3618L144.296 24.3615ZM126.742 27.8281H125.563V31.5177H121.991V27.8281H120.812V36.1974H121.991V32.6373H125.563V36.1974H126.742V27.8281ZM127.953 27.8281H129.227L131.23 34.3937L133.246 27.8281H134.519L131.796 36.1974H130.676L127.953 27.8281ZM136.98 36.169C137.345 36.2399 137.723 36.2752 138.123 36.2752V36.2759C138.771 36.2759 139.326 36.1817 139.785 35.993C140.245 35.8042 140.587 35.5333 140.834 35.1678C141.082 34.8024 141.2 34.3664 141.2 33.8594V33.8478C141.2 33.2936 141.082 32.8692 140.858 32.5511C140.634 32.2325 140.351 31.9969 140.009 31.8554C139.667 31.7139 139.243 31.5961 138.736 31.4899C138.724 31.4899 138.701 31.4899 138.677 31.4783C138.653 31.4783 138.63 31.4783 138.607 31.4667C138.595 31.4667 138.583 31.4667 138.571 31.455H138.524C138.088 31.3725 137.758 31.2899 137.511 31.2074C137.263 31.1248 137.063 31.007 136.897 30.8419C136.732 30.6768 136.65 30.4528 136.65 30.1583C136.65 29.7455 136.815 29.4157 137.133 29.1917C137.451 28.9561 137.888 28.8382 138.465 28.8382C138.783 28.8382 139.09 28.8971 139.408 29.015C139.727 29.1328 140.045 29.3099 140.363 29.5455L141.035 28.6142C140.764 28.4139 140.481 28.2607 140.198 28.1309C139.915 28.0015 139.632 27.8953 139.349 27.8364C139.055 27.7775 138.76 27.7422 138.465 27.7422C137.841 27.7422 137.299 27.8364 136.851 28.0251C136.414 28.2255 136.072 28.4964 135.837 28.8619C135.613 29.2273 135.495 29.6753 135.495 30.1939C135.495 30.783 135.613 31.243 135.86 31.5612C136.108 31.8794 136.414 32.1034 136.768 32.2212C137.11 32.351 137.569 32.4572 138.135 32.5514L138.218 32.563C138.229 32.5747 138.241 32.5747 138.253 32.5747H138.288C138.677 32.6452 138.984 32.7278 139.22 32.8103C139.467 32.8929 139.656 33.0107 139.809 33.1874C139.962 33.3645 140.033 33.5885 140.033 33.8831C140.033 34.2955 139.868 34.6136 139.538 34.8377C139.196 35.0617 138.724 35.1795 138.123 35.1795C137.675 35.1795 137.263 35.1086 136.874 34.9671C136.485 34.8257 136.143 34.6136 135.825 34.3424L135.094 35.238C135.365 35.4737 135.66 35.6624 135.966 35.8155C136.285 35.9686 136.615 36.0864 136.98 36.169ZM145.381 36.2752C144.98 36.2752 144.603 36.2399 144.238 36.169C143.872 36.0864 143.542 35.9686 143.224 35.8155C142.917 35.6624 142.623 35.4737 142.352 35.238L143.082 34.3424C143.401 34.6136 143.743 34.8257 144.132 34.9671C144.521 35.1086 144.933 35.1795 145.381 35.1795C145.982 35.1795 146.454 35.0617 146.796 34.8377C147.125 34.6136 147.291 34.2955 147.291 33.8831C147.291 33.5885 147.22 33.3645 147.067 33.1874C146.914 33.0107 146.725 32.8929 146.477 32.8103C146.242 32.7278 145.935 32.6452 145.546 32.5747H145.511C145.499 32.5747 145.487 32.5747 145.476 32.563L145.393 32.5514C144.827 32.4572 144.368 32.351 144.026 32.2212C143.672 32.1034 143.366 31.8794 143.118 31.5612C142.87 31.243 142.753 30.783 142.753 30.1939C142.753 29.6753 142.87 29.2273 143.094 28.8619C143.33 28.4964 143.672 28.2255 144.108 28.0251C144.556 27.8364 145.099 27.7422 145.723 27.7422C146.018 27.7422 146.313 27.7775 146.607 27.8364C146.89 27.8953 147.173 28.0015 147.456 28.1309C147.739 28.2607 148.022 28.4139 148.293 28.6142L147.621 29.5455C147.303 29.3099 146.984 29.1328 146.666 29.015C146.348 28.8971 146.041 28.8382 145.723 28.8382C145.145 28.8382 144.709 28.9561 144.391 29.1917C144.073 29.4157 143.908 29.7455 143.908 30.1583C143.908 30.4528 143.99 30.6768 144.155 30.8419C144.32 31.007 144.521 31.1248 144.768 31.2074C145.016 31.2899 145.346 31.3725 145.782 31.455H145.829C145.841 31.4667 145.853 31.4667 145.864 31.4667C145.888 31.4783 145.911 31.4783 145.935 31.4783C145.959 31.4899 145.982 31.4899 145.994 31.4899C146.501 31.5961 146.925 31.7139 147.267 31.8554C147.609 31.9969 147.892 32.2325 148.116 32.5511C148.34 32.8692 148.458 33.2936 148.458 33.8478V33.8594C148.458 34.3664 148.34 34.8024 148.092 35.1678C147.844 35.5333 147.503 35.8042 147.043 35.993C146.583 36.1817 146.029 36.2759 145.381 36.2759V36.2752ZM83.1406 29.1953H117.354V30.8374H83.1406V29.1953ZM37.8459 32.162L31.8747 38.1259L25.9035 44.0899L17.9686 36.1646L13.9611 32.162L18.5282 27.6005L20.3344 29.4045L17.5738 32.162C17.8688 32.4565 18.1518 32.7441 18.4336 33.0305L18.4339 33.0308L18.4342 33.0311L18.4345 33.0314C18.9912 33.5972 19.5434 34.1584 20.1743 34.7592L25.8023 40.3807L25.9033 40.4814L30.0681 36.3217L34.2328 32.162C31.8532 29.7852 29.4675 27.4145 27.082 25.0438L27.0818 25.0436C24.6965 22.6732 22.3113 20.3028 19.9321 17.9266L13.9609 11.9626L18.5856 7.34375L20.3919 9.14799L17.5736 11.9626C20.9462 15.3311 24.3215 18.6904 27.6987 22.0516L27.6995 22.0524C31.08 25.4169 34.4624 28.7832 37.8455 32.1622L37.8459 32.162ZM6.81665 18.0935C6.81665 18.6221 6.69497 19.1225 6.4781 19.5683L6.47851 19.5681C7.74434 20.8188 8.98232 22.0977 10.2207 23.377C11.3623 24.5564 12.5043 25.7361 13.6687 26.8943L8.36369 32.1712L12.5458 36.3312L16.728 40.4912L18.764 38.466L20.5778 40.2704L16.7278 44.1L10.7316 38.1356L4.7355 32.1712L10.4163 26.5205L4.96851 21.1084C4.50104 21.3482 3.97067 21.4837 3.40842 21.4837C1.52594 21.4837 0 19.9658 0 18.0935C0 16.221 1.52594 14.7031 3.40842 14.7031C5.2907 14.7031 6.81665 16.2212 6.81665 18.0935ZM1.96154 18.0935C1.96154 18.8882 2.60925 19.5325 3.40822 19.5325C4.2072 19.5325 4.8549 18.8882 4.8549 18.0935C4.8549 17.2988 4.2072 16.6545 3.40822 16.6545C2.60925 16.6545 1.96154 17.2988 1.96154 18.0935ZM16.7158 0.000206053L16.7156 0H16.716L16.7158 0.000206053ZM28.6582 11.9459L16.7158 0.000206053L10.7447 5.97307L4.77344 11.9462L10.7447 17.9192C12.7933 19.9684 14.8398 22.0042 16.8874 24.041C18.9369 26.0799 20.9874 28.1196 23.0418 30.1746C23.7101 30.8415 24.3782 31.5087 25.0457 32.1764L22.2836 34.9391L24.0901 36.7461L28.6584 32.1764C25.9742 29.4914 23.2982 26.8266 20.6222 24.1619C17.9347 21.4856 15.2471 18.8093 12.551 16.1122L8.38618 11.9459L12.551 7.77989L16.7158 3.61382L25.0455 11.9459L22.3024 14.6899L24.1088 16.4969L28.6582 11.9459Z" fill="#E8E8E8"/>
</svg>
