<svg width="95" height="54" viewBox="0 0 95 54" fill="none" xmlns="http://www.w3.org/2000/svg">
<path d="M16.2148 8.03392C18.1679 8.29478 20.121 8.5423 22.0745 8.77226C20.8467 14.3597 19.6135 20.0961 18.4098 25.9766C17.1771 31.9996 15.9729 38.2024 14.7543 44.5542C12.8383 45.0535 10.9222 45.5487 9.00566 46.0486C7.78708 39.7619 6.55207 33.2866 5.35008 26.6242C4.11556 19.7801 2.91308 12.7305 1.69531 5.49219C3.63906 5.89209 5.59207 6.27866 7.54573 6.6436C8.26179 11.2187 8.98207 15.7204 9.70366 20.1467C10.4142 24.5047 11.1543 28.788 11.8801 33.0017C12.5962 28.6748 13.3171 24.4162 14.0381 20.2248C14.7491 16.0925 15.4887 12.031 16.2145 8.03392H16.2148ZM28.883 9.4244C26.9671 9.26356 25.051 9.08532 23.135 8.88545C23.135 14.481 23.135 20.0812 23.135 25.6727C23.135 31.2683 23.135 36.8643 23.135 42.4599C25.051 42.0083 26.9671 41.578 28.883 41.1436C28.883 35.856 28.883 30.569 28.883 25.2859C28.883 19.9989 28.883 14.7113 28.883 9.42424V9.4244ZM39.3005 39.6274C41.8115 39.3752 43.8301 38.6196 45.3651 37.4509C47.104 36.0909 47.9786 34.2834 47.9786 32.0289C47.9786 31.4337 47.9786 30.8384 47.9786 30.2387C47.9786 27.6319 46.6948 25.4509 44.109 23.687C43.4115 23.2136 42.156 22.6229 40.3516 21.8886C39.3375 21.4629 38.6585 21.1498 38.3145 20.9411C37.0213 20.042 36.3794 18.9341 36.3794 17.6312C36.3794 17.3875 36.3794 17.1485 36.3794 16.9055C36.3794 15.8845 36.6399 15.1761 37.1608 14.7855C37.6164 14.4552 38.3238 14.2943 39.3004 14.3075C40.3139 14.3207 41.0306 14.4942 41.449 14.8286C41.9701 15.1933 42.2298 15.88 42.2298 16.897C42.2298 17.7352 42.2298 18.5736 42.2298 19.4165C44.1464 19.3861 46.0625 19.382 47.9784 19.3648C47.9784 18.5391 47.9784 17.7095 47.9784 16.8793C47.9784 14.6287 47.1038 12.8476 45.365 11.536C43.8298 10.3932 41.8114 9.78479 39.3004 9.70672C36.798 9.59809 34.7702 10.0762 33.2449 11.1839C31.4961 12.5088 30.6314 14.4117 30.6314 16.8795C30.6314 17.1358 30.6314 17.3879 30.6314 17.6403C30.6314 19.0387 30.9567 20.3378 31.6171 21.5282C32.2868 22.7101 33.2449 23.731 34.4911 24.5785C35.2633 25.0823 36.4633 25.6471 38.1003 26.251C39.2818 26.7026 40.0163 27.0329 40.2953 27.2111C41.5886 28.0931 42.2298 29.1617 42.2298 30.4304C42.2298 31.0342 42.2298 31.6426 42.2298 32.2419C42.2298 33.2629 41.9699 33.9668 41.449 34.3667C41.0306 34.7314 40.3139 34.9533 39.3004 35.0354C38.3238 35.1526 37.6165 35.0744 37.1608 34.7877C36.6398 34.4533 36.3794 33.7713 36.3794 32.7503C36.3794 31.4598 36.3794 30.1694 36.3794 28.8748C34.4635 29.0271 32.5474 29.2178 30.6314 29.4092C30.6314 30.7646 30.6314 32.1159 30.6314 33.4673C30.6314 35.9351 31.4961 37.738 33.2449 38.8284C34.7702 39.7448 36.7978 40.0097 39.3004 39.6277L39.3005 39.6274ZM55.4755 10.0673C53.5501 10.1281 51.6342 10.1673 49.7182 10.1884C49.7182 14.9504 49.7182 19.7122 49.7182 24.4689C49.7182 29.2308 49.7182 33.9921 49.7182 38.7494C51.6342 38.8149 53.5503 38.9367 55.4755 39.1275C55.4755 34.2834 55.4755 29.4393 55.4755 24.5993C55.4755 19.7552 55.4755 14.9112 55.4755 10.0673ZM66.256 41.2171C68.767 41.7733 70.7855 41.6084 72.3199 40.6437C74.0594 39.4796 74.9341 37.529 74.9341 34.8176C74.9341 31.7812 74.9341 28.74 74.9341 25.7075C74.9341 22.6704 74.9341 19.6294 74.9341 16.5923C74.9341 13.8816 74.0594 11.8137 72.3199 10.4233C70.7854 9.2764 68.767 8.84154 66.256 9.06792C63.7443 9.2673 61.7258 10.0061 60.1914 11.2662C58.4519 12.691 57.5779 14.5462 57.5779 16.8704C57.5779 19.4731 57.5779 22.0752 57.5779 24.6733C57.5779 27.2715 57.5779 29.8781 57.5779 32.4758C57.5779 34.7958 58.4519 36.7469 60.1914 38.3413C61.7258 39.7398 63.7443 40.7177 66.256 41.2169V41.2171ZM66.256 14.0122C67.2695 13.9645 67.9763 14.1247 68.3949 14.4683C68.9251 14.8504 69.1856 15.6064 69.1856 16.7494C69.1856 19.6123 69.1856 22.4793 69.1856 25.3383C69.1856 28.2012 69.1856 31.0689 69.1856 33.9272C69.1856 35.07 68.9251 35.7957 68.3949 36.0996C67.9763 36.3904 67.2697 36.4426 66.256 36.2818C65.2788 36.1341 64.5629 35.8433 64.1165 35.4216C63.5863 34.931 63.3257 34.1616 63.3257 33.1102C63.3257 30.3993 63.3257 27.6841 63.3257 24.9734C63.3257 22.262 63.3257 19.5468 63.3257 16.8361C63.3257 15.7799 63.5863 15.0457 64.1165 14.6201C64.5627 14.2551 65.2788 14.0512 66.256 14.0122ZM94.7089 47.9688C93.5923 47.678 92.4762 47.3822 91.3602 47.0869C89.8906 43.2944 88.4393 39.5988 86.9603 36.0256C85.5196 32.5439 84.04 29.1747 82.5796 25.8947C82.5796 29.0484 82.5796 32.1987 82.5796 35.3483C82.5796 38.4934 82.5796 41.643 82.5796 44.7887C80.6636 44.2935 78.7475 43.7982 76.8316 43.3248C76.8316 37.4942 76.8316 31.655 76.8316 25.8251C76.8316 19.9899 76.8316 14.1553 76.8316 8.3208C77.9476 8.17313 79.0637 8.02546 80.1796 7.87324C81.6401 10.7752 83.1203 13.7658 84.561 16.8582C86.0406 20.0343 87.4905 23.3271 88.9603 26.7158C88.9603 23.3489 88.9603 19.9815 88.9603 16.6193C88.9603 13.2519 88.9603 9.88496 88.9603 6.52212C90.8763 6.18369 92.7924 5.84021 94.7089 5.49251C94.7089 12.5744 94.7089 19.6557 94.7089 26.733C94.7089 33.8103 94.7089 40.8917 94.7089 47.9691V47.9688Z" fill="white"/>
<path fill-rule="evenodd" clip-rule="evenodd" d="M48.2041 41.2969C66.4833 41.2969 82.9507 45.1216 94.5079 51.2356L94.3874 53.2378C83.1678 47.0372 66.638 43.1172 48.204 43.1172C33.6034 43.1172 20.1994 45.5774 9.67972 49.6807L9.32031 47.8834C20.052 43.7558 33.5455 41.2969 48.204 41.2969H48.2041Z" fill="white" stroke="white" stroke-width="0.288" stroke-miterlimit="2.61313"/>
<path fill-rule="evenodd" clip-rule="evenodd" d="M42.8259 7.97061C54.4412 8.28253 67.9999 7.34058 79.1033 5.69559C84.5712 4.88553 89.761 3.93139 94.6035 2.83982L94.5937 1C89.8441 2.08701 84.7283 3.03417 79.3194 3.83398C68.2288 5.47376 54.5255 6.39847 42.8742 6.09517C31.2228 5.79186 22.7014 4.76438 13.5709 3.34999C9.20545 2.6741 5.0036 1.91495 1 1.07383L1.29582 2.94683C5.15843 3.74729 9.19179 4.47587 13.3668 5.1324C22.5815 6.58127 31.2108 7.65852 42.8259 7.97044V7.97061Z" fill="white" stroke="white" stroke-width="0.288" stroke-miterlimit="2.61313"/>
</svg>
