<svg width="20" height="18" viewBox="0 0 20 18" fill="none" xmlns="http://www.w3.org/2000/svg">
<path fill-rule="evenodd" clip-rule="evenodd" d="M9.80523 18C4.47193 18 0.148438 13.9706 0.148438 9C0.148438 4.02944 4.47193 0 9.80523 0C15.1385 0 19.462 4.02944 19.462 9C19.462 13.9706 15.1385 18 9.80523 18ZM8.31957 5.19815V9.68646C8.31957 10.0682 8.65526 10.3846 9.06936 10.3846H10.5411C10.9616 10.3846 11.2909 10.072 11.2909 9.68646V5.19815C11.2909 4.81638 10.9552 4.5 10.5411 4.5H9.06936C8.64891 4.5 8.31957 4.81257 8.31957 5.19815ZM8.31957 12.1219V13.4935C8.31957 13.8854 8.65526 14.1923 9.06936 14.1923H10.5411C10.9616 14.1923 11.2909 13.8794 11.2909 13.4935V12.1219C11.2909 11.73 10.9552 11.4231 10.5411 11.4231H9.06936C8.64891 11.4231 8.31957 11.7359 8.31957 12.1219Z" fill="black"/>
</svg>
