<svg width="189" height="35" viewBox="0 0 189 35" fill="none" xmlns="http://www.w3.org/2000/svg">
<path d="M65.6768 31.4075C67.1967 31.4075 68.4701 30.3806 68.8398 29.0249L75.1657 6.80204C75.2069 6.59671 75.2478 6.30927 75.2478 6.06259C75.2478 4.66597 74.1388 3.51583 72.7011 3.51583C71.5098 3.51583 70.524 4.33738 70.2364 5.44637L65.3482 24.876L60.0903 5.28198C59.8027 4.25509 58.899 3.51562 57.7901 3.51562C56.6399 3.51562 55.7363 4.25509 55.4486 5.28198L50.1907 24.876L45.2614 5.44637C44.9738 4.33738 43.988 3.51583 42.7968 3.51583C41.4001 3.51583 40.25 4.66597 40.25 6.06259C40.25 6.30907 40.2911 6.59671 40.3323 6.80204L46.6992 29.0249C47.0689 30.3804 48.3423 31.4075 49.8622 31.4075C51.382 31.4075 52.6554 30.3806 53.0251 28.9428L57.7489 10.951L62.5138 28.9428C62.8836 30.3806 64.1569 31.4075 65.6768 31.4075Z" fill="white"/>
<path d="M79.2535 31.412C80.4446 31.412 81.4303 30.4263 81.4303 29.2352V13.2556C81.4303 12.0639 80.4445 11.0781 79.2946 11.0781C78.1029 11.0781 77.1172 12.0639 77.1172 13.2556V29.2352C77.1172 30.4263 78.1029 31.412 79.2535 31.412Z" fill="white"/>
<path d="M101.006 27.8337L94.4743 20.4397L100.513 14.4423C100.882 14.0726 101.088 13.5387 101.088 13.0868C101.088 12.0188 100.225 11.074 99.1572 11.074C98.6232 11.074 98.1303 11.2384 97.7605 11.6079L88.4772 20.9326V5.69286C88.4772 4.50157 87.4912 3.51562 86.3411 3.51562C85.1498 3.51562 84.1641 4.50157 84.1641 5.69286V29.2303C84.1641 30.4216 85.1498 31.4073 86.2999 31.4073C87.4912 31.4073 88.4772 30.4216 88.4772 29.2303V25.6976L91.3116 23.0276L97.7607 30.709C98.1716 31.202 98.7467 31.4073 99.4039 31.4073C100.595 31.4073 101.499 30.4625 101.499 29.2303C101.499 28.7785 101.334 28.2034 101.006 27.8337H101.006Z" fill="white"/>
<path d="M108.641 20.9783C108.641 27.2631 113.077 31.412 119.033 31.412C121.539 31.412 123.921 30.7958 125.893 29.4815C126.345 29.1529 126.673 28.6599 126.673 28.0437C126.673 27.0989 125.893 26.3185 124.948 26.3185C124.579 26.3185 124.25 26.4008 124.003 26.565C122.607 27.4277 120.923 27.8795 119.485 27.8795C115.747 27.8795 113.488 25.4149 113.159 22.4163H125.934C127.577 22.4163 128.481 21.6768 128.481 20.4034C128.481 15.1455 124.661 10.5859 118.705 10.5859C112.83 10.5859 108.641 15.2276 108.641 20.9785V20.9783ZM118.705 14.1182C122.607 14.1182 124.209 17.0347 124.291 19.3761H113.118C113.323 16.9526 115.008 14.1182 118.705 14.1182Z" fill="white"/>
<path d="M164.075 27.8378L155.49 5.98458C154.874 4.42357 153.354 3.27344 151.546 3.27344C149.739 3.27344 148.219 4.42357 147.603 5.98458L139.018 27.8378C138.936 28.0842 138.812 28.4128 138.812 28.7005C138.812 30.0559 139.922 31.1651 141.277 31.1651C142.304 31.1651 143.208 30.5079 143.536 29.6043L144.974 25.6609H158.119L159.557 29.6043C159.885 30.5079 160.789 31.1651 161.816 31.1651C163.172 31.1651 164.281 30.0561 164.281 28.7005C164.281 28.4128 164.158 28.0842 164.076 27.8378H164.075ZM146.494 21.4297L151.546 7.58654L156.599 21.4297H146.494Z" fill="white"/>
<path d="M174.369 10.7424C174 10.7424 173.712 10.8245 173.219 10.9889C171.946 11.3996 170.467 12.5908 169.399 13.9875V13.0017C169.399 11.8104 168.413 10.8245 167.222 10.8245C166.072 10.8245 165.086 11.8102 165.086 13.0017V28.9808C165.086 30.172 166.072 31.1578 167.263 31.1578C168.413 31.1578 169.399 30.172 169.399 28.9808V17.3969C170.262 16.0003 172.439 15.0143 173.917 14.809C175.396 14.6037 176.136 13.741 176.136 12.755C176.136 11.687 175.602 10.7422 174.369 10.7422V10.7424Z" fill="white"/>
<path d="M187.194 27.4648C186.865 27.4648 186.619 27.588 186.126 27.588C184.894 27.588 184.236 26.6023 184.236 25.2466V14.854H186.619C187.646 14.854 188.509 13.9913 188.509 12.9644C188.509 11.9375 187.646 11.0748 186.619 11.0748H184.236V7.58328C184.236 6.392 183.251 5.40625 182.1 5.40625C180.909 5.40625 179.923 6.392 179.923 7.58328V11.0748H178.28C177.253 11.0748 176.391 11.9375 176.391 12.9644C176.391 13.9913 177.253 14.854 178.28 14.854H179.923V26.3146C179.923 29.6008 181.69 31.4083 185.017 31.4083C186.208 31.4083 187.153 31.203 187.851 30.9154C188.55 30.6689 189.001 30.0938 189.001 29.2723C189.001 28.2454 188.303 27.4648 187.194 27.4648H187.194Z" fill="white"/>
<path d="M79.8525 8.26423C80.5158 7.70619 80.7008 6.74781 80.3043 5.99538L79.0644 3.33977C78.5137 2.29241 77.1247 2.04471 76.2402 2.78883C75.5491 3.37018 75.3639 4.32856 75.7608 5.08079L77.0283 7.71308C77.579 8.76044 78.9404 9.03166 79.8525 8.26423Z" fill="white"/>
<path d="M104.857 31.412C103.665 31.412 102.68 30.4263 102.68 29.2352V13.2556C102.68 12.0639 103.665 11.0781 104.815 11.0781C106.007 11.0781 106.993 12.0639 106.993 13.2556V29.2352C106.993 30.4263 106.007 31.412 104.857 31.412Z" fill="white"/>
<path d="M104.253 8.26423C103.589 7.70619 103.404 6.74781 103.801 5.99538L105.041 3.33977C105.591 2.29241 106.98 2.04471 107.865 2.78883C108.556 3.37018 108.741 4.32856 108.344 5.08079L107.077 7.71308C106.526 8.76044 105.165 9.03166 104.253 8.26423Z" fill="white"/>
<path fill-rule="evenodd" clip-rule="evenodd" d="M0 0H34.9265V34.9265H0V0ZM25.4546 20.7707L24.8217 21.2832L33.7557 33.031V31.6107L25.4546 20.7709V20.7707ZM32.5261 33.7557L26.3671 25.622C26.7626 26.2376 26.9919 26.9704 26.9919 27.7565C26.9919 29.9412 25.2209 31.7122 23.0361 31.7122C22.3222 31.7122 21.6523 31.5231 21.0742 31.1921V31.5961L20.3528 30.6626C20.5719 30.8649 20.8137 31.0429 21.0742 31.1921V31.5961L22.743 33.7557H23.6992C23.9195 31.7797 25.5953 30.2428 27.63 30.2428C29.6649 30.2428 31.3405 31.7795 31.5608 33.7557H32.5261ZM20.9416 33.7557L16.531 27.9963L15.8434 28.5529L19.8697 33.7557H20.9414H20.9416ZM18.0811 33.7557L14.7614 29.4292L14.0797 29.9809L16.9966 33.7557H18.0811ZM15.2203 33.7557L12.9995 30.8556L12.3122 31.412L14.1233 33.7557H15.2201H15.2203ZM12.3598 33.7557L11.2338 32.2853L9.41777 33.7557H12.3596H12.3598ZM7.77162 33.7557L24.6959 19.7801L10.4451 1.17101H9.28763L23.5711 19.654L22.7925 20.2962L22.7957 20.3005L16.3948 25.4984L15.677 24.6024V24.6022L1.17081 5.65966V7.11689L15.0705 25.1033L15.0756 25.099L15.7348 26.0147L15.7415 26.0292L6.2179 33.7561H7.77141L7.77162 33.7557ZM12.0547 1.17101L17.0959 7.69439L18.1332 6.88926C20.9262 4.72115 24.9853 5.23257 27.1534 8.02581H27.1536C29.3217 10.8191 28.8101 14.8782 26.0171 17.0461L24.9584 17.868L33.7561 29.2524V28.0324L26.5467 18.6363L26.1908 18.1757L26.6298 17.835C29.8569 15.33 30.4478 10.6403 27.943 7.41324C25.438 4.18602 20.7484 3.59534 17.5214 6.10014L17.1274 6.40581L12.9752 1.17061H12.0553L12.0547 1.17101ZM1.17101 1.17101H7.67797L7.85249 1.39865L1.17101 2.28203V1.17101ZM14.759 1.17101H16.3378L17.9913 3.25905L18.0945 3.19885C22.0532 1.43878 26.8763 2.52547 29.6448 6.09223C32.4423 9.69628 32.2662 14.7045 29.4973 18.1056L29.3319 18.3065L33.7557 23.867V25.7363L27.9494 18.2663C31.1633 15.2694 31.623 10.2215 28.8792 6.68615C26.143 3.16095 21.1593 2.34892 17.462 4.69398L14.7588 1.17081L14.759 1.17101ZM17.8526 1.17101H27.8367C29.0469 1.93176 30.1461 2.91061 31.07 4.10108C34.1957 8.12817 34.4868 13.4931 32.2538 17.7484L32.6536 17.492L32.2321 17.7622L33.7559 19.7175V21.9734L30.7613 18.1917C33.5078 14.4545 33.5813 9.18081 30.6053 5.34669C27.6851 1.58473 22.6942 0.323315 18.4443 1.91473L17.8526 1.17101ZM30.4824 1.17101H33.7557V5.38216C33.3602 4.59871 32.8851 3.84243 32.3278 3.12466C31.7673 2.40243 31.1479 1.75115 30.4824 1.17101ZM29.7357 33.7557H28.8486C28.6676 33.2578 28.1903 32.9023 27.63 32.9023C27.0697 32.9023 26.5923 33.2578 26.4113 33.7557H25.5243C25.7284 32.7799 26.5938 32.0473 27.63 32.0473C28.6664 32.0473 29.5315 32.7801 29.7357 33.7557ZM4.57236 33.7557H2.99939L12.8149 25.7921L12.8078 25.7771L12.1251 24.829L12.1198 24.8333L1.17081 10.665V9.27284L13.9812 26.0009L4.57236 33.7557ZM1.17101 33.568V32.8773L2.73081 31.6119L2.72371 31.5969L2.04101 30.6488L2.03574 30.6531L1.17081 29.534V28.669L3.47067 31.6725L1.17081 33.5682L1.17101 33.568ZM1.17101 26.3069V22.6678C1.64006 22.6076 2.08358 22.4651 2.48615 22.2555C1.73797 22.9976 1.27479 24.0263 1.27479 25.1633C1.27479 25.8269 1.4329 26.4539 1.71324 27.0083L1.17121 26.3069H1.17101ZM1.17101 20.8356V19.9107C1.57561 19.6796 1.84865 19.244 1.84865 18.7447C1.84865 18.2453 1.57561 17.8099 1.17101 17.5786V16.6538C2.11378 16.8823 2.81392 17.7318 2.81392 18.7447C2.81392 19.7576 2.11378 20.6072 1.17101 20.8356ZM1.17101 14.8216V12.9381L3.53615 16.0267C2.925 15.3807 2.09817 14.9408 1.17101 14.8216ZM1.17101 3.53554V3.47777L6.6527 2.75311L4.53081 7.88351L3.99284 7.18723L5.44216 3.68291L1.67006 4.18155L1.17081 3.53554H1.17101ZM2.65966 28.233L4.59892 30.7425L4.73067 30.9233L7.40695 28.7177C6.80716 29.0619 6.11189 29.2591 5.3706 29.2591C4.33094 29.2591 3.38189 28.8715 2.65966 28.2332V28.233ZM4.03824 16.6822C4.40594 17.2828 4.61817 17.9888 4.61817 18.7445C4.61817 19.8353 4.17648 20.8226 3.46256 21.5382C4.03236 21.2376 4.68162 21.0671 5.3706 21.0671C7.63277 21.0671 9.46641 22.9007 9.46641 25.1629C9.46641 26.1876 9.0902 27.1244 8.4681 27.8426L10.992 25.7625L4.03824 16.682V16.6822ZM5.3706 23.8208C6.11189 23.8208 6.7129 24.4218 6.7129 25.1631C6.7129 25.9044 6.11189 26.5054 5.3706 26.5054C4.62932 26.5054 4.02831 25.9044 4.02831 25.1631C4.02831 24.4218 4.62932 23.8208 5.3706 23.8208ZM5.3706 22.9354C6.60101 22.9354 7.59831 23.9327 7.59831 25.1631C7.59831 26.3935 6.60101 27.3908 5.3706 27.3908C4.1402 27.3908 3.1429 26.3935 3.1429 25.1631C3.1429 23.9327 4.1402 22.9354 5.3706 22.9354ZM25.5018 9.3077C26.9647 11.1922 26.6195 13.9311 24.7348 15.394L23.6795 16.2132L24.3042 17.0215L25.3613 16.201C27.69 14.3935 28.1163 11.0096 26.3088 8.68114C24.5013 6.35229 21.1174 5.92621 18.7889 7.73371L17.7499 8.54006L18.3744 9.34844L19.4151 8.54067C21.2998 7.07777 24.0387 7.42277 25.5016 9.3077H25.5018ZM23.1071 15.4725L24.1609 14.6546C25.6388 13.5073 25.9092 11.3595 24.7624 9.88175C23.6151 8.40364 21.4672 8.13304 19.9895 9.28033L18.9472 10.0893L19.5578 10.8795L20.6017 10.0693C21.6458 9.25885 23.1628 9.45 23.9734 10.4939L23.9736 10.4941C24.784 11.538 24.5927 13.0553 23.5488 13.8657L22.4967 14.6824L23.1075 15.4725H23.1071ZM20.0919 11.5709L21.962 13.9909L23.0126 13.1755C23.6769 12.66 23.7987 11.6943 23.2828 11.0299C22.7672 10.3654 21.8017 10.2438 21.1372 10.7597L20.0919 11.5711V11.5709ZM23.0363 26.4598C23.7521 26.4598 24.3326 27.0403 24.3326 27.7561C24.3326 28.472 23.7521 29.0523 23.0363 29.0523C22.3204 29.0523 21.7401 28.472 21.7401 27.7561C21.7401 27.0403 22.3204 26.4598 23.0363 26.4598ZM25.9999 25.1363L23.7434 22.1562L21.0602 24.3288C21.6417 23.9927 22.3165 23.8003 23.0365 23.8003C24.2163 23.8003 25.2752 24.3168 26.0001 25.1361L25.9999 25.1363ZM20.0988 25.1073L17.6147 27.1186L19.5446 29.6161C19.2486 29.0617 19.0806 28.4284 19.0806 27.7561C19.0806 26.7373 19.4659 25.8083 20.0986 25.1071L20.0988 25.1073ZM23.0365 25.6048C24.2248 25.6048 25.188 26.568 25.188 27.7563C25.188 28.9445 24.2248 29.9078 23.0365 29.9078C21.8483 29.9078 20.8851 28.9445 20.8851 27.7563C20.8851 26.568 21.8483 25.6048 23.0365 25.6048ZM20.4922 20.6329L21.225 18.8605L20.6888 18.1603L19.2389 21.6659L20.4922 20.6329ZM21.6456 19.4096L21.4747 19.8231L21.7735 19.5766L21.6456 19.4096ZM9.29513 6.60223L10.1868 4.44649L9.65047 3.74615L8.08479 7.53223L12.1393 6.99608L11.6039 6.29716L9.29513 6.60243V6.60223ZM10.607 4.99541L10.244 5.87311L11.1841 5.74905L10.607 4.99541ZM6.20391 8.97669L8.81716 2.65804L8.27047 1.94412L5.36675 8.96493L5.84716 9.58662L13.362 8.59297L12.9705 8.08196L6.20371 8.97648L6.20391 8.97669ZM14.8202 13.7949L15.7058 11.6536L15.1695 10.953L13.6097 14.7247L17.6489 14.1906L17.1136 13.4917L14.8204 13.7949H14.8202ZM16.1264 12.2027L15.7692 13.066L16.694 12.9436L16.1264 12.2025V12.2027ZM11.7292 16.1694L14.3365 9.86554L13.7897 9.15162L10.9034 16.1299L11.4024 16.7755L18.8718 15.7881L18.4804 15.2771L11.729 16.1696L11.7292 16.1694ZM17.292 23.2711L19.8557 17.0726L19.3088 16.3585L16.4402 23.2944L16.7607 23.7089L17.2917 23.2711H17.292ZM3.57121 6.64135L4.4931 4.41203L2.09351 4.72926L3.57121 6.64135ZM10.0678 15.048L12.1782 9.94581L6.68614 10.6717L7.22574 11.37L10.9676 10.8756L9.52986 14.3517L10.0678 15.048ZM9.10804 13.8061L10.0186 11.6045L7.64898 11.9179L9.10804 13.8061ZM15.6045 22.2126L17.7032 17.1385L12.2412 17.8605L12.781 18.5588L16.4927 18.0683L15.0665 21.5165L15.6045 22.2126ZM14.6447 20.9708L15.5436 18.7974L13.204 19.1067L14.6445 20.9708H14.6447Z" fill="white"/>
</svg>
